<svg width="909" height="148" viewBox="0 0 909 148" fill="none" xmlns="http://www.w3.org/2000/svg">
<path d="M32.9986 33.275L25.5436 13.78C25.007 12.45 24.4703 10.77 23.9336 8.74C23.677 9.74333 23.4086 10.6767 23.1286 11.54C22.872 12.4033 22.6153 13.1733 22.3586 13.85L14.9386 33.275H32.9986ZM47.7336 52H41.9936C41.3403 52 40.8036 51.8367 40.3836 51.51C39.9636 51.1833 39.6603 50.7633 39.4736 50.25L35.0286 38.595H12.8736L8.42863 50.25C8.2653 50.6933 7.96197 51.1017 7.51863 51.475C7.0753 51.825 6.53863 52 5.90863 52H0.168633L20.1886 1.74H27.7136L47.7336 52ZM80.6757 16.44L66.2557 52H60.0957L45.6757 16.44H51.3107C51.8474 16.44 52.2907 16.5683 52.6407 16.825C52.9907 17.0817 53.2241 17.4083 53.3407 17.805L61.8457 39.645C62.1491 40.555 62.4057 41.465 62.6157 42.375C62.8491 43.2617 63.0591 44.1483 63.2457 45.035C63.4324 44.1483 63.6424 43.2617 63.8757 42.375C64.1091 41.4883 64.3891 40.5783 64.7157 39.645L73.3257 17.805C73.4657 17.4083 73.7107 17.0817 74.0607 16.825C74.4107 16.5683 74.8307 16.44 75.3207 16.44H80.6757ZM104.394 36.215C101.618 36.3083 99.2609 36.53 97.3243 36.88C95.3876 37.2067 93.8126 37.65 92.5993 38.21C91.3859 38.77 90.5109 39.435 89.9743 40.205C89.4376 40.9517 89.1693 41.7917 89.1693 42.725C89.1693 43.6117 89.3093 44.3817 89.5893 45.035C89.8926 45.665 90.2893 46.19 90.7793 46.61C91.2926 47.0067 91.8876 47.2983 92.5643 47.485C93.2409 47.6717 93.9759 47.765 94.7693 47.765C95.8193 47.765 96.7759 47.66 97.6393 47.45C98.5259 47.24 99.3543 46.9483 100.124 46.575C100.894 46.1783 101.629 45.7 102.329 45.14C103.029 44.58 103.718 43.9383 104.394 43.215V36.215ZM84.3743 21.41C86.3576 19.52 88.5043 18.1083 90.8143 17.175C93.1476 16.2417 95.7026 15.775 98.4793 15.775C100.509 15.775 102.306 16.1133 103.869 16.79C105.433 17.4433 106.751 18.365 107.824 19.555C108.898 20.745 109.703 22.1683 110.239 23.825C110.799 25.4817 111.079 27.3133 111.079 29.32V52H108.034C107.358 52 106.844 51.895 106.494 51.685C106.144 51.4517 105.864 51.0317 105.654 50.425L104.919 47.31C104.009 48.15 103.111 48.8967 102.224 49.55C101.338 50.18 100.404 50.7283 99.4243 51.195C98.4676 51.6383 97.4409 51.9767 96.3443 52.21C95.2476 52.4433 94.0343 52.56 92.7043 52.56C91.3043 52.56 89.9859 52.3733 88.7493 52C87.5359 51.6033 86.4743 51.0083 85.5643 50.215C84.6543 49.4217 83.9309 48.43 83.3943 47.24C82.8809 46.05 82.6243 44.6617 82.6243 43.075C82.6243 41.675 82.9976 40.3333 83.7443 39.05C84.5143 37.7433 85.7509 36.5767 87.4543 35.55C89.1809 34.5233 91.4209 33.6833 94.1743 33.03C96.9509 32.3767 100.358 32.0033 104.394 31.91V29.32C104.394 26.6367 103.823 24.63 102.679 23.3C101.536 21.97 99.8559 21.305 97.6393 21.305C96.1459 21.305 94.8859 21.4917 93.8593 21.865C92.8559 22.2383 91.9809 22.6583 91.2343 23.125C90.5109 23.5683 89.8693 23.9767 89.3093 24.35C88.7726 24.7233 88.2126 24.91 87.6293 24.91C87.1626 24.91 86.7543 24.7817 86.4043 24.525C86.0776 24.2683 85.8093 23.965 85.5993 23.615L84.3743 21.41ZM127.216 0.339998V52H120.356V0.339998H127.216ZM144.104 16.44V52H137.279V16.44H144.104ZM145.399 5.45C145.399 6.08 145.271 6.68666 145.014 7.27C144.757 7.83 144.407 8.33166 143.964 8.775C143.544 9.195 143.042 9.53333 142.459 9.79C141.876 10.0233 141.269 10.14 140.639 10.14C140.009 10.14 139.414 10.0233 138.854 9.79C138.294 9.53333 137.792 9.195 137.349 8.775C136.929 8.33166 136.591 7.83 136.334 7.27C136.101 6.68666 135.984 6.08 135.984 5.45C135.984 4.79667 136.101 4.19 136.334 3.63C136.591 3.04666 136.929 2.545 137.349 2.125C137.792 1.68166 138.294 1.34333 138.854 1.11C139.414 0.853331 140.009 0.724999 140.639 0.724999C141.269 0.724999 141.876 0.853331 142.459 1.11C143.042 1.34333 143.544 1.68166 143.964 2.125C144.407 2.545 144.757 3.04666 145.014 3.63C145.271 4.19 145.399 4.79667 145.399 5.45ZM173.095 36.215C170.319 36.3083 167.962 36.53 166.025 36.88C164.089 37.2067 162.514 37.65 161.3 38.21C160.087 38.77 159.212 39.435 158.675 40.205C158.139 40.9517 157.87 41.7917 157.87 42.725C157.87 43.6117 158.01 44.3817 158.29 45.035C158.594 45.665 158.99 46.19 159.48 46.61C159.994 47.0067 160.589 47.2983 161.265 47.485C161.942 47.6717 162.677 47.765 163.47 47.765C164.52 47.765 165.477 47.66 166.34 47.45C167.227 47.24 168.055 46.9483 168.825 46.575C169.595 46.1783 170.33 45.7 171.03 45.14C171.73 44.58 172.419 43.9383 173.095 43.215V36.215ZM153.075 21.41C155.059 19.52 157.205 18.1083 159.515 17.175C161.849 16.2417 164.404 15.775 167.18 15.775C169.21 15.775 171.007 16.1133 172.57 16.79C174.134 17.4433 175.452 18.365 176.525 19.555C177.599 20.745 178.404 22.1683 178.94 23.825C179.5 25.4817 179.78 27.3133 179.78 29.32V52H176.735C176.059 52 175.545 51.895 175.195 51.685C174.845 51.4517 174.565 51.0317 174.355 50.425L173.62 47.31C172.71 48.15 171.812 48.8967 170.925 49.55C170.039 50.18 169.105 50.7283 168.125 51.195C167.169 51.6383 166.142 51.9767 165.045 52.21C163.949 52.4433 162.735 52.56 161.405 52.56C160.005 52.56 158.687 52.3733 157.45 52C156.237 51.6033 155.175 51.0083 154.265 50.215C153.355 49.4217 152.632 48.43 152.095 47.24C151.582 46.05 151.325 44.6617 151.325 43.075C151.325 41.675 151.699 40.3333 152.445 39.05C153.215 37.7433 154.452 36.5767 156.155 35.55C157.882 34.5233 160.122 33.6833 162.875 33.03C165.652 32.3767 169.059 32.0033 173.095 31.91V29.32C173.095 26.6367 172.524 24.63 171.38 23.3C170.237 21.97 168.557 21.305 166.34 21.305C164.847 21.305 163.587 21.4917 162.56 21.865C161.557 22.2383 160.682 22.6583 159.935 23.125C159.212 23.5683 158.57 23.9767 158.01 24.35C157.474 24.7233 156.914 24.91 156.33 24.91C155.864 24.91 155.455 24.7817 155.105 24.525C154.779 24.2683 154.51 23.965 154.3 23.615L153.075 21.41ZM216.042 46.925C214.642 48.6517 212.962 49.9467 211.002 50.81C209.065 51.6733 207.012 52.1983 204.842 52.385L204.247 54.485C206.417 54.9517 207.969 55.5933 208.902 56.41C209.835 57.25 210.302 58.3 210.302 59.56C210.302 60.33 210.104 61.0183 209.707 61.625C209.334 62.2317 208.809 62.745 208.132 63.165C207.455 63.585 206.627 63.9117 205.647 64.145C204.69 64.3783 203.64 64.495 202.497 64.495C201.54 64.495 200.63 64.4017 199.767 64.215C198.927 64.0517 198.134 63.8067 197.387 63.48L198.017 61.345C198.157 60.9017 198.449 60.68 198.892 60.68C199.032 60.68 199.184 60.715 199.347 60.785C199.534 60.8783 199.755 60.96 200.012 61.03C200.269 61.1233 200.56 61.205 200.887 61.275C201.237 61.3683 201.645 61.415 202.112 61.415C203.045 61.415 203.745 61.2283 204.212 60.855C204.679 60.4817 204.912 60.015 204.912 59.455C204.912 58.615 204.434 58.02 203.477 57.67C202.544 57.3433 201.19 57.0633 199.417 56.83L200.887 52.385C198.88 52.175 197.025 51.615 195.322 50.705C193.619 49.795 192.137 48.57 190.877 47.03C189.64 45.4667 188.66 43.6117 187.937 41.465C187.237 39.3183 186.887 36.8917 186.887 34.185C186.887 31.5483 187.249 29.11 187.972 26.87C188.719 24.63 189.804 22.705 191.227 21.095C192.674 19.4617 194.447 18.19 196.547 17.28C198.647 16.3467 201.05 15.88 203.757 15.88C206.3 15.88 208.54 16.2883 210.477 17.105C212.414 17.9217 214.14 19.0767 215.657 20.57L213.837 23.09C213.627 23.3467 213.417 23.5567 213.207 23.72C213.02 23.86 212.74 23.93 212.367 23.93C211.994 23.93 211.597 23.79 211.177 23.51C210.78 23.2067 210.267 22.8917 209.637 22.565C209.03 22.215 208.284 21.9 207.397 21.62C206.534 21.3167 205.46 21.165 204.177 21.165C202.497 21.165 201.015 21.4683 199.732 22.075C198.449 22.6817 197.375 23.545 196.512 24.665C195.672 25.785 195.03 27.15 194.587 28.76C194.144 30.37 193.922 32.1783 193.922 34.185C193.922 36.2617 194.155 38.1167 194.622 39.75C195.089 41.36 195.754 42.725 196.617 43.845C197.48 44.9417 198.53 45.7817 199.767 46.365C201.004 46.925 202.38 47.205 203.897 47.205C205.367 47.205 206.58 47.03 207.537 46.68C208.494 46.3067 209.287 45.91 209.917 45.49C210.547 45.07 211.072 44.685 211.492 44.335C211.912 43.9617 212.344 43.775 212.787 43.775C213.347 43.775 213.779 43.985 214.082 44.405L216.042 46.925ZM236.953 15.88C239.566 15.88 241.923 16.3117 244.023 17.175C246.146 18.015 247.943 19.24 249.413 20.85C250.906 22.4367 252.05 24.3617 252.843 26.625C253.636 28.865 254.033 31.385 254.033 34.185C254.033 36.985 253.636 39.5167 252.843 41.78C252.05 44.0433 250.906 45.9683 249.413 47.555C247.943 49.1417 246.146 50.3667 244.023 51.23C241.923 52.07 239.566 52.49 236.953 52.49C234.316 52.49 231.936 52.07 229.813 51.23C227.713 50.3667 225.916 49.1417 224.423 47.555C222.93 45.9683 221.775 44.0433 220.958 41.78C220.165 39.5167 219.768 36.985 219.768 34.185C219.768 31.385 220.165 28.865 220.958 26.625C221.775 24.3617 222.93 22.4367 224.423 20.85C225.916 19.24 227.713 18.015 229.813 17.175C231.936 16.3117 234.316 15.88 236.953 15.88ZM236.953 47.17C240.313 47.17 242.821 46.0383 244.478 43.775C246.135 41.5117 246.963 38.3267 246.963 34.22C246.963 30.1133 246.135 26.9283 244.478 24.665C242.821 22.3783 240.313 21.235 236.953 21.235C233.546 21.235 231.003 22.3783 229.323 24.665C227.666 26.9283 226.838 30.1133 226.838 34.22C226.838 38.3267 227.666 41.5117 229.323 43.775C231.003 46.0383 233.546 47.17 236.953 47.17ZM240.838 5.31C241.631 5.31 242.238 5.07666 242.658 4.61C243.101 4.14333 243.335 3.39666 243.358 2.37H247.523C247.523 3.53666 247.36 4.59833 247.033 5.555C246.73 6.51167 246.298 7.34 245.738 8.04C245.178 8.71666 244.501 9.24166 243.708 9.615C242.915 9.98833 242.04 10.175 241.083 10.175C240.266 10.175 239.496 10.0117 238.773 9.685C238.073 9.35833 237.408 8.99667 236.778 8.6C236.148 8.20333 235.541 7.84166 234.958 7.515C234.398 7.18833 233.861 7.025 233.348 7.025C232.578 7.025 231.971 7.27 231.528 7.76C231.108 8.25 230.886 8.99667 230.863 10H226.628C226.628 8.85666 226.78 7.80666 227.083 6.85C227.41 5.87 227.865 5.04167 228.448 4.365C229.031 3.68833 229.708 3.16333 230.478 2.79C231.271 2.39333 232.146 2.195 233.103 2.195C233.943 2.195 234.713 2.35833 235.413 2.685C236.136 3.01166 236.813 3.37333 237.443 3.77C238.073 4.14333 238.668 4.49333 239.228 4.82C239.788 5.14666 240.325 5.31 240.838 5.31ZM285.206 30.265C285.206 28.9117 285.008 27.6633 284.611 26.52C284.238 25.3767 283.678 24.385 282.931 23.545C282.185 22.705 281.275 22.0517 280.201 21.585C279.128 21.1183 277.891 20.885 276.491 20.885C273.621 20.885 271.358 21.7133 269.701 23.37C268.068 25.0267 267.03 27.325 266.586 30.265H285.206ZM290.841 46.925C290.001 47.905 289.033 48.7567 287.936 49.48C286.84 50.18 285.673 50.7517 284.436 51.195C283.2 51.6383 281.916 51.965 280.586 52.175C279.28 52.385 277.985 52.49 276.701 52.49C274.251 52.49 271.976 52.0817 269.876 51.265C267.8 50.425 265.991 49.2117 264.451 47.625C262.935 46.015 261.745 44.0317 260.881 41.675C260.041 39.295 259.621 36.565 259.621 33.485C259.621 31.0117 260.006 28.7133 260.776 26.59C261.546 24.4433 262.643 22.5767 264.066 20.99C265.513 19.4033 267.275 18.155 269.351 17.245C271.428 16.335 273.761 15.88 276.351 15.88C278.521 15.88 280.516 16.2417 282.336 16.965C284.18 17.665 285.766 18.6917 287.096 20.045C288.426 21.3983 289.465 23.0667 290.211 25.05C290.981 27.0333 291.366 29.2967 291.366 31.84C291.366 32.89 291.25 33.6017 291.016 33.975C290.783 34.325 290.351 34.5 289.721 34.5H266.411C266.481 36.6233 266.785 38.4783 267.321 40.065C267.858 41.6283 268.593 42.935 269.526 43.985C270.483 45.035 271.615 45.8167 272.921 46.33C274.228 46.8433 275.686 47.1 277.296 47.1C278.813 47.1 280.12 46.925 281.216 46.575C282.336 46.225 283.293 45.8517 284.086 45.455C284.903 45.035 285.58 44.65 286.116 44.3C286.676 43.95 287.166 43.775 287.586 43.775C288.146 43.775 288.578 43.985 288.881 44.405L290.841 46.925ZM319.667 22.565C319.481 22.8683 319.282 23.09 319.072 23.23C318.862 23.3467 318.594 23.405 318.267 23.405C317.894 23.405 317.474 23.2767 317.007 23.02C316.564 22.7633 316.016 22.4833 315.362 22.18C314.732 21.8767 313.986 21.5967 313.122 21.34C312.259 21.0833 311.232 20.955 310.042 20.955C309.062 20.955 308.164 21.0833 307.347 21.34C306.554 21.5733 305.877 21.9117 305.317 22.355C304.757 22.775 304.326 23.2883 304.022 23.895C303.719 24.4783 303.567 25.1083 303.567 25.785C303.567 26.6717 303.824 27.4067 304.337 27.99C304.874 28.5733 305.562 29.075 306.402 29.495C307.266 29.915 308.234 30.3 309.307 30.65C310.404 30.9767 311.512 31.3267 312.632 31.7C313.776 32.0733 314.884 32.505 315.957 32.995C317.054 33.4617 318.022 34.0567 318.862 34.78C319.726 35.48 320.414 36.3317 320.927 37.335C321.464 38.3383 321.732 39.5633 321.732 41.01C321.732 42.6667 321.429 44.2067 320.822 45.63C320.239 47.03 319.364 48.2433 318.197 49.27C317.054 50.2967 315.631 51.1017 313.927 51.685C312.224 52.2683 310.276 52.56 308.082 52.56C305.632 52.56 303.369 52.1517 301.292 51.335C299.216 50.5183 297.477 49.48 296.077 48.22L297.687 45.595C297.874 45.2683 298.107 45.0233 298.387 44.86C298.667 44.6733 299.041 44.58 299.507 44.58C299.951 44.58 300.406 44.7433 300.872 45.07C301.339 45.3967 301.899 45.7583 302.552 46.155C303.206 46.5283 303.999 46.8783 304.932 47.205C305.866 47.5083 307.032 47.66 308.432 47.66C309.599 47.66 310.614 47.52 311.477 47.24C312.341 46.9367 313.052 46.54 313.612 46.05C314.196 45.5367 314.627 44.9533 314.907 44.3C315.187 43.6467 315.327 42.9583 315.327 42.235C315.327 41.3017 315.059 40.5317 314.522 39.925C314.009 39.295 313.321 38.7583 312.457 38.315C311.617 37.8717 310.649 37.4867 309.552 37.16C308.456 36.8333 307.336 36.4833 306.192 36.11C305.049 35.7367 303.929 35.305 302.832 34.815C301.736 34.325 300.756 33.7067 299.892 32.96C299.052 32.2133 298.364 31.3033 297.827 30.23C297.314 29.1567 297.057 27.85 297.057 26.31C297.057 24.9333 297.337 23.615 297.897 22.355C298.481 21.095 299.309 19.9867 300.382 19.03C301.479 18.0733 302.821 17.315 304.407 16.755C306.017 16.1717 307.849 15.88 309.902 15.88C312.259 15.88 314.382 16.2533 316.272 17C318.186 17.7467 319.819 18.7733 321.172 20.08L319.667 22.565ZM379.412 45.945L379.377 52H348.227V1.74H379.377V7.795H355.717V23.72H374.757V29.565H355.717V45.945H379.412ZM407.646 22.565C407.459 22.8683 407.261 23.09 407.051 23.23C406.841 23.3467 406.572 23.405 406.246 23.405C405.872 23.405 405.452 23.2767 404.986 23.02C404.542 22.7633 403.994 22.4833 403.341 22.18C402.711 21.8767 401.964 21.5967 401.101 21.34C400.237 21.0833 399.211 20.955 398.021 20.955C397.041 20.955 396.142 21.0833 395.326 21.34C394.532 21.5733 393.856 21.9117 393.296 22.355C392.736 22.775 392.304 23.2883 392.001 23.895C391.697 24.4783 391.546 25.1083 391.546 25.785C391.546 26.6717 391.802 27.4067 392.316 27.99C392.852 28.5733 393.541 29.075 394.381 29.495C395.244 29.915 396.212 30.3 397.286 30.65C398.382 30.9767 399.491 31.3267 400.611 31.7C401.754 32.0733 402.862 32.505 403.936 32.995C405.032 33.4617 406.001 34.0567 406.841 34.78C407.704 35.48 408.392 36.3317 408.906 37.335C409.442 38.3383 409.711 39.5633 409.711 41.01C409.711 42.6667 409.407 44.2067 408.801 45.63C408.217 47.03 407.342 48.2433 406.176 49.27C405.032 50.2967 403.609 51.1017 401.906 51.685C400.202 52.2683 398.254 52.56 396.061 52.56C393.611 52.56 391.347 52.1517 389.271 51.335C387.194 50.5183 385.456 49.48 384.056 48.22L385.666 45.595C385.852 45.2683 386.086 45.0233 386.366 44.86C386.646 44.6733 387.019 44.58 387.486 44.58C387.929 44.58 388.384 44.7433 388.851 45.07C389.317 45.3967 389.877 45.7583 390.531 46.155C391.184 46.5283 391.977 46.8783 392.911 47.205C393.844 47.5083 395.011 47.66 396.411 47.66C397.577 47.66 398.592 47.52 399.456 47.24C400.319 46.9367 401.031 46.54 401.591 46.05C402.174 45.5367 402.606 44.9533 402.886 44.3C403.166 43.6467 403.306 42.9583 403.306 42.235C403.306 41.3017 403.037 40.5317 402.501 39.925C401.987 39.295 401.299 38.7583 400.436 38.315C399.596 37.8717 398.627 37.4867 397.531 37.16C396.434 36.8333 395.314 36.4833 394.171 36.11C393.027 35.7367 391.907 35.305 390.811 34.815C389.714 34.325 388.734 33.7067 387.871 32.96C387.031 32.2133 386.342 31.3033 385.806 30.23C385.292 29.1567 385.036 27.85 385.036 26.31C385.036 24.9333 385.316 23.615 385.876 22.355C386.459 21.095 387.287 19.9867 388.361 19.03C389.457 18.0733 390.799 17.315 392.386 16.755C393.996 16.1717 395.827 15.88 397.881 15.88C400.237 15.88 402.361 16.2533 404.251 17C406.164 17.7467 407.797 18.7733 409.151 20.08L407.646 22.565ZM428.231 52.56C425.361 52.56 423.144 51.755 421.581 50.145C420.041 48.535 419.271 46.2367 419.271 43.25V21.97H415.141C414.744 21.97 414.406 21.8533 414.126 21.62C413.869 21.3633 413.741 20.99 413.741 20.5V17.735L419.516 16.93L421.056 6.325C421.149 5.92833 421.324 5.625 421.581 5.415C421.861 5.18166 422.211 5.065 422.631 5.065H426.096V17H436.176V21.97H426.096V42.795C426.096 44.195 426.434 45.245 427.111 45.945C427.811 46.6217 428.697 46.96 429.771 46.96C430.401 46.96 430.937 46.8783 431.381 46.715C431.847 46.5517 432.244 46.3767 432.571 46.19C432.897 45.98 433.177 45.7933 433.411 45.63C433.644 45.4667 433.854 45.385 434.041 45.385C434.274 45.385 434.449 45.4433 434.566 45.56C434.706 45.6533 434.846 45.8167 434.986 46.05L437.016 49.34C435.896 50.3667 434.566 51.16 433.026 51.72C431.486 52.28 429.887 52.56 428.231 52.56ZM461.572 36.215C458.795 36.3083 456.439 36.53 454.502 36.88C452.565 37.2067 450.99 37.65 449.777 38.21C448.564 38.77 447.689 39.435 447.152 40.205C446.615 40.9517 446.347 41.7917 446.347 42.725C446.347 43.6117 446.487 44.3817 446.767 45.035C447.07 45.665 447.467 46.19 447.957 46.61C448.47 47.0067 449.065 47.2983 449.742 47.485C450.419 47.6717 451.154 47.765 451.947 47.765C452.997 47.765 453.954 47.66 454.817 47.45C455.704 47.24 456.532 46.9483 457.302 46.575C458.072 46.1783 458.807 45.7 459.507 45.14C460.207 44.58 460.895 43.9383 461.572 43.215V36.215ZM441.552 21.41C443.535 19.52 445.682 18.1083 447.992 17.175C450.325 16.2417 452.88 15.775 455.657 15.775C457.687 15.775 459.484 16.1133 461.047 16.79C462.61 17.4433 463.929 18.365 465.002 19.555C466.075 20.745 466.88 22.1683 467.417 23.825C467.977 25.4817 468.257 27.3133 468.257 29.32V52H465.212C464.535 52 464.022 51.895 463.672 51.685C463.322 51.4517 463.042 51.0317 462.832 50.425L462.097 47.31C461.187 48.15 460.289 48.8967 459.402 49.55C458.515 50.18 457.582 50.7283 456.602 51.195C455.645 51.6383 454.619 51.9767 453.522 52.21C452.425 52.4433 451.212 52.56 449.882 52.56C448.482 52.56 447.164 52.3733 445.927 52C444.714 51.6033 443.652 51.0083 442.742 50.215C441.832 49.4217 441.109 48.43 440.572 47.24C440.059 46.05 439.802 44.6617 439.802 43.075C439.802 41.675 440.175 40.3333 440.922 39.05C441.692 37.7433 442.929 36.5767 444.632 35.55C446.359 34.5233 448.599 33.6833 451.352 33.03C454.129 32.3767 457.535 32.0033 461.572 31.91V29.32C461.572 26.6367 461 24.63 459.857 23.3C458.714 21.97 457.034 21.305 454.817 21.305C453.324 21.305 452.064 21.4917 451.037 21.865C450.034 22.2383 449.159 22.6583 448.412 23.125C447.689 23.5683 447.047 23.9767 446.487 24.35C445.95 24.7233 445.39 24.91 444.807 24.91C444.34 24.91 443.932 24.7817 443.582 24.525C443.255 24.2683 442.987 23.965 442.777 23.615L441.552 21.41ZM500.319 25.05C499.199 23.58 497.985 22.5533 496.679 21.97C495.395 21.3867 493.949 21.095 492.339 21.095C489.212 21.095 486.785 22.2267 485.059 24.49C483.355 26.73 482.504 30.0083 482.504 34.325C482.504 36.5883 482.69 38.525 483.064 40.135C483.46 41.7217 484.02 43.0283 484.744 44.055C485.49 45.0583 486.4 45.805 487.474 46.295C488.547 46.7617 489.76 46.995 491.114 46.995C493.097 46.995 494.812 46.5517 496.259 45.665C497.705 44.7783 499.059 43.53 500.319 41.92V25.05ZM507.179 0.339998V52H503.049C502.092 52 501.497 51.545 501.264 50.635L500.669 46.54C499.152 48.3367 497.425 49.7833 495.489 50.88C493.575 51.9533 491.359 52.49 488.839 52.49C486.809 52.49 484.965 52.0933 483.309 51.3C481.675 50.5067 480.275 49.3517 479.109 47.835C477.942 46.295 477.044 44.3933 476.414 42.13C475.784 39.8667 475.469 37.265 475.469 34.325C475.469 31.6883 475.819 29.2383 476.519 26.975C477.219 24.7117 478.234 22.7517 479.564 21.095C480.894 19.4383 482.504 18.1433 484.394 17.21C486.284 16.2533 488.419 15.775 490.799 15.775C492.945 15.775 494.765 16.125 496.259 16.825C497.775 17.525 499.129 18.5167 500.319 19.8V0.339998H507.179ZM546.275 16.44V52H542.18C541.247 52 540.64 51.545 540.36 50.635L539.87 47.065C539.1 47.8817 538.295 48.6283 537.455 49.305C536.615 49.9817 535.717 50.565 534.76 51.055C533.804 51.5217 532.789 51.8833 531.715 52.14C530.642 52.42 529.487 52.56 528.25 52.56C526.29 52.56 524.564 52.2333 523.07 51.58C521.6 50.9267 520.364 50.0167 519.36 48.85C518.357 47.66 517.599 46.2367 517.085 44.58C516.572 42.9233 516.315 41.0917 516.315 39.085V16.44H523.175V39.085C523.175 41.6283 523.759 43.6117 524.925 45.035C526.092 46.435 527.877 47.135 530.28 47.135C532.03 47.135 533.664 46.7267 535.18 45.91C536.697 45.07 538.12 43.9267 539.45 42.48V16.44H546.275ZM574.912 36.215C572.135 36.3083 569.779 36.53 567.842 36.88C565.905 37.2067 564.33 37.65 563.117 38.21C561.904 38.77 561.029 39.435 560.492 40.205C559.955 40.9517 559.687 41.7917 559.687 42.725C559.687 43.6117 559.827 44.3817 560.107 45.035C560.41 45.665 560.807 46.19 561.297 46.61C561.81 47.0067 562.405 47.2983 563.082 47.485C563.759 47.6717 564.494 47.765 565.287 47.765C566.337 47.765 567.294 47.66 568.157 47.45C569.044 47.24 569.872 46.9483 570.642 46.575C571.412 46.1783 572.147 45.7 572.847 45.14C573.547 44.58 574.235 43.9383 574.912 43.215V36.215ZM554.892 21.41C556.875 19.52 559.022 18.1083 561.332 17.175C563.665 16.2417 566.22 15.775 568.997 15.775C571.027 15.775 572.824 16.1133 574.387 16.79C575.95 17.4433 577.269 18.365 578.342 19.555C579.415 20.745 580.22 22.1683 580.757 23.825C581.317 25.4817 581.597 27.3133 581.597 29.32V52H578.552C577.875 52 577.362 51.895 577.012 51.685C576.662 51.4517 576.382 51.0317 576.172 50.425L575.437 47.31C574.527 48.15 573.629 48.8967 572.742 49.55C571.855 50.18 570.922 50.7283 569.942 51.195C568.985 51.6383 567.959 51.9767 566.862 52.21C565.765 52.4433 564.552 52.56 563.222 52.56C561.822 52.56 560.504 52.3733 559.267 52C558.054 51.6033 556.992 51.0083 556.082 50.215C555.172 49.4217 554.449 48.43 553.912 47.24C553.399 46.05 553.142 44.6617 553.142 43.075C553.142 41.675 553.515 40.3333 554.262 39.05C555.032 37.7433 556.269 36.5767 557.972 35.55C559.699 34.5233 561.939 33.6833 564.692 33.03C567.469 32.3767 570.875 32.0033 574.912 31.91V29.32C574.912 26.6367 574.34 24.63 573.197 23.3C572.054 21.97 570.374 21.305 568.157 21.305C566.664 21.305 565.404 21.4917 564.377 21.865C563.374 22.2383 562.499 22.6583 561.752 23.125C561.029 23.5683 560.387 23.9767 559.827 24.35C559.29 24.7233 558.73 24.91 558.147 24.91C557.68 24.91 557.272 24.7817 556.922 24.525C556.595 24.2683 556.327 23.965 556.117 23.615L554.892 21.41ZM597.873 16.44V52H591.048V16.44H597.873ZM599.168 5.45C599.168 6.08 599.04 6.68666 598.783 7.27C598.527 7.83 598.177 8.33166 597.733 8.775C597.313 9.195 596.812 9.53333 596.228 9.79C595.645 10.0233 595.038 10.14 594.408 10.14C593.778 10.14 593.183 10.0233 592.623 9.79C592.063 9.53333 591.562 9.195 591.118 8.775C590.698 8.33166 590.36 7.83 590.103 7.27C589.87 6.68666 589.753 6.08 589.753 5.45C589.753 4.79667 589.87 4.19 590.103 3.63C590.36 3.04666 590.698 2.545 591.118 2.125C591.562 1.68166 592.063 1.34333 592.623 1.11C593.183 0.853331 593.778 0.724999 594.408 0.724999C595.038 0.724999 595.645 0.853331 596.228 1.11C596.812 1.34333 597.313 1.68166 597.733 2.125C598.177 2.545 598.527 3.04666 598.783 3.63C599.04 4.19 599.168 4.79667 599.168 5.45ZM628.72 22.565C628.533 22.8683 628.335 23.09 628.125 23.23C627.915 23.3467 627.647 23.405 627.32 23.405C626.947 23.405 626.527 23.2767 626.06 23.02C625.617 22.7633 625.068 22.4833 624.415 22.18C623.785 21.8767 623.038 21.5967 622.175 21.34C621.312 21.0833 620.285 20.955 619.095 20.955C618.115 20.955 617.217 21.0833 616.4 21.34C615.607 21.5733 614.93 21.9117 614.37 22.355C613.81 22.775 613.378 23.2883 613.075 23.895C612.772 24.4783 612.62 25.1083 612.62 25.785C612.62 26.6717 612.877 27.4067 613.39 27.99C613.927 28.5733 614.615 29.075 615.455 29.495C616.318 29.915 617.287 30.3 618.36 30.65C619.457 30.9767 620.565 31.3267 621.685 31.7C622.828 32.0733 623.937 32.505 625.01 32.995C626.107 33.4617 627.075 34.0567 627.915 34.78C628.778 35.48 629.467 36.3317 629.98 37.335C630.517 38.3383 630.785 39.5633 630.785 41.01C630.785 42.6667 630.482 44.2067 629.875 45.63C629.292 47.03 628.417 48.2433 627.25 49.27C626.107 50.2967 624.683 51.1017 622.98 51.685C621.277 52.2683 619.328 52.56 617.135 52.56C614.685 52.56 612.422 52.1517 610.345 51.335C608.268 50.5183 606.53 49.48 605.13 48.22L606.74 45.595C606.927 45.2683 607.16 45.0233 607.44 44.86C607.72 44.6733 608.093 44.58 608.56 44.58C609.003 44.58 609.458 44.7433 609.925 45.07C610.392 45.3967 610.952 45.7583 611.605 46.155C612.258 46.5283 613.052 46.8783 613.985 47.205C614.918 47.5083 616.085 47.66 617.485 47.66C618.652 47.66 619.667 47.52 620.53 47.24C621.393 46.9367 622.105 46.54 622.665 46.05C623.248 45.5367 623.68 44.9533 623.96 44.3C624.24 43.6467 624.38 42.9583 624.38 42.235C624.38 41.3017 624.112 40.5317 623.575 39.925C623.062 39.295 622.373 38.7583 621.51 38.315C620.67 37.8717 619.702 37.4867 618.605 37.16C617.508 36.8333 616.388 36.4833 615.245 36.11C614.102 35.7367 612.982 35.305 611.885 34.815C610.788 34.325 609.808 33.7067 608.945 32.96C608.105 32.2133 607.417 31.3033 606.88 30.23C606.367 29.1567 606.11 27.85 606.11 26.31C606.11 24.9333 606.39 23.615 606.95 22.355C607.533 21.095 608.362 19.9867 609.435 19.03C610.532 18.0733 611.873 17.315 613.46 16.755C615.07 16.1717 616.902 15.88 618.955 15.88C621.312 15.88 623.435 16.2533 625.325 17C627.238 17.7467 628.872 18.7733 630.225 20.08L628.72 22.565ZM637.615 47.905C637.615 47.275 637.732 46.68 637.965 46.12C638.198 45.56 638.513 45.07 638.91 44.65C639.33 44.23 639.82 43.9033 640.38 43.67C640.94 43.4133 641.547 43.285 642.2 43.285C642.83 43.285 643.425 43.4133 643.985 43.67C644.545 43.9033 645.035 44.23 645.455 44.65C645.875 45.07 646.202 45.56 646.435 46.12C646.692 46.68 646.82 47.275 646.82 47.905C646.82 48.5583 646.692 49.165 646.435 49.725C646.202 50.285 645.875 50.775 645.455 51.195C645.035 51.615 644.545 51.9417 643.985 52.175C643.425 52.4083 642.83 52.525 642.2 52.525C641.547 52.525 640.94 52.4083 640.38 52.175C639.82 51.9417 639.33 51.615 638.91 51.195C638.513 50.775 638.198 50.285 637.965 49.725C637.732 49.165 637.615 48.5583 637.615 47.905ZM637.615 22.005C637.615 21.375 637.732 20.78 637.965 20.22C638.198 19.66 638.513 19.17 638.91 18.75C639.33 18.33 639.82 18.0033 640.38 17.77C640.94 17.5133 641.547 17.385 642.2 17.385C642.83 17.385 643.425 17.5133 643.985 17.77C644.545 18.0033 645.035 18.33 645.455 18.75C645.875 19.17 646.202 19.66 646.435 20.22C646.692 20.78 646.82 21.375 646.82 22.005C646.82 22.6583 646.692 23.265 646.435 23.825C646.202 24.385 645.875 24.875 645.455 25.295C645.035 25.715 644.545 26.0417 643.985 26.275C643.425 26.5083 642.83 26.625 642.2 26.625C641.547 26.625 640.94 26.5083 640.38 26.275C639.82 26.0417 639.33 25.715 638.91 25.295C638.513 24.875 638.198 24.385 637.965 23.825C637.732 23.265 637.615 22.6583 637.615 22.005ZM703.232 45.525C703.978 45.525 704.562 45.7467 704.982 46.19C705.402 46.61 705.612 47.17 705.612 47.87V52H671.872V49.655C671.872 49.1883 671.965 48.6983 672.152 48.185C672.338 47.6483 672.653 47.17 673.097 46.75L688.987 30.825C690.317 29.495 691.518 28.2117 692.592 26.975C693.665 25.7383 694.575 24.5133 695.322 23.3C696.068 22.0633 696.64 20.8033 697.037 19.52C697.457 18.2367 697.667 16.8833 697.667 15.46C697.667 14.06 697.445 12.835 697.002 11.785C696.558 10.7117 695.952 9.825 695.182 9.125C694.412 8.425 693.502 7.9 692.452 7.55C691.402 7.2 690.27 7.025 689.057 7.025C687.843 7.025 686.723 7.2 685.697 7.55C684.693 7.9 683.795 8.39 683.002 9.02C682.208 9.65 681.543 10.3967 681.007 11.26C680.47 12.1233 680.085 13.0567 679.852 14.06C679.525 14.9467 679.105 15.5417 678.592 15.845C678.102 16.1483 677.378 16.2183 676.422 16.055L672.852 15.425C673.178 13.0917 673.82 11.0383 674.777 9.265C675.733 7.49166 676.935 6.01 678.382 4.82C679.828 3.60666 681.485 2.69666 683.352 2.09C685.242 1.48333 687.272 1.18 689.442 1.18C691.635 1.18 693.653 1.50667 695.497 2.16C697.363 2.79 698.973 3.71166 700.327 4.925C701.68 6.13833 702.742 7.62 703.512 9.37C704.282 11.0967 704.667 13.0567 704.667 15.25C704.667 17.1167 704.387 18.855 703.827 20.465C703.29 22.0517 702.543 23.5683 701.587 25.015C700.653 26.4617 699.557 27.8733 698.297 29.25C697.06 30.6033 695.742 31.98 694.342 33.38L681.602 46.4C682.582 46.1433 683.562 45.9333 684.542 45.77C685.545 45.6067 686.49 45.525 687.377 45.525H703.232ZM723.432 1.145C725.065 1.145 726.559 1.40166 727.912 1.915C729.265 2.405 730.409 3.12833 731.342 4.085C732.299 5.01833 733.034 6.16166 733.547 7.515C734.084 8.845 734.352 10.35 734.352 12.03C734.352 13.7333 734.084 15.2617 733.547 16.615C733.034 17.9683 732.299 19.1233 731.342 20.08C730.409 21.0133 729.265 21.7367 727.912 22.25C726.559 22.7633 725.065 23.02 723.432 23.02C721.775 23.02 720.27 22.7633 718.917 22.25C717.564 21.7367 716.409 21.0133 715.452 20.08C714.495 19.1233 713.749 17.9683 713.212 16.615C712.699 15.2617 712.442 13.7333 712.442 12.03C712.442 10.35 712.699 8.845 713.212 7.515C713.749 6.16166 714.495 5.01833 715.452 4.085C716.409 3.12833 717.564 2.405 718.917 1.915C720.27 1.40166 721.775 1.145 723.432 1.145ZM723.432 18.925C727.142 18.925 728.997 16.6383 728.997 12.065C728.997 7.49167 727.142 5.205 723.432 5.205C721.495 5.205 720.072 5.78833 719.162 6.955C718.252 8.09833 717.797 9.80167 717.797 12.065C717.797 14.3283 718.252 16.0433 719.162 17.21C720.072 18.3533 721.495 18.925 723.432 18.925ZM779.101 36.215C776.325 36.3083 773.968 36.53 772.031 36.88C770.095 37.2067 768.52 37.65 767.306 38.21C766.093 38.77 765.218 39.435 764.681 40.205C764.145 40.9517 763.876 41.7917 763.876 42.725C763.876 43.6117 764.016 44.3817 764.296 45.035C764.6 45.665 764.996 46.19 765.486 46.61C766 47.0067 766.595 47.2983 767.271 47.485C767.948 47.6717 768.683 47.765 769.476 47.765C770.526 47.765 771.483 47.66 772.346 47.45C773.233 47.24 774.061 46.9483 774.831 46.575C775.601 46.1783 776.336 45.7 777.036 45.14C777.736 44.58 778.425 43.9383 779.101 43.215V36.215ZM759.081 21.41C761.065 19.52 763.211 18.1083 765.521 17.175C767.855 16.2417 770.41 15.775 773.186 15.775C775.216 15.775 777.013 16.1133 778.576 16.79C780.14 17.4433 781.458 18.365 782.531 19.555C783.605 20.745 784.41 22.1683 784.946 23.825C785.506 25.4817 785.786 27.3133 785.786 29.32V52H782.741C782.065 52 781.551 51.895 781.201 51.685C780.851 51.4517 780.571 51.0317 780.361 50.425L779.626 47.31C778.716 48.15 777.818 48.8967 776.931 49.55C776.045 50.18 775.111 50.7283 774.131 51.195C773.175 51.6383 772.148 51.9767 771.051 52.21C769.955 52.4433 768.741 52.56 767.411 52.56C766.011 52.56 764.693 52.3733 763.456 52C762.243 51.6033 761.181 51.0083 760.271 50.215C759.361 49.4217 758.638 48.43 758.101 47.24C757.588 46.05 757.331 44.6617 757.331 43.075C757.331 41.675 757.705 40.3333 758.451 39.05C759.221 37.7433 760.458 36.5767 762.161 35.55C763.888 34.5233 766.128 33.6833 768.881 33.03C771.658 32.3767 775.065 32.0033 779.101 31.91V29.32C779.101 26.6367 778.53 24.63 777.386 23.3C776.243 21.97 774.563 21.305 772.346 21.305C770.853 21.305 769.593 21.4917 768.566 21.865C767.563 22.2383 766.688 22.6583 765.941 23.125C765.218 23.5683 764.576 23.9767 764.016 24.35C763.48 24.7233 762.92 24.91 762.336 24.91C761.87 24.91 761.461 24.7817 761.111 24.525C760.785 24.2683 760.516 23.965 760.306 23.615L759.081 21.41ZM801.328 21.375C802.098 20.5583 802.903 19.8117 803.743 19.135C804.583 18.4583 805.47 17.8867 806.403 17.42C807.36 16.93 808.375 16.5567 809.448 16.3C810.545 16.02 811.711 15.88 812.948 15.88C814.908 15.88 816.623 16.2067 818.093 16.86C819.586 17.5133 820.835 18.435 821.838 19.625C822.841 20.7917 823.6 22.2033 824.113 23.86C824.626 25.5167 824.883 27.3483 824.883 29.355V52H818.023V29.355C818.023 26.8117 817.44 24.84 816.273 23.44C815.106 22.0167 813.321 21.305 810.918 21.305C809.168 21.305 807.523 21.725 805.983 22.565C804.466 23.3817 803.055 24.5017 801.748 25.925V52H794.923V16.44H799.018C799.975 16.44 800.57 16.895 800.803 17.805L801.328 21.375ZM849.248 15.88C851.861 15.88 854.218 16.3117 856.318 17.175C858.441 18.015 860.238 19.24 861.708 20.85C863.201 22.4367 864.345 24.3617 865.138 26.625C865.931 28.865 866.328 31.385 866.328 34.185C866.328 36.985 865.931 39.5167 865.138 41.78C864.345 44.0433 863.201 45.9683 861.708 47.555C860.238 49.1417 858.441 50.3667 856.318 51.23C854.218 52.07 851.861 52.49 849.248 52.49C846.611 52.49 844.231 52.07 842.108 51.23C840.008 50.3667 838.211 49.1417 836.718 47.555C835.225 45.9683 834.07 44.0433 833.253 41.78C832.46 39.5167 832.063 36.985 832.063 34.185C832.063 31.385 832.46 28.865 833.253 26.625C834.07 24.3617 835.225 22.4367 836.718 20.85C838.211 19.24 840.008 18.015 842.108 17.175C844.231 16.3117 846.611 15.88 849.248 15.88ZM849.248 47.17C852.608 47.17 855.116 46.0383 856.773 43.775C858.43 41.5117 859.258 38.3267 859.258 34.22C859.258 30.1133 858.43 26.9283 856.773 24.665C855.116 22.3783 852.608 21.235 849.248 21.235C845.841 21.235 843.298 22.3783 841.618 24.665C839.961 26.9283 839.133 30.1133 839.133 34.22C839.133 38.3267 839.961 41.5117 841.618 43.775C843.298 46.0383 845.841 47.17 849.248 47.17ZM891.126 28.06H908.626V33.87H891.126V28.06ZM346.971 85.74V136H340.461V100.23C340.461 99.6933 340.472 99.1217 340.496 98.515C340.542 97.9083 340.589 97.29 340.636 96.66L323.906 127.355C323.322 128.498 322.424 129.07 321.211 129.07H320.161C318.947 129.07 318.061 128.498 317.501 127.355L300.456 96.555C300.596 97.8617 300.666 99.0867 300.666 100.23V136H294.121V85.74H299.651C300.304 85.74 300.806 85.81 301.156 85.95C301.529 86.0667 301.879 86.4167 302.206 87L319.006 117.1C319.332 117.707 319.636 118.348 319.916 119.025C320.196 119.702 320.464 120.378 320.721 121.055C321.211 119.678 321.782 118.348 322.436 117.065L338.921 87C339.224 86.4167 339.551 86.0667 339.901 85.95C340.274 85.81 340.787 85.74 341.441 85.74H346.971ZM386.964 100.44V136H382.869C381.935 136 381.329 135.545 381.049 134.635L380.559 131.065C379.789 131.882 378.984 132.628 378.144 133.305C377.304 133.982 376.405 134.565 375.449 135.055C374.492 135.522 373.477 135.883 372.404 136.14C371.33 136.42 370.175 136.56 368.939 136.56C366.979 136.56 365.252 136.233 363.759 135.58C362.289 134.927 361.052 134.017 360.049 132.85C359.045 131.66 358.287 130.237 357.774 128.58C357.26 126.923 357.004 125.092 357.004 123.085V100.44H363.864V123.085C363.864 125.628 364.447 127.612 365.614 129.035C366.78 130.435 368.565 131.135 370.969 131.135C372.719 131.135 374.352 130.727 375.869 129.91C377.385 129.07 378.809 127.927 380.139 126.48V100.44H386.964ZM402.895 105.375C403.665 104.558 404.47 103.812 405.31 103.135C406.15 102.458 407.037 101.887 407.97 101.42C408.927 100.93 409.942 100.557 411.015 100.3C412.112 100.02 413.279 99.88 414.515 99.88C416.475 99.88 418.19 100.207 419.66 100.86C421.154 101.513 422.402 102.435 423.405 103.625C424.409 104.792 425.167 106.203 425.68 107.86C426.194 109.517 426.45 111.348 426.45 113.355V136H419.59V113.355C419.59 110.812 419.007 108.84 417.84 107.44C416.674 106.017 414.889 105.305 412.485 105.305C410.735 105.305 409.09 105.725 407.55 106.565C406.034 107.382 404.622 108.502 403.315 109.925V136H396.49V100.44H400.585C401.542 100.44 402.137 100.895 402.37 101.805L402.895 105.375ZM442.8 100.44V136H435.975V100.44H442.8ZM444.095 89.45C444.095 90.08 443.967 90.6867 443.71 91.27C443.454 91.83 443.104 92.3317 442.66 92.775C442.24 93.195 441.739 93.5333 441.155 93.79C440.572 94.0233 439.965 94.14 439.335 94.14C438.705 94.14 438.11 94.0233 437.55 93.79C436.99 93.5333 436.489 93.195 436.045 92.775C435.625 92.3317 435.287 91.83 435.03 91.27C434.797 90.6867 434.68 90.08 434.68 89.45C434.68 88.7967 434.797 88.19 435.03 87.63C435.287 87.0467 435.625 86.545 436.045 86.125C436.489 85.6817 436.99 85.3433 437.55 85.11C438.11 84.8533 438.705 84.725 439.335 84.725C439.965 84.725 440.572 84.8533 441.155 85.11C441.739 85.3433 442.24 85.6817 442.66 86.125C443.104 86.545 443.454 87.0467 443.71 87.63C443.967 88.19 444.095 88.7967 444.095 89.45ZM477.602 107.09C477.392 107.347 477.182 107.557 476.972 107.72C476.785 107.86 476.505 107.93 476.132 107.93C475.758 107.93 475.362 107.79 474.942 107.51C474.545 107.207 474.032 106.892 473.402 106.565C472.795 106.215 472.048 105.9 471.162 105.62C470.298 105.317 469.225 105.165 467.942 105.165C466.262 105.165 464.78 105.468 463.497 106.075C462.213 106.682 461.14 107.545 460.277 108.665C459.437 109.785 458.795 111.15 458.352 112.76C457.908 114.37 457.687 116.178 457.687 118.185C457.687 120.262 457.92 122.117 458.387 123.75C458.853 125.36 459.518 126.725 460.382 127.845C461.245 128.942 462.295 129.782 463.532 130.365C464.768 130.925 466.145 131.205 467.662 131.205C469.132 131.205 470.345 131.03 471.302 130.68C472.258 130.307 473.052 129.91 473.682 129.49C474.312 129.07 474.837 128.685 475.257 128.335C475.677 127.962 476.108 127.775 476.552 127.775C477.112 127.775 477.543 127.985 477.847 128.405L479.807 130.925C478.99 131.928 478.068 132.78 477.042 133.48C476.038 134.18 474.965 134.752 473.822 135.195C472.678 135.638 471.477 135.965 470.217 136.175C468.98 136.385 467.72 136.49 466.437 136.49C464.22 136.49 462.143 136.082 460.207 135.265C458.293 134.448 456.625 133.258 455.202 131.695C453.802 130.132 452.693 128.218 451.877 125.955C451.06 123.668 450.652 121.078 450.652 118.185C450.652 115.548 451.013 113.11 451.737 110.87C452.483 108.63 453.568 106.705 454.992 105.095C456.438 103.462 458.212 102.19 460.312 101.28C462.412 100.347 464.815 99.88 467.522 99.88C470.065 99.88 472.305 100.288 474.242 101.105C476.178 101.922 477.905 103.077 479.422 104.57L477.602 107.09ZM493.353 100.44V136H486.493V100.44H493.353ZM500.773 85.18L492.478 94.21C492.128 94.6067 491.789 94.8867 491.463 95.05C491.136 95.19 490.704 95.26 490.168 95.26H486.038L491.218 86.79C491.544 86.2533 491.894 85.8567 492.268 85.6C492.664 85.32 493.271 85.18 494.088 85.18H500.773ZM510.024 127.25C511.144 128.72 512.346 129.747 513.629 130.33C514.936 130.913 516.394 131.205 518.004 131.205C521.131 131.205 523.546 130.085 525.249 127.845C526.976 125.582 527.839 122.292 527.839 117.975C527.839 115.712 527.641 113.787 527.244 112.2C526.871 110.59 526.311 109.283 525.564 108.28C524.841 107.253 523.943 106.507 522.869 106.04C521.796 105.55 520.583 105.305 519.229 105.305C517.246 105.305 515.519 105.748 514.049 106.635C512.603 107.522 511.261 108.782 510.024 110.415V127.25ZM509.674 105.76C510.421 104.873 511.214 104.068 512.054 103.345C512.918 102.598 513.839 101.968 514.819 101.455C515.799 100.918 516.838 100.51 517.934 100.23C519.054 99.9267 520.244 99.775 521.504 99.775C523.534 99.775 525.366 100.172 526.999 100.965C528.656 101.758 530.068 102.925 531.234 104.465C532.401 106.005 533.299 107.907 533.929 110.17C534.583 112.433 534.909 115.035 534.909 117.975C534.909 120.612 534.548 123.062 533.824 125.325C533.124 127.565 532.109 129.513 530.779 131.17C529.473 132.827 527.863 134.133 525.949 135.09C524.059 136.023 521.924 136.49 519.544 136.49C517.421 136.49 515.601 136.14 514.084 135.44C512.568 134.74 511.214 133.76 510.024 132.5V147.935H503.199V100.44H507.294C508.251 100.44 508.846 100.895 509.079 101.805L509.674 105.76ZM549.714 100.44V136H542.889V100.44H549.714ZM551.009 89.45C551.009 90.08 550.881 90.6867 550.624 91.27C550.368 91.83 550.018 92.3317 549.574 92.775C549.154 93.195 548.653 93.5333 548.069 93.79C547.486 94.0233 546.879 94.14 546.249 94.14C545.619 94.14 545.024 94.0233 544.464 93.79C543.904 93.5333 543.403 93.195 542.959 92.775C542.539 92.3317 542.201 91.83 541.944 91.27C541.711 90.6867 541.594 90.08 541.594 89.45C541.594 88.7967 541.711 88.19 541.944 87.63C542.201 87.0467 542.539 86.545 542.959 86.125C543.403 85.6817 543.904 85.3433 544.464 85.11C545.024 84.8533 545.619 84.725 546.249 84.725C546.879 84.725 547.486 84.8533 548.069 85.11C548.653 85.3433 549.154 85.6817 549.574 86.125C550.018 86.545 550.368 87.0467 550.624 87.63C550.881 88.19 551.009 88.7967 551.009 89.45ZM574.751 99.88C577.364 99.88 579.721 100.312 581.821 101.175C583.944 102.015 585.741 103.24 587.211 104.85C588.704 106.437 589.847 108.362 590.641 110.625C591.434 112.865 591.831 115.385 591.831 118.185C591.831 120.985 591.434 123.517 590.641 125.78C589.847 128.043 588.704 129.968 587.211 131.555C585.741 133.142 583.944 134.367 581.821 135.23C579.721 136.07 577.364 136.49 574.751 136.49C572.114 136.49 569.734 136.07 567.611 135.23C565.511 134.367 563.714 133.142 562.221 131.555C560.727 129.968 559.572 128.043 558.756 125.78C557.962 123.517 557.566 120.985 557.566 118.185C557.566 115.385 557.962 112.865 558.756 110.625C559.572 108.362 560.727 106.437 562.221 104.85C563.714 103.24 565.511 102.015 567.611 101.175C569.734 100.312 572.114 99.88 574.751 99.88ZM574.751 131.17C578.111 131.17 580.619 130.038 582.276 127.775C583.932 125.512 584.761 122.327 584.761 118.22C584.761 114.113 583.932 110.928 582.276 108.665C580.619 106.378 578.111 105.235 574.751 105.235C571.344 105.235 568.801 106.378 567.121 108.665C565.464 110.928 564.636 114.113 564.636 118.22C564.636 122.327 565.464 125.512 567.121 127.775C568.801 130.038 571.344 131.17 574.751 131.17ZM620.414 106.565C620.228 106.868 620.029 107.09 619.819 107.23C619.609 107.347 619.341 107.405 619.014 107.405C618.641 107.405 618.221 107.277 617.754 107.02C617.311 106.763 616.763 106.483 616.109 106.18C615.479 105.877 614.733 105.597 613.869 105.34C613.006 105.083 611.979 104.955 610.789 104.955C609.809 104.955 608.911 105.083 608.094 105.34C607.301 105.573 606.624 105.912 606.064 106.355C605.504 106.775 605.073 107.288 604.769 107.895C604.466 108.478 604.314 109.108 604.314 109.785C604.314 110.672 604.571 111.407 605.084 111.99C605.621 112.573 606.309 113.075 607.149 113.495C608.013 113.915 608.981 114.3 610.054 114.65C611.151 114.977 612.259 115.327 613.379 115.7C614.523 116.073 615.631 116.505 616.704 116.995C617.801 117.462 618.769 118.057 619.609 118.78C620.473 119.48 621.161 120.332 621.674 121.335C622.211 122.338 622.479 123.563 622.479 125.01C622.479 126.667 622.176 128.207 621.569 129.63C620.986 131.03 620.111 132.243 618.944 133.27C617.801 134.297 616.378 135.102 614.674 135.685C612.971 136.268 611.023 136.56 608.829 136.56C606.379 136.56 604.116 136.152 602.039 135.335C599.963 134.518 598.224 133.48 596.824 132.22L598.434 129.595C598.621 129.268 598.854 129.023 599.134 128.86C599.414 128.673 599.788 128.58 600.254 128.58C600.698 128.58 601.153 128.743 601.619 129.07C602.086 129.397 602.646 129.758 603.299 130.155C603.953 130.528 604.746 130.878 605.679 131.205C606.613 131.508 607.779 131.66 609.179 131.66C610.346 131.66 611.361 131.52 612.224 131.24C613.088 130.937 613.799 130.54 614.359 130.05C614.943 129.537 615.374 128.953 615.654 128.3C615.934 127.647 616.074 126.958 616.074 126.235C616.074 125.302 615.806 124.532 615.269 123.925C614.756 123.295 614.068 122.758 613.204 122.315C612.364 121.872 611.396 121.487 610.299 121.16C609.203 120.833 608.083 120.483 606.939 120.11C605.796 119.737 604.676 119.305 603.579 118.815C602.483 118.325 601.503 117.707 600.639 116.96C599.799 116.213 599.111 115.303 598.574 114.23C598.061 113.157 597.804 111.85 597.804 110.31C597.804 108.933 598.084 107.615 598.644 106.355C599.228 105.095 600.056 103.987 601.129 103.03C602.226 102.073 603.568 101.315 605.154 100.755C606.764 100.172 608.596 99.88 610.649 99.88C613.006 99.88 615.129 100.253 617.019 101C618.933 101.747 620.566 102.773 621.919 104.08L620.414 106.565Z" fill="#4C5773"/>
</svg>
