<svg width="753" height="137" viewBox="0 0 753 137" fill="none" xmlns="http://www.w3.org/2000/svg">
<path d="M33.0904 33.275L25.6354 13.78C25.0988 12.45 24.5621 10.77 24.0254 8.74C23.7688 9.74333 23.5004 10.6767 23.2204 11.54C22.9638 12.4033 22.7071 13.1733 22.4504 13.85L15.0304 33.275H33.0904ZM47.8254 52H42.0854C41.4321 52 40.8954 51.8367 40.4754 51.51C40.0554 51.1833 39.7521 50.7633 39.5654 50.25L35.1204 38.595H12.9654L8.52043 50.25C8.3571 50.6933 8.05376 51.1017 7.61043 51.475C7.1671 51.825 6.63043 52 6.00043 52H0.26043L20.2804 1.74H27.8054L47.8254 52ZM80.7675 16.44L66.3475 52H60.1875L45.7675 16.44H51.4025C51.9392 16.44 52.3825 16.5683 52.7325 16.825C53.0825 17.0817 53.3159 17.4083 53.4325 17.805L61.9375 39.645C62.2409 40.555 62.4975 41.465 62.7075 42.375C62.9409 43.2617 63.1509 44.1483 63.3375 45.035C63.5242 44.1483 63.7342 43.2617 63.9675 42.375C64.2009 41.4883 64.4809 40.5783 64.8075 39.645L73.4175 17.805C73.5575 17.4083 73.8025 17.0817 74.1525 16.825C74.5025 16.5683 74.9225 16.44 75.4125 16.44H80.7675ZM104.486 36.215C101.709 36.3083 99.3527 36.53 97.4161 36.88C95.4794 37.2067 93.9044 37.65 92.6911 38.21C91.4777 38.77 90.6027 39.435 90.0661 40.205C89.5294 40.9517 89.2611 41.7917 89.2611 42.725C89.2611 43.6117 89.4011 44.3817 89.6811 45.035C89.9844 45.665 90.3811 46.19 90.8711 46.61C91.3844 47.0067 91.9794 47.2983 92.6561 47.485C93.3327 47.6717 94.0677 47.765 94.8611 47.765C95.9111 47.765 96.8677 47.66 97.7311 47.45C98.6177 47.24 99.4461 46.9483 100.216 46.575C100.986 46.1783 101.721 45.7 102.421 45.14C103.121 44.58 103.809 43.9383 104.486 43.215V36.215ZM84.4661 21.41C86.4494 19.52 88.5961 18.1083 90.9061 17.175C93.2394 16.2417 95.7944 15.775 98.5711 15.775C100.601 15.775 102.398 16.1133 103.961 16.79C105.524 17.4433 106.843 18.365 107.916 19.555C108.989 20.745 109.794 22.1683 110.331 23.825C110.891 25.4817 111.171 27.3133 111.171 29.32V52H108.126C107.449 52 106.936 51.895 106.586 51.685C106.236 51.4517 105.956 51.0317 105.746 50.425L105.011 47.31C104.101 48.15 103.203 48.8967 102.316 49.55C101.429 50.18 100.496 50.7283 99.5161 51.195C98.5594 51.6383 97.5327 51.9767 96.4361 52.21C95.3394 52.4433 94.1261 52.56 92.7961 52.56C91.3961 52.56 90.0777 52.3733 88.8411 52C87.6277 51.6033 86.5661 51.0083 85.6561 50.215C84.7461 49.4217 84.0227 48.43 83.4861 47.24C82.9727 46.05 82.7161 44.6617 82.7161 43.075C82.7161 41.675 83.0894 40.3333 83.8361 39.05C84.6061 37.7433 85.8427 36.5767 87.5461 35.55C89.2727 34.5233 91.5127 33.6833 94.2661 33.03C97.0427 32.3767 100.449 32.0033 104.486 31.91V29.32C104.486 26.6367 103.914 24.63 102.771 23.3C101.628 21.97 99.9477 21.305 97.7311 21.305C96.2377 21.305 94.9777 21.4917 93.9511 21.865C92.9477 22.2383 92.0727 22.6583 91.3261 23.125C90.6027 23.5683 89.9611 23.9767 89.4011 24.35C88.8644 24.7233 88.3044 24.91 87.7211 24.91C87.2544 24.91 86.8461 24.7817 86.4961 24.525C86.1694 24.2683 85.9011 23.965 85.6911 23.615L84.4661 21.41ZM127.308 0.339998V52H120.448V0.339998H127.308ZM144.196 16.44V52H137.371V16.44H144.196ZM145.491 5.45C145.491 6.08 145.362 6.68666 145.106 7.27C144.849 7.83 144.499 8.33166 144.056 8.775C143.636 9.195 143.134 9.53333 142.551 9.79C141.967 10.0233 141.361 10.14 140.731 10.14C140.101 10.14 139.506 10.0233 138.946 9.79C138.386 9.53333 137.884 9.195 137.441 8.775C137.021 8.33166 136.682 7.83 136.426 7.27C136.192 6.68666 136.076 6.08 136.076 5.45C136.076 4.79667 136.192 4.19 136.426 3.63C136.682 3.04666 137.021 2.545 137.441 2.125C137.884 1.68166 138.386 1.34333 138.946 1.11C139.506 0.853331 140.101 0.724999 140.731 0.724999C141.361 0.724999 141.967 0.853331 142.551 1.11C143.134 1.34333 143.636 1.68166 144.056 2.125C144.499 2.545 144.849 3.04666 145.106 3.63C145.362 4.19 145.491 4.79667 145.491 5.45ZM173.187 36.215C170.411 36.3083 168.054 36.53 166.117 36.88C164.181 37.2067 162.606 37.65 161.392 38.21C160.179 38.77 159.304 39.435 158.767 40.205C158.231 40.9517 157.962 41.7917 157.962 42.725C157.962 43.6117 158.102 44.3817 158.382 45.035C158.686 45.665 159.082 46.19 159.572 46.61C160.086 47.0067 160.681 47.2983 161.357 47.485C162.034 47.6717 162.769 47.765 163.562 47.765C164.612 47.765 165.569 47.66 166.432 47.45C167.319 47.24 168.147 46.9483 168.917 46.575C169.687 46.1783 170.422 45.7 171.122 45.14C171.822 44.58 172.511 43.9383 173.187 43.215V36.215ZM153.167 21.41C155.151 19.52 157.297 18.1083 159.607 17.175C161.941 16.2417 164.496 15.775 167.272 15.775C169.302 15.775 171.099 16.1133 172.662 16.79C174.226 17.4433 175.544 18.365 176.617 19.555C177.691 20.745 178.496 22.1683 179.032 23.825C179.592 25.4817 179.872 27.3133 179.872 29.32V52H176.827C176.151 52 175.637 51.895 175.287 51.685C174.937 51.4517 174.657 51.0317 174.447 50.425L173.712 47.31C172.802 48.15 171.904 48.8967 171.017 49.55C170.131 50.18 169.197 50.7283 168.217 51.195C167.261 51.6383 166.234 51.9767 165.137 52.21C164.041 52.4433 162.827 52.56 161.497 52.56C160.097 52.56 158.779 52.3733 157.542 52C156.329 51.6033 155.267 51.0083 154.357 50.215C153.447 49.4217 152.724 48.43 152.187 47.24C151.674 46.05 151.417 44.6617 151.417 43.075C151.417 41.675 151.791 40.3333 152.537 39.05C153.307 37.7433 154.544 36.5767 156.247 35.55C157.974 34.5233 160.214 33.6833 162.967 33.03C165.744 32.3767 169.151 32.0033 173.187 31.91V29.32C173.187 26.6367 172.616 24.63 171.472 23.3C170.329 21.97 168.649 21.305 166.432 21.305C164.939 21.305 163.679 21.4917 162.652 21.865C161.649 22.2383 160.774 22.6583 160.027 23.125C159.304 23.5683 158.662 23.9767 158.102 24.35C157.566 24.7233 157.006 24.91 156.422 24.91C155.956 24.91 155.547 24.7817 155.197 24.525C154.871 24.2683 154.602 23.965 154.392 23.615L153.167 21.41ZM216.134 46.925C214.734 48.6517 213.054 49.9467 211.094 50.81C209.157 51.6733 207.104 52.1983 204.934 52.385L204.339 54.485C206.509 54.9517 208.061 55.5933 208.994 56.41C209.927 57.25 210.394 58.3 210.394 59.56C210.394 60.33 210.196 61.0183 209.799 61.625C209.426 62.2317 208.901 62.745 208.224 63.165C207.547 63.585 206.719 63.9117 205.739 64.145C204.782 64.3783 203.732 64.495 202.589 64.495C201.632 64.495 200.722 64.4017 199.859 64.215C199.019 64.0517 198.226 63.8067 197.479 63.48L198.109 61.345C198.249 60.9017 198.541 60.68 198.984 60.68C199.124 60.68 199.276 60.715 199.439 60.785C199.626 60.8783 199.847 60.96 200.104 61.03C200.361 61.1233 200.652 61.205 200.979 61.275C201.329 61.3683 201.737 61.415 202.204 61.415C203.137 61.415 203.837 61.2283 204.304 60.855C204.771 60.4817 205.004 60.015 205.004 59.455C205.004 58.615 204.526 58.02 203.569 57.67C202.636 57.3433 201.282 57.0633 199.509 56.83L200.979 52.385C198.972 52.175 197.117 51.615 195.414 50.705C193.711 49.795 192.229 48.57 190.969 47.03C189.732 45.4667 188.752 43.6117 188.029 41.465C187.329 39.3183 186.979 36.8917 186.979 34.185C186.979 31.5483 187.341 29.11 188.064 26.87C188.811 24.63 189.896 22.705 191.319 21.095C192.766 19.4617 194.539 18.19 196.639 17.28C198.739 16.3467 201.142 15.88 203.849 15.88C206.392 15.88 208.632 16.2883 210.569 17.105C212.506 17.9217 214.232 19.0767 215.749 20.57L213.929 23.09C213.719 23.3467 213.509 23.5567 213.299 23.72C213.112 23.86 212.832 23.93 212.459 23.93C212.086 23.93 211.689 23.79 211.269 23.51C210.872 23.2067 210.359 22.8917 209.729 22.565C209.122 22.215 208.376 21.9 207.489 21.62C206.626 21.3167 205.552 21.165 204.269 21.165C202.589 21.165 201.107 21.4683 199.824 22.075C198.541 22.6817 197.467 23.545 196.604 24.665C195.764 25.785 195.122 27.15 194.679 28.76C194.236 30.37 194.014 32.1783 194.014 34.185C194.014 36.2617 194.247 38.1167 194.714 39.75C195.181 41.36 195.846 42.725 196.709 43.845C197.572 44.9417 198.622 45.7817 199.859 46.365C201.096 46.925 202.472 47.205 203.989 47.205C205.459 47.205 206.672 47.03 207.629 46.68C208.586 46.3067 209.379 45.91 210.009 45.49C210.639 45.07 211.164 44.685 211.584 44.335C212.004 43.9617 212.436 43.775 212.879 43.775C213.439 43.775 213.871 43.985 214.174 44.405L216.134 46.925ZM241.615 36.215C238.838 36.3083 236.482 36.53 234.545 36.88C232.608 37.2067 231.033 37.65 229.82 38.21C228.607 38.77 227.732 39.435 227.195 40.205C226.658 40.9517 226.39 41.7917 226.39 42.725C226.39 43.6117 226.53 44.3817 226.81 45.035C227.113 45.665 227.51 46.19 228 46.61C228.513 47.0067 229.108 47.2983 229.785 47.485C230.462 47.6717 231.197 47.765 231.99 47.765C233.04 47.765 233.997 47.66 234.86 47.45C235.747 47.24 236.575 46.9483 237.345 46.575C238.115 46.1783 238.85 45.7 239.55 45.14C240.25 44.58 240.938 43.9383 241.615 43.215V36.215ZM221.595 21.41C223.578 19.52 225.725 18.1083 228.035 17.175C230.368 16.2417 232.923 15.775 235.7 15.775C237.73 15.775 239.527 16.1133 241.09 16.79C242.653 17.4433 243.972 18.365 245.045 19.555C246.118 20.745 246.923 22.1683 247.46 23.825C248.02 25.4817 248.3 27.3133 248.3 29.32V52H245.255C244.578 52 244.065 51.895 243.715 51.685C243.365 51.4517 243.085 51.0317 242.875 50.425L242.14 47.31C241.23 48.15 240.332 48.8967 239.445 49.55C238.558 50.18 237.625 50.7283 236.645 51.195C235.688 51.6383 234.662 51.9767 233.565 52.21C232.468 52.4433 231.255 52.56 229.925 52.56C228.525 52.56 227.207 52.3733 225.97 52C224.757 51.6033 223.695 51.0083 222.785 50.215C221.875 49.4217 221.152 48.43 220.615 47.24C220.102 46.05 219.845 44.6617 219.845 43.075C219.845 41.675 220.218 40.3333 220.965 39.05C221.735 37.7433 222.972 36.5767 224.675 35.55C226.402 34.5233 228.642 33.6833 231.395 33.03C234.172 32.3767 237.578 32.0033 241.615 31.91V29.32C241.615 26.6367 241.043 24.63 239.9 23.3C238.757 21.97 237.077 21.305 234.86 21.305C233.367 21.305 232.107 21.4917 231.08 21.865C230.077 22.2383 229.202 22.6583 228.455 23.125C227.732 23.5683 227.09 23.9767 226.53 24.35C225.993 24.7233 225.433 24.91 224.85 24.91C224.383 24.91 223.975 24.7817 223.625 24.525C223.298 24.2683 223.03 23.965 222.82 23.615L221.595 21.41ZM238.78 5.31C239.573 5.31 240.18 5.07666 240.6 4.61C241.043 4.14333 241.277 3.39666 241.3 2.37H245.465C245.465 3.53666 245.302 4.59833 244.975 5.555C244.672 6.51167 244.24 7.34 243.68 8.04C243.12 8.71666 242.443 9.24166 241.65 9.615C240.857 9.98833 239.982 10.175 239.025 10.175C238.208 10.175 237.438 10.0117 236.715 9.685C236.015 9.35833 235.35 8.99667 234.72 8.6C234.09 8.20333 233.483 7.84166 232.9 7.515C232.34 7.18833 231.803 7.025 231.29 7.025C230.52 7.025 229.913 7.27 229.47 7.76C229.05 8.25 228.828 8.99667 228.805 10H224.57C224.57 8.85666 224.722 7.80666 225.025 6.85C225.352 5.87 225.807 5.04167 226.39 4.365C226.973 3.68833 227.65 3.16333 228.42 2.79C229.213 2.39333 230.088 2.195 231.045 2.195C231.885 2.195 232.655 2.35833 233.355 2.685C234.078 3.01166 234.755 3.37333 235.385 3.77C236.015 4.14333 236.61 4.49333 237.17 4.82C237.73 5.14666 238.267 5.31 238.78 5.31ZM272.592 15.88C275.205 15.88 277.562 16.3117 279.662 17.175C281.785 18.015 283.582 19.24 285.052 20.85C286.545 22.4367 287.688 24.3617 288.482 26.625C289.275 28.865 289.672 31.385 289.672 34.185C289.672 36.985 289.275 39.5167 288.482 41.78C287.688 44.0433 286.545 45.9683 285.052 47.555C283.582 49.1417 281.785 50.3667 279.662 51.23C277.562 52.07 275.205 52.49 272.592 52.49C269.955 52.49 267.575 52.07 265.452 51.23C263.352 50.3667 261.555 49.1417 260.062 47.555C258.568 45.9683 257.413 44.0433 256.597 41.78C255.803 39.5167 255.407 36.985 255.407 34.185C255.407 31.385 255.803 28.865 256.597 26.625C257.413 24.3617 258.568 22.4367 260.062 20.85C261.555 19.24 263.352 18.015 265.452 17.175C267.575 16.3117 269.955 15.88 272.592 15.88ZM272.592 47.17C275.952 47.17 278.46 46.0383 280.117 43.775C281.773 41.5117 282.602 38.3267 282.602 34.22C282.602 30.1133 281.773 26.9283 280.117 24.665C278.46 22.3783 275.952 21.235 272.592 21.235C269.185 21.235 266.642 22.3783 264.962 24.665C263.305 26.9283 262.477 30.1133 262.477 34.22C262.477 38.3267 263.305 41.5117 264.962 43.775C266.642 46.0383 269.185 47.17 272.592 47.17ZM337.92 25.05C336.8 23.58 335.587 22.5533 334.28 21.97C332.997 21.3867 331.55 21.095 329.94 21.095C326.814 21.095 324.387 22.2267 322.66 24.49C320.957 26.73 320.105 30.0083 320.105 34.325C320.105 36.5883 320.292 38.525 320.665 40.135C321.062 41.7217 321.622 43.0283 322.345 44.055C323.092 45.0583 324.002 45.805 325.075 46.295C326.149 46.7617 327.362 46.995 328.715 46.995C330.699 46.995 332.414 46.5517 333.86 45.665C335.307 44.7783 336.66 43.53 337.92 41.92V25.05ZM344.78 0.339998V52H340.65C339.694 52 339.099 51.545 338.865 50.635L338.27 46.54C336.754 48.3367 335.027 49.7833 333.09 50.88C331.177 51.9533 328.96 52.49 326.44 52.49C324.41 52.49 322.567 52.0933 320.91 51.3C319.277 50.5067 317.877 49.3517 316.71 47.835C315.544 46.295 314.645 44.3933 314.015 42.13C313.385 39.8667 313.07 37.265 313.07 34.325C313.07 31.6883 313.42 29.2383 314.12 26.975C314.82 24.7117 315.835 22.7517 317.165 21.095C318.495 19.4383 320.105 18.1433 321.995 17.21C323.885 16.2533 326.02 15.775 328.4 15.775C330.547 15.775 332.367 16.125 333.86 16.825C335.377 17.525 336.73 18.5167 337.92 19.8V0.339998H344.78ZM377.857 30.265C377.857 28.9117 377.659 27.6633 377.262 26.52C376.889 25.3767 376.329 24.385 375.582 23.545C374.835 22.705 373.925 22.0517 372.852 21.585C371.779 21.1183 370.542 20.885 369.142 20.885C366.272 20.885 364.009 21.7133 362.352 23.37C360.719 25.0267 359.68 27.325 359.237 30.265H377.857ZM383.492 46.925C382.652 47.905 381.684 48.7567 380.587 49.48C379.49 50.18 378.324 50.7517 377.087 51.195C375.85 51.6383 374.567 51.965 373.237 52.175C371.93 52.385 370.635 52.49 369.352 52.49C366.902 52.49 364.627 52.0817 362.527 51.265C360.45 50.425 358.642 49.2117 357.102 47.625C355.585 46.015 354.395 44.0317 353.532 41.675C352.692 39.295 352.272 36.565 352.272 33.485C352.272 31.0117 352.657 28.7133 353.427 26.59C354.197 24.4433 355.294 22.5767 356.717 20.99C358.164 19.4033 359.925 18.155 362.002 17.245C364.079 16.335 366.412 15.88 369.002 15.88C371.172 15.88 373.167 16.2417 374.987 16.965C376.83 17.665 378.417 18.6917 379.747 20.045C381.077 21.3983 382.115 23.0667 382.862 25.05C383.632 27.0333 384.017 29.2967 384.017 31.84C384.017 32.89 383.9 33.6017 383.667 33.975C383.434 34.325 383.002 34.5 382.372 34.5H359.062C359.132 36.6233 359.435 38.4783 359.972 40.065C360.509 41.6283 361.244 42.935 362.177 43.985C363.134 45.035 364.265 45.8167 365.572 46.33C366.879 46.8433 368.337 47.1 369.947 47.1C371.464 47.1 372.77 46.925 373.867 46.575C374.987 46.225 375.944 45.8517 376.737 45.455C377.554 45.035 378.23 44.65 378.767 44.3C379.327 43.95 379.817 43.775 380.237 43.775C380.797 43.775 381.229 43.985 381.532 44.405L383.492 46.925ZM417.948 7.795V24.63H438.108V30.685H417.948V52H410.458V1.74H441.608V7.795H417.948ZM455.023 0.339998V52H448.163V0.339998H455.023ZM494.346 16.44V52H490.251C489.317 52 488.711 51.545 488.431 50.635L487.941 47.065C487.171 47.8817 486.366 48.6283 485.526 49.305C484.686 49.9817 483.787 50.565 482.831 51.055C481.874 51.5217 480.859 51.8833 479.786 52.14C478.712 52.42 477.557 52.56 476.321 52.56C474.361 52.56 472.634 52.2333 471.141 51.58C469.671 50.9267 468.434 50.0167 467.431 48.85C466.427 47.66 465.669 46.2367 465.156 44.58C464.642 42.9233 464.386 41.0917 464.386 39.085V16.44H471.246V39.085C471.246 41.6283 471.829 43.6117 472.996 45.035C474.162 46.435 475.947 47.135 478.351 47.135C480.101 47.135 481.734 46.7267 483.251 45.91C484.767 45.07 486.191 43.9267 487.521 42.48V16.44H494.346ZM527.427 30.265C527.427 28.9117 527.229 27.6633 526.832 26.52C526.459 25.3767 525.899 24.385 525.152 23.545C524.405 22.705 523.495 22.0517 522.422 21.585C521.349 21.1183 520.112 20.885 518.712 20.885C515.842 20.885 513.579 21.7133 511.922 23.37C510.289 25.0267 509.25 27.325 508.807 30.265H527.427ZM533.062 46.925C532.222 47.905 531.254 48.7567 530.157 49.48C529.06 50.18 527.894 50.7517 526.657 51.195C525.42 51.6383 524.137 51.965 522.807 52.175C521.5 52.385 520.205 52.49 518.922 52.49C516.472 52.49 514.197 52.0817 512.097 51.265C510.02 50.425 508.212 49.2117 506.672 47.625C505.155 46.015 503.965 44.0317 503.102 41.675C502.262 39.295 501.842 36.565 501.842 33.485C501.842 31.0117 502.227 28.7133 502.997 26.59C503.767 24.4433 504.864 22.5767 506.287 20.99C507.734 19.4033 509.495 18.155 511.572 17.245C513.649 16.335 515.982 15.88 518.572 15.88C520.742 15.88 522.737 16.2417 524.557 16.965C526.4 17.665 527.987 18.6917 529.317 20.045C530.647 21.3983 531.685 23.0667 532.432 25.05C533.202 27.0333 533.587 29.2967 533.587 31.84C533.587 32.89 533.47 33.6017 533.237 33.975C533.004 34.325 532.572 34.5 531.942 34.5H508.632C508.702 36.6233 509.005 38.4783 509.542 40.065C510.079 41.6283 510.814 42.935 511.747 43.985C512.704 45.035 513.835 45.8167 515.142 46.33C516.449 46.8433 517.907 47.1 519.517 47.1C521.034 47.1 522.34 46.925 523.437 46.575C524.557 46.225 525.514 45.8517 526.307 45.455C527.124 45.035 527.8 44.65 528.337 44.3C528.897 43.95 529.387 43.775 529.807 43.775C530.367 43.775 530.799 43.985 531.102 44.405L533.062 46.925ZM529.772 11.085H525.187C524.907 11.085 524.627 11.0383 524.347 10.945C524.09 10.8517 523.81 10.665 523.507 10.385L519.412 6.01C519.225 5.82333 519.027 5.59 518.817 5.31C518.607 5.59 518.409 5.82333 518.222 6.01L514.057 10.385C513.824 10.6183 513.555 10.7933 513.252 10.91C512.972 11.0267 512.692 11.085 512.412 11.085H507.652L515.527 1.74H521.897L529.772 11.085ZM547.328 21.375C548.098 20.5583 548.903 19.8117 549.743 19.135C550.583 18.4583 551.47 17.8867 552.403 17.42C553.36 16.93 554.375 16.5567 555.448 16.3C556.545 16.02 557.711 15.88 558.948 15.88C560.908 15.88 562.623 16.2067 564.093 16.86C565.586 17.5133 566.835 18.435 567.838 19.625C568.841 20.7917 569.6 22.2033 570.113 23.86C570.626 25.5167 570.883 27.3483 570.883 29.355V52H564.023V29.355C564.023 26.8117 563.44 24.84 562.273 23.44C561.106 22.0167 559.321 21.305 556.918 21.305C555.168 21.305 553.523 21.725 551.983 22.565C550.466 23.3817 549.055 24.5017 547.748 25.925V52H540.923V16.44H545.018C545.975 16.44 546.57 16.895 546.803 17.805L547.328 21.375ZM605.013 23.09C604.803 23.3467 604.593 23.5567 604.383 23.72C604.196 23.86 603.916 23.93 603.543 23.93C603.17 23.93 602.773 23.79 602.353 23.51C601.956 23.2067 601.443 22.8917 600.813 22.565C600.206 22.215 599.46 21.9 598.573 21.62C597.71 21.3167 596.636 21.165 595.353 21.165C593.673 21.165 592.191 21.4683 590.908 22.075C589.625 22.6817 588.551 23.545 587.688 24.665C586.848 25.785 586.206 27.15 585.763 28.76C585.32 30.37 585.098 32.1783 585.098 34.185C585.098 36.2617 585.331 38.1167 585.798 39.75C586.265 41.36 586.93 42.725 587.793 43.845C588.656 44.9417 589.706 45.7817 590.943 46.365C592.18 46.925 593.556 47.205 595.073 47.205C596.543 47.205 597.756 47.03 598.713 46.68C599.67 46.3067 600.463 45.91 601.093 45.49C601.723 45.07 602.248 44.685 602.668 44.335C603.088 43.9617 603.52 43.775 603.963 43.775C604.523 43.775 604.955 43.985 605.258 44.405L607.218 46.925C606.401 47.9283 605.48 48.78 604.453 49.48C603.45 50.18 602.376 50.7517 601.233 51.195C600.09 51.6383 598.888 51.965 597.628 52.175C596.391 52.385 595.131 52.49 593.848 52.49C591.631 52.49 589.555 52.0817 587.618 51.265C585.705 50.4483 584.036 49.2583 582.613 47.695C581.213 46.1317 580.105 44.2183 579.288 41.955C578.471 39.6683 578.063 37.0783 578.063 34.185C578.063 31.5483 578.425 29.11 579.148 26.87C579.895 24.63 580.98 22.705 582.403 21.095C583.85 19.4617 585.623 18.19 587.723 17.28C589.823 16.3467 592.226 15.88 594.933 15.88C597.476 15.88 599.716 16.2883 601.653 17.105C603.59 17.9217 605.316 19.0767 606.833 20.57L605.013 23.09ZM620.729 16.44V52H613.904V16.44H620.729ZM622.024 5.45C622.024 6.08 621.896 6.68666 621.639 7.27C621.382 7.83 621.032 8.33166 620.589 8.775C620.169 9.195 619.667 9.53333 619.084 9.79C618.501 10.0233 617.894 10.14 617.264 10.14C616.634 10.14 616.039 10.0233 615.479 9.79C614.919 9.53333 614.417 9.195 613.974 8.775C613.554 8.33166 613.216 7.83 612.959 7.27C612.726 6.68666 612.609 6.08 612.609 5.45C612.609 4.79667 612.726 4.19 612.959 3.63C613.216 3.04666 613.554 2.545 613.974 2.125C614.417 1.68166 614.919 1.34333 615.479 1.11C616.039 0.853331 616.634 0.724999 617.264 0.724999C617.894 0.724999 618.501 0.853331 619.084 1.11C619.667 1.34333 620.169 1.68166 620.589 2.125C621.032 2.545 621.382 3.04666 621.639 3.63C621.896 4.19 622.024 4.79667 622.024 5.45ZM649.72 36.215C646.944 36.3083 644.587 36.53 642.65 36.88C640.714 37.2067 639.139 37.65 637.925 38.21C636.712 38.77 635.837 39.435 635.3 40.205C634.764 40.9517 634.495 41.7917 634.495 42.725C634.495 43.6117 634.635 44.3817 634.915 45.035C635.219 45.665 635.615 46.19 636.105 46.61C636.619 47.0067 637.214 47.2983 637.89 47.485C638.567 47.6717 639.302 47.765 640.095 47.765C641.145 47.765 642.102 47.66 642.965 47.45C643.852 47.24 644.68 46.9483 645.45 46.575C646.22 46.1783 646.955 45.7 647.655 45.14C648.355 44.58 649.044 43.9383 649.72 43.215V36.215ZM629.7 21.41C631.684 19.52 633.83 18.1083 636.14 17.175C638.474 16.2417 641.029 15.775 643.805 15.775C645.835 15.775 647.632 16.1133 649.195 16.79C650.759 17.4433 652.077 18.365 653.15 19.555C654.224 20.745 655.029 22.1683 655.565 23.825C656.125 25.4817 656.405 27.3133 656.405 29.32V52H653.36C652.684 52 652.17 51.895 651.82 51.685C651.47 51.4517 651.19 51.0317 650.98 50.425L650.245 47.31C649.335 48.15 648.437 48.8967 647.55 49.55C646.664 50.18 645.73 50.7283 644.75 51.195C643.794 51.6383 642.767 51.9767 641.67 52.21C640.574 52.4433 639.36 52.56 638.03 52.56C636.63 52.56 635.312 52.3733 634.075 52C632.862 51.6033 631.8 51.0083 630.89 50.215C629.98 49.4217 629.257 48.43 628.72 47.24C628.207 46.05 627.95 44.6617 627.95 43.075C627.95 41.675 628.324 40.3333 629.07 39.05C629.84 37.7433 631.077 36.5767 632.78 35.55C634.507 34.5233 636.747 33.6833 639.5 33.03C642.277 32.3767 645.684 32.0033 649.72 31.91V29.32C649.72 26.6367 649.149 24.63 648.005 23.3C646.862 21.97 645.182 21.305 642.965 21.305C641.472 21.305 640.212 21.4917 639.185 21.865C638.182 22.2383 637.307 22.6583 636.56 23.125C635.837 23.5683 635.195 23.9767 634.635 24.35C634.099 24.7233 633.539 24.91 632.955 24.91C632.489 24.91 632.08 24.7817 631.73 24.525C631.404 24.2683 631.135 23.965 630.925 23.615L629.7 21.41ZM706.172 25.05C705.052 23.58 703.839 22.5533 702.532 21.97C701.249 21.3867 699.802 21.095 698.192 21.095C695.065 21.095 692.639 22.2267 690.912 24.49C689.209 26.73 688.357 30.0083 688.357 34.325C688.357 36.5883 688.544 38.525 688.917 40.135C689.314 41.7217 689.874 43.0283 690.597 44.055C691.344 45.0583 692.254 45.805 693.327 46.295C694.4 46.7617 695.614 46.995 696.967 46.995C698.95 46.995 700.665 46.5517 702.112 45.665C703.559 44.7783 704.912 43.53 706.172 41.92V25.05ZM713.032 0.339998V52H708.902C707.945 52 707.35 51.545 707.117 50.635L706.522 46.54C705.005 48.3367 703.279 49.7833 701.342 50.88C699.429 51.9533 697.212 52.49 694.692 52.49C692.662 52.49 690.819 52.0933 689.162 51.3C687.529 50.5067 686.129 49.3517 684.962 47.835C683.795 46.295 682.897 44.3933 682.267 42.13C681.637 39.8667 681.322 37.265 681.322 34.325C681.322 31.6883 681.672 29.2383 682.372 26.975C683.072 24.7117 684.087 22.7517 685.417 21.095C686.747 19.4383 688.357 18.1433 690.247 17.21C692.137 16.2533 694.272 15.775 696.652 15.775C698.799 15.775 700.619 16.125 702.112 16.825C703.629 17.525 704.982 18.5167 706.172 19.8V0.339998H713.032ZM746.109 30.265C746.109 28.9117 745.91 27.6633 745.514 26.52C745.14 25.3767 744.58 24.385 743.834 23.545C743.087 22.705 742.177 22.0517 741.104 21.585C740.03 21.1183 738.794 20.885 737.394 20.885C734.524 20.885 732.26 21.7133 730.604 23.37C728.97 25.0267 727.932 27.325 727.489 30.265H746.109ZM751.744 46.925C750.904 47.905 749.935 48.7567 748.839 49.48C747.742 50.18 746.575 50.7517 745.339 51.195C744.102 51.6383 742.819 51.965 741.489 52.175C740.182 52.385 738.887 52.49 737.604 52.49C735.154 52.49 732.879 52.0817 730.779 51.265C728.702 50.425 726.894 49.2117 725.354 47.625C723.837 46.015 722.647 44.0317 721.784 41.675C720.944 39.295 720.524 36.565 720.524 33.485C720.524 31.0117 720.909 28.7133 721.679 26.59C722.449 24.4433 723.545 22.5767 724.969 20.99C726.415 19.4033 728.177 18.155 730.254 17.245C732.33 16.335 734.664 15.88 737.254 15.88C739.424 15.88 741.419 16.2417 743.239 16.965C745.082 17.665 746.669 18.6917 747.999 20.045C749.329 21.3983 750.367 23.0667 751.114 25.05C751.884 27.0333 752.269 29.2967 752.269 31.84C752.269 32.89 752.152 33.6017 751.919 33.975C751.685 34.325 751.254 34.5 750.624 34.5H727.314C727.384 36.6233 727.687 38.4783 728.224 40.065C728.76 41.6283 729.495 42.935 730.429 43.985C731.385 45.035 732.517 45.8167 733.824 46.33C735.13 46.8433 736.589 47.1 738.199 47.1C739.715 47.1 741.022 46.925 742.119 46.575C743.239 46.225 744.195 45.8517 744.989 45.455C745.805 45.035 746.482 44.65 747.019 44.3C747.579 43.95 748.069 43.775 748.489 43.775C749.049 43.775 749.48 43.985 749.784 44.405L751.744 46.925ZM94.4949 93.93C94.2616 94.3267 94.0166 94.6183 93.7599 94.805C93.5033 94.9917 93.1766 95.085 92.7799 95.085C92.3599 95.085 91.8816 94.8983 91.3449 94.525C90.8083 94.1283 90.1316 93.6967 89.3149 93.23C88.5216 92.74 87.5649 92.3083 86.4449 91.935C85.3249 91.5383 83.9833 91.34 82.4199 91.34C80.9499 91.34 79.6549 91.5383 78.5349 91.935C77.4383 92.3083 76.5166 92.8333 75.7699 93.51C75.0233 94.1633 74.4516 94.945 74.0549 95.855C73.6816 96.7417 73.4949 97.71 73.4949 98.76C73.4949 100.113 73.8333 101.233 74.5099 102.12C75.2099 103.007 76.1199 103.765 77.2399 104.395C78.3599 105.025 79.6316 105.573 81.0549 106.04C82.4783 106.507 83.9366 106.997 85.4299 107.51C86.9233 108 88.3816 108.572 89.8049 109.225C91.2283 109.878 92.4999 110.707 93.6199 111.71C94.7399 112.69 95.6383 113.903 96.3149 115.35C97.0149 116.773 97.3649 118.523 97.3649 120.6C97.3649 122.817 96.9799 124.893 96.2099 126.83C95.4633 128.767 94.3666 130.458 92.9199 131.905C91.4733 133.352 89.6883 134.495 87.5649 135.335C85.4649 136.152 83.0733 136.56 80.3899 136.56C78.7799 136.56 77.2166 136.397 75.6999 136.07C74.1833 135.767 72.7483 135.335 71.3949 134.775C70.0416 134.192 68.7699 133.503 67.5799 132.71C66.4133 131.893 65.3633 130.983 64.4299 129.98L66.5649 126.41C66.7749 126.13 67.0199 125.897 67.2999 125.71C67.6033 125.523 67.9416 125.43 68.3149 125.43C68.8049 125.43 69.3649 125.687 69.9949 126.2C70.6483 126.713 71.4416 127.285 72.3749 127.915C73.3316 128.522 74.4633 129.082 75.7699 129.595C77.0999 130.108 78.7099 130.365 80.5999 130.365C82.1399 130.365 83.5166 130.167 84.7299 129.77C85.9433 129.35 86.9583 128.767 87.7749 128.02C88.6149 127.25 89.2566 126.328 89.6999 125.255C90.1433 124.182 90.3649 122.992 90.3649 121.685C90.3649 120.215 90.0266 119.013 89.3499 118.08C88.6733 117.147 87.7749 116.365 86.6549 115.735C85.5349 115.105 84.2633 114.568 82.8399 114.125C81.4166 113.682 79.9583 113.227 78.4649 112.76C76.9716 112.27 75.5133 111.71 74.0899 111.08C72.6666 110.45 71.3949 109.633 70.2749 108.63C69.1549 107.603 68.2566 106.332 67.5799 104.815C66.9033 103.275 66.5649 101.385 66.5649 99.145C66.5649 97.3483 66.9149 95.61 67.6149 93.93C68.3149 92.25 69.3299 90.7683 70.6599 89.485C72.0133 88.1783 73.6699 87.14 75.6299 86.37C77.5899 85.5767 79.8299 85.18 82.3499 85.18C85.1733 85.18 87.7633 85.635 90.1199 86.545C92.4999 87.4317 94.5649 88.715 96.3149 90.395L94.4949 93.93ZM123.798 120.215C121.021 120.308 118.664 120.53 116.728 120.88C114.791 121.207 113.216 121.65 112.003 122.21C110.789 122.77 109.914 123.435 109.378 124.205C108.841 124.952 108.573 125.792 108.573 126.725C108.573 127.612 108.713 128.382 108.993 129.035C109.296 129.665 109.693 130.19 110.183 130.61C110.696 131.007 111.291 131.298 111.968 131.485C112.644 131.672 113.379 131.765 114.173 131.765C115.223 131.765 116.179 131.66 117.043 131.45C117.929 131.24 118.758 130.948 119.528 130.575C120.298 130.178 121.033 129.7 121.733 129.14C122.433 128.58 123.121 127.938 123.798 127.215V120.215ZM103.778 105.41C105.761 103.52 107.908 102.108 110.218 101.175C112.551 100.242 115.106 99.775 117.883 99.775C119.913 99.775 121.709 100.113 123.273 100.79C124.836 101.443 126.154 102.365 127.228 103.555C128.301 104.745 129.106 106.168 129.643 107.825C130.203 109.482 130.483 111.313 130.483 113.32V136H127.438C126.761 136 126.248 135.895 125.898 135.685C125.548 135.452 125.268 135.032 125.058 134.425L124.323 131.31C123.413 132.15 122.514 132.897 121.628 133.55C120.741 134.18 119.808 134.728 118.828 135.195C117.871 135.638 116.844 135.977 115.748 136.21C114.651 136.443 113.438 136.56 112.108 136.56C110.708 136.56 109.389 136.373 108.153 136C106.939 135.603 105.878 135.008 104.968 134.215C104.058 133.422 103.334 132.43 102.798 131.24C102.284 130.05 102.028 128.662 102.028 127.075C102.028 125.675 102.401 124.333 103.148 123.05C103.918 121.743 105.154 120.577 106.858 119.55C108.584 118.523 110.824 117.683 113.578 117.03C116.354 116.377 119.761 116.003 123.798 115.91V113.32C123.798 110.637 123.226 108.63 122.083 107.3C120.939 105.97 119.259 105.305 117.043 105.305C115.549 105.305 114.289 105.492 113.263 105.865C112.259 106.238 111.384 106.658 110.638 107.125C109.914 107.568 109.273 107.977 108.713 108.35C108.176 108.723 107.616 108.91 107.033 108.91C106.566 108.91 106.158 108.782 105.808 108.525C105.481 108.268 105.213 107.965 105.003 107.615L103.778 105.41ZM146.794 100.44V136H139.934V100.44H146.794ZM154.214 85.18L145.919 94.21C145.569 94.6067 145.231 94.8867 144.904 95.05C144.578 95.19 144.146 95.26 143.609 95.26H139.479L144.659 86.79C144.986 86.2533 145.336 85.8567 145.709 85.6C146.106 85.32 146.713 85.18 147.529 85.18H154.214ZM179.566 109.05C178.446 107.58 177.232 106.553 175.926 105.97C174.642 105.387 173.196 105.095 171.586 105.095C168.459 105.095 166.032 106.227 164.306 108.49C162.602 110.73 161.751 114.008 161.751 118.325C161.751 120.588 161.937 122.525 162.311 124.135C162.707 125.722 163.267 127.028 163.991 128.055C164.737 129.058 165.647 129.805 166.721 130.295C167.794 130.762 169.007 130.995 170.361 130.995C172.344 130.995 174.059 130.552 175.506 129.665C176.952 128.778 178.306 127.53 179.566 125.92V109.05ZM186.426 84.34V136H182.296C181.339 136 180.744 135.545 180.511 134.635L179.916 130.54C178.399 132.337 176.672 133.783 174.736 134.88C172.822 135.953 170.606 136.49 168.086 136.49C166.056 136.49 164.212 136.093 162.556 135.3C160.922 134.507 159.522 133.352 158.356 131.835C157.189 130.295 156.291 128.393 155.661 126.13C155.031 123.867 154.716 121.265 154.716 118.325C154.716 115.688 155.066 113.238 155.766 110.975C156.466 108.712 157.481 106.752 158.811 105.095C160.141 103.438 161.751 102.143 163.641 101.21C165.531 100.253 167.666 99.775 170.046 99.775C172.192 99.775 174.012 100.125 175.506 100.825C177.022 101.525 178.376 102.517 179.566 103.8V84.34H186.426ZM215.057 120.215C212.281 120.308 209.924 120.53 207.987 120.88C206.051 121.207 204.476 121.65 203.262 122.21C202.049 122.77 201.174 123.435 200.637 124.205C200.101 124.952 199.832 125.792 199.832 126.725C199.832 127.612 199.972 128.382 200.252 129.035C200.556 129.665 200.952 130.19 201.442 130.61C201.956 131.007 202.551 131.298 203.227 131.485C203.904 131.672 204.639 131.765 205.432 131.765C206.482 131.765 207.439 131.66 208.302 131.45C209.189 131.24 210.017 130.948 210.787 130.575C211.557 130.178 212.292 129.7 212.992 129.14C213.692 128.58 214.381 127.938 215.057 127.215V120.215ZM195.037 105.41C197.021 103.52 199.167 102.108 201.477 101.175C203.811 100.242 206.366 99.775 209.142 99.775C211.172 99.775 212.969 100.113 214.532 100.79C216.096 101.443 217.414 102.365 218.487 103.555C219.561 104.745 220.366 106.168 220.902 107.825C221.462 109.482 221.742 111.313 221.742 113.32V136H218.697C218.021 136 217.507 135.895 217.157 135.685C216.807 135.452 216.527 135.032 216.317 134.425L215.582 131.31C214.672 132.15 213.774 132.897 212.887 133.55C212.001 134.18 211.067 134.728 210.087 135.195C209.131 135.638 208.104 135.977 207.007 136.21C205.911 136.443 204.697 136.56 203.367 136.56C201.967 136.56 200.649 136.373 199.412 136C198.199 135.603 197.137 135.008 196.227 134.215C195.317 133.422 194.594 132.43 194.057 131.24C193.544 130.05 193.287 128.662 193.287 127.075C193.287 125.675 193.661 124.333 194.407 123.05C195.177 121.743 196.414 120.577 198.117 119.55C199.844 118.523 202.084 117.683 204.837 117.03C207.614 116.377 211.021 116.003 215.057 115.91V113.32C215.057 110.637 214.486 108.63 213.342 107.3C212.199 105.97 210.519 105.305 208.302 105.305C206.809 105.305 205.549 105.492 204.522 105.865C203.519 106.238 202.644 106.658 201.897 107.125C201.174 107.568 200.532 107.977 199.972 108.35C199.436 108.723 198.876 108.91 198.292 108.91C197.826 108.91 197.417 108.782 197.067 108.525C196.741 108.268 196.472 107.965 196.262 107.615L195.037 105.41ZM271.509 109.05C270.389 107.58 269.176 106.553 267.869 105.97C266.586 105.387 265.139 105.095 263.529 105.095C260.402 105.095 257.976 106.227 256.249 108.49C254.546 110.73 253.694 114.008 253.694 118.325C253.694 120.588 253.881 122.525 254.254 124.135C254.651 125.722 255.211 127.028 255.934 128.055C256.681 129.058 257.591 129.805 258.664 130.295C259.737 130.762 260.951 130.995 262.304 130.995C264.287 130.995 266.002 130.552 267.449 129.665C268.896 128.778 270.249 127.53 271.509 125.92V109.05ZM278.369 84.34V136H274.239C273.282 136 272.687 135.545 272.454 134.635L271.859 130.54C270.342 132.337 268.616 133.783 266.679 134.88C264.766 135.953 262.549 136.49 260.029 136.49C257.999 136.49 256.156 136.093 254.499 135.3C252.866 134.507 251.466 133.352 250.299 131.835C249.132 130.295 248.234 128.393 247.604 126.13C246.974 123.867 246.659 121.265 246.659 118.325C246.659 115.688 247.009 113.238 247.709 110.975C248.409 108.712 249.424 106.752 250.754 105.095C252.084 103.438 253.694 102.143 255.584 101.21C257.474 100.253 259.609 99.775 261.989 99.775C264.136 99.775 265.956 100.125 267.449 100.825C268.966 101.525 270.319 102.517 271.509 103.8V84.34H278.369ZM307.001 120.215C304.224 120.308 301.867 120.53 299.931 120.88C297.994 121.207 296.419 121.65 295.206 122.21C293.992 122.77 293.117 123.435 292.581 124.205C292.044 124.952 291.776 125.792 291.776 126.725C291.776 127.612 291.916 128.382 292.196 129.035C292.499 129.665 292.896 130.19 293.386 130.61C293.899 131.007 294.494 131.298 295.171 131.485C295.847 131.672 296.582 131.765 297.376 131.765C298.426 131.765 299.382 131.66 300.246 131.45C301.132 131.24 301.961 130.948 302.731 130.575C303.501 130.178 304.236 129.7 304.936 129.14C305.636 128.58 306.324 127.938 307.001 127.215V120.215ZM286.981 105.41C288.964 103.52 291.111 102.108 293.421 101.175C295.754 100.242 298.309 99.775 301.086 99.775C303.116 99.775 304.912 100.113 306.476 100.79C308.039 101.443 309.357 102.365 310.431 103.555C311.504 104.745 312.309 106.168 312.846 107.825C313.406 109.482 313.686 111.313 313.686 113.32V136H310.641C309.964 136 309.451 135.895 309.101 135.685C308.751 135.452 308.471 135.032 308.261 134.425L307.526 131.31C306.616 132.15 305.717 132.897 304.831 133.55C303.944 134.18 303.011 134.728 302.031 135.195C301.074 135.638 300.047 135.977 298.951 136.21C297.854 136.443 296.641 136.56 295.311 136.56C293.911 136.56 292.592 136.373 291.356 136C290.142 135.603 289.081 135.008 288.171 134.215C287.261 133.422 286.537 132.43 286.001 131.24C285.487 130.05 285.231 128.662 285.231 127.075C285.231 125.675 285.604 124.333 286.351 123.05C287.121 121.743 288.357 120.577 290.061 119.55C291.787 118.523 294.027 117.683 296.781 117.03C299.557 116.377 302.964 116.003 307.001 115.91V113.32C307.001 110.637 306.429 108.63 305.286 107.3C304.142 105.97 302.462 105.305 300.246 105.305C298.752 105.305 297.492 105.492 296.466 105.865C295.462 106.238 294.587 106.658 293.841 107.125C293.117 107.568 292.476 107.977 291.916 108.35C291.379 108.723 290.819 108.91 290.236 108.91C289.769 108.91 289.361 108.782 289.011 108.525C288.684 108.268 288.416 107.965 288.206 107.615L286.981 105.41ZM357.152 111.605C359.042 111.605 360.699 111.36 362.122 110.87C363.569 110.38 364.771 109.692 365.727 108.805C366.707 107.895 367.442 106.822 367.932 105.585C368.422 104.325 368.667 102.937 368.667 101.42C368.667 98.3633 367.711 95.96 365.797 94.21C363.907 92.46 361.026 91.585 357.152 91.585H349.382V111.605H357.152ZM357.152 85.74C360.372 85.74 363.172 86.1133 365.552 86.86C367.932 87.6067 369.904 88.6683 371.467 90.045C373.031 91.3983 374.186 93.0433 374.932 94.98C375.702 96.9167 376.087 99.0633 376.087 101.42C376.087 103.777 375.679 105.947 374.862 107.93C374.046 109.89 372.844 111.582 371.257 113.005C369.671 114.428 367.687 115.537 365.307 116.33C362.951 117.1 360.232 117.485 357.152 117.485H349.382V136H341.927V85.74H357.152ZM407.529 117.275L400.074 97.78C399.537 96.45 399.001 94.77 398.464 92.74C398.207 93.7433 397.939 94.6767 397.659 95.54C397.402 96.4033 397.146 97.1733 396.889 97.85L389.469 117.275H407.529ZM422.264 136H416.524C415.871 136 415.334 135.837 414.914 135.51C414.494 135.183 414.191 134.763 414.004 134.25L409.559 122.595H387.404L382.959 134.25C382.796 134.693 382.492 135.102 382.049 135.475C381.606 135.825 381.069 136 380.439 136H374.699L394.719 85.74H402.244L422.264 136ZM442.784 109.96C444.697 109.96 446.377 109.727 447.824 109.26C449.294 108.793 450.519 108.14 451.499 107.3C452.479 106.437 453.214 105.422 453.704 104.255C454.194 103.065 454.439 101.758 454.439 100.335C454.439 97.4417 453.482 95.26 451.569 93.79C449.679 92.32 446.832 91.585 443.029 91.585H435.994V109.96H442.784ZM466.234 136H459.584C458.254 136 457.285 135.475 456.679 134.425L444.254 116.995C443.857 116.412 443.425 116.003 442.959 115.77C442.492 115.513 441.792 115.385 440.859 115.385H435.994V136H428.539V85.74H443.029C446.272 85.74 449.06 86.0783 451.394 86.755C453.75 87.4083 455.687 88.3533 457.204 89.59C458.744 90.8033 459.875 92.2733 460.599 94C461.345 95.7267 461.719 97.6633 461.719 99.81C461.719 101.56 461.45 103.205 460.914 104.745C460.377 106.285 459.584 107.673 458.534 108.91C457.507 110.123 456.247 111.173 454.754 112.06C453.26 112.947 451.569 113.623 449.679 114.09C450.612 114.65 451.417 115.432 452.094 116.435L466.234 136ZM507.257 125.22C507.677 125.22 508.039 125.383 508.342 125.71L511.282 128.93C509.229 131.357 506.72 133.235 503.757 134.565C500.817 135.895 497.27 136.56 493.117 136.56C489.477 136.56 486.175 135.93 483.212 134.67C480.272 133.41 477.752 131.648 475.652 129.385C473.575 127.122 471.965 124.415 470.822 121.265C469.679 118.115 469.107 114.65 469.107 110.87C469.107 107.09 469.702 103.625 470.892 100.475C472.105 97.325 473.797 94.6183 475.967 92.355C478.137 90.0917 480.727 88.33 483.737 87.07C486.77 85.81 490.119 85.18 493.782 85.18C497.352 85.18 500.525 85.7633 503.302 86.93C506.079 88.0967 508.494 89.6483 510.547 91.585L508.097 95.05C507.934 95.3067 507.724 95.5167 507.467 95.68C507.234 95.8433 506.919 95.925 506.522 95.925C506.079 95.925 505.554 95.7033 504.947 95.26C504.364 94.8167 503.582 94.3267 502.602 93.79C501.645 93.23 500.455 92.7283 499.032 92.285C497.609 91.8417 495.835 91.62 493.712 91.62C491.215 91.62 488.929 92.0633 486.852 92.95C484.775 93.8133 482.979 95.0733 481.462 96.73C479.969 98.3633 478.802 100.382 477.962 102.785C477.145 105.165 476.737 107.86 476.737 110.87C476.737 113.927 477.169 116.645 478.032 119.025C478.895 121.405 480.085 123.423 481.602 125.08C483.119 126.737 484.904 127.997 486.957 128.86C489.01 129.723 491.227 130.155 493.607 130.155C495.054 130.155 496.349 130.073 497.492 129.91C498.659 129.723 499.72 129.455 500.677 129.105C501.657 128.755 502.579 128.312 503.442 127.775C504.305 127.215 505.157 126.55 505.997 125.78C506.184 125.617 506.382 125.488 506.592 125.395C506.802 125.278 507.024 125.22 507.257 125.22ZM564.793 129.525C565.54 129.525 566.123 129.747 566.543 130.19C566.963 130.61 567.173 131.17 567.173 131.87V136H533.433V133.655C533.433 133.188 533.527 132.698 533.713 132.185C533.9 131.648 534.215 131.17 534.658 130.75L550.548 114.825C551.878 113.495 553.08 112.212 554.153 110.975C555.227 109.738 556.137 108.513 556.883 107.3C557.63 106.063 558.202 104.803 558.598 103.52C559.018 102.237 559.228 100.883 559.228 99.46C559.228 98.06 559.007 96.835 558.563 95.785C558.12 94.7117 557.513 93.825 556.743 93.125C555.973 92.425 555.063 91.9 554.013 91.55C552.963 91.2 551.832 91.025 550.618 91.025C549.405 91.025 548.285 91.2 547.258 91.55C546.255 91.9 545.357 92.39 544.563 93.02C543.77 93.65 543.105 94.3967 542.568 95.26C542.032 96.1233 541.647 97.0567 541.413 98.06C541.087 98.9467 540.667 99.5417 540.153 99.845C539.663 100.148 538.94 100.218 537.983 100.055L534.413 99.425C534.74 97.0917 535.382 95.0383 536.338 93.265C537.295 91.4917 538.497 90.01 539.943 88.82C541.39 87.6067 543.047 86.6967 544.913 86.09C546.803 85.4833 548.833 85.18 551.003 85.18C553.197 85.18 555.215 85.5067 557.058 86.16C558.925 86.79 560.535 87.7117 561.888 88.925C563.242 90.1383 564.303 91.62 565.073 93.37C565.843 95.0967 566.228 97.0567 566.228 99.25C566.228 101.117 565.948 102.855 565.388 104.465C564.852 106.052 564.105 107.568 563.148 109.015C562.215 110.462 561.118 111.873 559.858 113.25C558.622 114.603 557.303 115.98 555.903 117.38L543.163 130.4C544.143 130.143 545.123 129.933 546.103 129.77C547.107 129.607 548.052 129.525 548.938 129.525H564.793ZM609.459 110.87C609.459 115.257 608.98 119.06 608.024 122.28C607.09 125.5 605.795 128.172 604.139 130.295C602.505 132.395 600.569 133.958 598.329 134.985C596.112 136.012 593.72 136.525 591.154 136.525C588.587 136.525 586.184 136.012 583.944 134.985C581.727 133.958 579.802 132.395 578.169 130.295C576.535 128.172 575.252 125.5 574.319 122.28C573.385 119.06 572.919 115.257 572.919 110.87C572.919 106.483 573.385 102.68 574.319 99.46C575.252 96.2167 576.535 93.545 578.169 91.445C579.802 89.3217 581.727 87.7467 583.944 86.72C586.184 85.6933 588.587 85.18 591.154 85.18C593.72 85.18 596.112 85.6933 598.329 86.72C600.569 87.7467 602.505 89.3217 604.139 91.445C605.795 93.545 607.09 96.2167 608.024 99.46C608.98 102.68 609.459 106.483 609.459 110.87ZM602.389 110.87C602.389 107.09 602.074 103.928 601.444 101.385C600.837 98.8417 600.009 96.8 598.959 95.26C597.932 93.6967 596.742 92.5883 595.389 91.935C594.035 91.2817 592.624 90.955 591.154 90.955C589.684 90.955 588.272 91.2817 586.919 91.935C585.565 92.5883 584.364 93.6967 583.314 95.26C582.287 96.8 581.47 98.8417 580.864 101.385C580.257 103.928 579.954 107.09 579.954 110.87C579.954 114.65 580.257 117.812 580.864 120.355C581.47 122.898 582.287 124.94 583.314 126.48C584.364 128.02 585.565 129.117 586.919 129.77C588.272 130.423 589.684 130.75 591.154 130.75C592.624 130.75 594.035 130.423 595.389 129.77C596.742 129.117 597.932 128.02 598.959 126.48C600.009 124.94 600.837 122.898 601.444 120.355C602.074 117.812 602.389 114.65 602.389 110.87ZM646.004 129.525C646.751 129.525 647.334 129.747 647.754 130.19C648.174 130.61 648.384 131.17 648.384 131.87V136H614.644V133.655C614.644 133.188 614.737 132.698 614.924 132.185C615.111 131.648 615.426 131.17 615.869 130.75L631.759 114.825C633.089 113.495 634.291 112.212 635.364 110.975C636.437 109.738 637.347 108.513 638.094 107.3C638.841 106.063 639.412 104.803 639.809 103.52C640.229 102.237 640.439 100.883 640.439 99.46C640.439 98.06 640.217 96.835 639.774 95.785C639.331 94.7117 638.724 93.825 637.954 93.125C637.184 92.425 636.274 91.9 635.224 91.55C634.174 91.2 633.042 91.025 631.829 91.025C630.616 91.025 629.496 91.2 628.469 91.55C627.466 91.9 626.567 92.39 625.774 93.02C624.981 93.65 624.316 94.3967 623.779 95.26C623.242 96.1233 622.857 97.0567 622.624 98.06C622.297 98.9467 621.877 99.5417 621.364 99.845C620.874 100.148 620.151 100.218 619.194 100.055L615.624 99.425C615.951 97.0917 616.592 95.0383 617.549 93.265C618.506 91.4917 619.707 90.01 621.154 88.82C622.601 87.6067 624.257 86.6967 626.124 86.09C628.014 85.4833 630.044 85.18 632.214 85.18C634.407 85.18 636.426 85.5067 638.269 86.16C640.136 86.79 641.746 87.7117 643.099 88.925C644.452 90.1383 645.514 91.62 646.284 93.37C647.054 95.0967 647.439 97.0567 647.439 99.25C647.439 101.117 647.159 102.855 646.599 104.465C646.062 106.052 645.316 107.568 644.359 109.015C643.426 110.462 642.329 111.873 641.069 113.25C639.832 114.603 638.514 115.98 637.114 117.38L624.374 130.4C625.354 130.143 626.334 129.933 627.314 129.77C628.317 129.607 629.262 129.525 630.149 129.525H646.004ZM656.44 99.425C656.79 97.0917 657.443 95.0383 658.4 93.265C659.356 91.4917 660.558 90.01 662.005 88.82C663.451 87.6067 665.108 86.6967 666.975 86.09C668.865 85.4833 670.895 85.18 673.065 85.18C675.235 85.18 677.23 85.495 679.05 86.125C680.87 86.7317 682.421 87.6067 683.705 88.75C685.011 89.87 686.026 91.2233 686.75 92.81C687.473 94.3967 687.835 96.1467 687.835 98.06C687.835 99.67 687.636 101.093 687.24 102.33C686.843 103.567 686.271 104.652 685.525 105.585C684.801 106.518 683.915 107.312 682.865 107.965C681.815 108.595 680.636 109.12 679.33 109.54C682.526 110.427 684.93 111.873 686.54 113.88C688.15 115.863 688.955 118.383 688.955 121.44C688.955 123.797 688.511 125.92 687.625 127.81C686.738 129.677 685.525 131.263 683.985 132.57C682.445 133.853 680.648 134.845 678.595 135.545C676.565 136.222 674.395 136.56 672.085 136.56C669.448 136.56 667.185 136.245 665.295 135.615C663.405 134.962 661.795 134.063 660.465 132.92C659.135 131.753 658.026 130.365 657.14 128.755C656.276 127.122 655.541 125.337 654.935 123.4L657.91 122.14C658.68 121.813 659.426 121.72 660.15 121.86C660.873 122 661.398 122.408 661.725 123.085C662.075 123.785 662.471 124.578 662.915 125.465C663.381 126.328 664 127.157 664.77 127.95C665.54 128.72 666.496 129.373 667.64 129.91C668.806 130.447 670.265 130.715 672.015 130.715C673.695 130.715 675.165 130.447 676.425 129.91C677.685 129.35 678.735 128.638 679.575 127.775C680.415 126.888 681.045 125.908 681.465 124.835C681.885 123.762 682.095 122.7 682.095 121.65C682.095 120.343 681.931 119.142 681.605 118.045C681.278 116.948 680.648 116.015 679.715 115.245C678.805 114.452 677.533 113.833 675.9 113.39C674.266 112.947 672.143 112.725 669.53 112.725V107.755C671.676 107.732 673.485 107.51 674.955 107.09C676.448 106.67 677.65 106.087 678.56 105.34C679.47 104.593 680.123 103.707 680.52 102.68C680.94 101.653 681.15 100.51 681.15 99.25C681.15 97.8733 680.94 96.6717 680.52 95.645C680.1 94.6183 679.505 93.7667 678.735 93.09C677.988 92.39 677.09 91.8767 676.04 91.55C675.013 91.2 673.893 91.025 672.68 91.025C671.466 91.025 670.346 91.2 669.32 91.55C668.293 91.9 667.383 92.39 666.59 93.02C665.796 93.65 665.131 94.3967 664.595 95.26C664.058 96.1233 663.673 97.0567 663.44 98.06C663.113 98.9467 662.693 99.5417 662.18 99.845C661.69 100.148 660.978 100.218 660.045 100.055L656.44 99.425Z" fill="#4C5773"/>
</svg>
