<svg width="1047" height="65" viewBox="0 0 1047 65" fill="none" xmlns="http://www.w3.org/2000/svg">
<path d="M32.9469 33.275L25.4919 13.78C24.9552 12.45 24.4185 10.77 23.8819 8.74C23.6252 9.74333 23.3569 10.6767 23.0769 11.54C22.8202 12.4033 22.5635 13.1733 22.3069 13.85L14.8869 33.275H32.9469ZM47.6819 52H41.9419C41.2885 52 40.7519 51.8367 40.3319 51.51C39.9119 51.1833 39.6085 50.7633 39.4219 50.25L34.9769 38.595H12.8219L8.37688 50.25C8.21354 50.6933 7.91021 51.1017 7.46688 51.475C7.02354 51.825 6.48688 52 5.85688 52H0.116875L20.1369 1.74H27.6619L47.6819 52ZM80.624 16.44L66.204 52H60.044L45.624 16.44H51.259C51.7957 16.44 52.239 16.5683 52.589 16.825C52.939 17.0817 53.1723 17.4083 53.289 17.805L61.794 39.645C62.0973 40.555 62.354 41.465 62.564 42.375C62.7973 43.2617 63.0073 44.1483 63.194 45.035C63.3807 44.1483 63.5907 43.2617 63.824 42.375C64.0573 41.4883 64.3373 40.5783 64.664 39.645L73.274 17.805C73.414 17.4083 73.659 17.0817 74.009 16.825C74.359 16.5683 74.779 16.44 75.269 16.44H80.624ZM104.343 36.215C101.566 36.3083 99.2092 36.53 97.2725 36.88C95.3358 37.2067 93.7608 37.65 92.5475 38.21C91.3342 38.77 90.4592 39.435 89.9225 40.205C89.3858 40.9517 89.1175 41.7917 89.1175 42.725C89.1175 43.6117 89.2575 44.3817 89.5375 45.035C89.8408 45.665 90.2375 46.19 90.7275 46.61C91.2408 47.0067 91.8358 47.2983 92.5125 47.485C93.1892 47.6717 93.9242 47.765 94.7175 47.765C95.7675 47.765 96.7242 47.66 97.5875 47.45C98.4742 47.24 99.3025 46.9483 100.073 46.575C100.843 46.1783 101.578 45.7 102.278 45.14C102.978 44.58 103.666 43.9383 104.343 43.215V36.215ZM84.3225 21.41C86.3058 19.52 88.4525 18.1083 90.7625 17.175C93.0958 16.2417 95.6508 15.775 98.4275 15.775C100.458 15.775 102.254 16.1133 103.818 16.79C105.381 17.4433 106.699 18.365 107.773 19.555C108.846 20.745 109.651 22.1683 110.188 23.825C110.748 25.4817 111.028 27.3133 111.028 29.32V52H107.983C107.306 52 106.793 51.895 106.443 51.685C106.093 51.4517 105.813 51.0317 105.603 50.425L104.868 47.31C103.958 48.15 103.059 48.8967 102.173 49.55C101.286 50.18 100.353 50.7283 99.3725 51.195C98.4158 51.6383 97.3892 51.9767 96.2925 52.21C95.1958 52.4433 93.9825 52.56 92.6525 52.56C91.2525 52.56 89.9342 52.3733 88.6975 52C87.4842 51.6033 86.4225 51.0083 85.5125 50.215C84.6025 49.4217 83.8792 48.43 83.3425 47.24C82.8292 46.05 82.5725 44.6617 82.5725 43.075C82.5725 41.675 82.9458 40.3333 83.6925 39.05C84.4625 37.7433 85.6992 36.5767 87.4025 35.55C89.1292 34.5233 91.3692 33.6833 94.1225 33.03C96.8992 32.3767 100.306 32.0033 104.343 31.91V29.32C104.343 26.6367 103.771 24.63 102.628 23.3C101.484 21.97 99.8042 21.305 97.5875 21.305C96.0942 21.305 94.8342 21.4917 93.8075 21.865C92.8042 22.2383 91.9292 22.6583 91.1825 23.125C90.4592 23.5683 89.8175 23.9767 89.2575 24.35C88.7208 24.7233 88.1608 24.91 87.5775 24.91C87.1108 24.91 86.7025 24.7817 86.3525 24.525C86.0258 24.2683 85.7575 23.965 85.5475 23.615L84.3225 21.41ZM127.164 0.339998V52H120.304V0.339998H127.164ZM144.052 16.44V52H137.227V16.44H144.052ZM145.347 5.45C145.347 6.08 145.219 6.68666 144.962 7.27C144.706 7.83 144.356 8.33166 143.912 8.775C143.492 9.195 142.991 9.53333 142.407 9.79C141.824 10.0233 141.217 10.14 140.587 10.14C139.957 10.14 139.362 10.0233 138.802 9.79C138.242 9.53333 137.741 9.195 137.297 8.775C136.877 8.33166 136.539 7.83 136.282 7.27C136.049 6.68666 135.932 6.08 135.932 5.45C135.932 4.79667 136.049 4.19 136.282 3.63C136.539 3.04666 136.877 2.545 137.297 2.125C137.741 1.68166 138.242 1.34333 138.802 1.11C139.362 0.853331 139.957 0.724999 140.587 0.724999C141.217 0.724999 141.824 0.853331 142.407 1.11C142.991 1.34333 143.492 1.68166 143.912 2.125C144.356 2.545 144.706 3.04666 144.962 3.63C145.219 4.19 145.347 4.79667 145.347 5.45ZM173.044 36.215C170.267 36.3083 167.91 36.53 165.974 36.88C164.037 37.2067 162.462 37.65 161.249 38.21C160.035 38.77 159.16 39.435 158.624 40.205C158.087 40.9517 157.819 41.7917 157.819 42.725C157.819 43.6117 157.959 44.3817 158.239 45.035C158.542 45.665 158.939 46.19 159.429 46.61C159.942 47.0067 160.537 47.2983 161.214 47.485C161.89 47.6717 162.625 47.765 163.419 47.765C164.469 47.765 165.425 47.66 166.289 47.45C167.175 47.24 168.004 46.9483 168.774 46.575C169.544 46.1783 170.279 45.7 170.979 45.14C171.679 44.58 172.367 43.9383 173.044 43.215V36.215ZM153.024 21.41C155.007 19.52 157.154 18.1083 159.464 17.175C161.797 16.2417 164.352 15.775 167.129 15.775C169.159 15.775 170.955 16.1133 172.519 16.79C174.082 17.4433 175.4 18.365 176.474 19.555C177.547 20.745 178.352 22.1683 178.889 23.825C179.449 25.4817 179.729 27.3133 179.729 29.32V52H176.684C176.007 52 175.494 51.895 175.144 51.685C174.794 51.4517 174.514 51.0317 174.304 50.425L173.569 47.31C172.659 48.15 171.76 48.8967 170.874 49.55C169.987 50.18 169.054 50.7283 168.074 51.195C167.117 51.6383 166.09 51.9767 164.994 52.21C163.897 52.4433 162.684 52.56 161.354 52.56C159.954 52.56 158.635 52.3733 157.399 52C156.185 51.6033 155.124 51.0083 154.214 50.215C153.304 49.4217 152.58 48.43 152.044 47.24C151.53 46.05 151.274 44.6617 151.274 43.075C151.274 41.675 151.647 40.3333 152.394 39.05C153.164 37.7433 154.4 36.5767 156.104 35.55C157.83 34.5233 160.07 33.6833 162.824 33.03C165.6 32.3767 169.007 32.0033 173.044 31.91V29.32C173.044 26.6367 172.472 24.63 171.329 23.3C170.185 21.97 168.505 21.305 166.289 21.305C164.795 21.305 163.535 21.4917 162.509 21.865C161.505 22.2383 160.63 22.6583 159.884 23.125C159.16 23.5683 158.519 23.9767 157.959 24.35C157.422 24.7233 156.862 24.91 156.279 24.91C155.812 24.91 155.404 24.7817 155.054 24.525C154.727 24.2683 154.459 23.965 154.249 23.615L153.024 21.41ZM215.99 46.925C214.59 48.6517 212.91 49.9467 210.95 50.81C209.014 51.6733 206.96 52.1983 204.79 52.385L204.195 54.485C206.365 54.9517 207.917 55.5933 208.85 56.41C209.784 57.25 210.25 58.3 210.25 59.56C210.25 60.33 210.052 61.0183 209.655 61.625C209.282 62.2317 208.757 62.745 208.08 63.165C207.404 63.585 206.575 63.9117 205.595 64.145C204.639 64.3783 203.589 64.495 202.445 64.495C201.489 64.495 200.579 64.4017 199.715 64.215C198.875 64.0517 198.082 63.8067 197.335 63.48L197.965 61.345C198.105 60.9017 198.397 60.68 198.84 60.68C198.98 60.68 199.132 60.715 199.295 60.785C199.482 60.8783 199.704 60.96 199.96 61.03C200.217 61.1233 200.509 61.205 200.835 61.275C201.185 61.3683 201.594 61.415 202.06 61.415C202.994 61.415 203.694 61.2283 204.16 60.855C204.627 60.4817 204.86 60.015 204.86 59.455C204.86 58.615 204.382 58.02 203.425 57.67C202.492 57.3433 201.139 57.0633 199.365 56.83L200.835 52.385C198.829 52.175 196.974 51.615 195.27 50.705C193.567 49.795 192.085 48.57 190.825 47.03C189.589 45.4667 188.609 43.6117 187.885 41.465C187.185 39.3183 186.835 36.8917 186.835 34.185C186.835 31.5483 187.197 29.11 187.92 26.87C188.667 24.63 189.752 22.705 191.175 21.095C192.622 19.4617 194.395 18.19 196.495 17.28C198.595 16.3467 200.999 15.88 203.705 15.88C206.249 15.88 208.489 16.2883 210.425 17.105C212.362 17.9217 214.089 19.0767 215.605 20.57L213.785 23.09C213.575 23.3467 213.365 23.5567 213.155 23.72C212.969 23.86 212.689 23.93 212.315 23.93C211.942 23.93 211.545 23.79 211.125 23.51C210.729 23.2067 210.215 22.8917 209.585 22.565C208.979 22.215 208.232 21.9 207.345 21.62C206.482 21.3167 205.409 21.165 204.125 21.165C202.445 21.165 200.964 21.4683 199.68 22.075C198.397 22.6817 197.324 23.545 196.46 24.665C195.62 25.785 194.979 27.15 194.535 28.76C194.092 30.37 193.87 32.1783 193.87 34.185C193.87 36.2617 194.104 38.1167 194.57 39.75C195.037 41.36 195.702 42.725 196.565 43.845C197.429 44.9417 198.479 45.7817 199.715 46.365C200.952 46.925 202.329 47.205 203.845 47.205C205.315 47.205 206.529 47.03 207.485 46.68C208.442 46.3067 209.235 45.91 209.865 45.49C210.495 45.07 211.02 44.685 211.44 44.335C211.86 43.9617 212.292 43.775 212.735 43.775C213.295 43.775 213.727 43.985 214.03 44.405L215.99 46.925ZM236.901 15.88C239.515 15.88 241.871 16.3117 243.971 17.175C246.095 18.015 247.891 19.24 249.361 20.85C250.855 22.4367 251.998 24.3617 252.791 26.625C253.585 28.865 253.981 31.385 253.981 34.185C253.981 36.985 253.585 39.5167 252.791 41.78C251.998 44.0433 250.855 45.9683 249.361 47.555C247.891 49.1417 246.095 50.3667 243.971 51.23C241.871 52.07 239.515 52.49 236.901 52.49C234.265 52.49 231.885 52.07 229.761 51.23C227.661 50.3667 225.865 49.1417 224.371 47.555C222.878 45.9683 221.723 44.0433 220.906 41.78C220.113 39.5167 219.716 36.985 219.716 34.185C219.716 31.385 220.113 28.865 220.906 26.625C221.723 24.3617 222.878 22.4367 224.371 20.85C225.865 19.24 227.661 18.015 229.761 17.175C231.885 16.3117 234.265 15.88 236.901 15.88ZM236.901 47.17C240.261 47.17 242.77 46.0383 244.426 43.775C246.083 41.5117 246.911 38.3267 246.911 34.22C246.911 30.1133 246.083 26.9283 244.426 24.665C242.77 22.3783 240.261 21.235 236.901 21.235C233.495 21.235 230.951 22.3783 229.271 24.665C227.615 26.9283 226.786 30.1133 226.786 34.22C226.786 38.3267 227.615 41.5117 229.271 43.775C230.951 46.0383 233.495 47.17 236.901 47.17ZM240.786 5.31C241.58 5.31 242.186 5.07666 242.606 4.61C243.05 4.14333 243.283 3.39666 243.306 2.37H247.471C247.471 3.53666 247.308 4.59833 246.981 5.555C246.678 6.51167 246.246 7.34 245.686 8.04C245.126 8.71666 244.45 9.24166 243.656 9.615C242.863 9.98833 241.988 10.175 241.031 10.175C240.215 10.175 239.445 10.0117 238.721 9.685C238.021 9.35833 237.356 8.99667 236.726 8.6C236.096 8.20333 235.49 7.84166 234.906 7.515C234.346 7.18833 233.81 7.025 233.296 7.025C232.526 7.025 231.92 7.27 231.476 7.76C231.056 8.25 230.835 8.99667 230.811 10H226.576C226.576 8.85666 226.728 7.80666 227.031 6.85C227.358 5.87 227.813 5.04167 228.396 4.365C228.98 3.68833 229.656 3.16333 230.426 2.79C231.22 2.39333 232.095 2.195 233.051 2.195C233.891 2.195 234.661 2.35833 235.361 2.685C236.085 3.01166 236.761 3.37333 237.391 3.77C238.021 4.14333 238.616 4.49333 239.176 4.82C239.736 5.14666 240.273 5.31 240.786 5.31ZM285.155 30.265C285.155 28.9117 284.956 27.6633 284.56 26.52C284.186 25.3767 283.626 24.385 282.88 23.545C282.133 22.705 281.223 22.0517 280.15 21.585C279.076 21.1183 277.84 20.885 276.44 20.885C273.57 20.885 271.306 21.7133 269.65 23.37C268.016 25.0267 266.978 27.325 266.535 30.265H285.155ZM290.79 46.925C289.95 47.905 288.981 48.7567 287.885 49.48C286.788 50.18 285.621 50.7517 284.385 51.195C283.148 51.6383 281.865 51.965 280.535 52.175C279.228 52.385 277.933 52.49 276.65 52.49C274.2 52.49 271.925 52.0817 269.825 51.265C267.748 50.425 265.94 49.2117 264.4 47.625C262.883 46.015 261.693 44.0317 260.83 41.675C259.99 39.295 259.57 36.565 259.57 33.485C259.57 31.0117 259.955 28.7133 260.725 26.59C261.495 24.4433 262.591 22.5767 264.015 20.99C265.461 19.4033 267.223 18.155 269.3 17.245C271.376 16.335 273.71 15.88 276.3 15.88C278.47 15.88 280.465 16.2417 282.285 16.965C284.128 17.665 285.715 18.6917 287.045 20.045C288.375 21.3983 289.413 23.0667 290.16 25.05C290.93 27.0333 291.315 29.2967 291.315 31.84C291.315 32.89 291.198 33.6017 290.965 33.975C290.731 34.325 290.3 34.5 289.67 34.5H266.36C266.43 36.6233 266.733 38.4783 267.27 40.065C267.806 41.6283 268.541 42.935 269.475 43.985C270.431 45.035 271.563 45.8167 272.87 46.33C274.176 46.8433 275.635 47.1 277.245 47.1C278.761 47.1 280.068 46.925 281.165 46.575C282.285 46.225 283.241 45.8517 284.035 45.455C284.851 45.035 285.528 44.65 286.065 44.3C286.625 43.95 287.115 43.775 287.535 43.775C288.095 43.775 288.526 43.985 288.83 44.405L290.79 46.925ZM319.615 22.565C319.429 22.8683 319.23 23.09 319.02 23.23C318.81 23.3467 318.542 23.405 318.215 23.405C317.842 23.405 317.422 23.2767 316.955 23.02C316.512 22.7633 315.964 22.4833 315.31 22.18C314.68 21.8767 313.934 21.5967 313.07 21.34C312.207 21.0833 311.18 20.955 309.99 20.955C309.01 20.955 308.112 21.0833 307.295 21.34C306.502 21.5733 305.825 21.9117 305.265 22.355C304.705 22.775 304.274 23.2883 303.97 23.895C303.667 24.4783 303.515 25.1083 303.515 25.785C303.515 26.6717 303.772 27.4067 304.285 27.99C304.822 28.5733 305.51 29.075 306.35 29.495C307.214 29.915 308.182 30.3 309.255 30.65C310.352 30.9767 311.46 31.3267 312.58 31.7C313.724 32.0733 314.832 32.505 315.905 32.995C317.002 33.4617 317.97 34.0567 318.81 34.78C319.674 35.48 320.362 36.3317 320.875 37.335C321.412 38.3383 321.68 39.5633 321.68 41.01C321.68 42.6667 321.377 44.2067 320.77 45.63C320.187 47.03 319.312 48.2433 318.145 49.27C317.002 50.2967 315.579 51.1017 313.875 51.685C312.172 52.2683 310.224 52.56 308.03 52.56C305.58 52.56 303.317 52.1517 301.24 51.335C299.164 50.5183 297.425 49.48 296.025 48.22L297.635 45.595C297.822 45.2683 298.055 45.0233 298.335 44.86C298.615 44.6733 298.989 44.58 299.455 44.58C299.899 44.58 300.354 44.7433 300.82 45.07C301.287 45.3967 301.847 45.7583 302.5 46.155C303.154 46.5283 303.947 46.8783 304.88 47.205C305.814 47.5083 306.98 47.66 308.38 47.66C309.547 47.66 310.562 47.52 311.425 47.24C312.289 46.9367 313 46.54 313.56 46.05C314.144 45.5367 314.575 44.9533 314.855 44.3C315.135 43.6467 315.275 42.9583 315.275 42.235C315.275 41.3017 315.007 40.5317 314.47 39.925C313.957 39.295 313.269 38.7583 312.405 38.315C311.565 37.8717 310.597 37.4867 309.5 37.16C308.404 36.8333 307.284 36.4833 306.14 36.11C304.997 35.7367 303.877 35.305 302.78 34.815C301.684 34.325 300.704 33.7067 299.84 32.96C299 32.2133 298.312 31.3033 297.775 30.23C297.262 29.1567 297.005 27.85 297.005 26.31C297.005 24.9333 297.285 23.615 297.845 22.355C298.429 21.095 299.257 19.9867 300.33 19.03C301.427 18.0733 302.769 17.315 304.355 16.755C305.965 16.1717 307.797 15.88 309.85 15.88C312.207 15.88 314.33 16.2533 316.22 17C318.134 17.7467 319.767 18.7733 321.12 20.08L319.615 22.565ZM379.36 45.945L379.325 52H348.175V1.74H379.325V7.795H355.665V23.72H374.705V29.565H355.665V45.945H379.36ZM407.594 22.565C407.407 22.8683 407.209 23.09 406.999 23.23C406.789 23.3467 406.521 23.405 406.194 23.405C405.821 23.405 405.401 23.2767 404.934 23.02C404.491 22.7633 403.942 22.4833 403.289 22.18C402.659 21.8767 401.912 21.5967 401.049 21.34C400.186 21.0833 399.159 20.955 397.969 20.955C396.989 20.955 396.091 21.0833 395.274 21.34C394.481 21.5733 393.804 21.9117 393.244 22.355C392.684 22.775 392.252 23.2883 391.949 23.895C391.646 24.4783 391.494 25.1083 391.494 25.785C391.494 26.6717 391.751 27.4067 392.264 27.99C392.801 28.5733 393.489 29.075 394.329 29.495C395.192 29.915 396.161 30.3 397.234 30.65C398.331 30.9767 399.439 31.3267 400.559 31.7C401.702 32.0733 402.811 32.505 403.884 32.995C404.981 33.4617 405.949 34.0567 406.789 34.78C407.652 35.48 408.341 36.3317 408.854 37.335C409.391 38.3383 409.659 39.5633 409.659 41.01C409.659 42.6667 409.356 44.2067 408.749 45.63C408.166 47.03 407.291 48.2433 406.124 49.27C404.981 50.2967 403.557 51.1017 401.854 51.685C400.151 52.2683 398.202 52.56 396.009 52.56C393.559 52.56 391.296 52.1517 389.219 51.335C387.142 50.5183 385.404 49.48 384.004 48.22L385.614 45.595C385.801 45.2683 386.034 45.0233 386.314 44.86C386.594 44.6733 386.967 44.58 387.434 44.58C387.877 44.58 388.332 44.7433 388.799 45.07C389.266 45.3967 389.826 45.7583 390.479 46.155C391.132 46.5283 391.926 46.8783 392.859 47.205C393.792 47.5083 394.959 47.66 396.359 47.66C397.526 47.66 398.541 47.52 399.404 47.24C400.267 46.9367 400.979 46.54 401.539 46.05C402.122 45.5367 402.554 44.9533 402.834 44.3C403.114 43.6467 403.254 42.9583 403.254 42.235C403.254 41.3017 402.986 40.5317 402.449 39.925C401.936 39.295 401.247 38.7583 400.384 38.315C399.544 37.8717 398.576 37.4867 397.479 37.16C396.382 36.8333 395.262 36.4833 394.119 36.11C392.976 35.7367 391.856 35.305 390.759 34.815C389.662 34.325 388.682 33.7067 387.819 32.96C386.979 32.2133 386.291 31.3033 385.754 30.23C385.241 29.1567 384.984 27.85 384.984 26.31C384.984 24.9333 385.264 23.615 385.824 22.355C386.407 21.095 387.236 19.9867 388.309 19.03C389.406 18.0733 390.747 17.315 392.334 16.755C393.944 16.1717 395.776 15.88 397.829 15.88C400.186 15.88 402.309 16.2533 404.199 17C406.112 17.7467 407.746 18.7733 409.099 20.08L407.594 22.565ZM428.179 52.56C425.309 52.56 423.092 51.755 421.529 50.145C419.989 48.535 419.219 46.2367 419.219 43.25V21.97H415.089C414.692 21.97 414.354 21.8533 414.074 21.62C413.817 21.3633 413.689 20.99 413.689 20.5V17.735L419.464 16.93L421.004 6.325C421.097 5.92833 421.272 5.625 421.529 5.415C421.809 5.18166 422.159 5.065 422.579 5.065H426.044V17H436.124V21.97H426.044V42.795C426.044 44.195 426.382 45.245 427.059 45.945C427.759 46.6217 428.646 46.96 429.719 46.96C430.349 46.96 430.886 46.8783 431.329 46.715C431.796 46.5517 432.192 46.3767 432.519 46.19C432.846 45.98 433.126 45.7933 433.359 45.63C433.592 45.4667 433.802 45.385 433.989 45.385C434.222 45.385 434.397 45.4433 434.514 45.56C434.654 45.6533 434.794 45.8167 434.934 46.05L436.964 49.34C435.844 50.3667 434.514 51.16 432.974 51.72C431.434 52.28 429.836 52.56 428.179 52.56ZM461.52 36.215C458.744 36.3083 456.387 36.53 454.45 36.88C452.514 37.2067 450.939 37.65 449.725 38.21C448.512 38.77 447.637 39.435 447.1 40.205C446.564 40.9517 446.295 41.7917 446.295 42.725C446.295 43.6117 446.435 44.3817 446.715 45.035C447.019 45.665 447.415 46.19 447.905 46.61C448.419 47.0067 449.014 47.2983 449.69 47.485C450.367 47.6717 451.102 47.765 451.895 47.765C452.945 47.765 453.902 47.66 454.765 47.45C455.652 47.24 456.48 46.9483 457.25 46.575C458.02 46.1783 458.755 45.7 459.455 45.14C460.155 44.58 460.844 43.9383 461.52 43.215V36.215ZM441.5 21.41C443.484 19.52 445.63 18.1083 447.94 17.175C450.274 16.2417 452.829 15.775 455.605 15.775C457.635 15.775 459.432 16.1133 460.995 16.79C462.559 17.4433 463.877 18.365 464.95 19.555C466.024 20.745 466.829 22.1683 467.365 23.825C467.925 25.4817 468.205 27.3133 468.205 29.32V52H465.16C464.484 52 463.97 51.895 463.62 51.685C463.27 51.4517 462.99 51.0317 462.78 50.425L462.045 47.31C461.135 48.15 460.237 48.8967 459.35 49.55C458.464 50.18 457.53 50.7283 456.55 51.195C455.594 51.6383 454.567 51.9767 453.47 52.21C452.374 52.4433 451.16 52.56 449.83 52.56C448.43 52.56 447.112 52.3733 445.875 52C444.662 51.6033 443.6 51.0083 442.69 50.215C441.78 49.4217 441.057 48.43 440.52 47.24C440.007 46.05 439.75 44.6617 439.75 43.075C439.75 41.675 440.124 40.3333 440.87 39.05C441.64 37.7433 442.877 36.5767 444.58 35.55C446.307 34.5233 448.547 33.6833 451.3 33.03C454.077 32.3767 457.484 32.0033 461.52 31.91V29.32C461.52 26.6367 460.949 24.63 459.805 23.3C458.662 21.97 456.982 21.305 454.765 21.305C453.272 21.305 452.012 21.4917 450.985 21.865C449.982 22.2383 449.107 22.6583 448.36 23.125C447.637 23.5683 446.995 23.9767 446.435 24.35C445.899 24.7233 445.339 24.91 444.755 24.91C444.289 24.91 443.88 24.7817 443.53 24.525C443.204 24.2683 442.935 23.965 442.725 23.615L441.5 21.41ZM500.267 25.05C499.147 23.58 497.934 22.5533 496.627 21.97C495.344 21.3867 493.897 21.095 492.287 21.095C489.16 21.095 486.734 22.2267 485.007 24.49C483.304 26.73 482.452 30.0083 482.452 34.325C482.452 36.5883 482.639 38.525 483.012 40.135C483.409 41.7217 483.969 43.0283 484.692 44.055C485.439 45.0583 486.349 45.805 487.422 46.295C488.495 46.7617 489.709 46.995 491.062 46.995C493.045 46.995 494.76 46.5517 496.207 45.665C497.654 44.7783 499.007 43.53 500.267 41.92V25.05ZM507.127 0.339998V52H502.997C502.04 52 501.445 51.545 501.212 50.635L500.617 46.54C499.1 48.3367 497.374 49.7833 495.437 50.88C493.524 51.9533 491.307 52.49 488.787 52.49C486.757 52.49 484.914 52.0933 483.257 51.3C481.624 50.5067 480.224 49.3517 479.057 47.835C477.89 46.295 476.992 44.3933 476.362 42.13C475.732 39.8667 475.417 37.265 475.417 34.325C475.417 31.6883 475.767 29.2383 476.467 26.975C477.167 24.7117 478.182 22.7517 479.512 21.095C480.842 19.4383 482.452 18.1433 484.342 17.21C486.232 16.2533 488.367 15.775 490.747 15.775C492.894 15.775 494.714 16.125 496.207 16.825C497.724 17.525 499.077 18.5167 500.267 19.8V0.339998H507.127ZM546.224 16.44V52H542.129C541.195 52 540.589 51.545 540.309 50.635L539.819 47.065C539.049 47.8817 538.244 48.6283 537.404 49.305C536.564 49.9817 535.665 50.565 534.709 51.055C533.752 51.5217 532.737 51.8833 531.664 52.14C530.59 52.42 529.435 52.56 528.199 52.56C526.239 52.56 524.512 52.2333 523.019 51.58C521.549 50.9267 520.312 50.0167 519.309 48.85C518.305 47.66 517.547 46.2367 517.034 44.58C516.52 42.9233 516.264 41.0917 516.264 39.085V16.44H523.124V39.085C523.124 41.6283 523.707 43.6117 524.874 45.035C526.04 46.435 527.825 47.135 530.229 47.135C531.979 47.135 533.612 46.7267 535.129 45.91C536.645 45.07 538.069 43.9267 539.399 42.48V16.44H546.224ZM574.86 36.215C572.083 36.3083 569.727 36.53 567.79 36.88C565.853 37.2067 564.278 37.65 563.065 38.21C561.852 38.77 560.977 39.435 560.44 40.205C559.903 40.9517 559.635 41.7917 559.635 42.725C559.635 43.6117 559.775 44.3817 560.055 45.035C560.358 45.665 560.755 46.19 561.245 46.61C561.758 47.0067 562.353 47.2983 563.03 47.485C563.707 47.6717 564.442 47.765 565.235 47.765C566.285 47.765 567.242 47.66 568.105 47.45C568.992 47.24 569.82 46.9483 570.59 46.575C571.36 46.1783 572.095 45.7 572.795 45.14C573.495 44.58 574.183 43.9383 574.86 43.215V36.215ZM554.84 21.41C556.823 19.52 558.97 18.1083 561.28 17.175C563.613 16.2417 566.168 15.775 568.945 15.775C570.975 15.775 572.772 16.1133 574.335 16.79C575.898 17.4433 577.217 18.365 578.29 19.555C579.363 20.745 580.168 22.1683 580.705 23.825C581.265 25.4817 581.545 27.3133 581.545 29.32V52H578.5C577.823 52 577.31 51.895 576.96 51.685C576.61 51.4517 576.33 51.0317 576.12 50.425L575.385 47.31C574.475 48.15 573.577 48.8967 572.69 49.55C571.803 50.18 570.87 50.7283 569.89 51.195C568.933 51.6383 567.907 51.9767 566.81 52.21C565.713 52.4433 564.5 52.56 563.17 52.56C561.77 52.56 560.452 52.3733 559.215 52C558.002 51.6033 556.94 51.0083 556.03 50.215C555.12 49.4217 554.397 48.43 553.86 47.24C553.347 46.05 553.09 44.6617 553.09 43.075C553.09 41.675 553.463 40.3333 554.21 39.05C554.98 37.7433 556.217 36.5767 557.92 35.55C559.647 34.5233 561.887 33.6833 564.64 33.03C567.417 32.3767 570.823 32.0033 574.86 31.91V29.32C574.86 26.6367 574.288 24.63 573.145 23.3C572.002 21.97 570.322 21.305 568.105 21.305C566.612 21.305 565.352 21.4917 564.325 21.865C563.322 22.2383 562.447 22.6583 561.7 23.125C560.977 23.5683 560.335 23.9767 559.775 24.35C559.238 24.7233 558.678 24.91 558.095 24.91C557.628 24.91 557.22 24.7817 556.87 24.525C556.543 24.2683 556.275 23.965 556.065 23.615L554.84 21.41ZM597.822 16.44V52H590.997V16.44H597.822ZM599.117 5.45C599.117 6.08 598.988 6.68666 598.732 7.27C598.475 7.83 598.125 8.33166 597.682 8.775C597.262 9.195 596.76 9.53333 596.177 9.79C595.593 10.0233 594.987 10.14 594.357 10.14C593.727 10.14 593.132 10.0233 592.572 9.79C592.012 9.53333 591.51 9.195 591.067 8.775C590.647 8.33166 590.308 7.83 590.052 7.27C589.818 6.68666 589.702 6.08 589.702 5.45C589.702 4.79667 589.818 4.19 590.052 3.63C590.308 3.04666 590.647 2.545 591.067 2.125C591.51 1.68166 592.012 1.34333 592.572 1.11C593.132 0.853331 593.727 0.724999 594.357 0.724999C594.987 0.724999 595.593 0.853331 596.177 1.11C596.76 1.34333 597.262 1.68166 597.682 2.125C598.125 2.545 598.475 3.04666 598.732 3.63C598.988 4.19 599.117 4.79667 599.117 5.45ZM628.668 22.565C628.482 22.8683 628.283 23.09 628.073 23.23C627.863 23.3467 627.595 23.405 627.268 23.405C626.895 23.405 626.475 23.2767 626.008 23.02C625.565 22.7633 625.017 22.4833 624.363 22.18C623.733 21.8767 622.987 21.5967 622.123 21.34C621.26 21.0833 620.233 20.955 619.043 20.955C618.063 20.955 617.165 21.0833 616.348 21.34C615.555 21.5733 614.878 21.9117 614.318 22.355C613.758 22.775 613.327 23.2883 613.023 23.895C612.72 24.4783 612.568 25.1083 612.568 25.785C612.568 26.6717 612.825 27.4067 613.338 27.99C613.875 28.5733 614.563 29.075 615.403 29.495C616.267 29.915 617.235 30.3 618.308 30.65C619.405 30.9767 620.513 31.3267 621.633 31.7C622.777 32.0733 623.885 32.505 624.958 32.995C626.055 33.4617 627.023 34.0567 627.863 34.78C628.727 35.48 629.415 36.3317 629.928 37.335C630.465 38.3383 630.733 39.5633 630.733 41.01C630.733 42.6667 630.43 44.2067 629.823 45.63C629.24 47.03 628.365 48.2433 627.198 49.27C626.055 50.2967 624.632 51.1017 622.928 51.685C621.225 52.2683 619.277 52.56 617.083 52.56C614.633 52.56 612.37 52.1517 610.293 51.335C608.217 50.5183 606.478 49.48 605.078 48.22L606.688 45.595C606.875 45.2683 607.108 45.0233 607.388 44.86C607.668 44.6733 608.042 44.58 608.508 44.58C608.952 44.58 609.407 44.7433 609.873 45.07C610.34 45.3967 610.9 45.7583 611.553 46.155C612.207 46.5283 613 46.8783 613.933 47.205C614.867 47.5083 616.033 47.66 617.433 47.66C618.6 47.66 619.615 47.52 620.478 47.24C621.342 46.9367 622.053 46.54 622.613 46.05C623.197 45.5367 623.628 44.9533 623.908 44.3C624.188 43.6467 624.328 42.9583 624.328 42.235C624.328 41.3017 624.06 40.5317 623.523 39.925C623.01 39.295 622.322 38.7583 621.458 38.315C620.618 37.8717 619.65 37.4867 618.553 37.16C617.457 36.8333 616.337 36.4833 615.193 36.11C614.05 35.7367 612.93 35.305 611.833 34.815C610.737 34.325 609.757 33.7067 608.893 32.96C608.053 32.2133 607.365 31.3033 606.828 30.23C606.315 29.1567 606.058 27.85 606.058 26.31C606.058 24.9333 606.338 23.615 606.898 22.355C607.482 21.095 608.31 19.9867 609.383 19.03C610.48 18.0733 611.822 17.315 613.408 16.755C615.018 16.1717 616.85 15.88 618.903 15.88C621.26 15.88 623.383 16.2533 625.273 17C627.187 17.7467 628.82 18.7733 630.173 20.08L628.668 22.565ZM637.563 47.905C637.563 47.275 637.68 46.68 637.913 46.12C638.146 45.56 638.461 45.07 638.858 44.65C639.278 44.23 639.768 43.9033 640.328 43.67C640.888 43.4133 641.495 43.285 642.148 43.285C642.778 43.285 643.373 43.4133 643.933 43.67C644.493 43.9033 644.983 44.23 645.403 44.65C645.823 45.07 646.15 45.56 646.383 46.12C646.64 46.68 646.768 47.275 646.768 47.905C646.768 48.5583 646.64 49.165 646.383 49.725C646.15 50.285 645.823 50.775 645.403 51.195C644.983 51.615 644.493 51.9417 643.933 52.175C643.373 52.4083 642.778 52.525 642.148 52.525C641.495 52.525 640.888 52.4083 640.328 52.175C639.768 51.9417 639.278 51.615 638.858 51.195C638.461 50.775 638.146 50.285 637.913 49.725C637.68 49.165 637.563 48.5583 637.563 47.905ZM637.563 22.005C637.563 21.375 637.68 20.78 637.913 20.22C638.146 19.66 638.461 19.17 638.858 18.75C639.278 18.33 639.768 18.0033 640.328 17.77C640.888 17.5133 641.495 17.385 642.148 17.385C642.778 17.385 643.373 17.5133 643.933 17.77C644.493 18.0033 644.983 18.33 645.403 18.75C645.823 19.17 646.15 19.66 646.383 20.22C646.64 20.78 646.768 21.375 646.768 22.005C646.768 22.6583 646.64 23.265 646.383 23.825C646.15 24.385 645.823 24.875 645.403 25.295C644.983 25.715 644.493 26.0417 643.933 26.275C643.373 26.5083 642.778 26.625 642.148 26.625C641.495 26.625 640.888 26.5083 640.328 26.275C639.768 26.0417 639.278 25.715 638.858 25.295C638.461 24.875 638.146 24.385 637.913 23.825C637.68 23.265 637.563 22.6583 637.563 22.005ZM703.18 45.525C703.927 45.525 704.51 45.7467 704.93 46.19C705.35 46.61 705.56 47.17 705.56 47.87V52H671.82V49.655C671.82 49.1883 671.913 48.6983 672.1 48.185C672.287 47.6483 672.602 47.17 673.045 46.75L688.935 30.825C690.265 29.495 691.467 28.2117 692.54 26.975C693.613 25.7383 694.523 24.5133 695.27 23.3C696.017 22.0633 696.588 20.8033 696.985 19.52C697.405 18.2367 697.615 16.8833 697.615 15.46C697.615 14.06 697.393 12.835 696.95 11.785C696.507 10.7117 695.9 9.825 695.13 9.125C694.36 8.425 693.45 7.9 692.4 7.55C691.35 7.2 690.218 7.025 689.005 7.025C687.792 7.025 686.672 7.2 685.645 7.55C684.642 7.9 683.743 8.39 682.95 9.02C682.157 9.65 681.492 10.3967 680.955 11.26C680.418 12.1233 680.033 13.0567 679.8 14.06C679.473 14.9467 679.053 15.5417 678.54 15.845C678.05 16.1483 677.327 16.2183 676.37 16.055L672.8 15.425C673.127 13.0917 673.768 11.0383 674.725 9.265C675.682 7.49166 676.883 6.01 678.33 4.82C679.777 3.60666 681.433 2.69666 683.3 2.09C685.19 1.48333 687.22 1.18 689.39 1.18C691.583 1.18 693.602 1.50667 695.445 2.16C697.312 2.79 698.922 3.71166 700.275 4.925C701.628 6.13833 702.69 7.62 703.46 9.37C704.23 11.0967 704.615 13.0567 704.615 15.25C704.615 17.1167 704.335 18.855 703.775 20.465C703.238 22.0517 702.492 23.5683 701.535 25.015C700.602 26.4617 699.505 27.8733 698.245 29.25C697.008 30.6033 695.69 31.98 694.29 33.38L681.55 46.4C682.53 46.1433 683.51 45.9333 684.49 45.77C685.493 45.6067 686.438 45.525 687.325 45.525H703.18ZM723.38 1.145C725.014 1.145 726.507 1.40166 727.86 1.915C729.214 2.405 730.357 3.12833 731.29 4.085C732.247 5.01833 732.982 6.16166 733.495 7.515C734.032 8.845 734.3 10.35 734.3 12.03C734.3 13.7333 734.032 15.2617 733.495 16.615C732.982 17.9683 732.247 19.1233 731.29 20.08C730.357 21.0133 729.214 21.7367 727.86 22.25C726.507 22.7633 725.014 23.02 723.38 23.02C721.724 23.02 720.219 22.7633 718.865 22.25C717.512 21.7367 716.357 21.0133 715.4 20.08C714.444 19.1233 713.697 17.9683 713.16 16.615C712.647 15.2617 712.39 13.7333 712.39 12.03C712.39 10.35 712.647 8.845 713.16 7.515C713.697 6.16166 714.444 5.01833 715.4 4.085C716.357 3.12833 717.512 2.405 718.865 1.915C720.219 1.40166 721.724 1.145 723.38 1.145ZM723.38 18.925C727.09 18.925 728.945 16.6383 728.945 12.065C728.945 7.49167 727.09 5.205 723.38 5.205C721.444 5.205 720.02 5.78833 719.11 6.955C718.2 8.09833 717.745 9.80167 717.745 12.065C717.745 14.3283 718.2 16.0433 719.11 17.21C720.02 18.3533 721.444 18.925 723.38 18.925ZM779.05 36.215C776.273 36.3083 773.916 36.53 771.98 36.88C770.043 37.2067 768.468 37.65 767.255 38.21C766.041 38.77 765.166 39.435 764.63 40.205C764.093 40.9517 763.825 41.7917 763.825 42.725C763.825 43.6117 763.965 44.3817 764.245 45.035C764.548 45.665 764.945 46.19 765.435 46.61C765.948 47.0067 766.543 47.2983 767.22 47.485C767.896 47.6717 768.631 47.765 769.425 47.765C770.475 47.765 771.431 47.66 772.295 47.45C773.181 47.24 774.01 46.9483 774.78 46.575C775.55 46.1783 776.285 45.7 776.985 45.14C777.685 44.58 778.373 43.9383 779.05 43.215V36.215ZM759.03 21.41C761.013 19.52 763.16 18.1083 765.47 17.175C767.803 16.2417 770.358 15.775 773.135 15.775C775.165 15.775 776.961 16.1133 778.525 16.79C780.088 17.4433 781.406 18.365 782.48 19.555C783.553 20.745 784.358 22.1683 784.895 23.825C785.455 25.4817 785.735 27.3133 785.735 29.32V52H782.69C782.013 52 781.5 51.895 781.15 51.685C780.8 51.4517 780.52 51.0317 780.31 50.425L779.575 47.31C778.665 48.15 777.766 48.8967 776.88 49.55C775.993 50.18 775.06 50.7283 774.08 51.195C773.123 51.6383 772.096 51.9767 771 52.21C769.903 52.4433 768.69 52.56 767.36 52.56C765.96 52.56 764.641 52.3733 763.405 52C762.191 51.6033 761.13 51.0083 760.22 50.215C759.31 49.4217 758.586 48.43 758.05 47.24C757.536 46.05 757.28 44.6617 757.28 43.075C757.28 41.675 757.653 40.3333 758.4 39.05C759.17 37.7433 760.406 36.5767 762.11 35.55C763.836 34.5233 766.076 33.6833 768.83 33.03C771.606 32.3767 775.013 32.0033 779.05 31.91V29.32C779.05 26.6367 778.478 24.63 777.335 23.3C776.191 21.97 774.511 21.305 772.295 21.305C770.801 21.305 769.541 21.4917 768.515 21.865C767.511 22.2383 766.636 22.6583 765.89 23.125C765.166 23.5683 764.525 23.9767 763.965 24.35C763.428 24.7233 762.868 24.91 762.285 24.91C761.818 24.91 761.41 24.7817 761.06 24.525C760.733 24.2683 760.465 23.965 760.255 23.615L759.03 21.41ZM801.276 21.375C802.046 20.5583 802.851 19.8117 803.691 19.135C804.531 18.4583 805.418 17.8867 806.351 17.42C807.308 16.93 808.323 16.5567 809.396 16.3C810.493 16.02 811.66 15.88 812.896 15.88C814.856 15.88 816.571 16.2067 818.041 16.86C819.535 17.5133 820.783 18.435 821.786 19.625C822.79 20.7917 823.548 22.2033 824.061 23.86C824.575 25.5167 824.831 27.3483 824.831 29.355V52H817.971V29.355C817.971 26.8117 817.388 24.84 816.221 23.44C815.055 22.0167 813.27 21.305 810.866 21.305C809.116 21.305 807.471 21.725 805.931 22.565C804.415 23.3817 803.003 24.5017 801.696 25.925V52H794.871V16.44H798.966C799.923 16.44 800.518 16.895 800.751 17.805L801.276 21.375ZM849.196 15.88C851.809 15.88 854.166 16.3117 856.266 17.175C858.389 18.015 860.186 19.24 861.656 20.85C863.149 22.4367 864.293 24.3617 865.086 26.625C865.879 28.865 866.276 31.385 866.276 34.185C866.276 36.985 865.879 39.5167 865.086 41.78C864.293 44.0433 863.149 45.9683 861.656 47.555C860.186 49.1417 858.389 50.3667 856.266 51.23C854.166 52.07 851.809 52.49 849.196 52.49C846.559 52.49 844.179 52.07 842.056 51.23C839.956 50.3667 838.159 49.1417 836.666 47.555C835.173 45.9683 834.018 44.0433 833.201 41.78C832.408 39.5167 832.011 36.985 832.011 34.185C832.011 31.385 832.408 28.865 833.201 26.625C834.018 24.3617 835.173 22.4367 836.666 20.85C838.159 19.24 839.956 18.015 842.056 17.175C844.179 16.3117 846.559 15.88 849.196 15.88ZM849.196 47.17C852.556 47.17 855.064 46.0383 856.721 43.775C858.378 41.5117 859.206 38.3267 859.206 34.22C859.206 30.1133 858.378 26.9283 856.721 24.665C855.064 22.3783 852.556 21.235 849.196 21.235C845.789 21.235 843.246 22.3783 841.566 24.665C839.909 26.9283 839.081 30.1133 839.081 34.22C839.081 38.3267 839.909 41.5117 841.566 43.775C843.246 46.0383 845.789 47.17 849.196 47.17ZM891.075 28.06H908.575V33.87H891.075V28.06ZM956.35 46.015C958.356 46.015 960.153 45.6767 961.74 45C963.326 44.3233 964.668 43.3783 965.765 42.165C966.861 40.9283 967.701 39.47 968.285 37.79C968.868 36.0867 969.16 34.2083 969.16 32.155V1.74H976.58V32.155C976.58 35.095 976.113 37.8133 975.18 40.31C974.246 42.8067 972.905 44.965 971.155 46.785C969.405 48.605 967.281 50.0283 964.785 51.055C962.288 52.0817 959.476 52.595 956.35 52.595C953.223 52.595 950.411 52.0817 947.915 51.055C945.418 50.0283 943.295 48.605 941.545 46.785C939.795 44.965 938.453 42.8067 937.52 40.31C936.586 37.8133 936.12 35.095 936.12 32.155V1.74H943.575V32.12C943.575 34.1733 943.855 36.0517 944.415 37.755C944.998 39.4583 945.838 40.9283 946.935 42.165C948.031 43.3783 949.373 44.3233 950.96 45C952.546 45.6767 954.343 46.015 956.35 46.015ZM995.851 7.795V24.63H1016.01V30.685H995.851V52H988.361V1.74H1019.51V7.795H995.851ZM1044.29 22.565C1044.11 22.8683 1043.91 23.09 1043.7 23.23C1043.49 23.3467 1043.22 23.405 1042.89 23.405C1042.52 23.405 1042.1 23.2767 1041.63 23.02C1041.19 22.7633 1040.64 22.4833 1039.99 22.18C1039.36 21.8767 1038.61 21.5967 1037.75 21.34C1036.88 21.0833 1035.86 20.955 1034.67 20.955C1033.69 20.955 1032.79 21.0833 1031.97 21.34C1031.18 21.5733 1030.5 21.9117 1029.94 22.355C1029.38 22.775 1028.95 23.2883 1028.65 23.895C1028.34 24.4783 1028.19 25.1083 1028.19 25.785C1028.19 26.6717 1028.45 27.4067 1028.96 27.99C1029.5 28.5733 1030.19 29.075 1031.03 29.495C1031.89 29.915 1032.86 30.3 1033.93 30.65C1035.03 30.9767 1036.14 31.3267 1037.26 31.7C1038.4 32.0733 1039.51 32.505 1040.58 32.995C1041.68 33.4617 1042.65 34.0567 1043.49 34.78C1044.35 35.48 1045.04 36.3317 1045.55 37.335C1046.09 38.3383 1046.36 39.5633 1046.36 41.01C1046.36 42.6667 1046.05 44.2067 1045.45 45.63C1044.86 47.03 1043.99 48.2433 1042.82 49.27C1041.68 50.2967 1040.26 51.1017 1038.55 51.685C1036.85 52.2683 1034.9 52.56 1032.71 52.56C1030.26 52.56 1027.99 52.1517 1025.92 51.335C1023.84 50.5183 1022.1 49.48 1020.7 48.22L1022.31 45.595C1022.5 45.2683 1022.73 45.0233 1023.01 44.86C1023.29 44.6733 1023.67 44.58 1024.13 44.58C1024.58 44.58 1025.03 44.7433 1025.5 45.07C1025.96 45.3967 1026.52 45.7583 1027.18 46.155C1027.83 46.5283 1028.62 46.8783 1029.56 47.205C1030.49 47.5083 1031.66 47.66 1033.06 47.66C1034.22 47.66 1035.24 47.52 1036.1 47.24C1036.97 46.9367 1037.68 46.54 1038.24 46.05C1038.82 45.5367 1039.25 44.9533 1039.53 44.3C1039.81 43.6467 1039.95 42.9583 1039.95 42.235C1039.95 41.3017 1039.68 40.5317 1039.15 39.925C1038.63 39.295 1037.95 38.7583 1037.08 38.315C1036.24 37.8717 1035.27 37.4867 1034.18 37.16C1033.08 36.8333 1031.96 36.4833 1030.82 36.11C1029.67 35.7367 1028.55 35.305 1027.46 34.815C1026.36 34.325 1025.38 33.7067 1024.52 32.96C1023.68 32.2133 1022.99 31.3033 1022.45 30.23C1021.94 29.1567 1021.68 27.85 1021.68 26.31C1021.68 24.9333 1021.96 23.615 1022.52 22.355C1023.11 21.095 1023.93 19.9867 1025.01 19.03C1026.1 18.0733 1027.45 17.315 1029.03 16.755C1030.64 16.1717 1032.47 15.88 1034.53 15.88C1036.88 15.88 1039.01 16.2533 1040.9 17C1042.81 17.7467 1044.44 18.7733 1045.8 20.08L1044.29 22.565Z" fill="#4C5773"/>
</svg>
