<svg width="520" height="60" viewBox="0 0 520 60" fill="none" xmlns="http://www.w3.org/2000/svg">
<path d="M29.176 42.464L29.144 48H0.664V2.048H29.144V7.584H7.512V22.144H24.92V27.488H7.512V42.464H29.176ZM55.969 23.36C54.945 22.016 53.8357 21.0773 52.641 20.544C51.4677 20.0107 50.145 19.744 48.673 19.744C45.8143 19.744 43.5957 20.7787 42.017 22.848C40.4597 24.896 39.681 27.8933 39.681 31.84C39.681 33.9093 39.8517 35.68 40.193 37.152C40.5557 38.6027 41.0677 39.7973 41.729 40.736C42.4117 41.6533 43.2437 42.336 44.225 42.784C45.2063 43.2107 46.3157 43.424 47.553 43.424C49.3663 43.424 50.9343 43.0187 52.257 42.208C53.5797 41.3973 54.817 40.256 55.969 38.784V23.36ZM62.241 0.767998V48H58.465C57.5903 48 57.0463 47.584 56.833 46.752L56.289 43.008C54.9023 44.6507 53.3237 45.9733 51.553 46.976C49.8037 47.9573 47.777 48.448 45.473 48.448C43.617 48.448 41.9317 48.0853 40.417 47.36C38.9237 46.6347 37.6437 45.5787 36.577 44.192C35.5103 42.784 34.689 41.0453 34.113 38.976C33.537 36.9067 33.249 34.528 33.249 31.84C33.249 29.4293 33.569 27.1893 34.209 25.12C34.849 23.0507 35.777 21.2587 36.993 19.744C38.209 18.2293 39.681 17.0453 41.409 16.192C43.137 15.3173 45.089 14.88 47.265 14.88C49.2277 14.88 50.8917 15.2 52.257 15.84C53.6437 16.48 54.881 17.3867 55.969 18.56V0.767998H62.241ZM97.9865 15.488V48H94.2425C93.3892 48 92.8345 47.584 92.5785 46.752L92.1305 43.488C91.4265 44.2347 90.6905 44.9173 89.9225 45.536C89.1545 46.1547 88.3332 46.688 87.4585 47.136C86.5838 47.5627 85.6558 47.8933 84.6745 48.128C83.6932 48.384 82.6372 48.512 81.5065 48.512C79.7145 48.512 78.1358 48.2133 76.7705 47.616C75.4265 47.0187 74.2958 46.1867 73.3785 45.12C72.4612 44.032 71.7678 42.7307 71.2985 41.216C70.8292 39.7013 70.5945 38.0267 70.5945 36.192V15.488H76.8665V36.192C76.8665 38.5173 77.3998 40.3307 78.4665 41.632C79.5332 42.912 81.1652 43.552 83.3625 43.552C84.9625 43.552 86.4558 43.1787 87.8425 42.432C89.2292 41.664 90.5305 40.6187 91.7465 39.296V15.488H97.9865ZM129.481 21.568C129.289 21.8027 129.097 21.9947 128.905 22.144C128.734 22.272 128.478 22.336 128.137 22.336C127.795 22.336 127.433 22.208 127.049 21.952C126.686 21.6747 126.217 21.3867 125.641 21.088C125.086 20.768 124.403 20.48 123.593 20.224C122.803 19.9467 121.822 19.808 120.649 19.808C119.113 19.808 117.758 20.0853 116.585 20.64C115.411 21.1947 114.43 21.984 113.641 23.008C112.873 24.032 112.286 25.28 111.881 26.752C111.475 28.224 111.273 29.8773 111.273 31.712C111.273 33.6107 111.486 35.3067 111.913 36.8C112.339 38.272 112.947 39.52 113.737 40.544C114.526 41.5467 115.486 42.3147 116.617 42.848C117.747 43.36 119.006 43.616 120.392 43.616C121.737 43.616 122.846 43.456 123.721 43.136C124.595 42.7947 125.321 42.432 125.897 42.048C126.473 41.664 126.953 41.312 127.337 40.992C127.721 40.6507 128.115 40.48 128.521 40.48C129.033 40.48 129.427 40.672 129.705 41.056L131.497 43.36C130.75 44.2773 129.907 45.056 128.969 45.696C128.051 46.336 127.07 46.8587 126.025 47.264C124.979 47.6693 123.881 47.968 122.729 48.16C121.598 48.352 120.446 48.448 119.273 48.448C117.246 48.448 115.347 48.0747 113.577 47.328C111.827 46.5813 110.302 45.4933 109.001 44.064C107.721 42.6347 106.707 40.8853 105.961 38.816C105.214 36.7253 104.841 34.3573 104.841 31.712C104.841 29.3013 105.171 27.072 105.833 25.024C106.515 22.976 107.507 21.216 108.809 19.744C110.131 18.2507 111.753 17.088 113.673 16.256C115.593 15.4027 117.79 14.976 120.265 14.976C122.59 14.976 124.638 15.3493 126.409 16.096C128.179 16.8427 129.758 17.8987 131.145 19.264L129.481 21.568ZM154.794 33.568C152.255 33.6533 150.1 33.856 148.33 34.176C146.559 34.4747 145.119 34.88 144.01 35.392C142.9 35.904 142.1 36.512 141.61 37.216C141.119 37.8987 140.874 38.6667 140.874 39.52C140.874 40.3307 141.002 41.0347 141.258 41.632C141.535 42.208 141.898 42.688 142.345 43.072C142.815 43.4347 143.359 43.7013 143.978 43.872C144.596 44.0427 145.268 44.128 145.994 44.128C146.954 44.128 147.828 44.032 148.618 43.84C149.428 43.648 150.186 43.3813 150.89 43.04C151.594 42.6773 152.266 42.24 152.906 41.728C153.546 41.216 154.175 40.6293 154.794 39.968V33.568ZM136.49 20.032C138.303 18.304 140.266 17.0133 142.378 16.16C144.511 15.3067 146.847 14.88 149.385 14.88C151.242 14.88 152.884 15.1893 154.314 15.808C155.743 16.4053 156.948 17.248 157.93 18.336C158.911 19.424 159.647 20.7253 160.138 22.24C160.65 23.7547 160.906 25.4293 160.906 27.264V48H158.122C157.503 48 157.034 47.904 156.714 47.712C156.394 47.4987 156.138 47.1147 155.946 46.56L155.274 43.712C154.442 44.48 153.62 45.1627 152.81 45.76C151.999 46.336 151.146 46.8373 150.25 47.264C149.375 47.6693 148.436 47.9787 147.434 48.192C146.431 48.4053 145.322 48.512 144.106 48.512C142.826 48.512 141.62 48.3413 140.49 48C139.38 47.6373 138.41 47.0933 137.578 46.368C136.746 45.6427 136.084 44.736 135.594 43.648C135.124 42.56 134.89 41.2907 134.89 39.84C134.89 38.56 135.231 37.3333 135.914 36.16C136.618 34.9653 137.748 33.8987 139.306 32.96C140.884 32.0213 142.932 31.2533 145.45 30.656C147.988 30.0587 151.103 29.7173 154.794 29.632V27.264C154.794 24.8107 154.271 22.976 153.226 21.76C152.18 20.544 150.644 19.936 148.618 19.936C147.252 19.936 146.1 20.1067 145.162 20.448C144.244 20.7893 143.444 21.1733 142.762 21.6C142.1 22.0053 141.514 22.3787 141.002 22.72C140.511 23.0613 139.999 23.232 139.466 23.232C139.039 23.232 138.666 23.1147 138.346 22.88C138.047 22.6453 137.802 22.368 137.61 22.048L136.49 20.032ZM194.059 43.36C192.779 44.9387 191.243 46.1227 189.451 46.912C187.68 47.7013 185.803 48.1813 183.819 48.352L183.275 50.272C185.259 50.6987 186.678 51.2853 187.531 52.032C188.384 52.8 188.811 53.76 188.811 54.912C188.811 55.616 188.63 56.2453 188.267 56.8C187.926 57.3547 187.446 57.824 186.827 58.208C186.208 58.592 185.451 58.8907 184.555 59.104C183.68 59.3173 182.72 59.424 181.675 59.424C180.8 59.424 179.968 59.3387 179.179 59.168C178.411 59.0187 177.686 58.7947 177.003 58.496L177.579 56.544C177.707 56.1387 177.974 55.936 178.379 55.936C178.507 55.936 178.646 55.968 178.795 56.032C178.966 56.1173 179.168 56.192 179.403 56.256C179.638 56.3413 179.904 56.416 180.203 56.48C180.523 56.5653 180.896 56.608 181.323 56.608C182.176 56.608 182.816 56.4373 183.243 56.096C183.67 55.7547 183.883 55.328 183.883 54.816C183.883 54.048 183.446 53.504 182.571 53.184C181.718 52.8853 180.48 52.6293 178.859 52.416L180.203 48.352C178.368 48.16 176.672 47.648 175.115 46.816C173.558 45.984 172.203 44.864 171.051 43.456C169.92 42.0267 169.024 40.3307 168.363 38.368C167.723 36.4053 167.403 34.1867 167.403 31.712C167.403 29.3013 167.734 27.072 168.395 25.024C169.078 22.976 170.07 21.216 171.371 19.744C172.694 18.2507 174.315 17.088 176.235 16.256C178.155 15.4027 180.352 14.976 182.827 14.976C185.152 14.976 187.2 15.3493 188.971 16.096C190.742 16.8427 192.32 17.8987 193.707 19.264L192.043 21.568C191.851 21.8027 191.659 21.9947 191.467 22.144C191.296 22.272 191.04 22.336 190.699 22.336C190.358 22.336 189.995 22.208 189.611 21.952C189.248 21.6747 188.779 21.3867 188.203 21.088C187.648 20.768 186.966 20.48 186.155 20.224C185.366 19.9467 184.384 19.808 183.211 19.808C181.675 19.808 180.32 20.0853 179.147 20.64C177.974 21.1947 176.992 21.984 176.203 23.008C175.435 24.032 174.848 25.28 174.443 26.752C174.038 28.224 173.835 29.8773 173.835 31.712C173.835 33.6107 174.048 35.3067 174.475 36.8C174.902 38.272 175.51 39.52 176.299 40.544C177.088 41.5467 178.048 42.3147 179.179 42.848C180.31 43.36 181.568 43.616 182.955 43.616C184.299 43.616 185.408 43.456 186.283 43.136C187.158 42.7947 187.883 42.432 188.459 42.048C189.035 41.664 189.515 41.312 189.899 40.992C190.283 40.6507 190.678 40.48 191.083 40.48C191.595 40.48 191.99 40.672 192.267 41.056L194.059 43.36ZM217.356 33.568C214.817 33.6533 212.663 33.856 210.892 34.176C209.121 34.4747 207.681 34.88 206.572 35.392C205.463 35.904 204.663 36.512 204.172 37.216C203.681 37.8987 203.436 38.6667 203.436 39.52C203.436 40.3307 203.564 41.0347 203.82 41.632C204.097 42.208 204.46 42.688 204.908 43.072C205.377 43.4347 205.921 43.7013 206.54 43.872C207.159 44.0427 207.831 44.128 208.556 44.128C209.516 44.128 210.391 44.032 211.18 43.84C211.991 43.648 212.748 43.3813 213.452 43.04C214.156 42.6773 214.828 42.24 215.468 41.728C216.108 41.216 216.737 40.6293 217.356 39.968V33.568ZM199.052 20.032C200.865 18.304 202.828 17.0133 204.94 16.16C207.073 15.3067 209.409 14.88 211.948 14.88C213.804 14.88 215.447 15.1893 216.876 15.808C218.305 16.4053 219.511 17.248 220.492 18.336C221.473 19.424 222.209 20.7253 222.7 22.24C223.212 23.7547 223.468 25.4293 223.468 27.264V48H220.684C220.065 48 219.596 47.904 219.276 47.712C218.956 47.4987 218.7 47.1147 218.508 46.56L217.836 43.712C217.004 44.48 216.183 45.1627 215.372 45.76C214.561 46.336 213.708 46.8373 212.812 47.264C211.937 47.6693 210.999 47.9787 209.996 48.192C208.993 48.4053 207.884 48.512 206.668 48.512C205.388 48.512 204.183 48.3413 203.052 48C201.943 47.6373 200.972 47.0933 200.14 46.368C199.308 45.6427 198.647 44.736 198.156 43.648C197.687 42.56 197.452 41.2907 197.452 39.84C197.452 38.56 197.793 37.3333 198.476 36.16C199.18 34.9653 200.311 33.8987 201.868 32.96C203.447 32.0213 205.495 31.2533 208.012 30.656C210.551 30.0587 213.665 29.7173 217.356 29.632V27.264C217.356 24.8107 216.833 22.976 215.788 21.76C214.743 20.544 213.207 19.936 211.18 19.936C209.815 19.936 208.663 20.1067 207.724 20.448C206.807 20.7893 206.007 21.1733 205.324 21.6C204.663 22.0053 204.076 22.3787 203.564 22.72C203.073 23.0613 202.561 23.232 202.028 23.232C201.601 23.232 201.228 23.1147 200.908 22.88C200.609 22.6453 200.364 22.368 200.172 22.048L199.052 20.032ZM214.764 5.312C215.489 5.312 216.044 5.09866 216.428 4.672C216.833 4.24533 217.047 3.56266 217.068 2.624H220.876C220.876 3.69066 220.727 4.66133 220.428 5.536C220.151 6.41067 219.756 7.168 219.244 7.808C218.732 8.42666 218.113 8.90666 217.388 9.248C216.663 9.58933 215.863 9.76 214.988 9.76C214.241 9.76 213.537 9.61066 212.876 9.312C212.236 9.01333 211.628 8.68267 211.052 8.32C210.476 7.95733 209.921 7.62666 209.388 7.328C208.876 7.02933 208.385 6.88 207.916 6.88C207.212 6.88 206.657 7.104 206.252 7.552C205.868 8 205.665 8.68267 205.644 9.6H201.772C201.772 8.55466 201.911 7.59466 202.188 6.72C202.487 5.824 202.903 5.06667 203.436 4.448C203.969 3.82933 204.588 3.34933 205.292 3.008C206.017 2.64533 206.817 2.464 207.692 2.464C208.46 2.464 209.164 2.61333 209.804 2.912C210.465 3.21066 211.084 3.54133 211.66 3.904C212.236 4.24533 212.78 4.56533 213.292 4.864C213.804 5.16266 214.295 5.312 214.764 5.312ZM245.678 14.976C248.067 14.976 250.222 15.3707 252.142 16.16C254.083 16.928 255.726 18.048 257.07 19.52C258.435 20.9707 259.48 22.7307 260.206 24.8C260.931 26.848 261.294 29.152 261.294 31.712C261.294 34.272 260.931 36.5867 260.206 38.656C259.48 40.7253 258.435 42.4853 257.07 43.936C255.726 45.3867 254.083 46.5067 252.142 47.296C250.222 48.064 248.067 48.448 245.678 48.448C243.267 48.448 241.091 48.064 239.15 47.296C237.23 46.5067 235.587 45.3867 234.222 43.936C232.856 42.4853 231.8 40.7253 231.054 38.656C230.328 36.5867 229.966 34.272 229.966 31.712C229.966 29.152 230.328 26.848 231.054 24.8C231.8 22.7307 232.856 20.9707 234.222 19.52C235.587 18.048 237.23 16.928 239.15 16.16C241.091 15.3707 243.267 14.976 245.678 14.976ZM245.678 43.584C248.75 43.584 251.043 42.5493 252.558 40.48C254.072 38.4107 254.83 35.4987 254.83 31.744C254.83 27.9893 254.072 25.0773 252.558 23.008C251.043 20.9173 248.75 19.872 245.678 19.872C242.563 19.872 240.238 20.9173 238.702 23.008C237.187 25.0773 236.43 27.9893 236.43 31.744C236.43 35.4987 237.187 38.4107 238.702 40.48C240.238 42.5493 242.563 43.584 245.678 43.584ZM292.575 48H285.727V2.048H292.575V48ZM307.99 20C308.694 19.2533 309.43 18.5707 310.198 17.952C310.966 17.3333 311.777 16.8107 312.63 16.384C313.505 15.936 314.433 15.5947 315.414 15.36C316.417 15.104 317.483 14.976 318.614 14.976C320.406 14.976 321.974 15.2747 323.318 15.872C324.683 16.4693 325.825 17.312 326.742 18.4C327.659 19.4667 328.353 20.7573 328.822 22.272C329.291 23.7867 329.526 25.4613 329.526 27.296V48H323.254V27.296C323.254 24.9707 322.721 23.168 321.654 21.888C320.587 20.5867 318.955 19.936 316.758 19.936C315.158 19.936 313.654 20.32 312.246 21.088C310.859 21.8347 309.569 22.8587 308.374 24.16V48H302.134V15.488H305.878C306.753 15.488 307.297 15.904 307.51 16.736L307.99 20ZM360.731 21.568C360.539 21.8027 360.347 21.9947 360.155 22.144C359.984 22.272 359.728 22.336 359.387 22.336C359.045 22.336 358.683 22.208 358.299 21.952C357.936 21.6747 357.467 21.3867 356.891 21.088C356.336 20.768 355.653 20.48 354.843 20.224C354.053 19.9467 353.072 19.808 351.899 19.808C350.363 19.808 349.008 20.0853 347.835 20.64C346.661 21.1947 345.68 21.984 344.891 23.008C344.123 24.032 343.536 25.28 343.131 26.752C342.725 28.224 342.523 29.8773 342.523 31.712C342.523 33.6107 342.736 35.3067 343.163 36.8C343.589 38.272 344.197 39.52 344.987 40.544C345.776 41.5467 346.736 42.3147 347.867 42.848C348.997 43.36 350.256 43.616 351.642 43.616C352.987 43.616 354.096 43.456 354.971 43.136C355.845 42.7947 356.571 42.432 357.147 42.048C357.723 41.664 358.203 41.312 358.587 40.992C358.971 40.6507 359.365 40.48 359.771 40.48C360.283 40.48 360.677 40.672 360.955 41.056L362.747 43.36C362 44.2773 361.157 45.056 360.219 45.696C359.301 46.336 358.32 46.8587 357.275 47.264C356.229 47.6693 355.131 47.968 353.979 48.16C352.848 48.352 351.696 48.448 350.523 48.448C348.496 48.448 346.597 48.0747 344.827 47.328C343.077 46.5813 341.552 45.4933 340.251 44.064C338.971 42.6347 337.957 40.8853 337.211 38.816C336.464 36.7253 336.091 34.3573 336.091 31.712C336.091 29.3013 336.421 27.072 337.083 25.024C337.765 22.976 338.757 21.216 340.059 19.744C341.381 18.2507 343.003 17.088 344.923 16.256C346.843 15.4027 349.04 14.976 351.515 14.976C353.84 14.976 355.888 15.3493 357.659 16.096C359.429 16.8427 361.008 17.8987 362.395 19.264L360.731 21.568ZM374.972 0.767998V48H368.7V0.767998H374.972ZM410.924 15.488V48H407.18C406.327 48 405.772 47.584 405.516 46.752L405.068 43.488C404.364 44.2347 403.628 44.9173 402.86 45.536C402.092 46.1547 401.271 46.688 400.396 47.136C399.521 47.5627 398.593 47.8933 397.612 48.128C396.631 48.384 395.575 48.512 394.444 48.512C392.652 48.512 391.073 48.2133 389.708 47.616C388.364 47.0187 387.233 46.1867 386.316 45.12C385.399 44.032 384.705 42.7307 384.236 41.216C383.767 39.7013 383.532 38.0267 383.532 36.192V15.488H389.804V36.192C389.804 38.5173 390.337 40.3307 391.404 41.632C392.471 42.912 394.103 43.552 396.3 43.552C397.9 43.552 399.393 43.1787 400.78 42.432C402.167 41.664 403.468 40.6187 404.684 39.296V15.488H410.924ZM438.802 21.088C438.631 21.3653 438.45 21.568 438.258 21.696C438.066 21.8027 437.821 21.856 437.522 21.856C437.181 21.856 436.797 21.7387 436.37 21.504C435.965 21.2693 435.463 21.0133 434.866 20.736C434.29 20.4587 433.607 20.2027 432.818 19.968C432.029 19.7333 431.09 19.616 430.002 19.616C429.106 19.616 428.285 19.7333 427.538 19.968C426.813 20.1813 426.194 20.4907 425.682 20.896C425.17 21.28 424.775 21.7493 424.498 22.304C424.221 22.8373 424.082 23.4133 424.082 24.032C424.082 24.8427 424.317 25.5147 424.786 26.048C425.277 26.5813 425.906 27.04 426.674 27.424C427.463 27.808 428.349 28.16 429.33 28.48C430.333 28.7787 431.346 29.0987 432.37 29.44C433.415 29.7813 434.429 30.176 435.41 30.624C436.413 31.0507 437.298 31.5947 438.066 32.256C438.855 32.896 439.485 33.6747 439.954 34.592C440.445 35.5093 440.69 36.6293 440.69 37.952C440.69 39.4667 440.413 40.8747 439.858 42.176C439.325 43.456 438.525 44.5653 437.458 45.504C436.413 46.4427 435.111 47.1787 433.554 47.712C431.997 48.2453 430.215 48.512 428.21 48.512C425.97 48.512 423.901 48.1387 422.002 47.392C420.103 46.6453 418.514 45.696 417.234 44.544L418.706 42.144C418.877 41.8453 419.09 41.6213 419.346 41.472C419.602 41.3013 419.943 41.216 420.37 41.216C420.775 41.216 421.191 41.3653 421.618 41.664C422.045 41.9627 422.557 42.2933 423.154 42.656C423.751 42.9973 424.477 43.3173 425.33 43.616C426.183 43.8933 427.25 44.032 428.53 44.032C429.597 44.032 430.525 43.904 431.314 43.648C432.103 43.3707 432.754 43.008 433.266 42.56C433.799 42.0907 434.194 41.5573 434.45 40.96C434.706 40.3627 434.834 39.7333 434.834 39.072C434.834 38.2187 434.589 37.5147 434.098 36.96C433.629 36.384 432.999 35.8933 432.21 35.488C431.442 35.0827 430.557 34.7307 429.554 34.432C428.551 34.1333 427.527 33.8133 426.482 33.472C425.437 33.1307 424.413 32.736 423.41 32.288C422.407 31.84 421.511 31.2747 420.722 30.592C419.954 29.9093 419.325 29.0773 418.834 28.096C418.365 27.1147 418.13 25.92 418.13 24.512C418.13 23.2533 418.386 22.048 418.898 20.896C419.431 19.744 420.189 18.7307 421.17 17.856C422.173 16.9813 423.399 16.288 424.85 15.776C426.322 15.2427 427.997 14.976 429.874 14.976C432.029 14.976 433.97 15.3173 435.698 16C437.447 16.6827 438.941 17.6213 440.178 18.816L438.802 21.088ZM453.975 15.488V48H447.735V15.488H453.975ZM455.159 5.44C455.159 6.016 455.041 6.57066 454.807 7.104C454.572 7.616 454.252 8.07467 453.847 8.48C453.463 8.864 453.004 9.17333 452.47 9.408C451.937 9.62133 451.383 9.728 450.807 9.728C450.231 9.728 449.687 9.62133 449.175 9.408C448.663 9.17333 448.204 8.864 447.799 8.48C447.415 8.07467 447.105 7.616 446.871 7.104C446.657 6.57066 446.551 6.016 446.551 5.44C446.551 4.84267 446.657 4.288 446.871 3.776C447.105 3.24266 447.415 2.784 447.799 2.4C448.204 1.99466 448.663 1.68533 449.175 1.472C449.687 1.23733 450.231 1.12 450.807 1.12C451.383 1.12 451.937 1.23733 452.47 1.472C453.004 1.68533 453.463 1.99466 453.847 2.4C454.252 2.784 454.572 3.24266 454.807 3.776C455.041 4.288 455.159 4.84267 455.159 5.44ZM491.233 15.488L478.049 48H472.417L459.233 15.488H464.385C464.876 15.488 465.281 15.6053 465.601 15.84C465.921 16.0747 466.134 16.3733 466.241 16.736L474.017 36.704C474.294 37.536 474.529 38.368 474.721 39.2C474.934 40.0107 475.126 40.8213 475.297 41.632C475.468 40.8213 475.66 40.0107 475.873 39.2C476.086 38.3893 476.342 37.5573 476.641 36.704L484.513 16.736C484.641 16.3733 484.865 16.0747 485.185 15.84C485.505 15.6053 485.889 15.488 486.337 15.488H491.233ZM512.919 33.568C510.38 33.6533 508.225 33.856 506.455 34.176C504.684 34.4747 503.244 34.88 502.135 35.392C501.025 35.904 500.225 36.512 499.735 37.216C499.244 37.8987 498.999 38.6667 498.999 39.52C498.999 40.3307 499.127 41.0347 499.383 41.632C499.66 42.208 500.023 42.688 500.47 43.072C500.94 43.4347 501.484 43.7013 502.103 43.872C502.721 44.0427 503.393 44.128 504.119 44.128C505.079 44.128 505.953 44.032 506.743 43.84C507.553 43.648 508.311 43.3813 509.015 43.04C509.719 42.6773 510.391 42.24 511.031 41.728C511.671 41.216 512.3 40.6293 512.919 39.968V33.568ZM494.615 20.032C496.428 18.304 498.391 17.0133 500.503 16.16C502.636 15.3067 504.972 14.88 507.51 14.88C509.367 14.88 511.009 15.1893 512.439 15.808C513.868 16.4053 515.073 17.248 516.055 18.336C517.036 19.424 517.772 20.7253 518.263 22.24C518.775 23.7547 519.031 25.4293 519.031 27.264V48H516.247C515.628 48 515.159 47.904 514.839 47.712C514.519 47.4987 514.263 47.1147 514.071 46.56L513.399 43.712C512.567 44.48 511.745 45.1627 510.935 45.76C510.124 46.336 509.271 46.8373 508.375 47.264C507.5 47.6693 506.561 47.9787 505.559 48.192C504.556 48.4053 503.447 48.512 502.231 48.512C500.951 48.512 499.745 48.3413 498.615 48C497.505 47.6373 496.535 47.0933 495.703 46.368C494.871 45.6427 494.209 44.736 493.719 43.648C493.249 42.56 493.015 41.2907 493.015 39.84C493.015 38.56 493.356 37.3333 494.039 36.16C494.743 34.9653 495.873 33.8987 497.431 32.96C499.009 32.0213 501.057 31.2533 503.575 30.656C506.113 30.0587 509.228 29.7173 512.919 29.632V27.264C512.919 24.8107 512.396 22.976 511.351 21.76C510.305 20.544 508.769 19.936 506.743 19.936C505.377 19.936 504.225 20.1067 503.287 20.448C502.369 20.7893 501.569 21.1733 500.887 21.6C500.225 22.0053 499.639 22.3787 499.127 22.72C498.636 23.0613 498.124 23.232 497.591 23.232C497.164 23.232 496.791 23.1147 496.471 22.88C496.172 22.6453 495.927 22.368 495.735 22.048L494.615 20.032Z" fill="#4C5773"/>
</svg>
