<svg width="1026" height="65" viewBox="0 0 1026 65" fill="none" xmlns="http://www.w3.org/2000/svg">
<path d="M31.3312 45.945L31.2962 52H0.146172V1.74H31.2962V7.795H7.63617V23.72H26.6762V29.565H7.63617V45.945H31.3312ZM68.5127 16.44L54.0927 52H47.9327L33.5127 16.44H39.1477C39.6843 16.44 40.1277 16.5683 40.4777 16.825C40.8277 17.0817 41.061 17.4083 41.1777 17.805L49.6827 39.645C49.986 40.555 50.2427 41.465 50.4527 42.375C50.686 43.2617 50.896 44.1483 51.0827 45.035C51.2693 44.1483 51.4793 43.2617 51.7127 42.375C51.946 41.4883 52.226 40.5783 52.5527 39.645L61.1627 17.805C61.3027 17.4083 61.5477 17.0817 61.8977 16.825C62.2477 16.5683 62.6677 16.44 63.1577 16.44H68.5127ZM88.0711 15.88C90.6844 15.88 93.0411 16.3117 95.1411 17.175C97.2644 18.015 99.0611 19.24 100.531 20.85C102.024 22.4367 103.168 24.3617 103.961 26.625C104.754 28.865 105.151 31.385 105.151 34.185C105.151 36.985 104.754 39.5167 103.961 41.78C103.168 44.0433 102.024 45.9683 100.531 47.555C99.0611 49.1417 97.2644 50.3667 95.1411 51.23C93.0411 52.07 90.6844 52.49 88.0711 52.49C85.4344 52.49 83.0544 52.07 80.9311 51.23C78.8311 50.3667 77.0344 49.1417 75.5411 47.555C74.0478 45.9683 72.8928 44.0433 72.0761 41.78C71.2828 39.5167 70.8861 36.985 70.8861 34.185C70.8861 31.385 71.2828 28.865 72.0761 26.625C72.8928 24.3617 74.0478 22.4367 75.5411 20.85C77.0344 19.24 78.8311 18.015 80.9311 17.175C83.0544 16.3117 85.4344 15.88 88.0711 15.88ZM88.0711 47.17C91.4311 47.17 93.9394 46.0383 95.5961 43.775C97.2528 41.5117 98.0811 38.3267 98.0811 34.22C98.0811 30.1133 97.2528 26.9283 95.5961 24.665C93.9394 22.3783 91.4311 21.235 88.0711 21.235C84.6644 21.235 82.1211 22.3783 80.4411 24.665C78.7844 26.9283 77.9561 30.1133 77.9561 34.22C77.9561 38.3267 78.7844 41.5117 80.4411 43.775C82.1211 46.0383 84.6644 47.17 88.0711 47.17ZM119.77 0.339998V52H112.91V0.339998H119.77ZM159.093 16.44V52H154.998C154.064 52 153.458 51.545 153.178 50.635L152.688 47.065C151.918 47.8817 151.113 48.6283 150.273 49.305C149.433 49.9817 148.534 50.565 147.578 51.055C146.621 51.5217 145.606 51.8833 144.533 52.14C143.459 52.42 142.304 52.56 141.068 52.56C139.108 52.56 137.381 52.2333 135.888 51.58C134.418 50.9267 133.181 50.0167 132.178 48.85C131.174 47.66 130.416 46.2367 129.903 44.58C129.389 42.9233 129.133 41.0917 129.133 39.085V16.44H135.993V39.085C135.993 41.6283 136.576 43.6117 137.743 45.035C138.909 46.435 140.694 47.135 143.098 47.135C144.848 47.135 146.481 46.7267 147.998 45.91C149.514 45.07 150.938 43.9267 152.268 42.48V16.44H159.093ZM195.744 46.925C194.344 48.6517 192.664 49.9467 190.704 50.81C188.768 51.6733 186.714 52.1983 184.544 52.385L183.949 54.485C186.119 54.9517 187.671 55.5933 188.604 56.41C189.538 57.25 190.004 58.3 190.004 59.56C190.004 60.33 189.806 61.0183 189.409 61.625C189.036 62.2317 188.511 62.745 187.834 63.165C187.158 63.585 186.329 63.9117 185.349 64.145C184.393 64.3783 183.343 64.495 182.199 64.495C181.243 64.495 180.333 64.4017 179.469 64.215C178.629 64.0517 177.836 63.8067 177.089 63.48L177.719 61.345C177.859 60.9017 178.151 60.68 178.594 60.68C178.734 60.68 178.886 60.715 179.049 60.785C179.236 60.8783 179.458 60.96 179.714 61.03C179.971 61.1233 180.263 61.205 180.589 61.275C180.939 61.3683 181.348 61.415 181.814 61.415C182.748 61.415 183.448 61.2283 183.914 60.855C184.381 60.4817 184.614 60.015 184.614 59.455C184.614 58.615 184.136 58.02 183.179 57.67C182.246 57.3433 180.893 57.0633 179.119 56.83L180.589 52.385C178.583 52.175 176.728 51.615 175.024 50.705C173.321 49.795 171.839 48.57 170.579 47.03C169.343 45.4667 168.363 43.6117 167.639 41.465C166.939 39.3183 166.589 36.8917 166.589 34.185C166.589 31.5483 166.951 29.11 167.674 26.87C168.421 24.63 169.506 22.705 170.929 21.095C172.376 19.4617 174.149 18.19 176.249 17.28C178.349 16.3467 180.753 15.88 183.459 15.88C186.003 15.88 188.243 16.2883 190.179 17.105C192.116 17.9217 193.843 19.0767 195.359 20.57L193.539 23.09C193.329 23.3467 193.119 23.5567 192.909 23.72C192.723 23.86 192.443 23.93 192.069 23.93C191.696 23.93 191.299 23.79 190.879 23.51C190.483 23.2067 189.969 22.8917 189.339 22.565C188.733 22.215 187.986 21.9 187.099 21.62C186.236 21.3167 185.163 21.165 183.879 21.165C182.199 21.165 180.718 21.4683 179.434 22.075C178.151 22.6817 177.078 23.545 176.214 24.665C175.374 25.785 174.733 27.15 174.289 28.76C173.846 30.37 173.624 32.1783 173.624 34.185C173.624 36.2617 173.858 38.1167 174.324 39.75C174.791 41.36 175.456 42.725 176.319 43.845C177.183 44.9417 178.233 45.7817 179.469 46.365C180.706 46.925 182.083 47.205 183.599 47.205C185.069 47.205 186.283 47.03 187.239 46.68C188.196 46.3067 188.989 45.91 189.619 45.49C190.249 45.07 190.774 44.685 191.194 44.335C191.614 43.9617 192.046 43.775 192.489 43.775C193.049 43.775 193.481 43.985 193.784 44.405L195.744 46.925ZM221.225 36.215C218.449 36.3083 216.092 36.53 214.155 36.88C212.219 37.2067 210.644 37.65 209.43 38.21C208.217 38.77 207.342 39.435 206.805 40.205C206.269 40.9517 206 41.7917 206 42.725C206 43.6117 206.14 44.3817 206.42 45.035C206.724 45.665 207.12 46.19 207.61 46.61C208.124 47.0067 208.719 47.2983 209.395 47.485C210.072 47.6717 210.807 47.765 211.6 47.765C212.65 47.765 213.607 47.66 214.47 47.45C215.357 47.24 216.185 46.9483 216.955 46.575C217.725 46.1783 218.46 45.7 219.16 45.14C219.86 44.58 220.549 43.9383 221.225 43.215V36.215ZM201.205 21.41C203.189 19.52 205.335 18.1083 207.645 17.175C209.979 16.2417 212.534 15.775 215.31 15.775C217.34 15.775 219.137 16.1133 220.7 16.79C222.264 17.4433 223.582 18.365 224.655 19.555C225.729 20.745 226.534 22.1683 227.07 23.825C227.63 25.4817 227.91 27.3133 227.91 29.32V52H224.865C224.189 52 223.675 51.895 223.325 51.685C222.975 51.4517 222.695 51.0317 222.485 50.425L221.75 47.31C220.84 48.15 219.942 48.8967 219.055 49.55C218.169 50.18 217.235 50.7283 216.255 51.195C215.299 51.6383 214.272 51.9767 213.175 52.21C212.079 52.4433 210.865 52.56 209.535 52.56C208.135 52.56 206.817 52.3733 205.58 52C204.367 51.6033 203.305 51.0083 202.395 50.215C201.485 49.4217 200.762 48.43 200.225 47.24C199.712 46.05 199.455 44.6617 199.455 43.075C199.455 41.675 199.829 40.3333 200.575 39.05C201.345 37.7433 202.582 36.5767 204.285 35.55C206.012 34.5233 208.252 33.6833 211.005 33.03C213.782 32.3767 217.189 32.0033 221.225 31.91V29.32C221.225 26.6367 220.654 24.63 219.51 23.3C218.367 21.97 216.687 21.305 214.47 21.305C212.977 21.305 211.717 21.4917 210.69 21.865C209.687 22.2383 208.812 22.6583 208.065 23.125C207.342 23.5683 206.7 23.9767 206.14 24.35C205.604 24.7233 205.044 24.91 204.46 24.91C203.994 24.91 203.585 24.7817 203.235 24.525C202.909 24.2683 202.64 23.965 202.43 23.615L201.205 21.41ZM218.39 5.31C219.184 5.31 219.79 5.07666 220.21 4.61C220.654 4.14333 220.887 3.39666 220.91 2.37H225.075C225.075 3.53666 224.912 4.59833 224.585 5.555C224.282 6.51167 223.85 7.34 223.29 8.04C222.73 8.71666 222.054 9.24166 221.26 9.615C220.467 9.98833 219.592 10.175 218.635 10.175C217.819 10.175 217.049 10.0117 216.325 9.685C215.625 9.35833 214.96 8.99667 214.33 8.6C213.7 8.20333 213.094 7.84166 212.51 7.515C211.95 7.18833 211.414 7.025 210.9 7.025C210.13 7.025 209.524 7.27 209.08 7.76C208.66 8.25 208.439 8.99667 208.415 10H204.18C204.18 8.85666 204.332 7.80666 204.635 6.85C204.962 5.87 205.417 5.04167 206 4.365C206.584 3.68833 207.26 3.16333 208.03 2.79C208.824 2.39333 209.699 2.195 210.655 2.195C211.495 2.195 212.265 2.35833 212.965 2.685C213.689 3.01166 214.365 3.37333 214.995 3.77C215.625 4.14333 216.22 4.49333 216.78 4.82C217.34 5.14666 217.877 5.31 218.39 5.31ZM252.202 15.88C254.815 15.88 257.172 16.3117 259.272 17.175C261.395 18.015 263.192 19.24 264.662 20.85C266.155 22.4367 267.299 24.3617 268.092 26.625C268.885 28.865 269.282 31.385 269.282 34.185C269.282 36.985 268.885 39.5167 268.092 41.78C267.299 44.0433 266.155 45.9683 264.662 47.555C263.192 49.1417 261.395 50.3667 259.272 51.23C257.172 52.07 254.815 52.49 252.202 52.49C249.565 52.49 247.185 52.07 245.062 51.23C242.962 50.3667 241.165 49.1417 239.672 47.555C238.179 45.9683 237.024 44.0433 236.207 41.78C235.414 39.5167 235.017 36.985 235.017 34.185C235.017 31.385 235.414 28.865 236.207 26.625C237.024 24.3617 238.179 22.4367 239.672 20.85C241.165 19.24 242.962 18.015 245.062 17.175C247.185 16.3117 249.565 15.88 252.202 15.88ZM252.202 47.17C255.562 47.17 258.07 46.0383 259.727 43.775C261.384 41.5117 262.212 38.3267 262.212 34.22C262.212 30.1133 261.384 26.9283 259.727 24.665C258.07 22.3783 255.562 21.235 252.202 21.235C248.795 21.235 246.252 22.3783 244.572 24.665C242.915 26.9283 242.087 30.1133 242.087 34.22C242.087 38.3267 242.915 41.5117 244.572 43.775C246.252 46.0383 248.795 47.17 252.202 47.17ZM317.531 25.05C316.411 23.58 315.197 22.5533 313.891 21.97C312.607 21.3867 311.161 21.095 309.551 21.095C306.424 21.095 303.997 22.2267 302.271 24.49C300.567 26.73 299.716 30.0083 299.716 34.325C299.716 36.5883 299.902 38.525 300.276 40.135C300.672 41.7217 301.232 43.0283 301.956 44.055C302.702 45.0583 303.612 45.805 304.686 46.295C305.759 46.7617 306.972 46.995 308.326 46.995C310.309 46.995 312.024 46.5517 313.471 45.665C314.917 44.7783 316.271 43.53 317.531 41.92V25.05ZM324.391 0.339998V52H320.261C319.304 52 318.709 51.545 318.476 50.635L317.881 46.54C316.364 48.3367 314.637 49.7833 312.701 50.88C310.787 51.9533 308.571 52.49 306.051 52.49C304.021 52.49 302.177 52.0933 300.521 51.3C298.887 50.5067 297.487 49.3517 296.321 47.835C295.154 46.295 294.256 44.3933 293.626 42.13C292.996 39.8667 292.681 37.265 292.681 34.325C292.681 31.6883 293.031 29.2383 293.731 26.975C294.431 24.7117 295.446 22.7517 296.776 21.095C298.106 19.4383 299.716 18.1433 301.606 17.21C303.496 16.2533 305.631 15.775 308.011 15.775C310.157 15.775 311.977 16.125 313.471 16.825C314.987 17.525 316.341 18.5167 317.531 19.8V0.339998H324.391ZM353.022 36.215C350.246 36.3083 347.889 36.53 345.952 36.88C344.016 37.2067 342.441 37.65 341.227 38.21C340.014 38.77 339.139 39.435 338.602 40.205C338.066 40.9517 337.797 41.7917 337.797 42.725C337.797 43.6117 337.937 44.3817 338.217 45.035C338.521 45.665 338.917 46.19 339.407 46.61C339.921 47.0067 340.516 47.2983 341.192 47.485C341.869 47.6717 342.604 47.765 343.397 47.765C344.447 47.765 345.404 47.66 346.267 47.45C347.154 47.24 347.982 46.9483 348.752 46.575C349.522 46.1783 350.257 45.7 350.957 45.14C351.657 44.58 352.346 43.9383 353.022 43.215V36.215ZM333.002 21.41C334.986 19.52 337.132 18.1083 339.442 17.175C341.776 16.2417 344.331 15.775 347.107 15.775C349.137 15.775 350.934 16.1133 352.497 16.79C354.061 17.4433 355.379 18.365 356.452 19.555C357.526 20.745 358.331 22.1683 358.867 23.825C359.427 25.4817 359.707 27.3133 359.707 29.32V52H356.662C355.986 52 355.472 51.895 355.122 51.685C354.772 51.4517 354.492 51.0317 354.282 50.425L353.547 47.31C352.637 48.15 351.739 48.8967 350.852 49.55C349.966 50.18 349.032 50.7283 348.052 51.195C347.096 51.6383 346.069 51.9767 344.972 52.21C343.876 52.4433 342.662 52.56 341.332 52.56C339.932 52.56 338.614 52.3733 337.377 52C336.164 51.6033 335.102 51.0083 334.192 50.215C333.282 49.4217 332.559 48.43 332.022 47.24C331.509 46.05 331.252 44.6617 331.252 43.075C331.252 41.675 331.626 40.3333 332.372 39.05C333.142 37.7433 334.379 36.5767 336.082 35.55C337.809 34.5233 340.049 33.6833 342.802 33.03C345.579 32.3767 348.986 32.0033 353.022 31.91V29.32C353.022 26.6367 352.451 24.63 351.307 23.3C350.164 21.97 348.484 21.305 346.267 21.305C344.774 21.305 343.514 21.4917 342.487 21.865C341.484 22.2383 340.609 22.6583 339.862 23.125C339.139 23.5683 338.497 23.9767 337.937 24.35C337.401 24.7233 336.841 24.91 336.257 24.91C335.791 24.91 335.382 24.7817 335.032 24.525C334.706 24.2683 334.437 23.965 334.227 23.615L333.002 21.41ZM429.109 1.74V52H425.329C424.746 52 424.256 51.895 423.859 51.685C423.486 51.475 423.101 51.1367 422.704 50.67L394.319 13.955C394.366 14.585 394.401 15.2033 394.424 15.81C394.471 16.4167 394.494 16.9883 394.494 17.525V52H387.949V1.74H391.799C392.452 1.74 392.942 1.82166 393.269 1.985C393.596 2.125 393.957 2.46333 394.354 3L422.809 39.75C422.739 39.0733 422.681 38.42 422.634 37.79C422.611 37.1367 422.599 36.53 422.599 35.97V1.74H429.109ZM454.204 15.88C456.817 15.88 459.174 16.3117 461.274 17.175C463.397 18.015 465.194 19.24 466.664 20.85C468.157 22.4367 469.301 24.3617 470.094 26.625C470.887 28.865 471.284 31.385 471.284 34.185C471.284 36.985 470.887 39.5167 470.094 41.78C469.301 44.0433 468.157 45.9683 466.664 47.555C465.194 49.1417 463.397 50.3667 461.274 51.23C459.174 52.07 456.817 52.49 454.204 52.49C451.567 52.49 449.187 52.07 447.064 51.23C444.964 50.3667 443.167 49.1417 441.674 47.555C440.181 45.9683 439.026 44.0433 438.209 41.78C437.416 39.5167 437.019 36.985 437.019 34.185C437.019 31.385 437.416 28.865 438.209 26.625C439.026 24.3617 440.181 22.4367 441.674 20.85C443.167 19.24 444.964 18.015 447.064 17.175C449.187 16.3117 451.567 15.88 454.204 15.88ZM454.204 47.17C457.564 47.17 460.072 46.0383 461.729 43.775C463.386 41.5117 464.214 38.3267 464.214 34.22C464.214 30.1133 463.386 26.9283 461.729 24.665C460.072 22.3783 457.564 21.235 454.204 21.235C450.797 21.235 448.254 22.3783 446.574 24.665C444.917 26.9283 444.089 30.1133 444.089 34.22C444.089 38.3267 444.917 41.5117 446.574 43.775C448.254 46.0383 450.797 47.17 454.204 47.17ZM489.349 52.56C486.479 52.56 484.262 51.755 482.699 50.145C481.159 48.535 480.389 46.2367 480.389 43.25V21.97H476.259C475.862 21.97 475.524 21.8533 475.244 21.62C474.987 21.3633 474.859 20.99 474.859 20.5V17.735L480.634 16.93L482.174 6.325C482.267 5.92833 482.442 5.625 482.699 5.415C482.979 5.18166 483.329 5.065 483.749 5.065H487.214V17H497.294V21.97H487.214V42.795C487.214 44.195 487.552 45.245 488.229 45.945C488.929 46.6217 489.815 46.96 490.889 46.96C491.519 46.96 492.055 46.8783 492.499 46.715C492.965 46.5517 493.362 46.3767 493.689 46.19C494.015 45.98 494.295 45.7933 494.529 45.63C494.762 45.4667 494.972 45.385 495.159 45.385C495.392 45.385 495.567 45.4433 495.684 45.56C495.824 45.6533 495.964 45.8167 496.104 46.05L498.134 49.34C497.014 50.3667 495.684 51.16 494.144 51.72C492.604 52.28 491.005 52.56 489.349 52.56ZM522.69 36.215C519.913 36.3083 517.557 36.53 515.62 36.88C513.683 37.2067 512.108 37.65 510.895 38.21C509.682 38.77 508.807 39.435 508.27 40.205C507.733 40.9517 507.465 41.7917 507.465 42.725C507.465 43.6117 507.605 44.3817 507.885 45.035C508.188 45.665 508.585 46.19 509.075 46.61C509.588 47.0067 510.183 47.2983 510.86 47.485C511.537 47.6717 512.272 47.765 513.065 47.765C514.115 47.765 515.072 47.66 515.935 47.45C516.822 47.24 517.65 46.9483 518.42 46.575C519.19 46.1783 519.925 45.7 520.625 45.14C521.325 44.58 522.013 43.9383 522.69 43.215V36.215ZM502.67 21.41C504.653 19.52 506.8 18.1083 509.11 17.175C511.443 16.2417 513.998 15.775 516.775 15.775C518.805 15.775 520.602 16.1133 522.165 16.79C523.728 17.4433 525.047 18.365 526.12 19.555C527.193 20.745 527.998 22.1683 528.535 23.825C529.095 25.4817 529.375 27.3133 529.375 29.32V52H526.33C525.653 52 525.14 51.895 524.79 51.685C524.44 51.4517 524.16 51.0317 523.95 50.425L523.215 47.31C522.305 48.15 521.407 48.8967 520.52 49.55C519.633 50.18 518.7 50.7283 517.72 51.195C516.763 51.6383 515.737 51.9767 514.64 52.21C513.543 52.4433 512.33 52.56 511 52.56C509.6 52.56 508.282 52.3733 507.045 52C505.832 51.6033 504.77 51.0083 503.86 50.215C502.95 49.4217 502.227 48.43 501.69 47.24C501.177 46.05 500.92 44.6617 500.92 43.075C500.92 41.675 501.293 40.3333 502.04 39.05C502.81 37.7433 504.047 36.5767 505.75 35.55C507.477 34.5233 509.717 33.6833 512.47 33.03C515.247 32.3767 518.653 32.0033 522.69 31.91V29.32C522.69 26.6367 522.118 24.63 520.975 23.3C519.832 21.97 518.152 21.305 515.935 21.305C514.442 21.305 513.182 21.4917 512.155 21.865C511.152 22.2383 510.277 22.6583 509.53 23.125C508.807 23.5683 508.165 23.9767 507.605 24.35C507.068 24.7233 506.508 24.91 505.925 24.91C505.458 24.91 505.05 24.7817 504.7 24.525C504.373 24.2683 504.105 23.965 503.895 23.615L502.67 21.41ZM610.467 1.74V52H603.957V16.23C603.957 15.6933 603.969 15.1217 603.992 14.515C604.039 13.9083 604.085 13.29 604.132 12.66L587.402 43.355C586.819 44.4983 585.92 45.07 584.707 45.07H583.657C582.444 45.07 581.557 44.4983 580.997 43.355L563.952 12.555C564.092 13.8617 564.162 15.0867 564.162 16.23V52H557.617V1.74H563.147C563.8 1.74 564.302 1.81 564.652 1.95C565.025 2.06666 565.375 2.41666 565.702 3L582.502 33.1C582.829 33.7067 583.132 34.3483 583.412 35.025C583.692 35.7017 583.96 36.3783 584.217 37.055C584.707 35.6783 585.279 34.3483 585.932 33.065L602.417 3C602.72 2.41666 603.047 2.06666 603.397 1.95C603.77 1.81 604.284 1.74 604.937 1.74H610.467ZM643.961 30.265C643.961 28.9117 643.763 27.6633 643.366 26.52C642.993 25.3767 642.433 24.385 641.686 23.545C640.94 22.705 640.03 22.0517 638.956 21.585C637.883 21.1183 636.646 20.885 635.246 20.885C632.376 20.885 630.113 21.7133 628.456 23.37C626.823 25.0267 625.785 27.325 625.341 30.265H643.961ZM649.596 46.925C648.756 47.905 647.788 48.7567 646.691 49.48C645.595 50.18 644.428 50.7517 643.191 51.195C641.955 51.6383 640.671 51.965 639.341 52.175C638.035 52.385 636.74 52.49 635.456 52.49C633.006 52.49 630.731 52.0817 628.631 51.265C626.555 50.425 624.746 49.2117 623.206 47.625C621.69 46.015 620.5 44.0317 619.636 41.675C618.796 39.295 618.376 36.565 618.376 33.485C618.376 31.0117 618.761 28.7133 619.531 26.59C620.301 24.4433 621.398 22.5767 622.821 20.99C624.268 19.4033 626.03 18.155 628.106 17.245C630.183 16.335 632.516 15.88 635.106 15.88C637.276 15.88 639.271 16.2417 641.091 16.965C642.935 17.665 644.521 18.6917 645.851 20.045C647.181 21.3983 648.22 23.0667 648.966 25.05C649.736 27.0333 650.121 29.2967 650.121 31.84C650.121 32.89 650.005 33.6017 649.771 33.975C649.538 34.325 649.106 34.5 648.476 34.5H625.166C625.236 36.6233 625.54 38.4783 626.076 40.065C626.613 41.6283 627.348 42.935 628.281 43.985C629.238 45.035 630.37 45.8167 631.676 46.33C632.983 46.8433 634.441 47.1 636.051 47.1C637.568 47.1 638.875 46.925 639.971 46.575C641.091 46.225 642.048 45.8517 642.841 45.455C643.658 45.035 644.335 44.65 644.871 44.3C645.431 43.95 645.921 43.775 646.341 43.775C646.901 43.775 647.333 43.985 647.636 44.405L649.596 46.925ZM645.921 1.18L637.626 10.21C637.276 10.6067 636.938 10.8867 636.611 11.05C636.285 11.19 635.853 11.26 635.316 11.26H631.186L636.366 2.79C636.693 2.25333 637.043 1.85667 637.416 1.6C637.813 1.32 638.42 1.18 639.236 1.18H645.921ZM680.382 25.05C679.262 23.58 678.049 22.5533 676.742 21.97C675.459 21.3867 674.012 21.095 672.402 21.095C669.275 21.095 666.849 22.2267 665.122 24.49C663.419 26.73 662.567 30.0083 662.567 34.325C662.567 36.5883 662.754 38.525 663.127 40.135C663.524 41.7217 664.084 43.0283 664.807 44.055C665.554 45.0583 666.464 45.805 667.537 46.295C668.61 46.7617 669.824 46.995 671.177 46.995C673.16 46.995 674.875 46.5517 676.322 45.665C677.769 44.7783 679.122 43.53 680.382 41.92V25.05ZM687.242 0.339998V52H683.112C682.155 52 681.56 51.545 681.327 50.635L680.732 46.54C679.215 48.3367 677.489 49.7833 675.552 50.88C673.639 51.9533 671.422 52.49 668.902 52.49C666.872 52.49 665.029 52.0933 663.372 51.3C661.739 50.5067 660.339 49.3517 659.172 47.835C658.005 46.295 657.107 44.3933 656.477 42.13C655.847 39.8667 655.532 37.265 655.532 34.325C655.532 31.6883 655.882 29.2383 656.582 26.975C657.282 24.7117 658.297 22.7517 659.627 21.095C660.957 19.4383 662.567 18.1433 664.457 17.21C666.347 16.2533 668.482 15.775 670.862 15.775C673.009 15.775 674.829 16.125 676.322 16.825C677.839 17.525 679.192 18.5167 680.382 19.8V0.339998H687.242ZM703.904 16.44V52H697.079V16.44H703.904ZM705.199 5.45C705.199 6.08 705.07 6.68666 704.814 7.27C704.557 7.83 704.207 8.33166 703.764 8.775C703.344 9.195 702.842 9.53333 702.259 9.79C701.675 10.0233 701.069 10.14 700.439 10.14C699.809 10.14 699.214 10.0233 698.654 9.79C698.094 9.53333 697.592 9.195 697.149 8.775C696.729 8.33166 696.39 7.83 696.134 7.27C695.9 6.68666 695.784 6.08 695.784 5.45C695.784 4.79667 695.9 4.19 696.134 3.63C696.39 3.04666 696.729 2.545 697.149 2.125C697.592 1.68166 698.094 1.34333 698.654 1.11C699.214 0.853331 699.809 0.724999 700.439 0.724999C701.069 0.724999 701.675 0.853331 702.259 1.11C702.842 1.34333 703.344 1.68166 703.764 2.125C704.207 2.545 704.557 3.04666 704.814 3.63C705.07 4.19 705.199 4.79667 705.199 5.45ZM732.895 36.215C730.119 36.3083 727.762 36.53 725.825 36.88C723.889 37.2067 722.314 37.65 721.1 38.21C719.887 38.77 719.012 39.435 718.475 40.205C717.939 40.9517 717.67 41.7917 717.67 42.725C717.67 43.6117 717.81 44.3817 718.09 45.035C718.394 45.665 718.79 46.19 719.28 46.61C719.794 47.0067 720.389 47.2983 721.065 47.485C721.742 47.6717 722.477 47.765 723.27 47.765C724.32 47.765 725.277 47.66 726.14 47.45C727.027 47.24 727.855 46.9483 728.625 46.575C729.395 46.1783 730.13 45.7 730.83 45.14C731.53 44.58 732.219 43.9383 732.895 43.215V36.215ZM712.875 21.41C714.859 19.52 717.005 18.1083 719.315 17.175C721.649 16.2417 724.204 15.775 726.98 15.775C729.01 15.775 730.807 16.1133 732.37 16.79C733.934 17.4433 735.252 18.365 736.325 19.555C737.399 20.745 738.204 22.1683 738.74 23.825C739.3 25.4817 739.58 27.3133 739.58 29.32V52H736.535C735.859 52 735.345 51.895 734.995 51.685C734.645 51.4517 734.365 51.0317 734.155 50.425L733.42 47.31C732.51 48.15 731.612 48.8967 730.725 49.55C729.839 50.18 728.905 50.7283 727.925 51.195C726.969 51.6383 725.942 51.9767 724.845 52.21C723.749 52.4433 722.535 52.56 721.205 52.56C719.805 52.56 718.487 52.3733 717.25 52C716.037 51.6033 714.975 51.0083 714.065 50.215C713.155 49.4217 712.432 48.43 711.895 47.24C711.382 46.05 711.125 44.6617 711.125 43.075C711.125 41.675 711.499 40.3333 712.245 39.05C713.015 37.7433 714.252 36.5767 715.955 35.55C717.682 34.5233 719.922 33.6833 722.675 33.03C725.452 32.3767 728.859 32.0033 732.895 31.91V29.32C732.895 26.6367 732.324 24.63 731.18 23.3C730.037 21.97 728.357 21.305 726.14 21.305C724.647 21.305 723.387 21.4917 722.36 21.865C721.357 22.2383 720.482 22.6583 719.735 23.125C719.012 23.5683 718.37 23.9767 717.81 24.35C717.274 24.7233 716.714 24.91 716.13 24.91C715.664 24.91 715.255 24.7817 714.905 24.525C714.579 24.2683 714.31 23.965 714.1 23.615L712.875 21.41ZM772.827 21.375C773.597 20.5583 774.402 19.8117 775.242 19.135C776.082 18.4583 776.969 17.8867 777.902 17.42C778.859 16.93 779.874 16.5567 780.947 16.3C782.044 16.02 783.21 15.88 784.447 15.88C786.407 15.88 788.122 16.2067 789.592 16.86C791.085 17.5133 792.334 18.435 793.337 19.625C794.34 20.7917 795.099 22.2033 795.612 23.86C796.125 25.5167 796.382 27.3483 796.382 29.355V52H789.522V29.355C789.522 26.8117 788.939 24.84 787.772 23.44C786.605 22.0167 784.82 21.305 782.417 21.305C780.667 21.305 779.022 21.725 777.482 22.565C775.965 23.3817 774.554 24.5017 773.247 25.925V52H766.422V16.44H770.517C771.474 16.44 772.069 16.895 772.302 17.805L772.827 21.375ZM820.747 15.88C823.36 15.88 825.717 16.3117 827.817 17.175C829.94 18.015 831.737 19.24 833.207 20.85C834.7 22.4367 835.844 24.3617 836.637 26.625C837.43 28.865 837.827 31.385 837.827 34.185C837.827 36.985 837.43 39.5167 836.637 41.78C835.844 44.0433 834.7 45.9683 833.207 47.555C831.737 49.1417 829.94 50.3667 827.817 51.23C825.717 52.07 823.36 52.49 820.747 52.49C818.11 52.49 815.73 52.07 813.607 51.23C811.507 50.3667 809.71 49.1417 808.217 47.555C806.724 45.9683 805.569 44.0433 804.752 41.78C803.959 39.5167 803.562 36.985 803.562 34.185C803.562 31.385 803.959 28.865 804.752 26.625C805.569 24.3617 806.724 22.4367 808.217 20.85C809.71 19.24 811.507 18.015 813.607 17.175C815.73 16.3117 818.11 15.88 820.747 15.88ZM820.747 47.17C824.107 47.17 826.615 46.0383 828.272 43.775C829.929 41.5117 830.757 38.3267 830.757 34.22C830.757 30.1133 829.929 26.9283 828.272 24.665C826.615 22.3783 824.107 21.235 820.747 21.235C817.34 21.235 814.797 22.3783 813.117 24.665C811.46 26.9283 810.632 30.1133 810.632 34.22C810.632 38.3267 811.46 41.5117 813.117 43.775C814.797 46.0383 817.34 47.17 820.747 47.17ZM890.555 9.93C890.322 10.3267 890.077 10.6183 889.82 10.805C889.564 10.9917 889.237 11.085 888.84 11.085C888.42 11.085 887.942 10.8983 887.405 10.525C886.869 10.1283 886.192 9.69667 885.375 9.23C884.582 8.74 883.625 8.30833 882.505 7.935C881.385 7.53833 880.044 7.34 878.48 7.34C877.01 7.34 875.715 7.53833 874.595 7.935C873.499 8.30833 872.577 8.83333 871.83 9.51C871.084 10.1633 870.512 10.945 870.115 11.855C869.742 12.7417 869.555 13.71 869.555 14.76C869.555 16.1133 869.894 17.2333 870.57 18.12C871.27 19.0067 872.18 19.765 873.3 20.395C874.42 21.025 875.692 21.5733 877.115 22.04C878.539 22.5067 879.997 22.9967 881.49 23.51C882.984 24 884.442 24.5717 885.865 25.225C887.289 25.8783 888.56 26.7067 889.68 27.71C890.8 28.69 891.699 29.9033 892.375 31.35C893.075 32.7733 893.425 34.5233 893.425 36.6C893.425 38.8167 893.04 40.8933 892.27 42.83C891.524 44.7667 890.427 46.4583 888.98 47.905C887.534 49.3517 885.749 50.495 883.625 51.335C881.525 52.1517 879.134 52.56 876.45 52.56C874.84 52.56 873.277 52.3967 871.76 52.07C870.244 51.7667 868.809 51.335 867.455 50.775C866.102 50.1917 864.83 49.5033 863.64 48.71C862.474 47.8933 861.424 46.9833 860.49 45.98L862.625 42.41C862.835 42.13 863.08 41.8967 863.36 41.71C863.664 41.5233 864.002 41.43 864.375 41.43C864.865 41.43 865.425 41.6867 866.055 42.2C866.709 42.7133 867.502 43.285 868.435 43.915C869.392 44.5217 870.524 45.0817 871.83 45.595C873.16 46.1083 874.77 46.365 876.66 46.365C878.2 46.365 879.577 46.1667 880.79 45.77C882.004 45.35 883.019 44.7667 883.835 44.02C884.675 43.25 885.317 42.3283 885.76 41.255C886.204 40.1817 886.425 38.9917 886.425 37.685C886.425 36.215 886.087 35.0133 885.41 34.08C884.734 33.1467 883.835 32.365 882.715 31.735C881.595 31.105 880.324 30.5683 878.9 30.125C877.477 29.6817 876.019 29.2267 874.525 28.76C873.032 28.27 871.574 27.71 870.15 27.08C868.727 26.45 867.455 25.6333 866.335 24.63C865.215 23.6033 864.317 22.3317 863.64 20.815C862.964 19.275 862.625 17.385 862.625 15.145C862.625 13.3483 862.975 11.61 863.675 9.93C864.375 8.25 865.39 6.76833 866.72 5.485C868.074 4.17833 869.73 3.14 871.69 2.37C873.65 1.57666 875.89 1.18 878.41 1.18C881.234 1.18 883.824 1.635 886.18 2.545C888.56 3.43166 890.625 4.715 892.375 6.395L890.555 9.93ZM928.375 33.275L920.92 13.78C920.383 12.45 919.846 10.77 919.31 8.74C919.053 9.74333 918.785 10.6767 918.505 11.54C918.248 12.4033 917.991 13.1733 917.735 13.85L910.315 33.275H928.375ZM943.11 52H937.37C936.716 52 936.18 51.8367 935.76 51.51C935.34 51.1833 935.036 50.7633 934.85 50.25L930.405 38.595H908.25L903.805 50.25C903.641 50.6933 903.338 51.1017 902.895 51.475C902.451 51.825 901.915 52 901.285 52H895.545L915.565 1.74H923.09L943.11 52ZM980.569 45.945L980.534 52H949.384V1.74H980.534V7.795H956.874V23.72H975.914V29.565H956.874V45.945H980.569ZM1007.74 46.085C1009.63 46.085 1011.24 45.8633 1012.57 45.42C1013.92 44.9767 1015.02 44.37 1015.86 43.6C1016.72 42.83 1017.35 41.92 1017.75 40.87C1018.15 39.7967 1018.34 38.63 1018.34 37.37C1018.34 34.8733 1017.48 32.9133 1015.75 31.49C1014.03 30.0433 1011.36 29.32 1007.74 29.32H997.24V46.085H1007.74ZM997.24 7.585V24.035H1005.81C1009.48 24.035 1012.2 23.3 1013.97 21.83C1015.77 20.3367 1016.66 18.33 1016.66 15.81C1016.66 12.94 1015.81 10.8517 1014.11 9.545C1012.41 8.23833 1009.76 7.585 1006.16 7.585H997.24ZM1006.16 1.74C1009.31 1.74 1012.01 2.04333 1014.25 2.65C1016.51 3.25666 1018.37 4.13166 1019.81 5.275C1021.26 6.41833 1022.32 7.80667 1023 9.44C1023.7 11.05 1024.05 12.8817 1024.05 14.935C1024.05 16.1483 1023.86 17.315 1023.49 18.435C1023.12 19.555 1022.54 20.605 1021.77 21.585C1021 22.5417 1020.04 23.405 1018.87 24.175C1017.7 24.945 1016.33 25.5867 1014.74 26.1C1022.04 27.5467 1025.69 31.3617 1025.69 37.545C1025.69 39.6917 1025.3 41.6517 1024.5 43.425C1023.71 45.175 1022.56 46.6917 1021.04 47.975C1019.52 49.2583 1017.66 50.25 1015.44 50.95C1013.22 51.65 1010.7 52 1007.88 52H989.785V1.74H1006.16Z" fill="#4C5773"/>
</svg>
