<svg width="817" height="148" viewBox="0 0 817 148" fill="none" xmlns="http://www.w3.org/2000/svg">
<path d="M31.4083 45.945L31.3733 52H0.22332V1.74H31.3733V7.795H7.71332V23.72H26.7533V29.565H7.71332V45.945H31.4083ZM68.5898 16.44L54.1698 52H48.0098L33.5898 16.44H39.2248C39.7615 16.44 40.2048 16.5683 40.5548 16.825C40.9048 17.0817 41.1381 17.4083 41.2548 17.805L49.7598 39.645C50.0631 40.555 50.3198 41.465 50.5298 42.375C50.7631 43.2617 50.9731 44.1483 51.1598 45.035C51.3465 44.1483 51.5565 43.2617 51.7898 42.375C52.0231 41.4883 52.3031 40.5783 52.6298 39.645L61.2398 17.805C61.3798 17.4083 61.6248 17.0817 61.9748 16.825C62.3248 16.5683 62.7448 16.44 63.2348 16.44H68.5898ZM88.1482 15.88C90.7616 15.88 93.1182 16.3117 95.2182 17.175C97.3416 18.015 99.1382 19.24 100.608 20.85C102.102 22.4367 103.245 24.3617 104.038 26.625C104.832 28.865 105.228 31.385 105.228 34.185C105.228 36.985 104.832 39.5167 104.038 41.78C103.245 44.0433 102.102 45.9683 100.608 47.555C99.1382 49.1417 97.3416 50.3667 95.2182 51.23C93.1182 52.07 90.7616 52.49 88.1482 52.49C85.5116 52.49 83.1316 52.07 81.0082 51.23C78.9082 50.3667 77.1116 49.1417 75.6182 47.555C74.1249 45.9683 72.9699 44.0433 72.1532 41.78C71.3599 39.5167 70.9632 36.985 70.9632 34.185C70.9632 31.385 71.3599 28.865 72.1532 26.625C72.9699 24.3617 74.1249 22.4367 75.6182 20.85C77.1116 19.24 78.9082 18.015 81.0082 17.175C83.1316 16.3117 85.5116 15.88 88.1482 15.88ZM88.1482 47.17C91.5082 47.17 94.0166 46.0383 95.6732 43.775C97.3299 41.5117 98.1582 38.3267 98.1582 34.22C98.1582 30.1133 97.3299 26.9283 95.6732 24.665C94.0166 22.3783 91.5082 21.235 88.1482 21.235C84.7416 21.235 82.1982 22.3783 80.5182 24.665C78.8616 26.9283 78.0332 30.1133 78.0332 34.22C78.0332 38.3267 78.8616 41.5117 80.5182 43.775C82.1982 46.0383 84.7416 47.17 88.1482 47.17ZM119.847 0.339998V52H112.987V0.339998H119.847ZM159.17 16.44V52H155.075C154.141 52 153.535 51.545 153.255 50.635L152.765 47.065C151.995 47.8817 151.19 48.6283 150.35 49.305C149.51 49.9817 148.611 50.565 147.655 51.055C146.698 51.5217 145.683 51.8833 144.61 52.14C143.536 52.42 142.381 52.56 141.145 52.56C139.185 52.56 137.458 52.2333 135.965 51.58C134.495 50.9267 133.258 50.0167 132.255 48.85C131.251 47.66 130.493 46.2367 129.98 44.58C129.466 42.9233 129.21 41.0917 129.21 39.085V16.44H136.07V39.085C136.07 41.6283 136.653 43.6117 137.82 45.035C138.986 46.435 140.771 47.135 143.175 47.135C144.925 47.135 146.558 46.7267 148.075 45.91C149.591 45.07 151.015 43.9267 152.345 42.48V16.44H159.17ZM195.821 46.925C194.421 48.6517 192.741 49.9467 190.781 50.81C188.845 51.6733 186.791 52.1983 184.621 52.385L184.026 54.485C186.196 54.9517 187.748 55.5933 188.681 56.41C189.615 57.25 190.081 58.3 190.081 59.56C190.081 60.33 189.883 61.0183 189.486 61.625C189.113 62.2317 188.588 62.745 187.911 63.165C187.235 63.585 186.406 63.9117 185.426 64.145C184.47 64.3783 183.42 64.495 182.276 64.495C181.32 64.495 180.41 64.4017 179.546 64.215C178.706 64.0517 177.913 63.8067 177.166 63.48L177.796 61.345C177.936 60.9017 178.228 60.68 178.671 60.68C178.811 60.68 178.963 60.715 179.126 60.785C179.313 60.8783 179.535 60.96 179.791 61.03C180.048 61.1233 180.34 61.205 180.666 61.275C181.016 61.3683 181.425 61.415 181.891 61.415C182.825 61.415 183.525 61.2283 183.991 60.855C184.458 60.4817 184.691 60.015 184.691 59.455C184.691 58.615 184.213 58.02 183.256 57.67C182.323 57.3433 180.97 57.0633 179.196 56.83L180.666 52.385C178.66 52.175 176.805 51.615 175.101 50.705C173.398 49.795 171.916 48.57 170.656 47.03C169.42 45.4667 168.44 43.6117 167.716 41.465C167.016 39.3183 166.666 36.8917 166.666 34.185C166.666 31.5483 167.028 29.11 167.751 26.87C168.498 24.63 169.583 22.705 171.006 21.095C172.453 19.4617 174.226 18.19 176.326 17.28C178.426 16.3467 180.83 15.88 183.536 15.88C186.08 15.88 188.32 16.2883 190.256 17.105C192.193 17.9217 193.92 19.0767 195.436 20.57L193.616 23.09C193.406 23.3467 193.196 23.5567 192.986 23.72C192.8 23.86 192.52 23.93 192.146 23.93C191.773 23.93 191.376 23.79 190.956 23.51C190.56 23.2067 190.046 22.8917 189.416 22.565C188.81 22.215 188.063 21.9 187.176 21.62C186.313 21.3167 185.24 21.165 183.956 21.165C182.276 21.165 180.795 21.4683 179.511 22.075C178.228 22.6817 177.155 23.545 176.291 24.665C175.451 25.785 174.81 27.15 174.366 28.76C173.923 30.37 173.701 32.1783 173.701 34.185C173.701 36.2617 173.935 38.1167 174.401 39.75C174.868 41.36 175.533 42.725 176.396 43.845C177.26 44.9417 178.31 45.7817 179.546 46.365C180.783 46.925 182.16 47.205 183.676 47.205C185.146 47.205 186.36 47.03 187.316 46.68C188.273 46.3067 189.066 45.91 189.696 45.49C190.326 45.07 190.851 44.685 191.271 44.335C191.691 43.9617 192.123 43.775 192.566 43.775C193.126 43.775 193.558 43.985 193.861 44.405L195.821 46.925ZM221.302 36.215C218.526 36.3083 216.169 36.53 214.232 36.88C212.296 37.2067 210.721 37.65 209.507 38.21C208.294 38.77 207.419 39.435 206.882 40.205C206.346 40.9517 206.077 41.7917 206.077 42.725C206.077 43.6117 206.217 44.3817 206.497 45.035C206.801 45.665 207.197 46.19 207.687 46.61C208.201 47.0067 208.796 47.2983 209.472 47.485C210.149 47.6717 210.884 47.765 211.677 47.765C212.727 47.765 213.684 47.66 214.547 47.45C215.434 47.24 216.262 46.9483 217.032 46.575C217.802 46.1783 218.537 45.7 219.237 45.14C219.937 44.58 220.626 43.9383 221.302 43.215V36.215ZM201.282 21.41C203.266 19.52 205.412 18.1083 207.722 17.175C210.056 16.2417 212.611 15.775 215.387 15.775C217.417 15.775 219.214 16.1133 220.777 16.79C222.341 17.4433 223.659 18.365 224.732 19.555C225.806 20.745 226.611 22.1683 227.147 23.825C227.707 25.4817 227.987 27.3133 227.987 29.32V52H224.942C224.266 52 223.752 51.895 223.402 51.685C223.052 51.4517 222.772 51.0317 222.562 50.425L221.827 47.31C220.917 48.15 220.019 48.8967 219.132 49.55C218.246 50.18 217.312 50.7283 216.332 51.195C215.376 51.6383 214.349 51.9767 213.252 52.21C212.156 52.4433 210.942 52.56 209.612 52.56C208.212 52.56 206.894 52.3733 205.657 52C204.444 51.6033 203.382 51.0083 202.472 50.215C201.562 49.4217 200.839 48.43 200.302 47.24C199.789 46.05 199.532 44.6617 199.532 43.075C199.532 41.675 199.906 40.3333 200.652 39.05C201.422 37.7433 202.659 36.5767 204.362 35.55C206.089 34.5233 208.329 33.6833 211.082 33.03C213.859 32.3767 217.266 32.0033 221.302 31.91V29.32C221.302 26.6367 220.731 24.63 219.587 23.3C218.444 21.97 216.764 21.305 214.547 21.305C213.054 21.305 211.794 21.4917 210.767 21.865C209.764 22.2383 208.889 22.6583 208.142 23.125C207.419 23.5683 206.777 23.9767 206.217 24.35C205.681 24.7233 205.121 24.91 204.537 24.91C204.071 24.91 203.662 24.7817 203.312 24.525C202.986 24.2683 202.717 23.965 202.507 23.615L201.282 21.41ZM218.467 5.31C219.261 5.31 219.867 5.07666 220.287 4.61C220.731 4.14333 220.964 3.39666 220.987 2.37H225.152C225.152 3.53666 224.989 4.59833 224.662 5.555C224.359 6.51167 223.927 7.34 223.367 8.04C222.807 8.71666 222.131 9.24166 221.337 9.615C220.544 9.98833 219.669 10.175 218.712 10.175C217.896 10.175 217.126 10.0117 216.402 9.685C215.702 9.35833 215.037 8.99667 214.407 8.6C213.777 8.20333 213.171 7.84166 212.587 7.515C212.027 7.18833 211.491 7.025 210.977 7.025C210.207 7.025 209.601 7.27 209.157 7.76C208.737 8.25 208.516 8.99667 208.492 10H204.257C204.257 8.85666 204.409 7.80666 204.712 6.85C205.039 5.87 205.494 5.04167 206.077 4.365C206.661 3.68833 207.337 3.16333 208.107 2.79C208.901 2.39333 209.776 2.195 210.732 2.195C211.572 2.195 212.342 2.35833 213.042 2.685C213.766 3.01166 214.442 3.37333 215.072 3.77C215.702 4.14333 216.297 4.49333 216.857 4.82C217.417 5.14666 217.954 5.31 218.467 5.31ZM252.279 15.88C254.892 15.88 257.249 16.3117 259.349 17.175C261.472 18.015 263.269 19.24 264.739 20.85C266.232 22.4367 267.376 24.3617 268.169 26.625C268.962 28.865 269.359 31.385 269.359 34.185C269.359 36.985 268.962 39.5167 268.169 41.78C267.376 44.0433 266.232 45.9683 264.739 47.555C263.269 49.1417 261.472 50.3667 259.349 51.23C257.249 52.07 254.892 52.49 252.279 52.49C249.642 52.49 247.262 52.07 245.139 51.23C243.039 50.3667 241.242 49.1417 239.749 47.555C238.256 45.9683 237.101 44.0433 236.284 41.78C235.491 39.5167 235.094 36.985 235.094 34.185C235.094 31.385 235.491 28.865 236.284 26.625C237.101 24.3617 238.256 22.4367 239.749 20.85C241.242 19.24 243.039 18.015 245.139 17.175C247.262 16.3117 249.642 15.88 252.279 15.88ZM252.279 47.17C255.639 47.17 258.147 46.0383 259.804 43.775C261.461 41.5117 262.289 38.3267 262.289 34.22C262.289 30.1133 261.461 26.9283 259.804 24.665C258.147 22.3783 255.639 21.235 252.279 21.235C248.872 21.235 246.329 22.3783 244.649 24.665C242.992 26.9283 242.164 30.1133 242.164 34.22C242.164 38.3267 242.992 41.5117 244.649 43.775C246.329 46.0383 248.872 47.17 252.279 47.17ZM317.608 25.05C316.488 23.58 315.274 22.5533 313.968 21.97C312.684 21.3867 311.238 21.095 309.628 21.095C306.501 21.095 304.074 22.2267 302.348 24.49C300.644 26.73 299.793 30.0083 299.793 34.325C299.793 36.5883 299.979 38.525 300.353 40.135C300.749 41.7217 301.309 43.0283 302.033 44.055C302.779 45.0583 303.689 45.805 304.763 46.295C305.836 46.7617 307.049 46.995 308.403 46.995C310.386 46.995 312.101 46.5517 313.548 45.665C314.994 44.7783 316.348 43.53 317.608 41.92V25.05ZM324.468 0.339998V52H320.338C319.381 52 318.786 51.545 318.553 50.635L317.958 46.54C316.441 48.3367 314.714 49.7833 312.778 50.88C310.864 51.9533 308.648 52.49 306.128 52.49C304.098 52.49 302.254 52.0933 300.598 51.3C298.964 50.5067 297.564 49.3517 296.398 47.835C295.231 46.295 294.333 44.3933 293.703 42.13C293.073 39.8667 292.758 37.265 292.758 34.325C292.758 31.6883 293.108 29.2383 293.808 26.975C294.508 24.7117 295.523 22.7517 296.853 21.095C298.183 19.4383 299.793 18.1433 301.683 17.21C303.573 16.2533 305.708 15.775 308.088 15.775C310.234 15.775 312.054 16.125 313.548 16.825C315.064 17.525 316.418 18.5167 317.608 19.8V0.339998H324.468ZM353.099 36.215C350.323 36.3083 347.966 36.53 346.029 36.88C344.093 37.2067 342.518 37.65 341.304 38.21C340.091 38.77 339.216 39.435 338.679 40.205C338.143 40.9517 337.874 41.7917 337.874 42.725C337.874 43.6117 338.014 44.3817 338.294 45.035C338.598 45.665 338.994 46.19 339.484 46.61C339.998 47.0067 340.593 47.2983 341.269 47.485C341.946 47.6717 342.681 47.765 343.474 47.765C344.524 47.765 345.481 47.66 346.344 47.45C347.231 47.24 348.059 46.9483 348.829 46.575C349.599 46.1783 350.334 45.7 351.034 45.14C351.734 44.58 352.423 43.9383 353.099 43.215V36.215ZM333.079 21.41C335.063 19.52 337.209 18.1083 339.519 17.175C341.853 16.2417 344.408 15.775 347.184 15.775C349.214 15.775 351.011 16.1133 352.574 16.79C354.138 17.4433 355.456 18.365 356.529 19.555C357.603 20.745 358.408 22.1683 358.944 23.825C359.504 25.4817 359.784 27.3133 359.784 29.32V52H356.739C356.063 52 355.549 51.895 355.199 51.685C354.849 51.4517 354.569 51.0317 354.359 50.425L353.624 47.31C352.714 48.15 351.816 48.8967 350.929 49.55C350.043 50.18 349.109 50.7283 348.129 51.195C347.173 51.6383 346.146 51.9767 345.049 52.21C343.953 52.4433 342.739 52.56 341.409 52.56C340.009 52.56 338.691 52.3733 337.454 52C336.241 51.6033 335.179 51.0083 334.269 50.215C333.359 49.4217 332.636 48.43 332.099 47.24C331.586 46.05 331.329 44.6617 331.329 43.075C331.329 41.675 331.703 40.3333 332.449 39.05C333.219 37.7433 334.456 36.5767 336.159 35.55C337.886 34.5233 340.126 33.6833 342.879 33.03C345.656 32.3767 349.063 32.0033 353.099 31.91V29.32C353.099 26.6367 352.528 24.63 351.384 23.3C350.241 21.97 348.561 21.305 346.344 21.305C344.851 21.305 343.591 21.4917 342.564 21.865C341.561 22.2383 340.686 22.6583 339.939 23.125C339.216 23.5683 338.574 23.9767 338.014 24.35C337.478 24.7233 336.918 24.91 336.334 24.91C335.868 24.91 335.459 24.7817 335.109 24.525C334.783 24.2683 334.514 23.965 334.304 23.615L333.079 21.41ZM412.407 33.275L404.952 13.78C404.415 12.45 403.879 10.77 403.342 8.74C403.085 9.74333 402.817 10.6767 402.537 11.54C402.28 12.4033 402.024 13.1733 401.767 13.85L394.347 33.275H412.407ZM427.142 52H421.402C420.749 52 420.212 51.8367 419.792 51.51C419.372 51.1833 419.069 50.7633 418.882 50.25L414.437 38.595H392.282L387.837 50.25C387.674 50.6933 387.37 51.1017 386.927 51.475C386.484 51.825 385.947 52 385.317 52H379.577L399.597 1.74H407.122L427.142 52ZM438.705 43.25C439.825 44.72 441.027 45.7467 442.31 46.33C443.617 46.9133 445.075 47.205 446.685 47.205C449.812 47.205 452.227 46.085 453.93 43.845C455.657 41.5817 456.52 38.2917 456.52 33.975C456.52 31.7117 456.322 29.7867 455.925 28.2C455.552 26.59 454.992 25.2833 454.245 24.28C453.522 23.2533 452.623 22.5067 451.55 22.04C450.477 21.55 449.263 21.305 447.91 21.305C445.927 21.305 444.2 21.7483 442.73 22.635C441.283 23.5217 439.942 24.7817 438.705 26.415V43.25ZM438.355 21.76C439.102 20.8733 439.895 20.0683 440.735 19.345C441.598 18.5983 442.52 17.9683 443.5 17.455C444.48 16.9183 445.518 16.51 446.615 16.23C447.735 15.9267 448.925 15.775 450.185 15.775C452.215 15.775 454.047 16.1717 455.68 16.965C457.337 17.7583 458.748 18.925 459.915 20.465C461.082 22.005 461.98 23.9067 462.61 26.17C463.263 28.4333 463.59 31.035 463.59 33.975C463.59 36.6117 463.228 39.0617 462.505 41.325C461.805 43.565 460.79 45.5133 459.46 47.17C458.153 48.8267 456.543 50.1333 454.63 51.09C452.74 52.0233 450.605 52.49 448.225 52.49C446.102 52.49 444.282 52.14 442.765 51.44C441.248 50.74 439.895 49.76 438.705 48.5V63.935H431.88V16.44H435.975C436.932 16.44 437.527 16.895 437.76 17.805L438.355 21.76ZM477.695 23.265C478.838 20.9317 480.215 19.1 481.825 17.77C483.435 16.44 485.372 15.775 487.635 15.775C488.405 15.775 489.128 15.8683 489.805 16.055C490.505 16.2183 491.112 16.475 491.625 16.825L491.17 21.97C491.007 22.6 490.622 22.915 490.015 22.915C489.688 22.915 489.198 22.8567 488.545 22.74C487.892 22.6 487.192 22.53 486.445 22.53C485.348 22.53 484.38 22.6933 483.54 23.02C482.7 23.3233 481.942 23.79 481.265 24.42C480.612 25.0267 480.028 25.785 479.515 26.695C479.002 27.5817 478.523 28.5967 478.08 29.74V52H471.255V16.44H475.175C475.922 16.44 476.423 16.58 476.68 16.86C476.96 17.1167 477.158 17.5833 477.275 18.26L477.695 23.265ZM519.146 30.265C519.146 28.9117 518.948 27.6633 518.551 26.52C518.178 25.3767 517.618 24.385 516.871 23.545C516.124 22.705 515.214 22.0517 514.141 21.585C513.068 21.1183 511.831 20.885 510.431 20.885C507.561 20.885 505.298 21.7133 503.641 23.37C502.008 25.0267 500.969 27.325 500.526 30.265H519.146ZM524.781 46.925C523.941 47.905 522.973 48.7567 521.876 49.48C520.779 50.18 519.613 50.7517 518.376 51.195C517.139 51.6383 515.856 51.965 514.526 52.175C513.219 52.385 511.924 52.49 510.641 52.49C508.191 52.49 505.916 52.0817 503.816 51.265C501.739 50.425 499.931 49.2117 498.391 47.625C496.874 46.015 495.684 44.0317 494.821 41.675C493.981 39.295 493.561 36.565 493.561 33.485C493.561 31.0117 493.946 28.7133 494.716 26.59C495.486 24.4433 496.583 22.5767 498.006 20.99C499.453 19.4033 501.214 18.155 503.291 17.245C505.368 16.335 507.701 15.88 510.291 15.88C512.461 15.88 514.456 16.2417 516.276 16.965C518.119 17.665 519.706 18.6917 521.036 20.045C522.366 21.3983 523.404 23.0667 524.151 25.05C524.921 27.0333 525.306 29.2967 525.306 31.84C525.306 32.89 525.189 33.6017 524.956 33.975C524.723 34.325 524.291 34.5 523.661 34.5H500.351C500.421 36.6233 500.724 38.4783 501.261 40.065C501.798 41.6283 502.533 42.935 503.466 43.985C504.423 45.035 505.554 45.8167 506.861 46.33C508.168 46.8433 509.626 47.1 511.236 47.1C512.753 47.1 514.059 46.925 515.156 46.575C516.276 46.225 517.233 45.8517 518.026 45.455C518.843 45.035 519.519 44.65 520.056 44.3C520.616 43.95 521.106 43.775 521.526 43.775C522.086 43.775 522.518 43.985 522.821 44.405L524.781 46.925ZM539.047 21.375C539.817 20.5583 540.622 19.8117 541.462 19.135C542.302 18.4583 543.188 17.8867 544.122 17.42C545.078 16.93 546.093 16.5567 547.167 16.3C548.263 16.02 549.43 15.88 550.667 15.88C552.627 15.88 554.342 16.2067 555.812 16.86C557.305 17.5133 558.553 18.435 559.557 19.625C560.56 20.7917 561.318 22.2033 561.832 23.86C562.345 25.5167 562.602 27.3483 562.602 29.355V52H555.742V29.355C555.742 26.8117 555.158 24.84 553.992 23.44C552.825 22.0167 551.04 21.305 548.637 21.305C546.887 21.305 545.242 21.725 543.702 22.565C542.185 23.3817 540.773 24.5017 539.467 25.925V52H532.642V16.44H536.737C537.693 16.44 538.288 16.895 538.522 17.805L539.047 21.375ZM594.737 25.05C593.617 23.58 592.403 22.5533 591.097 21.97C589.813 21.3867 588.367 21.095 586.757 21.095C583.63 21.095 581.203 22.2267 579.477 24.49C577.773 26.73 576.922 30.0083 576.922 34.325C576.922 36.5883 577.108 38.525 577.482 40.135C577.878 41.7217 578.438 43.0283 579.162 44.055C579.908 45.0583 580.818 45.805 581.892 46.295C582.965 46.7617 584.178 46.995 585.532 46.995C587.515 46.995 589.23 46.5517 590.677 45.665C592.123 44.7783 593.477 43.53 594.737 41.92V25.05ZM601.597 0.339998V52H597.467C596.51 52 595.915 51.545 595.682 50.635L595.087 46.54C593.57 48.3367 591.843 49.7833 589.907 50.88C587.993 51.9533 585.777 52.49 583.257 52.49C581.227 52.49 579.383 52.0933 577.727 51.3C576.093 50.5067 574.693 49.3517 573.527 47.835C572.36 46.295 571.462 44.3933 570.832 42.13C570.202 39.8667 569.887 37.265 569.887 34.325C569.887 31.6883 570.237 29.2383 570.937 26.975C571.637 24.7117 572.652 22.7517 573.982 21.095C575.312 19.4383 576.922 18.1433 578.812 17.21C580.702 16.2533 582.837 15.775 585.217 15.775C587.363 15.775 589.183 16.125 590.677 16.825C592.193 17.525 593.547 18.5167 594.737 19.8V0.339998H601.597ZM618.258 16.44V52H611.433V16.44H618.258ZM619.553 5.45C619.553 6.08 619.425 6.68666 619.168 7.27C618.912 7.83 618.562 8.33166 618.118 8.775C617.698 9.195 617.197 9.53333 616.613 9.79C616.03 10.0233 615.423 10.14 614.793 10.14C614.163 10.14 613.568 10.0233 613.008 9.79C612.448 9.53333 611.947 9.195 611.503 8.775C611.083 8.33166 610.745 7.83 610.488 7.27C610.255 6.68666 610.138 6.08 610.138 5.45C610.138 4.79667 610.255 4.19 610.488 3.63C610.745 3.04666 611.083 2.545 611.503 2.125C611.947 1.68166 612.448 1.34333 613.008 1.11C613.568 0.853331 614.163 0.724999 614.793 0.724999C615.423 0.724999 616.03 0.853331 616.613 1.11C617.197 1.34333 617.698 1.68166 618.118 2.125C618.562 2.545 618.912 3.04666 619.168 3.63C619.425 4.19 619.553 4.79667 619.553 5.45ZM652.92 19.31C652.92 19.8 652.826 20.2783 652.64 20.745C652.476 21.2117 652.255 21.6083 651.975 21.935L633.32 46.645H652.29V52H625.305V49.13C625.305 48.8033 625.386 48.4183 625.55 47.975C625.713 47.5083 625.946 47.0767 626.25 46.68L645.01 21.795H626.39V16.44H652.92V19.31ZM679.037 36.215C676.26 36.3083 673.904 36.53 671.967 36.88C670.03 37.2067 668.455 37.65 667.242 38.21C666.029 38.77 665.154 39.435 664.617 40.205C664.08 40.9517 663.812 41.7917 663.812 42.725C663.812 43.6117 663.952 44.3817 664.232 45.035C664.535 45.665 664.932 46.19 665.422 46.61C665.935 47.0067 666.53 47.2983 667.207 47.485C667.884 47.6717 668.619 47.765 669.412 47.765C670.462 47.765 671.419 47.66 672.282 47.45C673.169 47.24 673.997 46.9483 674.767 46.575C675.537 46.1783 676.272 45.7 676.972 45.14C677.672 44.58 678.36 43.9383 679.037 43.215V36.215ZM659.017 21.41C661 19.52 663.147 18.1083 665.457 17.175C667.79 16.2417 670.345 15.775 673.122 15.775C675.152 15.775 676.949 16.1133 678.512 16.79C680.075 17.4433 681.394 18.365 682.467 19.555C683.54 20.745 684.345 22.1683 684.882 23.825C685.442 25.4817 685.722 27.3133 685.722 29.32V52H682.677C682 52 681.487 51.895 681.137 51.685C680.787 51.4517 680.507 51.0317 680.297 50.425L679.562 47.31C678.652 48.15 677.754 48.8967 676.867 49.55C675.98 50.18 675.047 50.7283 674.067 51.195C673.11 51.6383 672.084 51.9767 670.987 52.21C669.89 52.4433 668.677 52.56 667.347 52.56C665.947 52.56 664.629 52.3733 663.392 52C662.179 51.6033 661.117 51.0083 660.207 50.215C659.297 49.4217 658.574 48.43 658.037 47.24C657.524 46.05 657.267 44.6617 657.267 43.075C657.267 41.675 657.64 40.3333 658.387 39.05C659.157 37.7433 660.394 36.5767 662.097 35.55C663.824 34.5233 666.064 33.6833 668.817 33.03C671.594 32.3767 675 32.0033 679.037 31.91V29.32C679.037 26.6367 678.465 24.63 677.322 23.3C676.179 21.97 674.499 21.305 672.282 21.305C670.789 21.305 669.529 21.4917 668.502 21.865C667.499 22.2383 666.624 22.6583 665.877 23.125C665.154 23.5683 664.512 23.9767 663.952 24.35C663.415 24.7233 662.855 24.91 662.272 24.91C661.805 24.91 661.397 24.7817 661.047 24.525C660.72 24.2683 660.452 23.965 660.242 23.615L659.017 21.41ZM707.353 34.255C708.567 34.255 709.628 34.0917 710.538 33.765C711.472 33.4383 712.242 32.9833 712.848 32.4C713.478 31.7933 713.945 31.07 714.248 30.23C714.575 29.39 714.738 28.4683 714.738 27.465C714.738 25.4117 714.108 23.7783 712.848 22.565C711.612 21.3283 709.78 20.71 707.353 20.71C704.95 20.71 703.118 21.3283 701.858 22.565C700.622 23.7783 700.003 25.4117 700.003 27.465C700.003 28.4683 700.155 29.39 700.458 30.23C700.785 31.0467 701.252 31.7583 701.858 32.365C702.488 32.9483 703.258 33.415 704.168 33.765C705.102 34.0917 706.163 34.255 707.353 34.255ZM718.238 53.855C718.238 53.015 718.005 52.35 717.538 51.86C717.072 51.3467 716.43 50.95 715.613 50.67C714.82 50.3667 713.887 50.1567 712.813 50.04C711.74 49.9 710.608 49.795 709.418 49.725C708.252 49.655 707.05 49.5967 705.813 49.55C704.577 49.48 703.387 49.3633 702.243 49.2C701.03 49.8067 700.027 50.5417 699.233 51.405C698.463 52.2683 698.078 53.2833 698.078 54.45C698.078 55.1967 698.265 55.8967 698.638 56.55C699.035 57.2033 699.63 57.7633 700.423 58.23C701.24 58.72 702.255 59.0933 703.468 59.35C704.705 59.63 706.175 59.77 707.878 59.77C709.558 59.77 711.04 59.6183 712.323 59.315C713.607 59.035 714.68 58.6267 715.543 58.09C716.43 57.5767 717.095 56.9583 717.538 56.235C718.005 55.5117 718.238 54.7183 718.238 53.855ZM725.168 17.77V20.325C725.168 21.165 724.643 21.69 723.593 21.9L719.778 22.46C720.105 23.1833 720.362 23.9533 720.548 24.77C720.735 25.5633 720.828 26.4033 720.828 27.29C720.828 29.04 720.49 30.6267 719.813 32.05C719.137 33.45 718.203 34.6517 717.013 35.655C715.823 36.6583 714.4 37.4283 712.743 37.965C711.11 38.5017 709.313 38.77 707.353 38.77C705.743 38.77 704.238 38.595 702.838 38.245C702.138 38.665 701.602 39.1317 701.228 39.645C700.878 40.135 700.703 40.625 700.703 41.115C700.703 41.9317 701.042 42.5383 701.718 42.935C702.418 43.3317 703.317 43.6233 704.413 43.81C705.533 43.9733 706.805 44.0783 708.228 44.125C709.675 44.1717 711.133 44.2533 712.603 44.37C714.097 44.4633 715.555 44.65 716.978 44.93C718.425 45.1867 719.697 45.6183 720.793 46.225C721.913 46.8083 722.812 47.625 723.488 48.675C724.188 49.7017 724.538 51.0433 724.538 52.7C724.538 54.24 724.153 55.7333 723.383 57.18C722.637 58.6267 721.54 59.91 720.093 61.03C718.647 62.15 716.885 63.0483 714.808 63.725C712.732 64.4017 710.375 64.74 707.738 64.74C705.102 64.74 702.803 64.4833 700.843 63.97C698.907 63.4567 697.285 62.7683 695.978 61.905C694.695 61.0417 693.727 60.0383 693.073 58.895C692.443 57.7517 692.128 56.5617 692.128 55.325C692.128 53.5983 692.665 52.14 693.738 50.95C694.812 49.7367 696.293 48.7917 698.183 48.115C697.157 47.6483 696.34 47.0183 695.733 46.225C695.127 45.4083 694.823 44.335 694.823 43.005C694.823 42.4917 694.917 41.9667 695.103 41.43C695.29 40.87 695.57 40.3217 695.943 39.785C696.34 39.225 696.818 38.7 697.378 38.21C697.962 37.72 698.627 37.2767 699.373 36.88C697.623 35.9 696.247 34.605 695.243 32.995C694.24 31.3617 693.738 29.46 693.738 27.29C693.738 25.54 694.077 23.965 694.753 22.565C695.43 21.165 696.363 19.9633 697.553 18.96C698.767 17.9567 700.202 17.1867 701.858 16.65C703.538 16.1133 705.37 15.845 707.353 15.845C710.433 15.845 713.082 16.4867 715.298 17.77H725.168ZM754.439 30.265C754.439 28.9117 754.241 27.6633 753.844 26.52C753.471 25.3767 752.911 24.385 752.164 23.545C751.417 22.705 750.507 22.0517 749.434 21.585C748.361 21.1183 747.124 20.885 745.724 20.885C742.854 20.885 740.591 21.7133 738.934 23.37C737.301 25.0267 736.262 27.325 735.819 30.265H754.439ZM760.074 46.925C759.234 47.905 758.266 48.7567 757.169 49.48C756.072 50.18 754.906 50.7517 753.669 51.195C752.432 51.6383 751.149 51.965 749.819 52.175C748.512 52.385 747.217 52.49 745.934 52.49C743.484 52.49 741.209 52.0817 739.109 51.265C737.032 50.425 735.224 49.2117 733.684 47.625C732.167 46.015 730.977 44.0317 730.114 41.675C729.274 39.295 728.854 36.565 728.854 33.485C728.854 31.0117 729.239 28.7133 730.009 26.59C730.779 24.4433 731.876 22.5767 733.299 20.99C734.746 19.4033 736.507 18.155 738.584 17.245C740.661 16.335 742.994 15.88 745.584 15.88C747.754 15.88 749.749 16.2417 751.569 16.965C753.412 17.665 754.999 18.6917 756.329 20.045C757.659 21.3983 758.697 23.0667 759.444 25.05C760.214 27.0333 760.599 29.2967 760.599 31.84C760.599 32.89 760.482 33.6017 760.249 33.975C760.016 34.325 759.584 34.5 758.954 34.5H735.644C735.714 36.6233 736.017 38.4783 736.554 40.065C737.091 41.6283 737.826 42.935 738.759 43.985C739.716 45.035 740.847 45.8167 742.154 46.33C743.461 46.8433 744.919 47.1 746.529 47.1C748.046 47.1 749.352 46.925 750.449 46.575C751.569 46.225 752.526 45.8517 753.319 45.455C754.136 45.035 754.812 44.65 755.349 44.3C755.909 43.95 756.399 43.775 756.819 43.775C757.379 43.775 757.811 43.985 758.114 44.405L760.074 46.925ZM767.935 52V16.44H772.03C772.986 16.44 773.581 16.895 773.815 17.805L774.305 21.2C775.611 19.6367 777.058 18.365 778.645 17.385C780.255 16.3817 782.133 15.88 784.28 15.88C786.636 15.88 788.55 16.5333 790.02 17.84C791.49 19.1233 792.563 20.8733 793.24 23.09C793.753 21.83 794.418 20.745 795.235 19.835C796.051 18.925 796.961 18.1783 797.965 17.595C798.968 17.0117 800.03 16.58 801.15 16.3C802.293 16.02 803.448 15.88 804.615 15.88C806.505 15.88 808.185 16.1833 809.655 16.79C811.148 17.3733 812.408 18.2367 813.435 19.38C814.461 20.5233 815.243 21.935 815.78 23.615C816.316 25.295 816.585 27.2083 816.585 29.355V52H809.725V29.355C809.725 26.695 809.141 24.6883 807.975 23.335C806.831 21.9817 805.151 21.305 802.935 21.305C801.955 21.305 801.021 21.48 800.135 21.83C799.248 22.1567 798.466 22.6583 797.79 23.335C797.136 24.0117 796.611 24.8517 796.215 25.855C795.841 26.8583 795.655 28.025 795.655 29.355V52H788.795V29.355C788.795 26.6017 788.246 24.5717 787.15 23.265C786.053 21.9583 784.443 21.305 782.32 21.305C780.85 21.305 779.485 21.69 778.225 22.46C776.965 23.23 775.81 24.28 774.76 25.61V52H767.935ZM142.387 117.275L134.932 97.78C134.396 96.45 133.859 94.77 133.322 92.74C133.066 93.7433 132.797 94.6767 132.517 95.54C132.261 96.4033 132.004 97.1733 131.747 97.85L124.327 117.275H142.387ZM157.122 136H151.382C150.729 136 150.192 135.837 149.772 135.51C149.352 135.183 149.049 134.763 148.862 134.25L144.417 122.595H122.262L117.817 134.25C117.654 134.693 117.351 135.102 116.907 135.475C116.464 135.825 115.927 136 115.297 136H109.557L129.577 85.74H137.102L157.122 136ZM184.17 109.05C183.05 107.58 181.837 106.553 180.53 105.97C179.247 105.387 177.8 105.095 176.19 105.095C173.064 105.095 170.637 106.227 168.91 108.49C167.207 110.73 166.355 114.008 166.355 118.325C166.355 120.588 166.542 122.525 166.915 124.135C167.312 125.722 167.872 127.028 168.595 128.055C169.342 129.058 170.252 129.805 171.325 130.295C172.399 130.762 173.612 130.995 174.965 130.995C176.949 130.995 178.664 130.552 180.11 129.665C181.557 128.778 182.91 127.53 184.17 125.92V109.05ZM191.03 84.34V136H186.9C185.944 136 185.349 135.545 185.115 134.635L184.52 130.54C183.004 132.337 181.277 133.783 179.34 134.88C177.427 135.953 175.21 136.49 172.69 136.49C170.66 136.49 168.817 136.093 167.16 135.3C165.527 134.507 164.127 133.352 162.96 131.835C161.794 130.295 160.895 128.393 160.265 126.13C159.635 123.867 159.32 121.265 159.32 118.325C159.32 115.688 159.67 113.238 160.37 110.975C161.07 108.712 162.085 106.752 163.415 105.095C164.745 103.438 166.355 102.143 168.245 101.21C170.135 100.253 172.27 99.775 174.65 99.775C176.797 99.775 178.617 100.125 180.11 100.825C181.627 101.525 182.98 102.517 184.17 103.8V84.34H191.03ZM224.107 114.265C224.107 112.912 223.909 111.663 223.512 110.52C223.139 109.377 222.579 108.385 221.832 107.545C221.085 106.705 220.175 106.052 219.102 105.585C218.029 105.118 216.792 104.885 215.392 104.885C212.522 104.885 210.259 105.713 208.602 107.37C206.969 109.027 205.93 111.325 205.487 114.265H224.107ZM229.742 130.925C228.902 131.905 227.934 132.757 226.837 133.48C225.74 134.18 224.574 134.752 223.337 135.195C222.1 135.638 220.817 135.965 219.487 136.175C218.18 136.385 216.885 136.49 215.602 136.49C213.152 136.49 210.877 136.082 208.777 135.265C206.7 134.425 204.892 133.212 203.352 131.625C201.835 130.015 200.645 128.032 199.782 125.675C198.942 123.295 198.522 120.565 198.522 117.485C198.522 115.012 198.907 112.713 199.677 110.59C200.447 108.443 201.544 106.577 202.967 104.99C204.414 103.403 206.175 102.155 208.252 101.245C210.329 100.335 212.662 99.88 215.252 99.88C217.422 99.88 219.417 100.242 221.237 100.965C223.08 101.665 224.667 102.692 225.997 104.045C227.327 105.398 228.365 107.067 229.112 109.05C229.882 111.033 230.267 113.297 230.267 115.84C230.267 116.89 230.15 117.602 229.917 117.975C229.684 118.325 229.252 118.5 228.622 118.5H205.312C205.382 120.623 205.685 122.478 206.222 124.065C206.759 125.628 207.494 126.935 208.427 127.985C209.384 129.035 210.515 129.817 211.822 130.33C213.129 130.843 214.587 131.1 216.197 131.1C217.714 131.1 219.02 130.925 220.117 130.575C221.237 130.225 222.194 129.852 222.987 129.455C223.804 129.035 224.48 128.65 225.017 128.3C225.577 127.95 226.067 127.775 226.487 127.775C227.047 127.775 227.479 127.985 227.782 128.405L229.742 130.925ZM260.528 109.05C259.478 107.627 258.276 106.612 256.923 106.005C255.593 105.398 254.134 105.095 252.548 105.095C249.421 105.095 246.994 106.227 245.268 108.49C243.564 110.73 242.713 114.008 242.713 118.325C242.713 120.588 242.899 122.525 243.273 124.135C243.669 125.722 244.229 127.028 244.953 128.055C245.699 129.058 246.609 129.805 247.683 130.295C248.756 130.762 249.969 130.995 251.323 130.995C253.306 130.995 255.021 130.552 256.468 129.665C257.914 128.778 259.268 127.53 260.528 125.92V109.05ZM267.388 100.44V147.935H260.528V130.925C259.058 132.605 257.389 133.958 255.523 134.985C253.656 135.988 251.498 136.49 249.048 136.49C247.018 136.49 245.174 136.093 243.518 135.3C241.884 134.507 240.484 133.352 239.318 131.835C238.151 130.295 237.253 128.393 236.623 126.13C235.993 123.867 235.678 121.265 235.678 118.325C235.678 115.688 236.028 113.238 236.728 110.975C237.428 108.712 238.443 106.752 239.773 105.095C241.103 103.438 242.713 102.143 244.603 101.21C246.493 100.253 248.628 99.775 251.008 99.775C252.151 99.775 253.201 99.88 254.158 100.09C255.114 100.3 256.001 100.603 256.818 101C257.634 101.397 258.381 101.875 259.058 102.435C259.758 102.995 260.411 103.637 261.018 104.36L261.473 101.805C261.706 100.895 262.301 100.44 263.258 100.44H267.388ZM306.484 100.44V136H302.389C301.456 136 300.849 135.545 300.569 134.635L300.079 131.065C299.309 131.882 298.504 132.628 297.664 133.305C296.824 133.982 295.926 134.565 294.969 135.055C294.013 135.522 292.998 135.883 291.924 136.14C290.851 136.42 289.696 136.56 288.459 136.56C286.499 136.56 284.773 136.233 283.279 135.58C281.809 134.927 280.573 134.017 279.569 132.85C278.566 131.66 277.808 130.237 277.294 128.58C276.781 126.923 276.524 125.092 276.524 123.085V100.44H283.384V123.085C283.384 125.628 283.968 127.612 285.134 129.035C286.301 130.435 288.086 131.135 290.489 131.135C292.239 131.135 293.873 130.727 295.389 129.91C296.906 129.07 298.329 127.927 299.659 126.48V100.44H306.484ZM335.121 120.215C332.344 120.308 329.987 120.53 328.051 120.88C326.114 121.207 324.539 121.65 323.326 122.21C322.112 122.77 321.237 123.435 320.701 124.205C320.164 124.952 319.896 125.792 319.896 126.725C319.896 127.612 320.036 128.382 320.316 129.035C320.619 129.665 321.016 130.19 321.506 130.61C322.019 131.007 322.614 131.298 323.291 131.485C323.967 131.672 324.702 131.765 325.496 131.765C326.546 131.765 327.502 131.66 328.366 131.45C329.252 131.24 330.081 130.948 330.851 130.575C331.621 130.178 332.356 129.7 333.056 129.14C333.756 128.58 334.444 127.938 335.121 127.215V120.215ZM315.101 105.41C317.084 103.52 319.231 102.108 321.541 101.175C323.874 100.242 326.429 99.775 329.206 99.775C331.236 99.775 333.032 100.113 334.596 100.79C336.159 101.443 337.477 102.365 338.551 103.555C339.624 104.745 340.429 106.168 340.966 107.825C341.526 109.482 341.806 111.313 341.806 113.32V136H338.761C338.084 136 337.571 135.895 337.221 135.685C336.871 135.452 336.591 135.032 336.381 134.425L335.646 131.31C334.736 132.15 333.837 132.897 332.951 133.55C332.064 134.18 331.131 134.728 330.151 135.195C329.194 135.638 328.167 135.977 327.071 136.21C325.974 136.443 324.761 136.56 323.431 136.56C322.031 136.56 320.712 136.373 319.476 136C318.262 135.603 317.201 135.008 316.291 134.215C315.381 133.422 314.657 132.43 314.121 131.24C313.607 130.05 313.351 128.662 313.351 127.075C313.351 125.675 313.724 124.333 314.471 123.05C315.241 121.743 316.477 120.577 318.181 119.55C319.907 118.523 322.147 117.683 324.901 117.03C327.677 116.377 331.084 116.003 335.121 115.91V113.32C335.121 110.637 334.549 108.63 333.406 107.3C332.262 105.97 330.582 105.305 328.366 105.305C326.872 105.305 325.612 105.492 324.586 105.865C323.582 106.238 322.707 106.658 321.961 107.125C321.237 107.568 320.596 107.977 320.036 108.35C319.499 108.723 318.939 108.91 318.356 108.91C317.889 108.91 317.481 108.782 317.131 108.525C316.804 108.268 316.536 107.965 316.326 107.615L315.101 105.41ZM373.867 109.05C372.747 107.58 371.534 106.553 370.227 105.97C368.944 105.387 367.497 105.095 365.887 105.095C362.761 105.095 360.334 106.227 358.607 108.49C356.904 110.73 356.052 114.008 356.052 118.325C356.052 120.588 356.239 122.525 356.612 124.135C357.009 125.722 357.569 127.028 358.292 128.055C359.039 129.058 359.949 129.805 361.022 130.295C362.096 130.762 363.309 130.995 364.662 130.995C366.646 130.995 368.361 130.552 369.807 129.665C371.254 128.778 372.607 127.53 373.867 125.92V109.05ZM380.727 84.34V136H376.597C375.641 136 375.046 135.545 374.812 134.635L374.217 130.54C372.701 132.337 370.974 133.783 369.037 134.88C367.124 135.953 364.907 136.49 362.387 136.49C360.357 136.49 358.514 136.093 356.857 135.3C355.224 134.507 353.824 133.352 352.657 131.835C351.491 130.295 350.592 128.393 349.962 126.13C349.332 123.867 349.017 121.265 349.017 118.325C349.017 115.688 349.367 113.238 350.067 110.975C350.767 108.712 351.782 106.752 353.112 105.095C354.442 103.438 356.052 102.143 357.942 101.21C359.832 100.253 361.967 99.775 364.347 99.775C366.494 99.775 368.314 100.125 369.807 100.825C371.324 101.525 372.677 102.517 373.867 103.8V84.34H380.727ZM409.359 120.215C406.582 120.308 404.226 120.53 402.289 120.88C400.352 121.207 398.777 121.65 397.564 122.21C396.351 122.77 395.476 123.435 394.939 124.205C394.402 124.952 394.134 125.792 394.134 126.725C394.134 127.612 394.274 128.382 394.554 129.035C394.857 129.665 395.254 130.19 395.744 130.61C396.257 131.007 396.852 131.298 397.529 131.485C398.206 131.672 398.941 131.765 399.734 131.765C400.784 131.765 401.741 131.66 402.604 131.45C403.491 131.24 404.319 130.948 405.089 130.575C405.859 130.178 406.594 129.7 407.294 129.14C407.994 128.58 408.682 127.938 409.359 127.215V120.215ZM389.339 105.41C391.322 103.52 393.469 102.108 395.779 101.175C398.112 100.242 400.667 99.775 403.444 99.775C405.474 99.775 407.271 100.113 408.834 100.79C410.397 101.443 411.716 102.365 412.789 103.555C413.862 104.745 414.667 106.168 415.204 107.825C415.764 109.482 416.044 111.313 416.044 113.32V136H412.999C412.322 136 411.809 135.895 411.459 135.685C411.109 135.452 410.829 135.032 410.619 134.425L409.884 131.31C408.974 132.15 408.076 132.897 407.189 133.55C406.302 134.18 405.369 134.728 404.389 135.195C403.432 135.638 402.406 135.977 401.309 136.21C400.212 136.443 398.999 136.56 397.669 136.56C396.269 136.56 394.951 136.373 393.714 136C392.501 135.603 391.439 135.008 390.529 134.215C389.619 133.422 388.896 132.43 388.359 131.24C387.846 130.05 387.589 128.662 387.589 127.075C387.589 125.675 387.962 124.333 388.709 123.05C389.479 121.743 390.716 120.577 392.419 119.55C394.146 118.523 396.386 117.683 399.139 117.03C401.916 116.377 405.322 116.003 409.359 115.91V113.32C409.359 110.637 408.787 108.63 407.644 107.3C406.501 105.97 404.821 105.305 402.604 105.305C401.111 105.305 399.851 105.492 398.824 105.865C397.821 106.238 396.946 106.658 396.199 107.125C395.476 107.568 394.834 107.977 394.274 108.35C393.737 108.723 393.177 108.91 392.594 108.91C392.127 108.91 391.719 108.782 391.369 108.525C391.042 108.268 390.774 107.965 390.564 107.615L389.339 105.41ZM449.291 105.375C450.061 104.558 450.866 103.812 451.706 103.135C452.546 102.458 453.432 101.887 454.366 101.42C455.322 100.93 456.337 100.557 457.411 100.3C458.507 100.02 459.674 99.88 460.911 99.88C462.871 99.88 464.586 100.207 466.056 100.86C467.549 101.513 468.797 102.435 469.801 103.625C470.804 104.792 471.562 106.203 472.076 107.86C472.589 109.517 472.846 111.348 472.846 113.355V136H465.986V113.355C465.986 110.812 465.402 108.84 464.236 107.44C463.069 106.017 461.284 105.305 458.881 105.305C457.131 105.305 455.486 105.725 453.946 106.565C452.429 107.382 451.017 108.502 449.711 109.925V136H442.886V100.44H446.981C447.937 100.44 448.532 100.895 448.766 101.805L449.291 105.375ZM497.211 99.88C499.824 99.88 502.181 100.312 504.281 101.175C506.404 102.015 508.201 103.24 509.671 104.85C511.164 106.437 512.307 108.362 513.101 110.625C513.894 112.865 514.291 115.385 514.291 118.185C514.291 120.985 513.894 123.517 513.101 125.78C512.307 128.043 511.164 129.968 509.671 131.555C508.201 133.142 506.404 134.367 504.281 135.23C502.181 136.07 499.824 136.49 497.211 136.49C494.574 136.49 492.194 136.07 490.071 135.23C487.971 134.367 486.174 133.142 484.681 131.555C483.187 129.968 482.032 128.043 481.216 125.78C480.422 123.517 480.026 120.985 480.026 118.185C480.026 115.385 480.422 112.865 481.216 110.625C482.032 108.362 483.187 106.437 484.681 104.85C486.174 103.24 487.971 102.015 490.071 101.175C492.194 100.312 494.574 99.88 497.211 99.88ZM497.211 131.17C500.571 131.17 503.079 130.038 504.736 127.775C506.392 125.512 507.221 122.327 507.221 118.22C507.221 114.113 506.392 110.928 504.736 108.665C503.079 106.378 500.571 105.235 497.211 105.235C493.804 105.235 491.261 106.378 489.581 108.665C487.924 110.928 487.096 114.113 487.096 118.22C487.096 122.327 487.924 125.512 489.581 127.775C491.261 130.038 493.804 131.17 497.211 131.17ZM567.019 93.93C566.786 94.3267 566.541 94.6183 566.284 94.805C566.028 94.9917 565.701 95.085 565.304 95.085C564.884 95.085 564.406 94.8983 563.869 94.525C563.333 94.1283 562.656 93.6967 561.839 93.23C561.046 92.74 560.089 92.3083 558.969 91.935C557.849 91.5383 556.508 91.34 554.944 91.34C553.474 91.34 552.179 91.5383 551.059 91.935C549.963 92.3083 549.041 92.8333 548.294 93.51C547.548 94.1633 546.976 94.945 546.579 95.855C546.206 96.7417 546.019 97.71 546.019 98.76C546.019 100.113 546.358 101.233 547.034 102.12C547.734 103.007 548.644 103.765 549.764 104.395C550.884 105.025 552.156 105.573 553.579 106.04C555.003 106.507 556.461 106.997 557.954 107.51C559.448 108 560.906 108.572 562.329 109.225C563.753 109.878 565.024 110.707 566.144 111.71C567.264 112.69 568.163 113.903 568.839 115.35C569.539 116.773 569.889 118.523 569.889 120.6C569.889 122.817 569.504 124.893 568.734 126.83C567.988 128.767 566.891 130.458 565.444 131.905C563.998 133.352 562.213 134.495 560.089 135.335C557.989 136.152 555.598 136.56 552.914 136.56C551.304 136.56 549.741 136.397 548.224 136.07C546.708 135.767 545.273 135.335 543.919 134.775C542.566 134.192 541.294 133.503 540.104 132.71C538.938 131.893 537.888 130.983 536.954 129.98L539.089 126.41C539.299 126.13 539.544 125.897 539.824 125.71C540.128 125.523 540.466 125.43 540.839 125.43C541.329 125.43 541.889 125.687 542.519 126.2C543.173 126.713 543.966 127.285 544.899 127.915C545.856 128.522 546.988 129.082 548.294 129.595C549.624 130.108 551.234 130.365 553.124 130.365C554.664 130.365 556.041 130.167 557.254 129.77C558.468 129.35 559.483 128.767 560.299 128.02C561.139 127.25 561.781 126.328 562.224 125.255C562.668 124.182 562.889 122.992 562.889 121.685C562.889 120.215 562.551 119.013 561.874 118.08C561.198 117.147 560.299 116.365 559.179 115.735C558.059 115.105 556.788 114.568 555.364 114.125C553.941 113.682 552.483 113.227 550.989 112.76C549.496 112.27 548.038 111.71 546.614 111.08C545.191 110.45 543.919 109.633 542.799 108.63C541.679 107.603 540.781 106.332 540.104 104.815C539.428 103.275 539.089 101.385 539.089 99.145C539.089 97.3483 539.439 95.61 540.139 93.93C540.839 92.25 541.854 90.7683 543.184 89.485C544.538 88.1783 546.194 87.14 548.154 86.37C550.114 85.5767 552.354 85.18 554.874 85.18C557.698 85.18 560.288 85.635 562.644 86.545C565.024 87.4317 567.089 88.715 568.839 90.395L567.019 93.93ZM604.838 117.275L597.383 97.78C596.847 96.45 596.31 94.77 595.773 92.74C595.517 93.7433 595.248 94.6767 594.968 95.54C594.712 96.4033 594.455 97.1733 594.198 97.85L586.778 117.275H604.838ZM619.573 136H613.833C613.18 136 612.643 135.837 612.223 135.51C611.803 135.183 611.5 134.763 611.313 134.25L606.868 122.595H584.713L580.268 134.25C580.105 134.693 579.802 135.102 579.358 135.475C578.915 135.825 578.378 136 577.748 136H572.008L592.028 85.74H599.553L619.573 136ZM657.033 129.945L656.998 136H625.848V85.74H656.998V91.795H633.338V107.72H652.378V113.565H633.338V129.945H657.033ZM684.204 130.085C686.094 130.085 687.704 129.863 689.034 129.42C690.387 128.977 691.484 128.37 692.324 127.6C693.187 126.83 693.817 125.92 694.214 124.87C694.61 123.797 694.809 122.63 694.809 121.37C694.809 118.873 693.945 116.913 692.219 115.49C690.492 114.043 687.82 113.32 684.204 113.32H673.704V130.085H684.204ZM673.704 91.585V108.035H682.279C685.942 108.035 688.66 107.3 690.434 105.83C692.23 104.337 693.129 102.33 693.129 99.81C693.129 96.94 692.277 94.8517 690.574 93.545C688.87 92.2383 686.222 91.585 682.629 91.585H673.704ZM682.629 85.74C685.779 85.74 688.474 86.0433 690.714 86.65C692.977 87.2567 694.832 88.1317 696.279 89.275C697.725 90.4183 698.787 91.8067 699.464 93.44C700.164 95.05 700.514 96.8817 700.514 98.935C700.514 100.148 700.327 101.315 699.954 102.435C699.58 103.555 699.009 104.605 698.239 105.585C697.469 106.542 696.5 107.405 695.334 108.175C694.167 108.945 692.79 109.587 691.204 110.1C698.507 111.547 702.159 115.362 702.159 121.545C702.159 123.692 701.762 125.652 700.969 127.425C700.175 129.175 699.02 130.692 697.504 131.975C695.987 133.258 694.12 134.25 691.904 134.95C689.687 135.65 687.167 136 684.344 136H666.249V85.74H682.629Z" fill="#4C5773"/>
</svg>
