<?xml version="1.0" standalone="no"?>
<!DOCTYPE svg PUBLIC "-//W3C//DTD SVG 20010904//EN"
 "http://www.w3.org/TR/2001/REC-SVG-20010904/DTD/svg10.dtd">
<svg version="1.0" xmlns="http://www.w3.org/2000/svg"
 width="300.000000pt" height="333.000000pt" viewBox="0 0 300.000000 333.000000"
 preserveAspectRatio="xMidYMid meet">

<g transform="translate(0.000000,333.000000) scale(0.100000,-0.100000)"
fill="#000000" stroke="none">
<path d="M789 2743 c-1 -175 -1 -328 -1 -340 1 -16 -31 -49 -121 -124 -67 -56
-124 -104 -126 -106 -10 -7 11 -16 39 -16 l31 0 -3 -76 -3 -76 -192 -3 -193
-2 0 -415 0 -415 755 0 755 0 0 24 c0 47 -70 85 -320 171 -264 92 -320 122
-320 172 0 46 115 99 332 152 169 41 188 38 53 -8 -117 -40 -189 -73 -201 -92
-12 -21 31 -46 118 -68 315 -82 426 -125 504 -193 39 -35 73 -98 74 -135 l0
-23 375 0 375 0 0 415 0 414 -122 3 -123 3 -3 173 c-2 119 1 171 8 167 13 -8
70 4 70 14 0 4 -36 38 -80 75 l-80 68 0 74 0 74 -39 0 c-38 0 -40 -1 -43 -36
l-3 -36 -87 76 c-47 42 -90 76 -94 76 -4 0 -74 -57 -156 -126 l-149 -126 -67
60 c-37 32 -73 57 -79 55 -10 -4 -13 47 -13 231 l0 236 -435 0 -435 0 -1 -317z
m326 112 l0 -140 -142 -3 -143 -3 0 146 0 146 143 -3 142 -3 0 -140z m485 0
l0 -145 -145 0 -145 0 0 145 0 145 145 0 145 0 0 -145z m-350 104 c0 -28 -2
-30 -32 -27 -28 2 -34 8 -36 31 -3 25 -1 27 32 27 33 0 36 -2 36 -31z m990
-339 l85 -74 3 47 c3 42 5 47 28 47 23 0 24 -2 24 -69 l0 -70 75 -67 c62 -56
73 -69 59 -77 -10 -6 -20 -5 -27 2 -6 6 -15 11 -19 11 -4 0 -8 -83 -8 -185 l0
-185 -180 0 -180 0 0 68 c0 67 0 67 28 68 15 0 66 1 115 2 l87 2 0 80 0 81
-82 -3 -83 -3 -3 -52 c-2 -29 -6 -53 -10 -53 -14 0 -72 65 -72 82 0 12 -7 18
-22 18 -46 0 -58 26 -58 122 l0 88 -44 0 -45 0 -3 -51 -3 -50 -37 38 -37 38
146 123 c128 107 148 121 162 109 9 -7 54 -47 101 -87z m-1120 -80 c0 -60 -3
-110 -6 -110 -4 0 -36 25 -71 56 l-63 56 -58 -48 c-31 -26 -65 -54 -74 -62
-17 -14 -18 -8 -18 101 l0 117 145 0 145 0 0 -110z m128 73 c3 -32 2 -33 -32
-33 -33 0 -36 3 -36 28 0 36 8 44 40 40 20 -2 26 -9 28 -35z m352 -22 l0 -60
-101 -86 c-96 -81 -104 -86 -143 -83 l-41 3 -3 143 -3 142 146 0 145 0 0 -59z
m201 -111 l114 -99 5 52 c5 50 6 52 38 55 l32 3 0 -88 0 -89 91 -79 c76 -66
88 -80 74 -88 -11 -6 -26 -5 -41 2 l-24 11 0 -220 0 -220 -235 0 -235 0 0 175
0 175 -100 0 -100 0 0 -175 0 -175 -85 0 -85 0 0 226 0 226 -23 -15 c-14 -9
-29 -12 -37 -7 -10 6 -6 15 20 37 201 171 466 392 471 393 3 0 57 -45 120
-100z m-723 -40 c50 -44 93 -80 96 -80 3 0 6 18 6 40 0 38 2 40 30 40 l30 0 0
-71 c0 -60 3 -73 21 -88 21 -17 21 -17 -41 -71 -61 -53 -61 -54 -38 -66 15 -8
29 -9 40 -3 17 9 18 -1 18 -161 l0 -170 -155 0 -155 0 0 140 0 140 -85 0 -85
0 0 -140 0 -140 -70 0 -70 0 0 185 c0 102 -4 185 -8 185 -4 0 -13 -5 -20 -12
-8 -8 -15 -9 -22 -2 -6 6 63 70 196 182 113 94 209 172 214 172 4 0 48 -36 98
-80z"/>
<path d="M1730 1980 l0 -90 100 0 100 0 0 90 0 90 -100 0 -100 0 0 -90z"/>
<path d="M1020 2020 l0 -80 85 0 85 0 0 80 0 80 -85 0 -85 0 0 -80z"/>
<path d="M230 840 l0 -250 105 0 105 0 0 250 0 250 -105 0 -105 0 0 -250z"/>
<path d="M530 840 l0 -252 208 4 c229 4 264 12 279 66 5 15 8 100 8 188 0 148
-2 164 -20 184 -40 45 -78 53 -282 58 l-193 5 0 -253z m275 0 l0 -155 -32 -3
-33 -3 0 161 0 161 33 -3 32 -3 0 -155z"/>
<path d="M1103 1074 c-3 -9 -3 -102 -1 -206 5 -168 8 -193 25 -217 33 -44 103
-64 223 -65 118 -1 164 11 210 54 l30 28 0 211 0 211 -105 0 -105 0 0 -204 c0
-168 -3 -206 -15 -216 -8 -7 -22 -10 -30 -6 -13 4 -15 37 -15 216 l0 210 -105
0 c-88 0 -107 -3 -112 -16z"/>
<path d="M1680 841 l0 -251 105 0 104 0 3 113 3 112 25 -3 c13 -1 28 -8 32
-15 4 -6 8 -56 8 -109 l0 -98 95 0 95 0 0 104 c0 101 -1 105 -26 125 -15 12
-33 21 -40 21 -8 0 -14 5 -14 10 0 6 9 10 20 10 37 0 60 35 60 93 0 110 -38
128 -287 135 l-183 5 0 -252z m272 145 c24 -35 -3 -96 -43 -96 -16 0 -19 7
-19 53 0 30 3 56 6 59 8 8 48 -3 56 -16z"/>
<path d="M2240 841 l0 -251 174 0 c197 0 273 10 298 40 24 29 33 104 19 152
-10 32 -20 43 -52 57 -21 9 -39 18 -39 21 0 4 16 12 35 19 23 8 37 20 41 37 9
36 -2 93 -23 117 -37 42 -79 50 -270 55 l-183 4 0 -251z m278 109 c4 -46 -7
-60 -45 -60 -21 0 -23 5 -23 53 0 30 3 56 6 59 3 3 17 3 32 -1 23 -6 27 -13
30 -51z m-20 -136 c20 -6 22 -13 22 -65 0 -55 -2 -60 -26 -69 -14 -6 -30 -8
-35 -4 -10 6 -12 127 -2 137 8 8 12 8 41 1z"/>
<path d="M402 478 c-20 -20 -14 -35 18 -47 17 -5 30 -15 30 -20 0 -15 -47 -14
-53 2 -4 7 -6 6 -6 -4 -1 -9 8 -19 20 -22 53 -14 71 37 19 54 -16 6 -30 15
-30 19 0 14 24 18 45 7 18 -9 19 -9 6 6 -16 20 -32 22 -49 5z"/>
<path d="M494 479 c-17 -7 -17 -8 -1 -8 13 -1 17 -10 17 -41 0 -22 5 -40 10
-40 6 0 10 18 10 39 0 30 4 40 18 43 12 3 10 5 -9 9 -14 3 -34 2 -45 -2z"/>
<path d="M835 479 c-16 -4 -22 -7 -12 -8 13 -1 17 -10 17 -41 0 -22 5 -40 10
-40 6 0 10 18 10 39 0 30 4 40 18 43 14 3 14 5 2 9 -8 3 -28 2 -45 -2z"/>
<path d="M922 474 c-12 -8 -22 -26 -22 -39 0 -21 32 -55 52 -55 14 0 48 39 48
55 0 16 -34 55 -48 55 -4 0 -18 -7 -30 -16z m48 -8 c17 -21 8 -60 -14 -64 -37
-8 -54 48 -22 70 16 11 22 10 36 -6z"/>
<path d="M1065 482 c-3 -3 -5 -25 -5 -49 0 -44 0 -44 31 -41 38 4 54 25 46 60
-5 19 -15 27 -37 30 -17 3 -32 2 -35 0z m60 -31 c9 -28 -5 -51 -31 -51 -21 0
-24 5 -24 35 0 30 3 35 24 35 15 0 27 -7 31 -19z"/>
<path d="M1193 483 c-32 -4 -33 -6 -33 -49 l0 -44 43 2 c36 1 38 2 10 5 -40 5
-44 30 -5 36 l27 4 -27 2 c-36 1 -39 31 -3 31 14 0 25 5 25 10 0 6 -1 9 -2 8
-2 0 -18 -3 -35 -5z"/>
<path d="M1305 482 c-3 -3 -5 -25 -5 -49 l0 -44 38 3 c36 3 37 4 37 43 0 36
-2 40 -32 46 -18 3 -35 4 -38 1z m60 -47 c0 -25 -4 -30 -27 -33 -26 -3 -28 -1
-28 33 0 34 2 36 28 33 23 -3 27 -8 27 -33z"/>
<path d="M1516 474 c-22 -21 -21 -23 19 -40 20 -8 33 -19 30 -24 -8 -14 -39
-12 -53 2 -9 9 -12 9 -12 0 0 -20 38 -34 60 -22 29 16 24 39 -10 51 -16 6 -30
15 -30 19 0 16 21 22 35 10 9 -7 15 -8 15 -2 0 5 -7 13 -16 16 -21 8 -20 8
-38 -10z"/>
<path d="M1618 482 c-14 -3 -18 -14 -18 -48 l0 -44 38 1 c30 2 32 3 10 6 -16
2 -28 10 -28 18 0 8 12 16 28 18 l27 4 -27 2 c-37 1 -37 29 0 33 22 3 24 4 7
9 -11 3 -28 3 -37 1z"/>
<path d="M1922 474 c-28 -20 -28 -58 0 -78 12 -9 26 -16 30 -16 14 0 48 39 48
55 0 16 -34 55 -48 55 -4 0 -18 -7 -30 -16z m48 -8 c19 -24 8 -61 -19 -64 -38
-6 -54 33 -25 62 19 20 28 20 44 2z"/>
<path d="M2368 482 c-14 -3 -18 -14 -18 -48 l0 -44 43 2 c36 1 38 2 10 5 -40
5 -44 30 -5 36 l27 4 -27 2 c-37 1 -37 29 0 33 22 3 24 4 7 9 -11 3 -28 3 -37
1z"/>
<path d="M2660 470 c-25 -25 -25 -45 0 -70 28 -28 80 -4 80 37 0 15 -36 53
-50 53 -5 0 -19 -9 -30 -20z m48 -2 c18 -18 14 -56 -7 -68 -37 -19 -62 48 -27
72 15 10 20 10 34 -4z"/>
<path d="M243 435 c0 -27 2 -38 4 -22 2 15 2 37 0 50 -2 12 -4 0 -4 -28z"/>
<path d="M280 435 c0 -25 5 -45 10 -45 6 0 10 15 10 33 l0 32 20 -25 c26 -33
26 -16 -1 21 -29 41 -39 36 -39 -16z"/>
<path d="M349 440 c-6 -45 -4 -58 7 -48 3 3 4 26 2 49 l-3 44 -6 -45z"/>
<path d="M583 435 c0 -27 2 -38 4 -22 2 15 2 37 0 50 -2 12 -4 0 -4 -28z"/>
<path d="M632 473 c12 -3 18 -17 21 -46 l4 -42 1 42 c2 30 7 43 20 46 9 3 -1
5 -23 5 -22 0 -32 -2 -23 -5z"/>
<path d="M711 448 c-1 -21 6 -43 15 -52 18 -19 20 -19 45 -6 15 8 19 20 18 53
l-2 42 -6 -40 c-5 -31 -11 -41 -28 -43 -17 -2 -24 3 -27 20 -3 13 -7 32 -9 43
-3 11 -5 3 -6 -17z"/>
<path d="M1410 435 l0 -45 38 2 c36 1 36 1 5 5 -40 5 -44 30 -5 36 l27 4 -27
2 c-17 0 -28 7 -28 15 0 8 12 17 28 19 25 4 25 4 -5 6 -33 1 -33 0 -33 -44z"/>
<path d="M1701 433 l2 -48 6 40 6 40 23 -37 c13 -21 28 -38 33 -38 5 0 8 21 8
48 l-2 47 -6 -40 -6 -40 -23 38 c-13 20 -28 37 -33 37 -5 0 -8 -21 -8 -47z"/>
<path d="M1805 463 c4 -10 12 -30 17 -45 13 -37 25 -35 43 8 21 51 17 67 -5
19 l-18 -40 -16 38 c-16 36 -35 54 -21 20z"/>
<path d="M2022 438 l-2 -48 33 1 c29 2 29 2 5 6 -24 4 -27 10 -31 46 l-4 42
-1 -47z"/>
<path d="M2099 438 c9 -23 22 -43 27 -45 5 -2 17 17 26 42 10 25 13 45 9 45
-4 0 -14 -19 -21 -42 l-13 -43 -15 43 c-9 23 -20 42 -24 42 -4 0 1 -19 11 -42z"/>
<path d="M2193 435 c0 -27 2 -38 4 -22 2 15 2 37 0 50 -2 12 -4 0 -4 -28z"/>
<path d="M2231 433 l2 -48 6 40 6 40 14 -37 c15 -44 28 -48 37 -13 8 33 22 32
27 -2 2 -17 5 -9 6 20 1 57 -16 60 -35 6 l-12 -34 -16 38 c-22 51 -36 47 -35
-10z"/>
<path d="M2451 433 l2 -48 6 40 6 40 23 -37 c13 -21 28 -38 33 -38 5 0 8 21 7
48 -1 45 -2 45 -5 8 l-4 -39 -25 37 c-14 20 -29 36 -34 36 -6 0 -9 -21 -9 -47z"/>
<path d="M2563 473 c12 -3 17 -15 17 -44 0 -21 5 -39 10 -39 6 0 10 18 10 39
0 29 5 41 18 44 9 3 -3 5 -28 5 -25 0 -37 -2 -27 -5z"/>
<path d="M1578 343 c6 -2 18 -2 25 0 6 3 1 5 -13 5 -14 0 -19 -2 -12 -5z"/>
<path d="M244 285 c1 -44 4 -50 24 -53 35 -5 52 15 51 62 -1 25 -3 31 -6 16
-10 -65 -13 -71 -36 -68 -18 2 -23 12 -28 48 l-7 45 2 -50z"/>
<path d="M351 278 c1 -29 4 -43 6 -30 5 27 29 29 45 2 7 -11 17 -20 22 -20 4
0 1 11 -8 25 -10 15 -12 25 -6 25 6 0 10 10 8 23 -2 17 -11 23 -35 25 l-33 3
1 -53z m59 27 c0 -8 -3 -15 -7 -16 -5 0 -16 -2 -25 -4 -12 -2 -18 3 -18 16 0
14 7 19 25 19 16 0 25 -6 25 -15z"/>
<path d="M450 281 c0 -49 1 -51 29 -51 28 0 57 21 44 33 -3 4 -6 19 -7 34 -1
24 -6 28 -33 31 l-33 3 0 -50z m58 22 c2 -8 -6 -13 -22 -13 -17 0 -26 5 -26
16 0 19 41 16 48 -3z m0 -46 c3 -12 -3 -17 -22 -17 -25 0 -35 18 -19 34 12 12
38 2 41 -17z"/>
<path d="M559 284 c-11 -26 -17 -49 -14 -52 2 -3 7 3 11 12 8 21 50 21 58 0 4
-9 9 -15 11 -12 6 5 -33 98 -41 98 -3 0 -14 -21 -25 -46z m41 -6 c0 -5 -7 -8
-15 -8 -17 0 -18 2 -9 25 5 13 8 14 15 3 5 -7 9 -16 9 -20z"/>
<path d="M652 280 c1 -46 2 -48 5 -15 l4 40 20 -25 c10 -14 19 -20 19 -15 0 6
-11 24 -25 40 l-24 30 1 -55z"/>
<path d="M709 295 c-1 -19 -2 -40 -3 -47 -1 -6 5 -13 12 -15 8 -3 12 10 12 46
0 57 -19 71 -21 16z"/>
<path d="M760 311 c-22 -42 -5 -81 35 -81 12 0 26 5 33 12 15 15 15 61 0 76
-18 18 -56 14 -68 -7z m58 -3 c17 -17 15 -58 -4 -65 -36 -13 -68 33 -44 62 15
18 32 19 48 3z"/>
<path d="M910 280 c0 -49 1 -50 30 -50 29 0 50 22 50 54 0 22 -28 46 -56 46
-22 0 -24 -4 -24 -50z m58 23 c14 -26 -3 -63 -28 -63 -17 0 -20 6 -20 40 0 33
3 40 20 40 10 0 23 -8 28 -17z"/>
<path d="M1010 280 l0 -50 43 1 42 2 -35 6 c-44 8 -47 33 -5 42 l30 7 -33 1
c-41 1 -39 23 4 32 27 6 27 7 -8 8 l-38 1 0 -50z"/>
<path d="M1162 318 c-17 -17 -15 -63 2 -78 18 -14 58 -10 64 8 3 11 0 11 -16
1 -29 -18 -52 -5 -52 31 0 36 23 49 54 30 19 -12 20 -12 7 3 -16 20 -42 22
-59 5z"/>
<path d="M1266 287 c-18 -48 -21 -71 -5 -44 5 9 19 17 29 17 10 0 24 -8 29
-17 16 -27 13 -4 -5 44 -9 24 -20 43 -24 43 -4 0 -15 -19 -24 -43z m34 -3 c0
-8 -6 -14 -14 -14 -9 0 -12 7 -9 20 6 22 23 18 23 -6z"/>
<path d="M1351 278 c2 -52 2 -52 8 -13 l6 40 25 -37 c14 -21 28 -38 33 -38 4
0 6 24 6 53 -2 51 -2 51 -8 12 l-6 -40 -23 38 c-13 20 -28 37 -33 37 -5 0 -8
-24 -8 -52z"/>
<path d="M1471 293 c-7 -21 -15 -45 -17 -53 -4 -11 -1 -10 9 3 17 21 57 23 57
2 0 -8 4 -15 10 -15 12 0 -23 93 -37 97 -5 2 -15 -13 -22 -34z m27 -22 c-15
-5 -21 7 -13 26 7 17 8 17 15 -2 4 -11 3 -22 -2 -24z"/>
<path d="M1566 283 c-18 -53 -20 -66 -5 -40 12 21 48 23 55 2 4 -8 10 -15 15
-15 4 0 -1 23 -13 50 -11 28 -24 50 -28 50 -5 0 -15 -21 -24 -47z m32 -12
c-15 -5 -21 7 -13 26 7 17 8 17 15 -2 4 -11 3 -22 -2 -24z"/>
<path d="M1690 280 c0 -48 1 -50 28 -50 40 0 55 14 55 50 0 36 -15 50 -55 50
-27 0 -28 -2 -28 -50z m65 0 c0 -29 -4 -36 -22 -38 -21 -3 -23 1 -23 38 0 37
2 41 23 38 18 -2 22 -9 22 -38z"/>
<path d="M1812 318 c-16 -16 -15 -63 2 -78 20 -15 56 -9 70 12 16 27 -4 72
-34 76 -14 2 -31 -3 -38 -10z m62 -20 c15 -25 -4 -53 -35 -53 -19 0 -25 6 -27
29 -5 45 38 61 62 24z"/>
<path d="M1922 318 c-19 -19 -15 -27 24 -43 19 -8 33 -19 29 -25 -9 -14 -38
-13 -54 3 -11 10 -13 9 -9 -3 6 -19 45 -25 64 -10 22 19 17 30 -22 46 -28 12
-34 18 -25 27 9 9 17 8 32 -2 18 -10 20 -10 17 1 -6 18 -40 22 -56 6z"/>
<path d="M2062 318 c-16 -16 -15 -63 2 -78 19 -15 58 -9 64 10 4 12 2 13 -9 3
-18 -18 -48 -16 -55 2 -18 45 23 83 55 53 11 -11 13 -10 9 2 -6 19 -49 25 -66
8z"/>
<path d="M2166 287 c-18 -48 -21 -71 -5 -44 12 21 48 23 55 2 4 -8 10 -15 15
-15 4 0 -1 23 -13 50 -11 28 -24 50 -28 50 -4 0 -15 -19 -24 -43z m32 -16
c-15 -5 -21 7 -13 26 7 17 8 17 15 -2 4 -11 3 -22 -2 -24z"/>
<path d="M2250 281 c0 -28 5 -51 10 -51 6 0 10 9 10 20 0 11 7 20 15 20 8 0
20 -9 27 -20 7 -11 17 -20 22 -20 4 0 1 11 -8 25 -10 15 -12 25 -6 25 6 0 10
10 8 23 -2 18 -10 23 -40 25 l-38 3 0 -50z m66 28 c7 -12 -15 -31 -31 -26 -5
2 -11 11 -13 20 -4 19 32 24 44 6z"/>
<path d="M2385 321 c-3 -6 -12 -29 -20 -53 -12 -34 -12 -39 -1 -25 17 22 52
22 60 1 4 -9 9 -15 11 -12 6 6 -31 98 -39 98 -3 0 -7 -4 -11 -9z m25 -43 c0
-5 -7 -8 -15 -8 -17 0 -18 2 -9 25 5 13 8 14 15 3 5 -7 9 -16 9 -20z"/>
<path d="M2490 285 c0 -47 -7 -54 -29 -32 -11 10 -13 9 -9 -3 6 -20 38 -25 49
-8 12 18 11 88 -1 88 -5 0 -10 -20 -10 -45z"/>
<path d="M2553 313 c-3 -10 -12 -33 -19 -50 -7 -19 -9 -33 -3 -33 5 0 9 7 9
15 0 21 46 19 54 -1 4 -9 9 -15 11 -12 7 7 -28 98 -37 98 -5 0 -11 -8 -15 -17z
m27 -29 c0 -8 -6 -14 -14 -14 -9 0 -12 7 -9 20 6 22 23 18 23 -6z"/>
<path d="M2637 324 c-15 -16 -5 -36 23 -45 17 -6 30 -17 30 -25 0 -17 -31 -18
-49 -1 -11 10 -13 9 -9 -3 3 -9 17 -15 34 -15 22 0 30 5 32 21 2 17 -5 24 -29
33 -26 9 -30 14 -21 23 10 10 17 10 33 -1 18 -10 20 -10 17 1 -5 14 -50 23
-61 12z"/>
</g>
</svg>
