<svg width="346" height="52" viewBox="0 0 346 52" fill="none" xmlns="http://www.w3.org/2000/svg">
<path d="M30.2898 8.93C30.0565 9.32666 29.8115 9.61833 29.5548 9.805C29.2982 9.99167 28.9715 10.085 28.5748 10.085C28.1548 10.085 27.6765 9.89833 27.1398 9.525C26.6032 9.12833 25.9265 8.69667 25.1098 8.23C24.3165 7.74 23.3598 7.30833 22.2398 6.935C21.1198 6.53833 19.7782 6.34 18.2148 6.34C16.7448 6.34 15.4498 6.53833 14.3298 6.935C13.2332 7.30833 12.3115 7.83333 11.5648 8.51C10.8182 9.16333 10.2465 9.945 9.84984 10.855C9.47651 11.7417 9.28984 12.71 9.28984 13.76C9.28984 15.1133 9.62818 16.2333 10.3048 17.12C11.0048 18.0067 11.9148 18.765 13.0348 19.395C14.1548 20.025 15.4265 20.5733 16.8498 21.04C18.2732 21.5067 19.7315 21.9967 21.2248 22.51C22.7182 23 24.1765 23.5717 25.5998 24.225C27.0232 24.8783 28.2948 25.7067 29.4148 26.71C30.5348 27.69 31.4332 28.9033 32.1098 30.35C32.8098 31.7733 33.1598 33.5233 33.1598 35.6C33.1598 37.8167 32.7748 39.8933 32.0048 41.83C31.2582 43.7667 30.1615 45.4583 28.7148 46.905C27.2682 48.3517 25.4832 49.495 23.3598 50.335C21.2598 51.1517 18.8682 51.56 16.1848 51.56C14.5748 51.56 13.0115 51.3967 11.4948 51.07C9.97818 50.7667 8.54318 50.335 7.18984 49.775C5.83651 49.1917 4.56484 48.5033 3.37484 47.71C2.20818 46.8933 1.15818 45.9833 0.224844 44.98L2.35984 41.41C2.56984 41.13 2.81484 40.8967 3.09484 40.71C3.39818 40.5233 3.73651 40.43 4.10984 40.43C4.59984 40.43 5.15984 40.6867 5.78984 41.2C6.44318 41.7133 7.23651 42.285 8.16984 42.915C9.12651 43.5217 10.2582 44.0817 11.5648 44.595C12.8948 45.1083 14.5048 45.365 16.3948 45.365C17.9348 45.365 19.3115 45.1667 20.5248 44.77C21.7382 44.35 22.7532 43.7667 23.5698 43.02C24.4098 42.25 25.0515 41.3283 25.4948 40.255C25.9382 39.1817 26.1598 37.9917 26.1598 36.685C26.1598 35.215 25.8215 34.0133 25.1448 33.08C24.4682 32.1467 23.5698 31.365 22.4498 30.735C21.3298 30.105 20.0582 29.5683 18.6348 29.125C17.2115 28.6817 15.7532 28.2267 14.2598 27.76C12.7665 27.27 11.3082 26.71 9.88484 26.08C8.46151 25.45 7.18984 24.6333 6.06984 23.63C4.94984 22.6033 4.05151 21.3317 3.37484 19.815C2.69818 18.275 2.35984 16.385 2.35984 14.145C2.35984 12.3483 2.70984 10.61 3.40984 8.93C4.10984 7.25 5.12484 5.76833 6.45484 4.485C7.80818 3.17833 9.46484 2.14 11.4248 1.37C13.3848 0.576665 15.6248 0.179999 18.1448 0.179999C20.9682 0.179999 23.5582 0.634998 25.9148 1.545C28.2948 2.43166 30.3598 3.715 32.1098 5.395L30.2898 8.93ZM68.109 32.275L60.654 12.78C60.1173 11.45 59.5807 9.77 59.044 7.74C58.7873 8.74333 58.519 9.67666 58.239 10.54C57.9823 11.4033 57.7257 12.1733 57.469 12.85L50.049 32.275H68.109ZM82.844 51H77.104C76.4507 51 75.914 50.8367 75.494 50.51C75.074 50.1833 74.7707 49.7633 74.584 49.25L70.139 37.595H47.984L43.539 49.25C43.3757 49.6933 43.0723 50.1017 42.629 50.475C42.1857 50.825 41.649 51 41.019 51H35.279L55.299 0.739996H62.824L82.844 51ZM120.304 44.945L120.269 51H89.1188V0.739996H120.269V6.795H96.6088V22.72H115.649V28.565H96.6088V44.945H120.304ZM147.474 45.085C149.364 45.085 150.974 44.8633 152.304 44.42C153.658 43.9767 154.754 43.37 155.594 42.6C156.458 41.83 157.088 40.92 157.484 39.87C157.881 38.7967 158.079 37.63 158.079 36.37C158.079 33.8733 157.216 31.9133 155.489 30.49C153.763 29.0433 151.091 28.32 147.474 28.32H136.974V45.085H147.474ZM136.974 6.585V23.035H145.549C149.213 23.035 151.931 22.3 153.704 20.83C155.501 19.3367 156.399 17.33 156.399 14.81C156.399 11.94 155.548 9.85166 153.844 8.545C152.141 7.23833 149.493 6.585 145.899 6.585H136.974ZM145.899 0.739996C149.049 0.739996 151.744 1.04333 153.984 1.65C156.248 2.25666 158.103 3.13166 159.549 4.275C160.996 5.41833 162.058 6.80667 162.734 8.44C163.434 10.05 163.784 11.8817 163.784 13.935C163.784 15.1483 163.598 16.315 163.224 17.435C162.851 18.555 162.279 19.605 161.509 20.585C160.739 21.5417 159.771 22.405 158.604 23.175C157.438 23.945 156.061 24.5867 154.474 25.1C161.778 26.5467 165.429 30.3617 165.429 36.545C165.429 38.6917 165.033 40.6517 164.239 42.425C163.446 44.175 162.291 45.6917 160.774 46.975C159.258 48.2583 157.391 49.25 155.174 49.95C152.958 50.65 150.438 51 147.614 51H129.519V0.739996H145.899ZM220.998 44.525C221.745 44.525 222.328 44.7467 222.748 45.19C223.168 45.61 223.378 46.17 223.378 46.87V51H189.638V48.655C189.638 48.1883 189.732 47.6983 189.918 47.185C190.105 46.6483 190.42 46.17 190.863 45.75L206.753 29.825C208.083 28.495 209.285 27.2117 210.358 25.975C211.432 24.7383 212.342 23.5133 213.088 22.3C213.835 21.0633 214.407 19.8033 214.803 18.52C215.223 17.2367 215.433 15.8833 215.433 14.46C215.433 13.06 215.212 11.835 214.768 10.785C214.325 9.71166 213.718 8.825 212.948 8.125C212.178 7.425 211.268 6.9 210.218 6.55C209.168 6.2 208.037 6.025 206.823 6.025C205.61 6.025 204.49 6.2 203.463 6.55C202.46 6.9 201.562 7.39 200.768 8.02C199.975 8.65 199.31 9.39666 198.773 10.26C198.237 11.1233 197.852 12.0567 197.618 13.06C197.292 13.9467 196.872 14.5417 196.358 14.845C195.868 15.1483 195.145 15.2183 194.188 15.055L190.618 14.425C190.945 12.0917 191.587 10.0383 192.543 8.265C193.5 6.49166 194.702 5.01 196.148 3.82C197.595 2.60666 199.252 1.69666 201.118 1.09C203.008 0.483331 205.038 0.179999 207.208 0.179999C209.402 0.179999 211.42 0.506666 213.263 1.16C215.13 1.79 216.74 2.71166 218.093 3.925C219.447 5.13833 220.508 6.62 221.278 8.37C222.048 10.0967 222.433 12.0567 222.433 14.25C222.433 16.1167 222.153 17.855 221.593 19.465C221.057 21.0517 220.31 22.5683 219.353 24.015C218.42 25.4617 217.323 26.8733 216.063 28.25C214.827 29.6033 213.508 30.98 212.108 32.38L199.368 45.4C200.348 45.1433 201.328 44.9333 202.308 44.77C203.312 44.6067 204.257 44.525 205.143 44.525H220.998ZM265.664 25.87C265.664 30.2567 265.185 34.06 264.229 37.28C263.295 40.5 262 43.1717 260.344 45.295C258.71 47.395 256.774 48.9583 254.534 49.985C252.317 51.0117 249.925 51.525 247.359 51.525C244.792 51.525 242.389 51.0117 240.149 49.985C237.932 48.9583 236.007 47.395 234.374 45.295C232.74 43.1717 231.457 40.5 230.524 37.28C229.59 34.06 229.124 30.2567 229.124 25.87C229.124 21.4833 229.59 17.68 230.524 14.46C231.457 11.2167 232.74 8.545 234.374 6.445C236.007 4.32166 237.932 2.74666 240.149 1.72C242.389 0.693332 244.792 0.179999 247.359 0.179999C249.925 0.179999 252.317 0.693332 254.534 1.72C256.774 2.74666 258.71 4.32166 260.344 6.445C262 8.545 263.295 11.2167 264.229 14.46C265.185 17.68 265.664 21.4833 265.664 25.87ZM258.594 25.87C258.594 22.09 258.279 18.9283 257.649 16.385C257.042 13.8417 256.214 11.8 255.164 10.26C254.137 8.69666 252.947 7.58833 251.594 6.935C250.24 6.28166 248.829 5.955 247.359 5.955C245.889 5.955 244.477 6.28166 243.124 6.935C241.77 7.58833 240.569 8.69666 239.519 10.26C238.492 11.8 237.675 13.8417 237.069 16.385C236.462 18.9283 236.159 22.09 236.159 25.87C236.159 29.65 236.462 32.8117 237.069 35.355C237.675 37.8983 238.492 39.94 239.519 41.48C240.569 43.02 241.77 44.1167 243.124 44.77C244.477 45.4233 245.889 45.75 247.359 45.75C248.829 45.75 250.24 45.4233 251.594 44.77C252.947 44.1167 254.137 43.02 255.164 41.48C256.214 39.94 257.042 37.8983 257.649 35.355C258.279 32.8117 258.594 29.65 258.594 25.87ZM302.209 44.525C302.956 44.525 303.539 44.7467 303.959 45.19C304.379 45.61 304.589 46.17 304.589 46.87V51H270.849V48.655C270.849 48.1883 270.943 47.6983 271.129 47.185C271.316 46.6483 271.631 46.17 272.074 45.75L287.964 29.825C289.294 28.495 290.496 27.2117 291.569 25.975C292.643 24.7383 293.553 23.5133 294.299 22.3C295.046 21.0633 295.618 19.8033 296.014 18.52C296.434 17.2367 296.644 15.8833 296.644 14.46C296.644 13.06 296.423 11.835 295.979 10.785C295.536 9.71166 294.929 8.825 294.159 8.125C293.389 7.425 292.479 6.9 291.429 6.55C290.379 6.2 289.248 6.025 288.034 6.025C286.821 6.025 285.701 6.2 284.674 6.55C283.671 6.9 282.773 7.39 281.979 8.02C281.186 8.65 280.521 9.39666 279.984 10.26C279.448 11.1233 279.063 12.0567 278.829 13.06C278.503 13.9467 278.083 14.5417 277.569 14.845C277.079 15.1483 276.356 15.2183 275.399 15.055L271.829 14.425C272.156 12.0917 272.798 10.0383 273.754 8.265C274.711 6.49166 275.913 5.01 277.359 3.82C278.806 2.60666 280.463 1.69666 282.329 1.09C284.219 0.483331 286.249 0.179999 288.419 0.179999C290.613 0.179999 292.631 0.506666 294.474 1.16C296.341 1.79 297.951 2.71166 299.304 3.925C300.658 5.13833 301.719 6.62 302.489 8.37C303.259 10.0967 303.644 12.0567 303.644 14.25C303.644 16.1167 303.364 17.855 302.804 19.465C302.268 21.0517 301.521 22.5683 300.564 24.015C299.631 25.4617 298.534 26.8733 297.274 28.25C296.038 29.6033 294.719 30.98 293.319 32.38L280.579 45.4C281.559 45.1433 282.539 44.9333 283.519 44.77C284.523 44.6067 285.468 44.525 286.354 44.525H302.209ZM312.645 14.425C312.995 12.0917 313.648 10.0383 314.605 8.265C315.561 6.49166 316.763 5.01 318.21 3.82C319.656 2.60666 321.313 1.69666 323.18 1.09C325.07 0.483331 327.1 0.179999 329.27 0.179999C331.44 0.179999 333.435 0.494999 335.255 1.125C337.075 1.73166 338.626 2.60667 339.91 3.75C341.216 4.87 342.231 6.22333 342.955 7.81C343.678 9.39667 344.04 11.1467 344.04 13.06C344.04 14.67 343.841 16.0933 343.445 17.33C343.048 18.5667 342.476 19.6517 341.73 20.585C341.006 21.5183 340.12 22.3117 339.07 22.965C338.02 23.595 336.841 24.12 335.535 24.54C338.731 25.4267 341.135 26.8733 342.745 28.88C344.355 30.8633 345.16 33.3833 345.16 36.44C345.16 38.7967 344.716 40.92 343.83 42.81C342.943 44.6767 341.73 46.2633 340.19 47.57C338.65 48.8533 336.853 49.845 334.8 50.545C332.77 51.2217 330.6 51.56 328.29 51.56C325.653 51.56 323.39 51.245 321.5 50.615C319.61 49.9617 318 49.0633 316.67 47.92C315.34 46.7533 314.231 45.365 313.345 43.755C312.481 42.1217 311.746 40.3367 311.14 38.4L314.115 37.14C314.885 36.8133 315.631 36.72 316.355 36.86C317.078 37 317.603 37.4083 317.93 38.085C318.28 38.785 318.676 39.5783 319.12 40.465C319.586 41.3283 320.205 42.1567 320.975 42.95C321.745 43.72 322.701 44.3733 323.845 44.91C325.011 45.4467 326.47 45.715 328.22 45.715C329.9 45.715 331.37 45.4467 332.63 44.91C333.89 44.35 334.94 43.6383 335.78 42.775C336.62 41.8883 337.25 40.9083 337.67 39.835C338.09 38.7617 338.3 37.7 338.3 36.65C338.3 35.3433 338.136 34.1417 337.81 33.045C337.483 31.9483 336.853 31.015 335.92 30.245C335.01 29.4517 333.738 28.8333 332.105 28.39C330.471 27.9467 328.348 27.725 325.735 27.725V22.755C327.881 22.7317 329.69 22.51 331.16 22.09C332.653 21.67 333.855 21.0867 334.765 20.34C335.675 19.5933 336.328 18.7067 336.725 17.68C337.145 16.6533 337.355 15.51 337.355 14.25C337.355 12.8733 337.145 11.6717 336.725 10.645C336.305 9.61833 335.71 8.76667 334.94 8.09C334.193 7.39 333.295 6.87666 332.245 6.55C331.218 6.2 330.098 6.025 328.885 6.025C327.671 6.025 326.551 6.2 325.525 6.55C324.498 6.9 323.588 7.39 322.795 8.02C322.001 8.65 321.336 9.39666 320.8 10.26C320.263 11.1233 319.878 12.0567 319.645 13.06C319.318 13.9467 318.898 14.5417 318.385 14.845C317.895 15.1483 317.183 15.2183 316.25 15.055L312.645 14.425Z" fill="#4C5773"/>
</svg>
