<svg width="583" height="52" viewBox="0 0 583 52" fill="none" xmlns="http://www.w3.org/2000/svg">
<path d="M30.5408 8.93C30.3075 9.32666 30.0625 9.61833 29.8058 9.805C29.5492 9.99167 29.2225 10.085 28.8258 10.085C28.4058 10.085 27.9275 9.89833 27.3908 9.525C26.8542 9.12833 26.1775 8.69667 25.3608 8.23C24.5675 7.74 23.6108 7.30833 22.4908 6.935C21.3708 6.53833 20.0292 6.34 18.4658 6.34C16.9958 6.34 15.7008 6.53833 14.5808 6.935C13.4842 7.30833 12.5625 7.83333 11.8158 8.51C11.0692 9.16333 10.4975 9.945 10.1008 10.855C9.72749 11.7417 9.54082 12.71 9.54082 13.76C9.54082 15.1133 9.87915 16.2333 10.5558 17.12C11.2558 18.0067 12.1658 18.765 13.2858 19.395C14.4058 20.025 15.6775 20.5733 17.1008 21.04C18.5242 21.5067 19.9825 21.9967 21.4758 22.51C22.9692 23 24.4275 23.5717 25.8508 24.225C27.2742 24.8783 28.5458 25.7067 29.6658 26.71C30.7858 27.69 31.6842 28.9033 32.3608 30.35C33.0608 31.7733 33.4108 33.5233 33.4108 35.6C33.4108 37.8167 33.0258 39.8933 32.2558 41.83C31.5092 43.7667 30.4125 45.4583 28.9658 46.905C27.5192 48.3517 25.7342 49.495 23.6108 50.335C21.5108 51.1517 19.1192 51.56 16.4358 51.56C14.8258 51.56 13.2625 51.3967 11.7458 51.07C10.2292 50.7667 8.79415 50.335 7.44082 49.775C6.08749 49.1917 4.81582 48.5033 3.62582 47.71C2.45915 46.8933 1.40915 45.9833 0.47582 44.98L2.61082 41.41C2.82082 41.13 3.06582 40.8967 3.34582 40.71C3.64915 40.5233 3.98749 40.43 4.36082 40.43C4.85082 40.43 5.41082 40.6867 6.04082 41.2C6.69415 41.7133 7.48749 42.285 8.42082 42.915C9.37749 43.5217 10.5092 44.0817 11.8158 44.595C13.1458 45.1083 14.7558 45.365 16.6458 45.365C18.1858 45.365 19.5625 45.1667 20.7758 44.77C21.9892 44.35 23.0042 43.7667 23.8208 43.02C24.6608 42.25 25.3025 41.3283 25.7458 40.255C26.1892 39.1817 26.4108 37.9917 26.4108 36.685C26.4108 35.215 26.0725 34.0133 25.3958 33.08C24.7192 32.1467 23.8208 31.365 22.7008 30.735C21.5808 30.105 20.3092 29.5683 18.8858 29.125C17.4625 28.6817 16.0042 28.2267 14.5108 27.76C13.0175 27.27 11.5592 26.71 10.1358 26.08C8.71249 25.45 7.44082 24.6333 6.32082 23.63C5.20082 22.6033 4.30249 21.3317 3.62582 19.815C2.94915 18.275 2.61082 16.385 2.61082 14.145C2.61082 12.3483 2.96082 10.61 3.66082 8.93C4.36082 7.25 5.37582 5.76833 6.70582 4.485C8.05915 3.17833 9.71582 2.14 11.6758 1.37C13.6358 0.576665 15.8758 0.179999 18.3958 0.179999C21.2192 0.179999 23.8092 0.634998 26.1658 1.545C28.5458 2.43166 30.6108 3.715 32.3608 5.395L30.5408 8.93ZM68.36 32.275L60.905 12.78C60.3683 11.45 59.8316 9.77 59.295 7.74C59.0383 8.74333 58.77 9.67666 58.49 10.54C58.2333 11.4033 57.9766 12.1733 57.72 12.85L50.3 32.275H68.36ZM83.095 51H77.355C76.7016 51 76.165 50.8367 75.745 50.51C75.325 50.1833 75.0216 49.7633 74.835 49.25L70.39 37.595H48.235L43.79 49.25C43.6266 49.6933 43.3233 50.1017 42.88 50.475C42.4366 50.825 41.9 51 41.27 51H35.53L55.55 0.739996H63.075L83.095 51ZM120.555 44.945L120.52 51H89.3698V0.739996H120.52V6.795H96.8598V22.72H115.9V28.565H96.8598V44.945H120.555ZM147.725 45.085C149.615 45.085 151.225 44.8633 152.555 44.42C153.909 43.9767 155.005 43.37 155.845 42.6C156.709 41.83 157.339 40.92 157.735 39.87C158.132 38.7967 158.33 37.63 158.33 36.37C158.33 33.8733 157.467 31.9133 155.74 30.49C154.014 29.0433 151.342 28.32 147.725 28.32H137.225V45.085H147.725ZM137.225 6.585V23.035H145.8C149.464 23.035 152.182 22.3 153.955 20.83C155.752 19.3367 156.65 17.33 156.65 14.81C156.65 11.94 155.799 9.85166 154.095 8.545C152.392 7.23833 149.744 6.585 146.15 6.585H137.225ZM146.15 0.739996C149.3 0.739996 151.995 1.04333 154.235 1.65C156.499 2.25666 158.354 3.13166 159.8 4.275C161.247 5.41833 162.309 6.80667 162.985 8.44C163.685 10.05 164.035 11.8817 164.035 13.935C164.035 15.1483 163.849 16.315 163.475 17.435C163.102 18.555 162.53 19.605 161.76 20.585C160.99 21.5417 160.022 22.405 158.855 23.175C157.689 23.945 156.312 24.5867 154.725 25.1C162.029 26.5467 165.68 30.3617 165.68 36.545C165.68 38.6917 165.284 40.6517 164.49 42.425C163.697 44.175 162.542 45.6917 161.025 46.975C159.509 48.2583 157.642 49.25 155.425 49.95C153.209 50.65 150.689 51 147.865 51H129.77V0.739996H146.15ZM173.269 46.905C173.269 46.275 173.386 45.68 173.619 45.12C173.853 44.56 174.168 44.07 174.564 43.65C174.984 43.23 175.474 42.9033 176.034 42.67C176.594 42.4133 177.201 42.285 177.854 42.285C178.484 42.285 179.079 42.4133 179.639 42.67C180.199 42.9033 180.689 43.23 181.109 43.65C181.529 44.07 181.856 44.56 182.089 45.12C182.346 45.68 182.474 46.275 182.474 46.905C182.474 47.5583 182.346 48.165 182.089 48.725C181.856 49.285 181.529 49.775 181.109 50.195C180.689 50.615 180.199 50.9417 179.639 51.175C179.079 51.4083 178.484 51.525 177.854 51.525C177.201 51.525 176.594 51.4083 176.034 51.175C175.474 50.9417 174.984 50.615 174.564 50.195C174.168 49.775 173.853 49.285 173.619 48.725C173.386 48.165 173.269 47.5583 173.269 46.905ZM173.269 21.005C173.269 20.375 173.386 19.78 173.619 19.22C173.853 18.66 174.168 18.17 174.564 17.75C174.984 17.33 175.474 17.0033 176.034 16.77C176.594 16.5133 177.201 16.385 177.854 16.385C178.484 16.385 179.079 16.5133 179.639 16.77C180.199 17.0033 180.689 17.33 181.109 17.75C181.529 18.17 181.856 18.66 182.089 19.22C182.346 19.78 182.474 20.375 182.474 21.005C182.474 21.6583 182.346 22.265 182.089 22.825C181.856 23.385 181.529 23.875 181.109 24.295C180.689 24.715 180.199 25.0417 179.639 25.275C179.079 25.5083 178.484 25.625 177.854 25.625C177.201 25.625 176.594 25.5083 176.034 25.275C175.474 25.0417 174.984 24.715 174.564 24.295C174.168 23.875 173.853 23.385 173.619 22.825C173.386 22.265 173.269 21.6583 173.269 21.005ZM217.431 19.5C219.998 18.9633 222.319 18.695 224.396 18.695C227.009 18.695 229.319 19.0917 231.326 19.885C233.333 20.655 235.013 21.7283 236.366 23.105C237.743 24.4583 238.769 26.0683 239.446 27.935C240.146 29.7783 240.496 31.785 240.496 33.955C240.496 36.615 240.029 39.03 239.096 41.2C238.163 43.37 236.879 45.225 235.246 46.765C233.613 48.305 231.676 49.495 229.436 50.335C227.219 51.1517 224.828 51.56 222.261 51.56C220.744 51.56 219.298 51.4083 217.921 51.105C216.568 50.8017 215.296 50.405 214.106 49.915C212.916 49.4017 211.808 48.8183 210.781 48.165C209.778 47.5117 208.879 46.8233 208.086 46.1L210.186 43.16C210.629 42.5067 211.224 42.18 211.971 42.18C212.461 42.18 212.998 42.3667 213.581 42.74C214.188 43.09 214.899 43.4867 215.716 43.93C216.533 44.3733 217.501 44.7817 218.621 45.155C219.741 45.505 221.071 45.68 222.611 45.68C224.314 45.68 225.843 45.4117 227.196 44.875C228.573 44.315 229.728 43.5333 230.661 42.53C231.618 41.5267 232.341 40.325 232.831 38.925C233.344 37.525 233.601 35.9733 233.601 34.27C233.601 32.7533 233.379 31.3883 232.936 30.175C232.493 28.9617 231.828 27.9233 230.941 27.06C230.054 26.1967 228.946 25.5433 227.616 25.1C226.286 24.6333 224.734 24.4 222.961 24.4C220.488 24.4 217.851 24.8433 215.051 25.73L210.746 24.47L214.841 0.739996H238.921V3.715C238.921 4.695 238.606 5.5 237.976 6.13C237.369 6.73666 236.343 7.04 234.896 7.04H219.601L217.431 19.5ZM259.086 0.144998C260.72 0.144998 262.213 0.401664 263.566 0.914996C264.92 1.405 266.063 2.12833 266.996 3.085C267.953 4.01833 268.688 5.16166 269.201 6.515C269.738 7.845 270.006 9.35 270.006 11.03C270.006 12.7333 269.738 14.2617 269.201 15.615C268.688 16.9683 267.953 18.1233 266.996 19.08C266.063 20.0133 264.92 20.7367 263.566 21.25C262.213 21.7633 260.72 22.02 259.086 22.02C257.43 22.02 255.925 21.7633 254.571 21.25C253.218 20.7367 252.063 20.0133 251.106 19.08C250.15 18.1233 249.403 16.9683 248.866 15.615C248.353 14.2617 248.096 12.7333 248.096 11.03C248.096 9.35 248.353 7.845 248.866 6.515C249.403 5.16166 250.15 4.01833 251.106 3.085C252.063 2.12833 253.218 1.405 254.571 0.914996C255.925 0.401664 257.43 0.144998 259.086 0.144998ZM259.086 17.925C262.796 17.925 264.651 15.6383 264.651 11.065C264.651 6.49167 262.796 4.205 259.086 4.205C257.15 4.205 255.726 4.78833 254.816 5.955C253.906 7.09833 253.451 8.80167 253.451 11.065C253.451 13.3283 253.906 15.0433 254.816 16.21C255.726 17.3533 257.15 17.925 259.086 17.925ZM314.756 35.215C311.979 35.3083 309.622 35.53 307.686 35.88C305.749 36.2067 304.174 36.65 302.961 37.21C301.747 37.77 300.872 38.435 300.336 39.205C299.799 39.9517 299.531 40.7917 299.531 41.725C299.531 42.6117 299.671 43.3817 299.951 44.035C300.254 44.665 300.651 45.19 301.141 45.61C301.654 46.0067 302.249 46.2983 302.926 46.485C303.602 46.6717 304.337 46.765 305.131 46.765C306.181 46.765 307.137 46.66 308.001 46.45C308.887 46.24 309.716 45.9483 310.486 45.575C311.256 45.1783 311.991 44.7 312.691 44.14C313.391 43.58 314.079 42.9383 314.756 42.215V35.215ZM294.736 20.41C296.719 18.52 298.866 17.1083 301.176 16.175C303.509 15.2417 306.064 14.775 308.841 14.775C310.871 14.775 312.667 15.1133 314.231 15.79C315.794 16.4433 317.112 17.365 318.186 18.555C319.259 19.745 320.064 21.1683 320.601 22.825C321.161 24.4817 321.441 26.3133 321.441 28.32V51H318.396C317.719 51 317.206 50.895 316.856 50.685C316.506 50.4517 316.226 50.0317 316.016 49.425L315.281 46.31C314.371 47.15 313.472 47.8967 312.586 48.55C311.699 49.18 310.766 49.7283 309.786 50.195C308.829 50.6383 307.802 50.9767 306.706 51.21C305.609 51.4433 304.396 51.56 303.066 51.56C301.666 51.56 300.347 51.3733 299.111 51C297.897 50.6033 296.836 50.0083 295.926 49.215C295.016 48.4217 294.292 47.43 293.756 46.24C293.242 45.05 292.986 43.6617 292.986 42.075C292.986 40.675 293.359 39.3333 294.106 38.05C294.876 36.7433 296.112 35.5767 297.816 34.55C299.542 33.5233 301.782 32.6833 304.536 32.03C307.312 31.3767 310.719 31.0033 314.756 30.91V28.32C314.756 25.6367 314.184 23.63 313.041 22.3C311.897 20.97 310.217 20.305 308.001 20.305C306.507 20.305 305.247 20.4917 304.221 20.865C303.217 21.2383 302.342 21.6583 301.596 22.125C300.872 22.5683 300.231 22.9767 299.671 23.35C299.134 23.7233 298.574 23.91 297.991 23.91C297.524 23.91 297.116 23.7817 296.766 23.525C296.439 23.2683 296.171 22.965 295.961 22.615L294.736 20.41ZM336.982 20.375C337.752 19.5583 338.557 18.8117 339.397 18.135C340.237 17.4583 341.124 16.8867 342.057 16.42C343.014 15.93 344.029 15.5567 345.102 15.3C346.199 15.02 347.366 14.88 348.602 14.88C350.562 14.88 352.277 15.2067 353.747 15.86C355.241 16.5133 356.489 17.435 357.492 18.625C358.496 19.7917 359.254 21.2033 359.767 22.86C360.281 24.5167 360.537 26.3483 360.537 28.355V51H353.677V28.355C353.677 25.8117 353.094 23.84 351.927 22.44C350.761 21.0167 348.976 20.305 346.572 20.305C344.822 20.305 343.177 20.725 341.637 21.565C340.121 22.3817 338.709 23.5017 337.402 24.925V51H330.577V15.44H334.672C335.629 15.44 336.224 15.895 336.457 16.805L336.982 20.375ZM384.902 14.88C387.515 14.88 389.872 15.3117 391.972 16.175C394.095 17.015 395.892 18.24 397.362 19.85C398.855 21.4367 399.999 23.3617 400.792 25.625C401.585 27.865 401.982 30.385 401.982 33.185C401.982 35.985 401.585 38.5167 400.792 40.78C399.999 43.0433 398.855 44.9683 397.362 46.555C395.892 48.1417 394.095 49.3667 391.972 50.23C389.872 51.07 387.515 51.49 384.902 51.49C382.265 51.49 379.885 51.07 377.762 50.23C375.662 49.3667 373.865 48.1417 372.372 46.555C370.879 44.9683 369.724 43.0433 368.907 40.78C368.114 38.5167 367.717 35.985 367.717 33.185C367.717 30.385 368.114 27.865 368.907 25.625C369.724 23.3617 370.879 21.4367 372.372 19.85C373.865 18.24 375.662 17.015 377.762 16.175C379.885 15.3117 382.265 14.88 384.902 14.88ZM384.902 46.17C388.262 46.17 390.77 45.0383 392.427 42.775C394.084 40.5117 394.912 37.3267 394.912 33.22C394.912 29.1133 394.084 25.9283 392.427 23.665C390.77 21.3783 388.262 20.235 384.902 20.235C381.495 20.235 378.952 21.3783 377.272 23.665C375.615 25.9283 374.787 29.1133 374.787 33.22C374.787 37.3267 375.615 40.5117 377.272 42.775C378.952 45.0383 381.495 46.17 384.902 46.17ZM426.781 27.06H444.281V32.87H426.781V27.06ZM492.056 45.015C494.062 45.015 495.859 44.6767 497.446 44C499.032 43.3233 500.374 42.3783 501.471 41.165C502.567 39.9283 503.407 38.47 503.991 36.79C504.574 35.0867 504.866 33.2083 504.866 31.155V0.739996H512.286V31.155C512.286 34.095 511.819 36.8133 510.886 39.31C509.952 41.8067 508.611 43.965 506.861 45.785C505.111 47.605 502.987 49.0283 500.491 50.055C497.994 51.0817 495.182 51.595 492.056 51.595C488.929 51.595 486.117 51.0817 483.621 50.055C481.124 49.0283 479.001 47.605 477.251 45.785C475.501 43.965 474.159 41.8067 473.226 39.31C472.292 36.8133 471.826 34.095 471.826 31.155V0.739996H479.281V31.12C479.281 33.1733 479.561 35.0517 480.121 36.755C480.704 38.4583 481.544 39.9283 482.641 41.165C483.737 42.3783 485.079 43.3233 486.666 44C488.252 44.6767 490.049 45.015 492.056 45.015ZM531.557 6.795V23.63H551.717V29.685H531.557V51H524.067V0.739996H555.217V6.795H531.557ZM579.999 21.565C579.813 21.8683 579.614 22.09 579.404 22.23C579.194 22.3467 578.926 22.405 578.599 22.405C578.226 22.405 577.806 22.2767 577.339 22.02C576.896 21.7633 576.348 21.4833 575.694 21.18C575.064 20.8767 574.318 20.5967 573.454 20.34C572.591 20.0833 571.564 19.955 570.374 19.955C569.394 19.955 568.496 20.0833 567.679 20.34C566.886 20.5733 566.209 20.9117 565.649 21.355C565.089 21.775 564.658 22.2883 564.354 22.895C564.051 23.4783 563.899 24.1083 563.899 24.785C563.899 25.6717 564.156 26.4067 564.669 26.99C565.206 27.5733 565.894 28.075 566.734 28.495C567.598 28.915 568.566 29.3 569.639 29.65C570.736 29.9767 571.844 30.3267 572.964 30.7C574.108 31.0733 575.216 31.505 576.289 31.995C577.386 32.4617 578.354 33.0567 579.194 33.78C580.058 34.48 580.746 35.3317 581.259 36.335C581.796 37.3383 582.064 38.5633 582.064 40.01C582.064 41.6667 581.761 43.2067 581.154 44.63C580.571 46.03 579.696 47.2433 578.529 48.27C577.386 49.2967 575.963 50.1017 574.259 50.685C572.556 51.2683 570.608 51.56 568.414 51.56C565.964 51.56 563.701 51.1517 561.624 50.335C559.548 49.5183 557.809 48.48 556.409 47.22L558.019 44.595C558.206 44.2683 558.439 44.0233 558.719 43.86C558.999 43.6733 559.373 43.58 559.839 43.58C560.283 43.58 560.738 43.7433 561.204 44.07C561.671 44.3967 562.231 44.7583 562.884 45.155C563.538 45.5283 564.331 45.8783 565.264 46.205C566.198 46.5083 567.364 46.66 568.764 46.66C569.931 46.66 570.946 46.52 571.809 46.24C572.673 45.9367 573.384 45.54 573.944 45.05C574.528 44.5367 574.959 43.9533 575.239 43.3C575.519 42.6467 575.659 41.9583 575.659 41.235C575.659 40.3017 575.391 39.5317 574.854 38.925C574.341 38.295 573.653 37.7583 572.789 37.315C571.949 36.8717 570.981 36.4867 569.884 36.16C568.788 35.8333 567.668 35.4833 566.524 35.11C565.381 34.7367 564.261 34.305 563.164 33.815C562.068 33.325 561.088 32.7067 560.224 31.96C559.384 31.2133 558.696 30.3033 558.159 29.23C557.646 28.1567 557.389 26.85 557.389 25.31C557.389 23.9333 557.669 22.615 558.229 21.355C558.813 20.095 559.641 18.9867 560.714 18.03C561.811 17.0733 563.153 16.315 564.739 15.755C566.349 15.1717 568.181 14.88 570.234 14.88C572.591 14.88 574.714 15.2533 576.604 16C578.518 16.7467 580.151 17.7733 581.504 19.08L579.999 21.565Z" fill="#4C5773"/>
</svg>
