<svg width="801" height="64" viewBox="0 0 801 64" fill="none" xmlns="http://www.w3.org/2000/svg">
<path d="M30.6658 9.93C30.4325 10.3267 30.1875 10.6183 29.9308 10.805C29.6742 10.9917 29.3475 11.085 28.9508 11.085C28.5308 11.085 28.0525 10.8983 27.5158 10.525C26.9792 10.1283 26.3025 9.69667 25.4858 9.23C24.6925 8.74 23.7358 8.30833 22.6158 7.935C21.4958 7.53833 20.1542 7.34 18.5908 7.34C17.1208 7.34 15.8258 7.53833 14.7058 7.935C13.6092 8.30833 12.6875 8.83333 11.9408 9.51C11.1942 10.1633 10.6225 10.945 10.2258 11.855C9.85249 12.7417 9.66582 13.71 9.66582 14.76C9.66582 16.1133 10.0042 17.2333 10.6808 18.12C11.3808 19.0067 12.2908 19.765 13.4108 20.395C14.5308 21.025 15.8025 21.5733 17.2258 22.04C18.6492 22.5067 20.1075 22.9967 21.6008 23.51C23.0942 24 24.5525 24.5717 25.9758 25.225C27.3992 25.8783 28.6708 26.7067 29.7908 27.71C30.9108 28.69 31.8092 29.9033 32.4858 31.35C33.1858 32.7733 33.5358 34.5233 33.5358 36.6C33.5358 38.8167 33.1508 40.8933 32.3808 42.83C31.6342 44.7667 30.5375 46.4583 29.0908 47.905C27.6442 49.3517 25.8592 50.495 23.7358 51.335C21.6358 52.1517 19.2442 52.56 16.5608 52.56C14.9508 52.56 13.3875 52.3967 11.8708 52.07C10.3542 51.7667 8.91915 51.335 7.56582 50.775C6.21249 50.1917 4.94082 49.5033 3.75082 48.71C2.58415 47.8933 1.53415 46.9833 0.60082 45.98L2.73582 42.41C2.94582 42.13 3.19082 41.8967 3.47082 41.71C3.77415 41.5233 4.11249 41.43 4.48582 41.43C4.97582 41.43 5.53582 41.6867 6.16582 42.2C6.81915 42.7133 7.61249 43.285 8.54582 43.915C9.50249 44.5217 10.6342 45.0817 11.9408 45.595C13.2708 46.1083 14.8808 46.365 16.7708 46.365C18.3108 46.365 19.6875 46.1667 20.9008 45.77C22.1142 45.35 23.1292 44.7667 23.9458 44.02C24.7858 43.25 25.4275 42.3283 25.8708 41.255C26.3142 40.1817 26.5358 38.9917 26.5358 37.685C26.5358 36.215 26.1975 35.0133 25.5208 34.08C24.8442 33.1467 23.9458 32.365 22.8258 31.735C21.7058 31.105 20.4342 30.5683 19.0108 30.125C17.5875 29.6817 16.1292 29.2267 14.6358 28.76C13.1425 28.27 11.6842 27.71 10.2608 27.08C8.83749 26.45 7.56582 25.6333 6.44582 24.63C5.32582 23.6033 4.42749 22.3317 3.75082 20.815C3.07415 19.275 2.73582 17.385 2.73582 15.145C2.73582 13.3483 3.08582 11.61 3.78582 9.93C4.48582 8.25 5.50082 6.76833 6.83082 5.485C8.18415 4.17833 9.84082 3.14 11.8008 2.37C13.7608 1.57666 16.0008 1.18 18.5208 1.18C21.3442 1.18 23.9342 1.635 26.2908 2.545C28.6708 3.43166 30.7358 4.715 32.4858 6.395L30.6658 9.93ZM68.485 33.275L61.03 13.78C60.4933 12.45 59.9566 10.77 59.42 8.74C59.1633 9.74333 58.895 10.6767 58.615 11.54C58.3583 12.4033 58.1016 13.1733 57.845 13.85L50.425 33.275H68.485ZM83.22 52H77.48C76.8266 52 76.29 51.8367 75.87 51.51C75.45 51.1833 75.1466 50.7633 74.96 50.25L70.515 38.595H48.36L43.915 50.25C43.7516 50.6933 43.4483 51.1017 43.005 51.475C42.5616 51.825 42.025 52 41.395 52H35.655L55.675 1.74H63.2L83.22 52ZM120.68 45.945L120.645 52H89.4948V1.74H120.645V7.795H96.9848V23.72H116.025V29.565H96.9848V45.945H120.68ZM147.85 46.085C149.74 46.085 151.35 45.8633 152.68 45.42C154.034 44.9767 155.13 44.37 155.97 43.6C156.834 42.83 157.464 41.92 157.86 40.87C158.257 39.7967 158.455 38.63 158.455 37.37C158.455 34.8733 157.592 32.9133 155.865 31.49C154.139 30.0433 151.467 29.32 147.85 29.32H137.35V46.085H147.85ZM137.35 7.585V24.035H145.925C149.589 24.035 152.307 23.3 154.08 21.83C155.877 20.3367 156.775 18.33 156.775 15.81C156.775 12.94 155.924 10.8517 154.22 9.545C152.517 8.23833 149.869 7.585 146.275 7.585H137.35ZM146.275 1.74C149.425 1.74 152.12 2.04333 154.36 2.65C156.624 3.25666 158.479 4.13166 159.925 5.275C161.372 6.41833 162.434 7.80667 163.11 9.44C163.81 11.05 164.16 12.8817 164.16 14.935C164.16 16.1483 163.974 17.315 163.6 18.435C163.227 19.555 162.655 20.605 161.885 21.585C161.115 22.5417 160.147 23.405 158.98 24.175C157.814 24.945 156.437 25.5867 154.85 26.1C162.154 27.5467 165.805 31.3617 165.805 37.545C165.805 39.6917 165.409 41.6517 164.615 43.425C163.822 45.175 162.667 46.6917 161.15 47.975C159.634 49.2583 157.767 50.25 155.55 50.95C153.334 51.65 150.814 52 147.99 52H129.895V1.74H146.275ZM173.394 47.905C173.394 47.275 173.511 46.68 173.744 46.12C173.978 45.56 174.293 45.07 174.689 44.65C175.109 44.23 175.599 43.9033 176.159 43.67C176.719 43.4133 177.326 43.285 177.979 43.285C178.609 43.285 179.204 43.4133 179.764 43.67C180.324 43.9033 180.814 44.23 181.234 44.65C181.654 45.07 181.981 45.56 182.214 46.12C182.471 46.68 182.599 47.275 182.599 47.905C182.599 48.5583 182.471 49.165 182.214 49.725C181.981 50.285 181.654 50.775 181.234 51.195C180.814 51.615 180.324 51.9417 179.764 52.175C179.204 52.4083 178.609 52.525 177.979 52.525C177.326 52.525 176.719 52.4083 176.159 52.175C175.599 51.9417 175.109 51.615 174.689 51.195C174.293 50.775 173.978 50.285 173.744 49.725C173.511 49.165 173.394 48.5583 173.394 47.905ZM173.394 22.005C173.394 21.375 173.511 20.78 173.744 20.22C173.978 19.66 174.293 19.17 174.689 18.75C175.109 18.33 175.599 18.0033 176.159 17.77C176.719 17.5133 177.326 17.385 177.979 17.385C178.609 17.385 179.204 17.5133 179.764 17.77C180.324 18.0033 180.814 18.33 181.234 18.75C181.654 19.17 181.981 19.66 182.214 20.22C182.471 20.78 182.599 21.375 182.599 22.005C182.599 22.6583 182.471 23.265 182.214 23.825C181.981 24.385 181.654 24.875 181.234 25.295C180.814 25.715 180.324 26.0417 179.764 26.275C179.204 26.5083 178.609 26.625 177.979 26.625C177.326 26.625 176.719 26.5083 176.159 26.275C175.599 26.0417 175.109 25.715 174.689 25.295C174.293 24.875 173.978 24.385 173.744 23.825C173.511 23.265 173.394 22.6583 173.394 22.005ZM214.826 16.58C214.826 19.6833 215.666 22.075 217.346 23.755C219.026 25.435 221.359 26.275 224.346 26.275C225.956 26.275 227.379 26.0183 228.616 25.505C229.853 24.9683 230.891 24.2683 231.731 23.405C232.594 22.5183 233.248 21.5033 233.691 20.36C234.134 19.1933 234.356 17.98 234.356 16.72C234.356 15.2033 234.111 13.8383 233.621 12.625C233.154 11.3883 232.489 10.35 231.626 9.51C230.763 8.64666 229.736 7.99333 228.546 7.55C227.379 7.08333 226.084 6.85 224.661 6.85C223.191 6.85 221.849 7.095 220.636 7.585C219.423 8.05166 218.384 8.71666 217.521 9.58C216.658 10.4433 215.993 11.47 215.526 12.66C215.059 13.85 214.826 15.1567 214.826 16.58ZM228.616 32.12C229.526 30.93 230.378 29.7633 231.171 28.62C229.911 29.5767 228.499 30.3 226.936 30.79C225.396 31.28 223.751 31.525 222.001 31.525C220.158 31.525 218.384 31.21 216.681 30.58C215.001 29.95 213.508 29.0283 212.201 27.815C210.918 26.5783 209.891 25.0617 209.121 23.265C208.351 21.4683 207.966 19.4033 207.966 17.07C207.966 14.8767 208.374 12.8117 209.191 10.875C210.008 8.93833 211.151 7.25833 212.621 5.835C214.114 4.38833 215.888 3.25667 217.941 2.44C220.018 1.6 222.293 1.18 224.766 1.18C227.216 1.18 229.433 1.57666 231.416 2.37C233.423 3.16333 235.126 4.28333 236.526 5.73C237.926 7.15333 239.011 8.86833 239.781 10.875C240.551 12.8817 240.936 15.0867 240.936 17.49C240.936 18.96 240.796 20.36 240.516 21.69C240.259 23.02 239.874 24.315 239.361 25.575C238.871 26.835 238.264 28.0833 237.541 29.32C236.841 30.5333 236.036 31.7817 235.126 33.065L223.051 50.39C222.724 50.8567 222.246 51.2417 221.616 51.545C221.009 51.8483 220.309 52 219.516 52H213.251L228.616 32.12ZM259.211 1.145C260.845 1.145 262.338 1.40166 263.691 1.915C265.045 2.405 266.188 3.12833 267.121 4.085C268.078 5.01833 268.813 6.16166 269.326 7.515C269.863 8.845 270.131 10.35 270.131 12.03C270.131 13.7333 269.863 15.2617 269.326 16.615C268.813 17.9683 268.078 19.1233 267.121 20.08C266.188 21.0133 265.045 21.7367 263.691 22.25C262.338 22.7633 260.845 23.02 259.211 23.02C257.555 23.02 256.05 22.7633 254.696 22.25C253.343 21.7367 252.188 21.0133 251.231 20.08C250.275 19.1233 249.528 17.9683 248.991 16.615C248.478 15.2617 248.221 13.7333 248.221 12.03C248.221 10.35 248.478 8.845 248.991 7.515C249.528 6.16166 250.275 5.01833 251.231 4.085C252.188 3.12833 253.343 2.405 254.696 1.915C256.05 1.40166 257.555 1.145 259.211 1.145ZM259.211 18.925C262.921 18.925 264.776 16.6383 264.776 12.065C264.776 7.49167 262.921 5.205 259.211 5.205C257.275 5.205 255.851 5.78833 254.941 6.955C254.031 8.09833 253.576 9.80167 253.576 12.065C253.576 14.3283 254.031 16.0433 254.941 17.21C255.851 18.3533 257.275 18.925 259.211 18.925ZM314.881 36.215C312.104 36.3083 309.747 36.53 307.811 36.88C305.874 37.2067 304.299 37.65 303.086 38.21C301.872 38.77 300.997 39.435 300.461 40.205C299.924 40.9517 299.656 41.7917 299.656 42.725C299.656 43.6117 299.796 44.3817 300.076 45.035C300.379 45.665 300.776 46.19 301.266 46.61C301.779 47.0067 302.374 47.2983 303.051 47.485C303.727 47.6717 304.462 47.765 305.256 47.765C306.306 47.765 307.262 47.66 308.126 47.45C309.012 47.24 309.841 46.9483 310.611 46.575C311.381 46.1783 312.116 45.7 312.816 45.14C313.516 44.58 314.204 43.9383 314.881 43.215V36.215ZM294.861 21.41C296.844 19.52 298.991 18.1083 301.301 17.175C303.634 16.2417 306.189 15.775 308.966 15.775C310.996 15.775 312.792 16.1133 314.356 16.79C315.919 17.4433 317.237 18.365 318.311 19.555C319.384 20.745 320.189 22.1683 320.726 23.825C321.286 25.4817 321.566 27.3133 321.566 29.32V52H318.521C317.844 52 317.331 51.895 316.981 51.685C316.631 51.4517 316.351 51.0317 316.141 50.425L315.406 47.31C314.496 48.15 313.597 48.8967 312.711 49.55C311.824 50.18 310.891 50.7283 309.911 51.195C308.954 51.6383 307.927 51.9767 306.831 52.21C305.734 52.4433 304.521 52.56 303.191 52.56C301.791 52.56 300.472 52.3733 299.236 52C298.022 51.6033 296.961 51.0083 296.051 50.215C295.141 49.4217 294.417 48.43 293.881 47.24C293.367 46.05 293.111 44.6617 293.111 43.075C293.111 41.675 293.484 40.3333 294.231 39.05C295.001 37.7433 296.237 36.5767 297.941 35.55C299.667 34.5233 301.907 33.6833 304.661 33.03C307.437 32.3767 310.844 32.0033 314.881 31.91V29.32C314.881 26.6367 314.309 24.63 313.166 23.3C312.022 21.97 310.342 21.305 308.126 21.305C306.632 21.305 305.372 21.4917 304.346 21.865C303.342 22.2383 302.467 22.6583 301.721 23.125C300.997 23.5683 300.356 23.9767 299.796 24.35C299.259 24.7233 298.699 24.91 298.116 24.91C297.649 24.91 297.241 24.7817 296.891 24.525C296.564 24.2683 296.296 23.965 296.086 23.615L294.861 21.41ZM337.107 21.375C337.877 20.5583 338.682 19.8117 339.522 19.135C340.362 18.4583 341.249 17.8867 342.182 17.42C343.139 16.93 344.154 16.5567 345.227 16.3C346.324 16.02 347.491 15.88 348.727 15.88C350.687 15.88 352.402 16.2067 353.872 16.86C355.366 17.5133 356.614 18.435 357.617 19.625C358.621 20.7917 359.379 22.2033 359.892 23.86C360.406 25.5167 360.662 27.3483 360.662 29.355V52H353.802V29.355C353.802 26.8117 353.219 24.84 352.052 23.44C350.886 22.0167 349.101 21.305 346.697 21.305C344.947 21.305 343.302 21.725 341.762 22.565C340.246 23.3817 338.834 24.5017 337.527 25.925V52H330.702V16.44H334.797C335.754 16.44 336.349 16.895 336.582 17.805L337.107 21.375ZM385.027 15.88C387.64 15.88 389.997 16.3117 392.097 17.175C394.22 18.015 396.017 19.24 397.487 20.85C398.98 22.4367 400.124 24.3617 400.917 26.625C401.71 28.865 402.107 31.385 402.107 34.185C402.107 36.985 401.71 39.5167 400.917 41.78C400.124 44.0433 398.98 45.9683 397.487 47.555C396.017 49.1417 394.22 50.3667 392.097 51.23C389.997 52.07 387.64 52.49 385.027 52.49C382.39 52.49 380.01 52.07 377.887 51.23C375.787 50.3667 373.99 49.1417 372.497 47.555C371.004 45.9683 369.849 44.0433 369.032 41.78C368.239 39.5167 367.842 36.985 367.842 34.185C367.842 31.385 368.239 28.865 369.032 26.625C369.849 24.3617 371.004 22.4367 372.497 20.85C373.99 19.24 375.787 18.015 377.887 17.175C380.01 16.3117 382.39 15.88 385.027 15.88ZM385.027 47.17C388.387 47.17 390.895 46.0383 392.552 43.775C394.209 41.5117 395.037 38.3267 395.037 34.22C395.037 30.1133 394.209 26.9283 392.552 24.665C390.895 22.3783 388.387 21.235 385.027 21.235C381.62 21.235 379.077 22.3783 377.397 24.665C375.74 26.9283 374.912 30.1133 374.912 34.22C374.912 38.3267 375.74 41.5117 377.397 43.775C379.077 46.0383 381.62 47.17 385.027 47.17ZM426.906 28.06H444.406V33.87H426.906V28.06ZM525.431 1.74V52H518.921V16.23C518.921 15.6933 518.932 15.1217 518.956 14.515C519.002 13.9083 519.049 13.29 519.096 12.66L502.366 43.355C501.782 44.4983 500.884 45.07 499.671 45.07H498.621C497.407 45.07 496.521 44.4983 495.961 43.355L478.916 12.555C479.056 13.8617 479.126 15.0867 479.126 16.23V52H472.581V1.74H478.111C478.764 1.74 479.266 1.81 479.616 1.95C479.989 2.06666 480.339 2.41666 480.666 3L497.466 33.1C497.792 33.7067 498.096 34.3483 498.376 35.025C498.656 35.7017 498.924 36.3783 499.181 37.055C499.671 35.6783 500.242 34.3483 500.896 33.065L517.381 3C517.684 2.41666 518.011 2.06666 518.361 1.95C518.734 1.81 519.247 1.74 519.901 1.74H525.431ZM565.424 16.44V52H561.329C560.395 52 559.789 51.545 559.509 50.635L559.019 47.065C558.249 47.8817 557.444 48.6283 556.604 49.305C555.764 49.9817 554.865 50.565 553.909 51.055C552.952 51.5217 551.937 51.8833 550.864 52.14C549.79 52.42 548.635 52.56 547.399 52.56C545.439 52.56 543.712 52.2333 542.219 51.58C540.749 50.9267 539.512 50.0167 538.509 48.85C537.505 47.66 536.747 46.2367 536.234 44.58C535.72 42.9233 535.464 41.0917 535.464 39.085V16.44H542.324V39.085C542.324 41.6283 542.907 43.6117 544.074 45.035C545.24 46.435 547.025 47.135 549.429 47.135C551.179 47.135 552.812 46.7267 554.329 45.91C555.845 45.07 557.269 43.9267 558.599 42.48V16.44H565.424ZM581.355 21.375C582.125 20.5583 582.93 19.8117 583.77 19.135C584.61 18.4583 585.497 17.8867 586.43 17.42C587.387 16.93 588.402 16.5567 589.475 16.3C590.572 16.02 591.739 15.88 592.975 15.88C594.935 15.88 596.65 16.2067 598.12 16.86C599.614 17.5133 600.862 18.435 601.865 19.625C602.869 20.7917 603.627 22.2033 604.14 23.86C604.654 25.5167 604.91 27.3483 604.91 29.355V52H598.05V29.355C598.05 26.8117 597.467 24.84 596.3 23.44C595.134 22.0167 593.349 21.305 590.945 21.305C589.195 21.305 587.55 21.725 586.01 22.565C584.494 23.3817 583.082 24.5017 581.775 25.925V52H574.95V16.44H579.045C580.002 16.44 580.597 16.895 580.83 17.805L581.355 21.375ZM621.26 16.44V52H614.435V16.44H621.26ZM622.555 5.45C622.555 6.08 622.427 6.68666 622.17 7.27C621.914 7.83 621.564 8.33166 621.12 8.775C620.7 9.195 620.199 9.53333 619.615 9.79C619.032 10.0233 618.425 10.14 617.795 10.14C617.165 10.14 616.57 10.0233 616.01 9.79C615.45 9.53333 614.949 9.195 614.505 8.775C614.085 8.33166 613.747 7.83 613.49 7.27C613.257 6.68666 613.14 6.08 613.14 5.45C613.14 4.79667 613.257 4.19 613.49 3.63C613.747 3.04666 614.085 2.545 614.505 2.125C614.949 1.68166 615.45 1.34333 616.01 1.11C616.57 0.853331 617.165 0.724999 617.795 0.724999C618.425 0.724999 619.032 0.853331 619.615 1.11C620.199 1.34333 620.7 1.68166 621.12 2.125C621.564 2.545 621.914 3.04666 622.17 3.63C622.427 4.19 622.555 4.79667 622.555 5.45ZM656.062 23.09C655.852 23.3467 655.642 23.5567 655.432 23.72C655.245 23.86 654.965 23.93 654.592 23.93C654.218 23.93 653.822 23.79 653.402 23.51C653.005 23.2067 652.492 22.8917 651.862 22.565C651.255 22.215 650.508 21.9 649.622 21.62C648.758 21.3167 647.685 21.165 646.402 21.165C644.722 21.165 643.24 21.4683 641.957 22.075C640.673 22.6817 639.6 23.545 638.737 24.665C637.897 25.785 637.255 27.15 636.812 28.76C636.368 30.37 636.147 32.1783 636.147 34.185C636.147 36.2617 636.38 38.1167 636.847 39.75C637.313 41.36 637.978 42.725 638.842 43.845C639.705 44.9417 640.755 45.7817 641.992 46.365C643.228 46.925 644.605 47.205 646.122 47.205C647.592 47.205 648.805 47.03 649.762 46.68C650.718 46.3067 651.512 45.91 652.142 45.49C652.772 45.07 653.297 44.685 653.717 44.335C654.137 43.9617 654.568 43.775 655.012 43.775C655.572 43.775 656.003 43.985 656.307 44.405L658.267 46.925C657.45 47.9283 656.528 48.78 655.502 49.48C654.498 50.18 653.425 50.7517 652.282 51.195C651.138 51.6383 649.937 51.965 648.677 52.175C647.44 52.385 646.18 52.49 644.897 52.49C642.68 52.49 640.603 52.0817 638.667 51.265C636.753 50.4483 635.085 49.2583 633.662 47.695C632.262 46.1317 631.153 44.2183 630.337 41.955C629.52 39.6683 629.112 37.0783 629.112 34.185C629.112 31.5483 629.473 29.11 630.197 26.87C630.943 24.63 632.028 22.705 633.452 21.095C634.898 19.4617 636.672 18.19 638.772 17.28C640.872 16.3467 643.275 15.88 645.982 15.88C648.525 15.88 650.765 16.2883 652.702 17.105C654.638 17.9217 656.365 19.0767 657.882 20.57L656.062 23.09ZM671.813 16.44V52H664.953V16.44H671.813ZM679.233 1.18L670.938 10.21C670.588 10.6067 670.249 10.8867 669.923 11.05C669.596 11.19 669.164 11.26 668.628 11.26H664.498L669.678 2.79C670.004 2.25333 670.354 1.85667 670.728 1.6C671.124 1.32 671.731 1.18 672.548 1.18H679.233ZM688.484 43.25C689.604 44.72 690.806 45.7467 692.089 46.33C693.396 46.9133 694.854 47.205 696.464 47.205C699.591 47.205 702.006 46.085 703.709 43.845C705.436 41.5817 706.299 38.2917 706.299 33.975C706.299 31.7117 706.101 29.7867 705.704 28.2C705.331 26.59 704.771 25.2833 704.024 24.28C703.301 23.2533 702.403 22.5067 701.329 22.04C700.256 21.55 699.043 21.305 697.689 21.305C695.706 21.305 693.979 21.7483 692.509 22.635C691.063 23.5217 689.721 24.7817 688.484 26.415V43.25ZM688.134 21.76C688.881 20.8733 689.674 20.0683 690.514 19.345C691.378 18.5983 692.299 17.9683 693.279 17.455C694.259 16.9183 695.298 16.51 696.394 16.23C697.514 15.9267 698.704 15.775 699.964 15.775C701.994 15.775 703.826 16.1717 705.459 16.965C707.116 17.7583 708.528 18.925 709.694 20.465C710.861 22.005 711.759 23.9067 712.389 26.17C713.043 28.4333 713.369 31.035 713.369 33.975C713.369 36.6117 713.008 39.0617 712.284 41.325C711.584 43.565 710.569 45.5133 709.239 47.17C707.933 48.8267 706.323 50.1333 704.409 51.09C702.519 52.0233 700.384 52.49 698.004 52.49C695.881 52.49 694.061 52.14 692.544 51.44C691.028 50.74 689.674 49.76 688.484 48.5V63.935H681.659V16.44H685.754C686.711 16.44 687.306 16.895 687.539 17.805L688.134 21.76ZM728.174 16.44V52H721.349V16.44H728.174ZM729.469 5.45C729.469 6.08 729.341 6.68666 729.084 7.27C728.828 7.83 728.478 8.33166 728.034 8.775C727.614 9.195 727.113 9.53333 726.529 9.79C725.946 10.0233 725.339 10.14 724.709 10.14C724.079 10.14 723.484 10.0233 722.924 9.79C722.364 9.53333 721.863 9.195 721.419 8.775C720.999 8.33166 720.661 7.83 720.404 7.27C720.171 6.68666 720.054 6.08 720.054 5.45C720.054 4.79667 720.171 4.19 720.404 3.63C720.661 3.04666 720.999 2.545 721.419 2.125C721.863 1.68166 722.364 1.34333 722.924 1.11C723.484 0.853331 724.079 0.724999 724.709 0.724999C725.339 0.724999 725.946 0.853331 726.529 1.11C727.113 1.34333 727.614 1.68166 728.034 2.125C728.478 2.545 728.828 3.04666 729.084 3.63C729.341 4.19 729.469 4.79667 729.469 5.45ZM753.211 15.88C755.824 15.88 758.181 16.3117 760.281 17.175C762.404 18.015 764.201 19.24 765.671 20.85C767.164 22.4367 768.307 24.3617 769.101 26.625C769.894 28.865 770.291 31.385 770.291 34.185C770.291 36.985 769.894 39.5167 769.101 41.78C768.307 44.0433 767.164 45.9683 765.671 47.555C764.201 49.1417 762.404 50.3667 760.281 51.23C758.181 52.07 755.824 52.49 753.211 52.49C750.574 52.49 748.194 52.07 746.071 51.23C743.971 50.3667 742.174 49.1417 740.681 47.555C739.187 45.9683 738.032 44.0433 737.216 41.78C736.422 39.5167 736.026 36.985 736.026 34.185C736.026 31.385 736.422 28.865 737.216 26.625C738.032 24.3617 739.187 22.4367 740.681 20.85C742.174 19.24 743.971 18.015 746.071 17.175C748.194 16.3117 750.574 15.88 753.211 15.88ZM753.211 47.17C756.571 47.17 759.079 46.0383 760.736 43.775C762.392 41.5117 763.221 38.3267 763.221 34.22C763.221 30.1133 762.392 26.9283 760.736 24.665C759.079 22.3783 756.571 21.235 753.211 21.235C749.804 21.235 747.261 22.3783 745.581 24.665C743.924 26.9283 743.096 30.1133 743.096 34.22C743.096 38.3267 743.924 41.5117 745.581 43.775C747.261 46.0383 749.804 47.17 753.211 47.17ZM798.874 22.565C798.688 22.8683 798.489 23.09 798.279 23.23C798.069 23.3467 797.801 23.405 797.474 23.405C797.101 23.405 796.681 23.2767 796.214 23.02C795.771 22.7633 795.223 22.4833 794.569 22.18C793.939 21.8767 793.193 21.5967 792.329 21.34C791.466 21.0833 790.439 20.955 789.249 20.955C788.269 20.955 787.371 21.0833 786.554 21.34C785.761 21.5733 785.084 21.9117 784.524 22.355C783.964 22.775 783.533 23.2883 783.229 23.895C782.926 24.4783 782.774 25.1083 782.774 25.785C782.774 26.6717 783.031 27.4067 783.544 27.99C784.081 28.5733 784.769 29.075 785.609 29.495C786.473 29.915 787.441 30.3 788.514 30.65C789.611 30.9767 790.719 31.3267 791.839 31.7C792.983 32.0733 794.091 32.505 795.164 32.995C796.261 33.4617 797.229 34.0567 798.069 34.78C798.933 35.48 799.621 36.3317 800.134 37.335C800.671 38.3383 800.939 39.5633 800.939 41.01C800.939 42.6667 800.636 44.2067 800.029 45.63C799.446 47.03 798.571 48.2433 797.404 49.27C796.261 50.2967 794.838 51.1017 793.134 51.685C791.431 52.2683 789.483 52.56 787.289 52.56C784.839 52.56 782.576 52.1517 780.499 51.335C778.423 50.5183 776.684 49.48 775.284 48.22L776.894 45.595C777.081 45.2683 777.314 45.0233 777.594 44.86C777.874 44.6733 778.248 44.58 778.714 44.58C779.158 44.58 779.613 44.7433 780.079 45.07C780.546 45.3967 781.106 45.7583 781.759 46.155C782.413 46.5283 783.206 46.8783 784.139 47.205C785.073 47.5083 786.239 47.66 787.639 47.66C788.806 47.66 789.821 47.52 790.684 47.24C791.548 46.9367 792.259 46.54 792.819 46.05C793.403 45.5367 793.834 44.9533 794.114 44.3C794.394 43.6467 794.534 42.9583 794.534 42.235C794.534 41.3017 794.266 40.5317 793.729 39.925C793.216 39.295 792.528 38.7583 791.664 38.315C790.824 37.8717 789.856 37.4867 788.759 37.16C787.663 36.8333 786.543 36.4833 785.399 36.11C784.256 35.7367 783.136 35.305 782.039 34.815C780.943 34.325 779.963 33.7067 779.099 32.96C778.259 32.2133 777.571 31.3033 777.034 30.23C776.521 29.1567 776.264 27.85 776.264 26.31C776.264 24.9333 776.544 23.615 777.104 22.355C777.688 21.095 778.516 19.9867 779.589 19.03C780.686 18.0733 782.028 17.315 783.614 16.755C785.224 16.1717 787.056 15.88 789.109 15.88C791.466 15.88 793.589 16.2533 795.479 17C797.393 17.7467 799.026 18.7733 800.379 20.08L798.874 22.565Z" fill="#4C5773"/>
</svg>
