<svg width="1130" height="53" viewBox="0 0 1130 53" fill="none" xmlns="http://www.w3.org/2000/svg">
<path d="M30.7234 9.93C30.4901 10.3267 30.2451 10.6183 29.9884 10.805C29.7318 10.9917 29.4051 11.085 29.0084 11.085C28.5884 11.085 28.1101 10.8983 27.5734 10.525C27.0368 10.1283 26.3601 9.69667 25.5434 9.23C24.7501 8.74 23.7934 8.30833 22.6734 7.935C21.5534 7.53833 20.2118 7.34 18.6484 7.34C17.1784 7.34 15.8834 7.53833 14.7634 7.935C13.6668 8.30833 12.7451 8.83333 11.9984 9.51C11.2518 10.1633 10.6801 10.945 10.2834 11.855C9.9101 12.7417 9.72344 13.71 9.72344 14.76C9.72344 16.1133 10.0618 17.2333 10.7384 18.12C11.4384 19.0067 12.3484 19.765 13.4684 20.395C14.5884 21.025 15.8601 21.5733 17.2834 22.04C18.7068 22.5067 20.1651 22.9967 21.6584 23.51C23.1518 24 24.6101 24.5717 26.0334 25.225C27.4568 25.8783 28.7284 26.7067 29.8484 27.71C30.9684 28.69 31.8668 29.9033 32.5434 31.35C33.2434 32.7733 33.5934 34.5233 33.5934 36.6C33.5934 38.8167 33.2084 40.8933 32.4384 42.83C31.6918 44.7667 30.5951 46.4583 29.1484 47.905C27.7018 49.3517 25.9168 50.495 23.7934 51.335C21.6934 52.1517 19.3018 52.56 16.6184 52.56C15.0084 52.56 13.4451 52.3967 11.9284 52.07C10.4118 51.7667 8.97677 51.335 7.62344 50.775C6.2701 50.1917 4.99844 49.5033 3.80844 48.71C2.64177 47.8933 1.59177 46.9833 0.658438 45.98L2.79344 42.41C3.00344 42.13 3.24844 41.8967 3.52844 41.71C3.83177 41.5233 4.1701 41.43 4.54344 41.43C5.03344 41.43 5.59344 41.6867 6.22344 42.2C6.87677 42.7133 7.6701 43.285 8.60344 43.915C9.5601 44.5217 10.6918 45.0817 11.9984 45.595C13.3284 46.1083 14.9384 46.365 16.8284 46.365C18.3684 46.365 19.7451 46.1667 20.9584 45.77C22.1718 45.35 23.1868 44.7667 24.0034 44.02C24.8434 43.25 25.4851 42.3283 25.9284 41.255C26.3718 40.1817 26.5934 38.9917 26.5934 37.685C26.5934 36.215 26.2551 35.0133 25.5784 34.08C24.9018 33.1467 24.0034 32.365 22.8834 31.735C21.7634 31.105 20.4918 30.5683 19.0684 30.125C17.6451 29.6817 16.1868 29.2267 14.6934 28.76C13.2001 28.27 11.7418 27.71 10.3184 27.08C8.8951 26.45 7.62344 25.6333 6.50344 24.63C5.38344 23.6033 4.4851 22.3317 3.80844 20.815C3.13177 19.275 2.79344 17.385 2.79344 15.145C2.79344 13.3483 3.14344 11.61 3.84344 9.93C4.54344 8.25 5.55844 6.76833 6.88844 5.485C8.24177 4.17833 9.89844 3.14 11.8584 2.37C13.8184 1.57666 16.0584 1.18 18.5784 1.18C21.4018 1.18 23.9918 1.635 26.3484 2.545C28.7284 3.43166 30.7934 4.715 32.5434 6.395L30.7234 9.93ZM68.5426 33.275L61.0876 13.78C60.5509 12.45 60.0142 10.77 59.4776 8.74C59.2209 9.74333 58.9526 10.6767 58.6726 11.54C58.4159 12.4033 58.1592 13.1733 57.9026 13.85L50.4826 33.275H68.5426ZM83.2776 52H77.5376C76.8842 52 76.3476 51.8367 75.9276 51.51C75.5076 51.1833 75.2042 50.7633 75.0176 50.25L70.5726 38.595H48.4176L43.9726 50.25C43.8092 50.6933 43.5059 51.1017 43.0626 51.475C42.6192 51.825 42.0826 52 41.4526 52H35.7126L55.7326 1.74H63.2576L83.2776 52ZM120.737 45.945L120.702 52H89.5524V1.74H120.702V7.795H97.0424V23.72H116.082V29.565H97.0424V45.945H120.737ZM147.908 46.085C149.798 46.085 151.408 45.8633 152.738 45.42C154.091 44.9767 155.188 44.37 156.028 43.6C156.891 42.83 157.521 41.92 157.918 40.87C158.314 39.7967 158.513 38.63 158.513 37.37C158.513 34.8733 157.649 32.9133 155.923 31.49C154.196 30.0433 151.524 29.32 147.908 29.32H137.408V46.085H147.908ZM137.408 7.585V24.035H145.983C149.646 24.035 152.364 23.3 154.138 21.83C155.934 20.3367 156.833 18.33 156.833 15.81C156.833 12.94 155.981 10.8517 154.278 9.545C152.574 8.23833 149.926 7.585 146.333 7.585H137.408ZM146.333 1.74C149.483 1.74 152.178 2.04333 154.418 2.65C156.681 3.25666 158.536 4.13166 159.983 5.275C161.429 6.41833 162.491 7.80667 163.168 9.44C163.868 11.05 164.218 12.8817 164.218 14.935C164.218 16.1483 164.031 17.315 163.658 18.435C163.284 19.555 162.713 20.605 161.943 21.585C161.173 22.5417 160.204 23.405 159.038 24.175C157.871 24.945 156.494 25.5867 154.908 26.1C162.211 27.5467 165.863 31.3617 165.863 37.545C165.863 39.6917 165.466 41.6517 164.673 43.425C163.879 45.175 162.724 46.6917 161.208 47.975C159.691 49.2583 157.824 50.25 155.608 50.95C153.391 51.65 150.871 52 148.048 52H129.953V1.74H146.333ZM173.452 47.905C173.452 47.275 173.568 46.68 173.802 46.12C174.035 45.56 174.35 45.07 174.747 44.65C175.167 44.23 175.657 43.9033 176.217 43.67C176.777 43.4133 177.383 43.285 178.037 43.285C178.667 43.285 179.262 43.4133 179.822 43.67C180.382 43.9033 180.872 44.23 181.292 44.65C181.712 45.07 182.038 45.56 182.272 46.12C182.528 46.68 182.657 47.275 182.657 47.905C182.657 48.5583 182.528 49.165 182.272 49.725C182.038 50.285 181.712 50.775 181.292 51.195C180.872 51.615 180.382 51.9417 179.822 52.175C179.262 52.4083 178.667 52.525 178.037 52.525C177.383 52.525 176.777 52.4083 176.217 52.175C175.657 51.9417 175.167 51.615 174.747 51.195C174.35 50.775 174.035 50.285 173.802 49.725C173.568 49.165 173.452 48.5583 173.452 47.905ZM173.452 22.005C173.452 21.375 173.568 20.78 173.802 20.22C174.035 19.66 174.35 19.17 174.747 18.75C175.167 18.33 175.657 18.0033 176.217 17.77C176.777 17.5133 177.383 17.385 178.037 17.385C178.667 17.385 179.262 17.5133 179.822 17.77C180.382 18.0033 180.872 18.33 181.292 18.75C181.712 19.17 182.038 19.66 182.272 20.22C182.528 20.78 182.657 21.375 182.657 22.005C182.657 22.6583 182.528 23.265 182.272 23.825C182.038 24.385 181.712 24.875 181.292 25.295C180.872 25.715 180.382 26.0417 179.822 26.275C179.262 26.5083 178.667 26.625 178.037 26.625C177.383 26.625 176.777 26.5083 176.217 26.275C175.657 26.0417 175.167 25.715 174.747 25.295C174.35 24.875 174.035 24.385 173.802 23.825C173.568 23.265 173.452 22.6583 173.452 22.005ZM214.884 16.58C214.884 19.6833 215.724 22.075 217.404 23.755C219.084 25.435 221.417 26.275 224.404 26.275C226.014 26.275 227.437 26.0183 228.674 25.505C229.91 24.9683 230.949 24.2683 231.789 23.405C232.652 22.5183 233.305 21.5033 233.749 20.36C234.192 19.1933 234.414 17.98 234.414 16.72C234.414 15.2033 234.169 13.8383 233.679 12.625C233.212 11.3883 232.547 10.35 231.684 9.51C230.82 8.64666 229.794 7.99333 228.604 7.55C227.437 7.08333 226.142 6.85 224.719 6.85C223.249 6.85 221.907 7.095 220.694 7.585C219.48 8.05166 218.442 8.71666 217.579 9.58C216.715 10.4433 216.05 11.47 215.584 12.66C215.117 13.85 214.884 15.1567 214.884 16.58ZM228.674 32.12C229.584 30.93 230.435 29.7633 231.229 28.62C229.969 29.5767 228.557 30.3 226.994 30.79C225.454 31.28 223.809 31.525 222.059 31.525C220.215 31.525 218.442 31.21 216.739 30.58C215.059 29.95 213.565 29.0283 212.259 27.815C210.975 26.5783 209.949 25.0617 209.179 23.265C208.409 21.4683 208.024 19.4033 208.024 17.07C208.024 14.8767 208.432 12.8117 209.249 10.875C210.065 8.93833 211.209 7.25833 212.679 5.835C214.172 4.38833 215.945 3.25667 217.999 2.44C220.075 1.6 222.35 1.18 224.824 1.18C227.274 1.18 229.49 1.57666 231.474 2.37C233.48 3.16333 235.184 4.28333 236.584 5.73C237.984 7.15333 239.069 8.86833 239.839 10.875C240.609 12.8817 240.994 15.0867 240.994 17.49C240.994 18.96 240.854 20.36 240.574 21.69C240.317 23.02 239.932 24.315 239.419 25.575C238.929 26.835 238.322 28.0833 237.599 29.32C236.899 30.5333 236.094 31.7817 235.184 33.065L223.109 50.39C222.782 50.8567 222.304 51.2417 221.674 51.545C221.067 51.8483 220.367 52 219.574 52H213.309L228.674 32.12ZM259.269 1.145C260.902 1.145 262.396 1.40166 263.749 1.915C265.102 2.405 266.246 3.12833 267.179 4.085C268.136 5.01833 268.871 6.16166 269.384 7.515C269.921 8.845 270.189 10.35 270.189 12.03C270.189 13.7333 269.921 15.2617 269.384 16.615C268.871 17.9683 268.136 19.1233 267.179 20.08C266.246 21.0133 265.102 21.7367 263.749 22.25C262.396 22.7633 260.902 23.02 259.269 23.02C257.612 23.02 256.107 22.7633 254.754 22.25C253.401 21.7367 252.246 21.0133 251.289 20.08C250.332 19.1233 249.586 17.9683 249.049 16.615C248.536 15.2617 248.279 13.7333 248.279 12.03C248.279 10.35 248.536 8.845 249.049 7.515C249.586 6.16166 250.332 5.01833 251.289 4.085C252.246 3.12833 253.401 2.405 254.754 1.915C256.107 1.40166 257.612 1.145 259.269 1.145ZM259.269 18.925C262.979 18.925 264.834 16.6383 264.834 12.065C264.834 7.49167 262.979 5.205 259.269 5.205C257.332 5.205 255.909 5.78833 254.999 6.955C254.089 8.09833 253.634 9.80167 253.634 12.065C253.634 14.3283 254.089 16.0433 254.999 17.21C255.909 18.3533 257.332 18.925 259.269 18.925ZM314.938 36.215C312.162 36.3083 309.805 36.53 307.868 36.88C305.932 37.2067 304.357 37.65 303.143 38.21C301.93 38.77 301.055 39.435 300.518 40.205C299.982 40.9517 299.713 41.7917 299.713 42.725C299.713 43.6117 299.853 44.3817 300.133 45.035C300.437 45.665 300.833 46.19 301.323 46.61C301.837 47.0067 302.432 47.2983 303.108 47.485C303.785 47.6717 304.52 47.765 305.313 47.765C306.363 47.765 307.32 47.66 308.183 47.45C309.07 47.24 309.898 46.9483 310.668 46.575C311.438 46.1783 312.173 45.7 312.873 45.14C313.573 44.58 314.262 43.9383 314.938 43.215V36.215ZM294.918 21.41C296.902 19.52 299.048 18.1083 301.358 17.175C303.692 16.2417 306.247 15.775 309.023 15.775C311.053 15.775 312.85 16.1133 314.413 16.79C315.977 17.4433 317.295 18.365 318.368 19.555C319.442 20.745 320.247 22.1683 320.783 23.825C321.343 25.4817 321.623 27.3133 321.623 29.32V52H318.578C317.902 52 317.388 51.895 317.038 51.685C316.688 51.4517 316.408 51.0317 316.198 50.425L315.463 47.31C314.553 48.15 313.655 48.8967 312.768 49.55C311.882 50.18 310.948 50.7283 309.968 51.195C309.012 51.6383 307.985 51.9767 306.888 52.21C305.792 52.4433 304.578 52.56 303.248 52.56C301.848 52.56 300.53 52.3733 299.293 52C298.08 51.6033 297.018 51.0083 296.108 50.215C295.198 49.4217 294.475 48.43 293.938 47.24C293.425 46.05 293.168 44.6617 293.168 43.075C293.168 41.675 293.542 40.3333 294.288 39.05C295.058 37.7433 296.295 36.5767 297.998 35.55C299.725 34.5233 301.965 33.6833 304.718 33.03C307.495 32.3767 310.902 32.0033 314.938 31.91V29.32C314.938 26.6367 314.367 24.63 313.223 23.3C312.08 21.97 310.4 21.305 308.183 21.305C306.69 21.305 305.43 21.4917 304.403 21.865C303.4 22.2383 302.525 22.6583 301.778 23.125C301.055 23.5683 300.413 23.9767 299.853 24.35C299.317 24.7233 298.757 24.91 298.173 24.91C297.707 24.91 297.298 24.7817 296.948 24.525C296.622 24.2683 296.353 23.965 296.143 23.615L294.918 21.41ZM337.165 21.375C337.935 20.5583 338.74 19.8117 339.58 19.135C340.42 18.4583 341.307 17.8867 342.24 17.42C343.197 16.93 344.212 16.5567 345.285 16.3C346.382 16.02 347.548 15.88 348.785 15.88C350.745 15.88 352.46 16.2067 353.93 16.86C355.423 17.5133 356.672 18.435 357.675 19.625C358.678 20.7917 359.437 22.2033 359.95 23.86C360.463 25.5167 360.72 27.3483 360.72 29.355V52H353.86V29.355C353.86 26.8117 353.277 24.84 352.11 23.44C350.943 22.0167 349.158 21.305 346.755 21.305C345.005 21.305 343.36 21.725 341.82 22.565C340.303 23.3817 338.892 24.5017 337.585 25.925V52H330.76V16.44H334.855C335.812 16.44 336.407 16.895 336.64 17.805L337.165 21.375ZM385.085 15.88C387.698 15.88 390.055 16.3117 392.155 17.175C394.278 18.015 396.075 19.24 397.545 20.85C399.038 22.4367 400.181 24.3617 400.975 26.625C401.768 28.865 402.165 31.385 402.165 34.185C402.165 36.985 401.768 39.5167 400.975 41.78C400.181 44.0433 399.038 45.9683 397.545 47.555C396.075 49.1417 394.278 50.3667 392.155 51.23C390.055 52.07 387.698 52.49 385.085 52.49C382.448 52.49 380.068 52.07 377.945 51.23C375.845 50.3667 374.048 49.1417 372.555 47.555C371.061 45.9683 369.906 44.0433 369.09 41.78C368.296 39.5167 367.9 36.985 367.9 34.185C367.9 31.385 368.296 28.865 369.09 26.625C369.906 24.3617 371.061 22.4367 372.555 20.85C374.048 19.24 375.845 18.015 377.945 17.175C380.068 16.3117 382.448 15.88 385.085 15.88ZM385.085 47.17C388.445 47.17 390.953 46.0383 392.61 43.775C394.266 41.5117 395.095 38.3267 395.095 34.22C395.095 30.1133 394.266 26.9283 392.61 24.665C390.953 22.3783 388.445 21.235 385.085 21.235C381.678 21.235 379.135 22.3783 377.455 24.665C375.798 26.9283 374.97 30.1133 374.97 34.22C374.97 38.3267 375.798 41.5117 377.455 43.775C379.135 46.0383 381.678 47.17 385.085 47.17ZM460.073 45.945L460.038 52H428.888V1.74H460.038V7.795H436.378V23.72H455.418V29.565H436.378V45.945H460.073ZM476.779 7.795V24.63H496.939V30.685H476.779V52H469.289V1.74H500.439V7.795H476.779ZM532.423 52H524.933V1.74H532.423V52ZM552.316 52H544.826V1.74H552.316V52ZM580.499 28.06H597.999V33.87H580.499V28.06ZM679.024 1.74V52H672.514V16.23C672.514 15.6933 672.525 15.1217 672.549 14.515C672.595 13.9083 672.642 13.29 672.689 12.66L655.959 43.355C655.375 44.4983 654.477 45.07 653.264 45.07H652.214C651 45.07 650.114 44.4983 649.554 43.355L632.509 12.555C632.649 13.8617 632.719 15.0867 632.719 16.23V52H626.174V1.74H631.704C632.357 1.74 632.859 1.81 633.209 1.95C633.582 2.06666 633.932 2.41666 634.259 3L651.059 33.1C651.385 33.7067 651.689 34.3483 651.969 35.025C652.249 35.7017 652.517 36.3783 652.774 37.055C653.264 35.6783 653.835 34.3483 654.489 33.065L670.974 3C671.277 2.41666 671.604 2.06666 671.954 1.95C672.327 1.81 672.84 1.74 673.494 1.74H679.024ZM712.518 30.265C712.518 28.9117 712.32 27.6633 711.923 26.52C711.55 25.3767 710.99 24.385 710.243 23.545C709.496 22.705 708.586 22.0517 707.513 21.585C706.44 21.1183 705.203 20.885 703.803 20.885C700.933 20.885 698.67 21.7133 697.013 23.37C695.38 25.0267 694.341 27.325 693.898 30.265H712.518ZM718.153 46.925C717.313 47.905 716.345 48.7567 715.248 49.48C714.151 50.18 712.985 50.7517 711.748 51.195C710.511 51.6383 709.228 51.965 707.898 52.175C706.591 52.385 705.296 52.49 704.013 52.49C701.563 52.49 699.288 52.0817 697.188 51.265C695.111 50.425 693.303 49.2117 691.763 47.625C690.246 46.015 689.056 44.0317 688.193 41.675C687.353 39.295 686.933 36.565 686.933 33.485C686.933 31.0117 687.318 28.7133 688.088 26.59C688.858 24.4433 689.955 22.5767 691.378 20.99C692.825 19.4033 694.586 18.155 696.663 17.245C698.74 16.335 701.073 15.88 703.663 15.88C705.833 15.88 707.828 16.2417 709.648 16.965C711.491 17.665 713.078 18.6917 714.408 20.045C715.738 21.3983 716.776 23.0667 717.523 25.05C718.293 27.0333 718.678 29.2967 718.678 31.84C718.678 32.89 718.561 33.6017 718.328 33.975C718.095 34.325 717.663 34.5 717.033 34.5H693.723C693.793 36.6233 694.096 38.4783 694.633 40.065C695.17 41.6283 695.905 42.935 696.838 43.985C697.795 45.035 698.926 45.8167 700.233 46.33C701.54 46.8433 702.998 47.1 704.608 47.1C706.125 47.1 707.431 46.925 708.528 46.575C709.648 46.225 710.605 45.8517 711.398 45.455C712.215 45.035 712.891 44.65 713.428 44.3C713.988 43.95 714.478 43.775 714.898 43.775C715.458 43.775 715.89 43.985 716.193 44.405L718.153 46.925ZM736.87 52.56C734 52.56 731.784 51.755 730.22 50.145C728.68 48.535 727.91 46.2367 727.91 43.25V21.97H723.78C723.384 21.97 723.045 21.8533 722.765 21.62C722.509 21.3633 722.38 20.99 722.38 20.5V17.735L728.155 16.93L729.695 6.325C729.789 5.92833 729.964 5.625 730.22 5.415C730.5 5.18166 730.85 5.065 731.27 5.065H734.735V17H744.815V21.97H734.735V42.795C734.735 44.195 735.074 45.245 735.75 45.945C736.45 46.6217 737.337 46.96 738.41 46.96C739.04 46.96 739.577 46.8783 740.02 46.715C740.487 46.5517 740.884 46.3767 741.21 46.19C741.537 45.98 741.817 45.7933 742.05 45.63C742.284 45.4667 742.494 45.385 742.68 45.385C742.914 45.385 743.089 45.4433 743.205 45.56C743.345 45.6533 743.485 45.8167 743.625 46.05L745.655 49.34C744.535 50.3667 743.205 51.16 741.665 51.72C740.125 52.28 738.527 52.56 736.87 52.56ZM770.212 36.215C767.435 36.3083 765.078 36.53 763.142 36.88C761.205 37.2067 759.63 37.65 758.417 38.21C757.203 38.77 756.328 39.435 755.792 40.205C755.255 40.9517 754.987 41.7917 754.987 42.725C754.987 43.6117 755.127 44.3817 755.407 45.035C755.71 45.665 756.107 46.19 756.597 46.61C757.11 47.0067 757.705 47.2983 758.382 47.485C759.058 47.6717 759.793 47.765 760.587 47.765C761.637 47.765 762.593 47.66 763.457 47.45C764.343 47.24 765.172 46.9483 765.942 46.575C766.712 46.1783 767.447 45.7 768.147 45.14C768.847 44.58 769.535 43.9383 770.212 43.215V36.215ZM750.192 21.41C752.175 19.52 754.322 18.1083 756.632 17.175C758.965 16.2417 761.52 15.775 764.297 15.775C766.327 15.775 768.123 16.1133 769.687 16.79C771.25 17.4433 772.568 18.365 773.642 19.555C774.715 20.745 775.52 22.1683 776.057 23.825C776.617 25.4817 776.897 27.3133 776.897 29.32V52H773.852C773.175 52 772.662 51.895 772.312 51.685C771.962 51.4517 771.682 51.0317 771.472 50.425L770.737 47.31C769.827 48.15 768.928 48.8967 768.042 49.55C767.155 50.18 766.222 50.7283 765.242 51.195C764.285 51.6383 763.258 51.9767 762.162 52.21C761.065 52.4433 759.852 52.56 758.522 52.56C757.122 52.56 755.803 52.3733 754.567 52C753.353 51.6033 752.292 51.0083 751.382 50.215C750.472 49.4217 749.748 48.43 749.212 47.24C748.698 46.05 748.442 44.6617 748.442 43.075C748.442 41.675 748.815 40.3333 749.562 39.05C750.332 37.7433 751.568 36.5767 753.272 35.55C754.998 34.5233 757.238 33.6833 759.992 33.03C762.768 32.3767 766.175 32.0033 770.212 31.91V29.32C770.212 26.6367 769.64 24.63 768.497 23.3C767.353 21.97 765.673 21.305 763.457 21.305C761.963 21.305 760.703 21.4917 759.677 21.865C758.673 22.2383 757.798 22.6583 757.052 23.125C756.328 23.5683 755.687 23.9767 755.127 24.35C754.59 24.7233 754.03 24.91 753.447 24.91C752.98 24.91 752.572 24.7817 752.222 24.525C751.895 24.2683 751.627 23.965 751.417 23.615L750.192 21.41ZM806.998 22.565C806.812 22.8683 806.613 23.09 806.403 23.23C806.193 23.3467 805.925 23.405 805.598 23.405C805.225 23.405 804.805 23.2767 804.338 23.02C803.895 22.7633 803.347 22.4833 802.693 22.18C802.063 21.8767 801.317 21.5967 800.453 21.34C799.59 21.0833 798.563 20.955 797.373 20.955C796.393 20.955 795.495 21.0833 794.678 21.34C793.885 21.5733 793.208 21.9117 792.648 22.355C792.088 22.775 791.657 23.2883 791.353 23.895C791.05 24.4783 790.898 25.1083 790.898 25.785C790.898 26.6717 791.155 27.4067 791.668 27.99C792.205 28.5733 792.893 29.075 793.733 29.495C794.597 29.915 795.565 30.3 796.638 30.65C797.735 30.9767 798.843 31.3267 799.963 31.7C801.107 32.0733 802.215 32.505 803.288 32.995C804.385 33.4617 805.353 34.0567 806.193 34.78C807.057 35.48 807.745 36.3317 808.258 37.335C808.795 38.3383 809.063 39.5633 809.063 41.01C809.063 42.6667 808.76 44.2067 808.153 45.63C807.57 47.03 806.695 48.2433 805.528 49.27C804.385 50.2967 802.962 51.1017 801.258 51.685C799.555 52.2683 797.607 52.56 795.413 52.56C792.963 52.56 790.7 52.1517 788.623 51.335C786.547 50.5183 784.808 49.48 783.408 48.22L785.018 45.595C785.205 45.2683 785.438 45.0233 785.718 44.86C785.998 44.6733 786.372 44.58 786.838 44.58C787.282 44.58 787.737 44.7433 788.203 45.07C788.67 45.3967 789.23 45.7583 789.883 46.155C790.537 46.5283 791.33 46.8783 792.263 47.205C793.197 47.5083 794.363 47.66 795.763 47.66C796.93 47.66 797.945 47.52 798.808 47.24C799.672 46.9367 800.383 46.54 800.943 46.05C801.527 45.5367 801.958 44.9533 802.238 44.3C802.518 43.6467 802.658 42.9583 802.658 42.235C802.658 41.3017 802.39 40.5317 801.853 39.925C801.34 39.295 800.652 38.7583 799.788 38.315C798.948 37.8717 797.98 37.4867 796.883 37.16C795.787 36.8333 794.667 36.4833 793.523 36.11C792.38 35.7367 791.26 35.305 790.163 34.815C789.067 34.325 788.087 33.7067 787.223 32.96C786.383 32.2133 785.695 31.3033 785.158 30.23C784.645 29.1567 784.388 27.85 784.388 26.31C784.388 24.9333 784.668 23.615 785.228 22.355C785.812 21.095 786.64 19.9867 787.713 19.03C788.81 18.0733 790.152 17.315 791.738 16.755C793.348 16.1717 795.18 15.88 797.233 15.88C799.59 15.88 801.713 16.2533 803.603 17C805.517 17.7467 807.15 18.7733 808.503 20.08L806.998 22.565ZM857.083 25.05C855.963 23.58 854.75 22.5533 853.443 21.97C852.16 21.3867 850.713 21.095 849.103 21.095C845.977 21.095 843.55 22.2267 841.823 24.49C840.12 26.73 839.268 30.0083 839.268 34.325C839.268 36.5883 839.455 38.525 839.828 40.135C840.225 41.7217 840.785 43.0283 841.508 44.055C842.255 45.0583 843.165 45.805 844.238 46.295C845.312 46.7617 846.525 46.995 847.878 46.995C849.862 46.995 851.577 46.5517 853.023 45.665C854.47 44.7783 855.823 43.53 857.083 41.92V25.05ZM863.943 0.339998V52H859.813C858.857 52 858.262 51.545 858.028 50.635L857.433 46.54C855.917 48.3367 854.19 49.7833 852.253 50.88C850.34 51.9533 848.123 52.49 845.603 52.49C843.573 52.49 841.73 52.0933 840.073 51.3C838.44 50.5067 837.04 49.3517 835.873 47.835C834.707 46.295 833.808 44.3933 833.178 42.13C832.548 39.8667 832.233 37.265 832.233 34.325C832.233 31.6883 832.583 29.2383 833.283 26.975C833.983 24.7117 834.998 22.7517 836.328 21.095C837.658 19.4383 839.268 18.1433 841.158 17.21C843.048 16.2533 845.183 15.775 847.563 15.775C849.71 15.775 851.53 16.125 853.023 16.825C854.54 17.525 855.893 18.5167 857.083 19.8V0.339998H863.943ZM897.02 30.265C897.02 28.9117 896.822 27.6633 896.425 26.52C896.052 25.3767 895.492 24.385 894.745 23.545C893.998 22.705 893.088 22.0517 892.015 21.585C890.942 21.1183 889.705 20.885 888.305 20.885C885.435 20.885 883.172 21.7133 881.515 23.37C879.882 25.0267 878.843 27.325 878.4 30.265H897.02ZM902.655 46.925C901.815 47.905 900.847 48.7567 899.75 49.48C898.653 50.18 897.487 50.7517 896.25 51.195C895.013 51.6383 893.73 51.965 892.4 52.175C891.093 52.385 889.798 52.49 888.515 52.49C886.065 52.49 883.79 52.0817 881.69 51.265C879.613 50.425 877.805 49.2117 876.265 47.625C874.748 46.015 873.558 44.0317 872.695 41.675C871.855 39.295 871.435 36.565 871.435 33.485C871.435 31.0117 871.82 28.7133 872.59 26.59C873.36 24.4433 874.457 22.5767 875.88 20.99C877.327 19.4033 879.088 18.155 881.165 17.245C883.242 16.335 885.575 15.88 888.165 15.88C890.335 15.88 892.33 16.2417 894.15 16.965C895.993 17.665 897.58 18.6917 898.91 20.045C900.24 21.3983 901.278 23.0667 902.025 25.05C902.795 27.0333 903.18 29.2967 903.18 31.84C903.18 32.89 903.063 33.6017 902.83 33.975C902.597 34.325 902.165 34.5 901.535 34.5H878.225C878.295 36.6233 878.598 38.4783 879.135 40.065C879.672 41.6283 880.407 42.935 881.34 43.985C882.297 45.035 883.428 45.8167 884.735 46.33C886.042 46.8433 887.5 47.1 889.11 47.1C890.627 47.1 891.933 46.925 893.03 46.575C894.15 46.225 895.107 45.8517 895.9 45.455C896.717 45.035 897.393 44.65 897.93 44.3C898.49 43.95 898.98 43.775 899.4 43.775C899.96 43.775 900.392 43.985 900.695 44.405L902.655 46.925ZM937.111 7.795V24.63H957.271V30.685H937.111V52H929.621V1.74H960.771V7.795H937.111ZM994.778 16.44V52H990.683C989.75 52 989.143 51.545 988.863 50.635L988.373 47.065C987.603 47.8817 986.798 48.6283 985.958 49.305C985.118 49.9817 984.22 50.565 983.263 51.055C982.307 51.5217 981.292 51.8833 980.218 52.14C979.145 52.42 977.99 52.56 976.753 52.56C974.793 52.56 973.067 52.2333 971.573 51.58C970.103 50.9267 968.867 50.0167 967.863 48.85C966.86 47.66 966.102 46.2367 965.588 44.58C965.075 42.9233 964.818 41.0917 964.818 39.085V16.44H971.678V39.085C971.678 41.6283 972.262 43.6117 973.428 45.035C974.595 46.435 976.38 47.135 978.783 47.135C980.533 47.135 982.167 46.7267 983.683 45.91C985.2 45.07 986.623 43.9267 987.953 42.48V16.44H994.778ZM1010.71 21.375C1011.48 20.5583 1012.28 19.8117 1013.12 19.135C1013.96 18.4583 1014.85 17.8867 1015.78 17.42C1016.74 16.93 1017.76 16.5567 1018.83 16.3C1019.93 16.02 1021.09 15.88 1022.33 15.88C1024.29 15.88 1026 16.2067 1027.47 16.86C1028.97 17.5133 1030.22 18.435 1031.22 19.625C1032.22 20.7917 1032.98 22.2033 1033.49 23.86C1034.01 25.5167 1034.26 27.3483 1034.26 29.355V52H1027.4V29.355C1027.4 26.8117 1026.82 24.84 1025.65 23.44C1024.49 22.0167 1022.7 21.305 1020.3 21.305C1018.55 21.305 1016.9 21.725 1015.36 22.565C1013.85 23.3817 1012.44 24.5017 1011.13 25.925V52H1004.3V16.44H1008.4C1009.36 16.44 1009.95 16.895 1010.18 17.805L1010.71 21.375ZM1066.4 25.05C1065.28 23.58 1064.07 22.5533 1062.76 21.97C1061.48 21.3867 1060.03 21.095 1058.42 21.095C1055.29 21.095 1052.87 22.2267 1051.14 24.49C1049.44 26.73 1048.58 30.0083 1048.58 34.325C1048.58 36.5883 1048.77 38.525 1049.14 40.135C1049.54 41.7217 1050.1 43.0283 1050.82 44.055C1051.57 45.0583 1052.48 45.805 1053.55 46.295C1054.63 46.7617 1055.84 46.995 1057.19 46.995C1059.18 46.995 1060.89 46.5517 1062.34 45.665C1063.79 44.7783 1065.14 43.53 1066.4 41.92V25.05ZM1073.26 0.339998V52H1069.13C1068.17 52 1067.58 51.545 1067.34 50.635L1066.75 46.54C1065.23 48.3367 1063.51 49.7833 1061.57 50.88C1059.66 51.9533 1057.44 52.49 1054.92 52.49C1052.89 52.49 1051.05 52.0933 1049.39 51.3C1047.76 50.5067 1046.36 49.3517 1045.19 47.835C1044.02 46.295 1043.12 44.3933 1042.49 42.13C1041.86 39.8667 1041.55 37.265 1041.55 34.325C1041.55 31.6883 1041.9 29.2383 1042.6 26.975C1043.3 24.7117 1044.31 22.7517 1045.64 21.095C1046.97 19.4383 1048.58 18.1433 1050.47 17.21C1052.36 16.2533 1054.5 15.775 1056.88 15.775C1059.03 15.775 1060.85 16.125 1062.34 16.825C1063.86 17.525 1065.21 18.5167 1066.4 19.8V0.339998H1073.26ZM1109.38 52H1101.89V1.74H1109.38V52ZM1129.27 52H1121.78V1.74H1129.27V52Z" fill="#4C5773"/>
</svg>
