<svg width="533" height="52" viewBox="0 0 533 52" fill="none" xmlns="http://www.w3.org/2000/svg">
<path d="M30.6463 8.93C30.413 9.32666 30.168 9.61833 29.9113 9.805C29.6546 9.99167 29.328 10.085 28.9313 10.085C28.5113 10.085 28.033 9.89833 27.4963 9.525C26.9596 9.12833 26.283 8.69667 25.4663 8.23C24.673 7.74 23.7163 7.30833 22.5963 6.935C21.4763 6.53833 20.1346 6.34 18.5713 6.34C17.1013 6.34 15.8063 6.53833 14.6863 6.935C13.5896 7.30833 12.668 7.83333 11.9213 8.51C11.1746 9.16333 10.603 9.945 10.2063 10.855C9.83296 11.7417 9.64629 12.71 9.64629 13.76C9.64629 15.1133 9.98462 16.2333 10.6613 17.12C11.3613 18.0067 12.2713 18.765 13.3913 19.395C14.5113 20.025 15.783 20.5733 17.2063 21.04C18.6296 21.5067 20.088 21.9967 21.5813 22.51C23.0746 23 24.533 23.5717 25.9563 24.225C27.3796 24.8783 28.6513 25.7067 29.7713 26.71C30.8913 27.69 31.7896 28.9033 32.4663 30.35C33.1663 31.7733 33.5163 33.5233 33.5163 35.6C33.5163 37.8167 33.1313 39.8933 32.3613 41.83C31.6146 43.7667 30.518 45.4583 29.0713 46.905C27.6246 48.3517 25.8396 49.495 23.7163 50.335C21.6163 51.1517 19.2246 51.56 16.5413 51.56C14.9313 51.56 13.368 51.3967 11.8513 51.07C10.3346 50.7667 8.89962 50.335 7.54629 49.775C6.19296 49.1917 4.92129 48.5033 3.73129 47.71C2.56462 46.8933 1.51462 45.9833 0.581289 44.98L2.71629 41.41C2.92629 41.13 3.17129 40.8967 3.45129 40.71C3.75462 40.5233 4.09296 40.43 4.46629 40.43C4.95629 40.43 5.51629 40.6867 6.14629 41.2C6.79962 41.7133 7.59296 42.285 8.52629 42.915C9.48296 43.5217 10.6146 44.0817 11.9213 44.595C13.2513 45.1083 14.8613 45.365 16.7513 45.365C18.2913 45.365 19.668 45.1667 20.8813 44.77C22.0946 44.35 23.1096 43.7667 23.9263 43.02C24.7663 42.25 25.408 41.3283 25.8513 40.255C26.2946 39.1817 26.5163 37.9917 26.5163 36.685C26.5163 35.215 26.178 34.0133 25.5013 33.08C24.8246 32.1467 23.9263 31.365 22.8063 30.735C21.6863 30.105 20.4146 29.5683 18.9913 29.125C17.568 28.6817 16.1096 28.2267 14.6163 27.76C13.123 27.27 11.6646 26.71 10.2413 26.08C8.81796 25.45 7.54629 24.6333 6.42629 23.63C5.30629 22.6033 4.40796 21.3317 3.73129 19.815C3.05462 18.275 2.71629 16.385 2.71629 14.145C2.71629 12.3483 3.06629 10.61 3.76629 8.93C4.46629 7.25 5.48129 5.76833 6.81129 4.485C8.16462 3.17833 9.82129 2.14 11.7813 1.37C13.7413 0.576665 15.9813 0.179999 18.5013 0.179999C21.3246 0.179999 23.9146 0.634998 26.2713 1.545C28.6513 2.43166 30.7163 3.715 32.4663 5.395L30.6463 8.93ZM68.4654 32.275L61.0104 12.78C60.4738 11.45 59.9371 9.77 59.4004 7.74C59.1438 8.74333 58.8754 9.67666 58.5954 10.54C58.3388 11.4033 58.0821 12.1733 57.8254 12.85L50.4054 32.275H68.4654ZM83.2004 51H77.4604C76.8071 51 76.2704 50.8367 75.8504 50.51C75.4304 50.1833 75.1271 49.7633 74.9404 49.25L70.4954 37.595H48.3404L43.8954 49.25C43.7321 49.6933 43.4288 50.1017 42.9854 50.475C42.5421 50.825 42.0054 51 41.3754 51H35.6354L55.6554 0.739996H63.1804L83.2004 51ZM120.66 44.945L120.625 51H89.4753V0.739996H120.625V6.795H96.9653V22.72H116.005V28.565H96.9653V44.945H120.66ZM147.831 45.085C149.721 45.085 151.331 44.8633 152.661 44.42C154.014 43.9767 155.111 43.37 155.951 42.6C156.814 41.83 157.444 40.92 157.841 39.87C158.237 38.7967 158.436 37.63 158.436 36.37C158.436 33.8733 157.572 31.9133 155.846 30.49C154.119 29.0433 151.447 28.32 147.831 28.32H137.331V45.085H147.831ZM137.331 6.585V23.035H145.906C149.569 23.035 152.287 22.3 154.061 20.83C155.857 19.3367 156.756 17.33 156.756 14.81C156.756 11.94 155.904 9.85166 154.201 8.545C152.497 7.23833 149.849 6.585 146.256 6.585H137.331ZM146.256 0.739996C149.406 0.739996 152.101 1.04333 154.341 1.65C156.604 2.25666 158.459 3.13166 159.906 4.275C161.352 5.41833 162.414 6.80667 163.091 8.44C163.791 10.05 164.141 11.8817 164.141 13.935C164.141 15.1483 163.954 16.315 163.581 17.435C163.207 18.555 162.636 19.605 161.866 20.585C161.096 21.5417 160.127 22.405 158.961 23.175C157.794 23.945 156.417 24.5867 154.831 25.1C162.134 26.5467 165.786 30.3617 165.786 36.545C165.786 38.6917 165.389 40.6517 164.596 42.425C163.802 44.175 162.647 45.6917 161.131 46.975C159.614 48.2583 157.747 49.25 155.531 49.95C153.314 50.65 150.794 51 147.971 51H129.876V0.739996H146.256ZM173.375 46.905C173.375 46.275 173.491 45.68 173.725 45.12C173.958 44.56 174.273 44.07 174.67 43.65C175.09 43.23 175.58 42.9033 176.14 42.67C176.7 42.4133 177.306 42.285 177.96 42.285C178.59 42.285 179.185 42.4133 179.745 42.67C180.305 42.9033 180.795 43.23 181.215 43.65C181.635 44.07 181.961 44.56 182.195 45.12C182.451 45.68 182.58 46.275 182.58 46.905C182.58 47.5583 182.451 48.165 182.195 48.725C181.961 49.285 181.635 49.775 181.215 50.195C180.795 50.615 180.305 50.9417 179.745 51.175C179.185 51.4083 178.59 51.525 177.96 51.525C177.306 51.525 176.7 51.4083 176.14 51.175C175.58 50.9417 175.09 50.615 174.67 50.195C174.273 49.775 173.958 49.285 173.725 48.725C173.491 48.165 173.375 47.5583 173.375 46.905ZM173.375 21.005C173.375 20.375 173.491 19.78 173.725 19.22C173.958 18.66 174.273 18.17 174.67 17.75C175.09 17.33 175.58 17.0033 176.14 16.77C176.7 16.5133 177.306 16.385 177.96 16.385C178.59 16.385 179.185 16.5133 179.745 16.77C180.305 17.0033 180.795 17.33 181.215 17.75C181.635 18.17 181.961 18.66 182.195 19.22C182.451 19.78 182.58 20.375 182.58 21.005C182.58 21.6583 182.451 22.265 182.195 22.825C181.961 23.385 181.635 23.875 181.215 24.295C180.795 24.715 180.305 25.0417 179.745 25.275C179.185 25.5083 178.59 25.625 177.96 25.625C177.306 25.625 176.7 25.5083 176.14 25.275C175.58 25.0417 175.09 24.715 174.67 24.295C174.273 23.875 173.958 23.385 173.725 22.825C173.491 22.265 173.375 21.6583 173.375 21.005ZM238.991 44.525C239.738 44.525 240.321 44.7467 240.741 45.19C241.161 45.61 241.371 46.17 241.371 46.87V51H207.631V48.655C207.631 48.1883 207.725 47.6983 207.911 47.185C208.098 46.6483 208.413 46.17 208.856 45.75L224.746 29.825C226.076 28.495 227.278 27.2117 228.351 25.975C229.425 24.7383 230.335 23.5133 231.081 22.3C231.828 21.0633 232.4 19.8033 232.796 18.52C233.216 17.2367 233.426 15.8833 233.426 14.46C233.426 13.06 233.205 11.835 232.761 10.785C232.318 9.71166 231.711 8.825 230.941 8.125C230.171 7.425 229.261 6.9 228.211 6.55C227.161 6.2 226.03 6.025 224.816 6.025C223.603 6.025 222.483 6.2 221.456 6.55C220.453 6.9 219.555 7.39 218.761 8.02C217.968 8.65 217.303 9.39666 216.766 10.26C216.23 11.1233 215.845 12.0567 215.611 13.06C215.285 13.9467 214.865 14.5417 214.351 14.845C213.861 15.1483 213.138 15.2183 212.181 15.055L208.611 14.425C208.938 12.0917 209.58 10.0383 210.536 8.265C211.493 6.49166 212.695 5.01 214.141 3.82C215.588 2.60666 217.245 1.69666 219.111 1.09C221.001 0.483331 223.031 0.179999 225.201 0.179999C227.395 0.179999 229.413 0.506666 231.256 1.16C233.123 1.79 234.733 2.71166 236.086 3.925C237.44 5.13833 238.501 6.62 239.271 8.37C240.041 10.0967 240.426 12.0567 240.426 14.25C240.426 16.1167 240.146 17.855 239.586 19.465C239.05 21.0517 238.303 22.5683 237.346 24.015C236.413 25.4617 235.316 26.8733 234.056 28.25C232.82 29.6033 231.501 30.98 230.101 32.38L217.361 45.4C218.341 45.1433 219.321 44.9333 220.301 44.77C221.305 44.6067 222.25 44.525 223.136 44.525H238.991ZM259.192 0.144998C260.825 0.144998 262.319 0.401664 263.672 0.914996C265.025 1.405 266.169 2.12833 267.102 3.085C268.059 4.01833 268.794 5.16166 269.307 6.515C269.844 7.845 270.112 9.35 270.112 11.03C270.112 12.7333 269.844 14.2617 269.307 15.615C268.794 16.9683 268.059 18.1233 267.102 19.08C266.169 20.0133 265.025 20.7367 263.672 21.25C262.319 21.7633 260.825 22.02 259.192 22.02C257.535 22.02 256.03 21.7633 254.677 21.25C253.324 20.7367 252.169 20.0133 251.212 19.08C250.255 18.1233 249.509 16.9683 248.972 15.615C248.459 14.2617 248.202 12.7333 248.202 11.03C248.202 9.35 248.459 7.845 248.972 6.515C249.509 5.16166 250.255 4.01833 251.212 3.085C252.169 2.12833 253.324 1.405 254.677 0.914996C256.03 0.401664 257.535 0.144998 259.192 0.144998ZM259.192 17.925C262.902 17.925 264.757 15.6383 264.757 11.065C264.757 6.49167 262.902 4.205 259.192 4.205C257.255 4.205 255.832 4.78833 254.922 5.955C254.012 7.09833 253.557 8.80167 253.557 11.065C253.557 13.3283 254.012 15.0433 254.922 16.21C255.832 17.3533 257.255 17.925 259.192 17.925ZM314.861 35.215C312.084 35.3083 309.728 35.53 307.791 35.88C305.854 36.2067 304.279 36.65 303.066 37.21C301.853 37.77 300.978 38.435 300.441 39.205C299.904 39.9517 299.636 40.7917 299.636 41.725C299.636 42.6117 299.776 43.3817 300.056 44.035C300.359 44.665 300.756 45.19 301.246 45.61C301.759 46.0067 302.354 46.2983 303.031 46.485C303.708 46.6717 304.443 46.765 305.236 46.765C306.286 46.765 307.243 46.66 308.106 46.45C308.993 46.24 309.821 45.9483 310.591 45.575C311.361 45.1783 312.096 44.7 312.796 44.14C313.496 43.58 314.184 42.9383 314.861 42.215V35.215ZM294.841 20.41C296.824 18.52 298.971 17.1083 301.281 16.175C303.614 15.2417 306.169 14.775 308.946 14.775C310.976 14.775 312.773 15.1133 314.336 15.79C315.899 16.4433 317.218 17.365 318.291 18.555C319.364 19.745 320.169 21.1683 320.706 22.825C321.266 24.4817 321.546 26.3133 321.546 28.32V51H318.501C317.824 51 317.311 50.895 316.961 50.685C316.611 50.4517 316.331 50.0317 316.121 49.425L315.386 46.31C314.476 47.15 313.578 47.8967 312.691 48.55C311.804 49.18 310.871 49.7283 309.891 50.195C308.934 50.6383 307.908 50.9767 306.811 51.21C305.714 51.4433 304.501 51.56 303.171 51.56C301.771 51.56 300.453 51.3733 299.216 51C298.003 50.6033 296.941 50.0083 296.031 49.215C295.121 48.4217 294.398 47.43 293.861 46.24C293.348 45.05 293.091 43.6617 293.091 42.075C293.091 40.675 293.464 39.3333 294.211 38.05C294.981 36.7433 296.218 35.5767 297.921 34.55C299.648 33.5233 301.888 32.6833 304.641 32.03C307.418 31.3767 310.824 31.0033 314.861 30.91V28.32C314.861 25.6367 314.289 23.63 313.146 22.3C312.003 20.97 310.323 20.305 308.106 20.305C306.613 20.305 305.353 20.4917 304.326 20.865C303.323 21.2383 302.448 21.6583 301.701 22.125C300.978 22.5683 300.336 22.9767 299.776 23.35C299.239 23.7233 298.679 23.91 298.096 23.91C297.629 23.91 297.221 23.7817 296.871 23.525C296.544 23.2683 296.276 22.965 296.066 22.615L294.841 20.41ZM337.088 20.375C337.858 19.5583 338.663 18.8117 339.503 18.135C340.343 17.4583 341.229 16.8867 342.163 16.42C343.119 15.93 344.134 15.5567 345.208 15.3C346.304 15.02 347.471 14.88 348.708 14.88C350.668 14.88 352.383 15.2067 353.853 15.86C355.346 16.5133 356.594 17.435 357.598 18.625C358.601 19.7917 359.359 21.2033 359.873 22.86C360.386 24.5167 360.643 26.3483 360.643 28.355V51H353.783V28.355C353.783 25.8117 353.199 23.84 352.033 22.44C350.866 21.0167 349.081 20.305 346.678 20.305C344.928 20.305 343.283 20.725 341.743 21.565C340.226 22.3817 338.814 23.5017 337.508 24.925V51H330.683V15.44H334.778C335.734 15.44 336.329 15.895 336.563 16.805L337.088 20.375ZM385.008 14.88C387.621 14.88 389.978 15.3117 392.078 16.175C394.201 17.015 395.998 18.24 397.468 19.85C398.961 21.4367 400.104 23.3617 400.898 25.625C401.691 27.865 402.088 30.385 402.088 33.185C402.088 35.985 401.691 38.5167 400.898 40.78C400.104 43.0433 398.961 44.9683 397.468 46.555C395.998 48.1417 394.201 49.3667 392.078 50.23C389.978 51.07 387.621 51.49 385.008 51.49C382.371 51.49 379.991 51.07 377.868 50.23C375.768 49.3667 373.971 48.1417 372.478 46.555C370.984 44.9683 369.829 43.0433 369.013 40.78C368.219 38.5167 367.823 35.985 367.823 33.185C367.823 30.385 368.219 27.865 369.013 25.625C369.829 23.3617 370.984 21.4367 372.478 19.85C373.971 18.24 375.768 17.015 377.868 16.175C379.991 15.3117 382.371 14.88 385.008 14.88ZM385.008 46.17C388.368 46.17 390.876 45.0383 392.533 42.775C394.189 40.5117 395.018 37.3267 395.018 33.22C395.018 29.1133 394.189 25.9283 392.533 23.665C390.876 21.3783 388.368 20.235 385.008 20.235C381.601 20.235 379.058 21.3783 377.378 23.665C375.721 25.9283 374.893 29.1133 374.893 33.22C374.893 37.3267 375.721 40.5117 377.378 42.775C379.058 45.0383 381.601 46.17 385.008 46.17ZM459.996 44.945L459.961 51H428.811V0.739996H459.961V6.795H436.301V22.72H455.341V28.565H436.301V44.945H459.996ZM476.702 6.795V23.63H496.862V29.685H476.702V51H469.212V0.739996H500.362V6.795H476.702ZM532.346 51H524.856V0.739996H532.346V51Z" fill="#4C5773"/>
</svg>
