<svg width="553" height="52" viewBox="0 0 553 52" fill="none" xmlns="http://www.w3.org/2000/svg">
<path d="M30.7 8.93C30.4667 9.32666 30.2217 9.61833 29.965 9.805C29.7083 9.99167 29.3817 10.085 28.985 10.085C28.565 10.085 28.0867 9.89833 27.55 9.525C27.0133 9.12833 26.3367 8.69667 25.52 8.23C24.7267 7.74 23.77 7.30833 22.65 6.935C21.53 6.53833 20.1883 6.34 18.625 6.34C17.155 6.34 15.86 6.53833 14.74 6.935C13.6433 7.30833 12.7217 7.83333 11.975 8.51C11.2283 9.16333 10.6567 9.945 10.26 10.855C9.88667 11.7417 9.7 12.71 9.7 13.76C9.7 15.1133 10.0383 16.2333 10.715 17.12C11.415 18.0067 12.325 18.765 13.445 19.395C14.565 20.025 15.8367 20.5733 17.26 21.04C18.6833 21.5067 20.1417 21.9967 21.635 22.51C23.1283 23 24.5867 23.5717 26.01 24.225C27.4333 24.8783 28.705 25.7067 29.825 26.71C30.945 27.69 31.8433 28.9033 32.52 30.35C33.22 31.7733 33.57 33.5233 33.57 35.6C33.57 37.8167 33.185 39.8933 32.415 41.83C31.6683 43.7667 30.5717 45.4583 29.125 46.905C27.6783 48.3517 25.8933 49.495 23.77 50.335C21.67 51.1517 19.2783 51.56 16.595 51.56C14.985 51.56 13.4217 51.3967 11.905 51.07C10.3883 50.7667 8.95333 50.335 7.6 49.775C6.24667 49.1917 4.975 48.5033 3.785 47.71C2.61833 46.8933 1.56833 45.9833 0.635 44.98L2.77 41.41C2.98 41.13 3.225 40.8967 3.505 40.71C3.80833 40.5233 4.14667 40.43 4.52 40.43C5.01 40.43 5.57 40.6867 6.2 41.2C6.85333 41.7133 7.64667 42.285 8.58 42.915C9.53667 43.5217 10.6683 44.0817 11.975 44.595C13.305 45.1083 14.915 45.365 16.805 45.365C18.345 45.365 19.7217 45.1667 20.935 44.77C22.1483 44.35 23.1633 43.7667 23.98 43.02C24.82 42.25 25.4617 41.3283 25.905 40.255C26.3483 39.1817 26.57 37.9917 26.57 36.685C26.57 35.215 26.2317 34.0133 25.555 33.08C24.8783 32.1467 23.98 31.365 22.86 30.735C21.74 30.105 20.4683 29.5683 19.045 29.125C17.6217 28.6817 16.1633 28.2267 14.67 27.76C13.1767 27.27 11.7183 26.71 10.295 26.08C8.87167 25.45 7.6 24.6333 6.48 23.63C5.36 22.6033 4.46167 21.3317 3.785 19.815C3.10833 18.275 2.77 16.385 2.77 14.145C2.77 12.3483 3.12 10.61 3.82 8.93C4.52 7.25 5.535 5.76833 6.865 4.485C8.21833 3.17833 9.875 2.14 11.835 1.37C13.795 0.576665 16.035 0.179999 18.555 0.179999C21.3783 0.179999 23.9683 0.634998 26.325 1.545C28.705 2.43166 30.77 3.715 32.52 5.395L30.7 8.93ZM68.5191 32.275L61.0641 12.78C60.5275 11.45 59.9908 9.77 59.4541 7.74C59.1975 8.74333 58.9291 9.67666 58.6491 10.54C58.3925 11.4033 58.1358 12.1733 57.8791 12.85L50.4591 32.275H68.5191ZM83.2541 51H77.5141C76.8608 51 76.3241 50.8367 75.9041 50.51C75.4841 50.1833 75.1808 49.7633 74.9941 49.25L70.5491 37.595H48.3941L43.9491 49.25C43.7858 49.6933 43.4825 50.1017 43.0391 50.475C42.5958 50.825 42.0591 51 41.4291 51H35.6891L55.7091 0.739996H63.2341L83.2541 51ZM120.714 44.945L120.679 51H89.529V0.739996H120.679V6.795H97.019V22.72H116.059V28.565H97.019V44.945H120.714ZM147.884 45.085C149.774 45.085 151.384 44.8633 152.714 44.42C154.068 43.9767 155.164 43.37 156.004 42.6C156.868 41.83 157.498 40.92 157.894 39.87C158.291 38.7967 158.489 37.63 158.489 36.37C158.489 33.8733 157.626 31.9133 155.899 30.49C154.173 29.0433 151.501 28.32 147.884 28.32H137.384V45.085H147.884ZM137.384 6.585V23.035H145.959C149.623 23.035 152.341 22.3 154.114 20.83C155.911 19.3367 156.809 17.33 156.809 14.81C156.809 11.94 155.958 9.85166 154.254 8.545C152.551 7.23833 149.903 6.585 146.309 6.585H137.384ZM146.309 0.739996C149.459 0.739996 152.154 1.04333 154.394 1.65C156.658 2.25666 158.513 3.13166 159.959 4.275C161.406 5.41833 162.468 6.80667 163.144 8.44C163.844 10.05 164.194 11.8817 164.194 13.935C164.194 15.1483 164.008 16.315 163.634 17.435C163.261 18.555 162.689 19.605 161.919 20.585C161.149 21.5417 160.181 22.405 159.014 23.175C157.848 23.945 156.471 24.5867 154.884 25.1C162.188 26.5467 165.839 30.3617 165.839 36.545C165.839 38.6917 165.443 40.6517 164.649 42.425C163.856 44.175 162.701 45.6917 161.184 46.975C159.668 48.2583 157.801 49.25 155.584 49.95C153.368 50.65 150.848 51 148.024 51H129.929V0.739996H146.309ZM173.428 46.905C173.428 46.275 173.545 45.68 173.778 45.12C174.012 44.56 174.327 44.07 174.723 43.65C175.143 43.23 175.633 42.9033 176.193 42.67C176.753 42.4133 177.36 42.285 178.013 42.285C178.643 42.285 179.238 42.4133 179.798 42.67C180.358 42.9033 180.848 43.23 181.268 43.65C181.688 44.07 182.015 44.56 182.248 45.12C182.505 45.68 182.633 46.275 182.633 46.905C182.633 47.5583 182.505 48.165 182.248 48.725C182.015 49.285 181.688 49.775 181.268 50.195C180.848 50.615 180.358 50.9417 179.798 51.175C179.238 51.4083 178.643 51.525 178.013 51.525C177.36 51.525 176.753 51.4083 176.193 51.175C175.633 50.9417 175.143 50.615 174.723 50.195C174.327 49.775 174.012 49.285 173.778 48.725C173.545 48.165 173.428 47.5583 173.428 46.905ZM173.428 21.005C173.428 20.375 173.545 19.78 173.778 19.22C174.012 18.66 174.327 18.17 174.723 17.75C175.143 17.33 175.633 17.0033 176.193 16.77C176.753 16.5133 177.36 16.385 178.013 16.385C178.643 16.385 179.238 16.5133 179.798 16.77C180.358 17.0033 180.848 17.33 181.268 17.75C181.688 18.17 182.015 18.66 182.248 19.22C182.505 19.78 182.633 20.375 182.633 21.005C182.633 21.6583 182.505 22.265 182.248 22.825C182.015 23.385 181.688 23.875 181.268 24.295C180.848 24.715 180.358 25.0417 179.798 25.275C179.238 25.5083 178.643 25.625 178.013 25.625C177.36 25.625 176.753 25.5083 176.193 25.275C175.633 25.0417 175.143 24.715 174.723 24.295C174.327 23.875 174.012 23.385 173.778 22.825C173.545 22.265 173.428 21.6583 173.428 21.005ZM214.86 15.58C214.86 18.6833 215.7 21.075 217.38 22.755C219.06 24.435 221.393 25.275 224.38 25.275C225.99 25.275 227.413 25.0183 228.65 24.505C229.887 23.9683 230.925 23.2683 231.765 22.405C232.628 21.5183 233.282 20.5033 233.725 19.36C234.168 18.1933 234.39 16.98 234.39 15.72C234.39 14.2033 234.145 12.8383 233.655 11.625C233.188 10.3883 232.523 9.35 231.66 8.51C230.797 7.64666 229.77 6.99333 228.58 6.55C227.413 6.08333 226.118 5.85 224.695 5.85C223.225 5.85 221.883 6.095 220.67 6.585C219.457 7.05166 218.418 7.71666 217.555 8.58C216.692 9.44333 216.027 10.47 215.56 11.66C215.093 12.85 214.86 14.1567 214.86 15.58ZM228.65 31.12C229.56 29.93 230.412 28.7633 231.205 27.62C229.945 28.5767 228.533 29.3 226.97 29.79C225.43 30.28 223.785 30.525 222.035 30.525C220.192 30.525 218.418 30.21 216.715 29.58C215.035 28.95 213.542 28.0283 212.235 26.815C210.952 25.5783 209.925 24.0617 209.155 22.265C208.385 20.4683 208 18.4033 208 16.07C208 13.8767 208.408 11.8117 209.225 9.875C210.042 7.93833 211.185 6.25833 212.655 4.835C214.148 3.38833 215.922 2.25667 217.975 1.44C220.052 0.599999 222.327 0.179999 224.8 0.179999C227.25 0.179999 229.467 0.576665 231.45 1.37C233.457 2.16333 235.16 3.28333 236.56 4.73C237.96 6.15333 239.045 7.86833 239.815 9.875C240.585 11.8817 240.97 14.0867 240.97 16.49C240.97 17.96 240.83 19.36 240.55 20.69C240.293 22.02 239.908 23.315 239.395 24.575C238.905 25.835 238.298 27.0833 237.575 28.32C236.875 29.5333 236.07 30.7817 235.16 32.065L223.085 49.39C222.758 49.8567 222.28 50.2417 221.65 50.545C221.043 50.8483 220.343 51 219.55 51H213.285L228.65 31.12ZM259.246 0.144998C260.879 0.144998 262.372 0.401664 263.726 0.914996C265.079 1.405 266.222 2.12833 267.156 3.085C268.112 4.01833 268.847 5.16166 269.361 6.515C269.897 7.845 270.166 9.35 270.166 11.03C270.166 12.7333 269.897 14.2617 269.361 15.615C268.847 16.9683 268.112 18.1233 267.156 19.08C266.222 20.0133 265.079 20.7367 263.726 21.25C262.372 21.7633 260.879 22.02 259.246 22.02C257.589 22.02 256.084 21.7633 254.731 21.25C253.377 20.7367 252.222 20.0133 251.266 19.08C250.309 18.1233 249.562 16.9683 249.026 15.615C248.512 14.2617 248.256 12.7333 248.256 11.03C248.256 9.35 248.512 7.845 249.026 6.515C249.562 5.16166 250.309 4.01833 251.266 3.085C252.222 2.12833 253.377 1.405 254.731 0.914996C256.084 0.401664 257.589 0.144998 259.246 0.144998ZM259.246 17.925C262.956 17.925 264.811 15.6383 264.811 11.065C264.811 6.49167 262.956 4.205 259.246 4.205C257.309 4.205 255.886 4.78833 254.976 5.955C254.066 7.09833 253.611 8.80167 253.611 11.065C253.611 13.3283 254.066 15.0433 254.976 16.21C255.886 17.3533 257.309 17.925 259.246 17.925ZM314.915 35.215C312.138 35.3083 309.781 35.53 307.845 35.88C305.908 36.2067 304.333 36.65 303.12 37.21C301.906 37.77 301.031 38.435 300.495 39.205C299.958 39.9517 299.69 40.7917 299.69 41.725C299.69 42.6117 299.83 43.3817 300.11 44.035C300.413 44.665 300.81 45.19 301.3 45.61C301.813 46.0067 302.408 46.2983 303.085 46.485C303.761 46.6717 304.496 46.765 305.29 46.765C306.34 46.765 307.296 46.66 308.16 46.45C309.046 46.24 309.875 45.9483 310.645 45.575C311.415 45.1783 312.15 44.7 312.85 44.14C313.55 43.58 314.238 42.9383 314.915 42.215V35.215ZM294.895 20.41C296.878 18.52 299.025 17.1083 301.335 16.175C303.668 15.2417 306.223 14.775 309 14.775C311.03 14.775 312.826 15.1133 314.39 15.79C315.953 16.4433 317.271 17.365 318.345 18.555C319.418 19.745 320.223 21.1683 320.76 22.825C321.32 24.4817 321.6 26.3133 321.6 28.32V51H318.555C317.878 51 317.365 50.895 317.015 50.685C316.665 50.4517 316.385 50.0317 316.175 49.425L315.44 46.31C314.53 47.15 313.631 47.8967 312.745 48.55C311.858 49.18 310.925 49.7283 309.945 50.195C308.988 50.6383 307.961 50.9767 306.865 51.21C305.768 51.4433 304.555 51.56 303.225 51.56C301.825 51.56 300.506 51.3733 299.27 51C298.056 50.6033 296.995 50.0083 296.085 49.215C295.175 48.4217 294.451 47.43 293.915 46.24C293.401 45.05 293.145 43.6617 293.145 42.075C293.145 40.675 293.518 39.3333 294.265 38.05C295.035 36.7433 296.271 35.5767 297.975 34.55C299.701 33.5233 301.941 32.6833 304.695 32.03C307.471 31.3767 310.878 31.0033 314.915 30.91V28.32C314.915 25.6367 314.343 23.63 313.2 22.3C312.056 20.97 310.376 20.305 308.16 20.305C306.666 20.305 305.406 20.4917 304.38 20.865C303.376 21.2383 302.501 21.6583 301.755 22.125C301.031 22.5683 300.39 22.9767 299.83 23.35C299.293 23.7233 298.733 23.91 298.15 23.91C297.683 23.91 297.275 23.7817 296.925 23.525C296.598 23.2683 296.33 22.965 296.12 22.615L294.895 20.41ZM337.141 20.375C337.911 19.5583 338.716 18.8117 339.556 18.135C340.396 17.4583 341.283 16.8867 342.216 16.42C343.173 15.93 344.188 15.5567 345.261 15.3C346.358 15.02 347.525 14.88 348.761 14.88C350.721 14.88 352.436 15.2067 353.906 15.86C355.4 16.5133 356.648 17.435 357.651 18.625C358.655 19.7917 359.413 21.2033 359.926 22.86C360.44 24.5167 360.696 26.3483 360.696 28.355V51H353.836V28.355C353.836 25.8117 353.253 23.84 352.086 22.44C350.92 21.0167 349.135 20.305 346.731 20.305C344.981 20.305 343.336 20.725 341.796 21.565C340.28 22.3817 338.868 23.5017 337.561 24.925V51H330.736V15.44H334.831C335.788 15.44 336.383 15.895 336.616 16.805L337.141 20.375ZM385.061 14.88C387.675 14.88 390.031 15.3117 392.131 16.175C394.255 17.015 396.051 18.24 397.521 19.85C399.015 21.4367 400.158 23.3617 400.951 25.625C401.745 27.865 402.141 30.385 402.141 33.185C402.141 35.985 401.745 38.5167 400.951 40.78C400.158 43.0433 399.015 44.9683 397.521 46.555C396.051 48.1417 394.255 49.3667 392.131 50.23C390.031 51.07 387.675 51.49 385.061 51.49C382.425 51.49 380.045 51.07 377.921 50.23C375.821 49.3667 374.025 48.1417 372.531 46.555C371.038 44.9683 369.883 43.0433 369.066 40.78C368.273 38.5167 367.876 35.985 367.876 33.185C367.876 30.385 368.273 27.865 369.066 25.625C369.883 23.3617 371.038 21.4367 372.531 19.85C374.025 18.24 375.821 17.015 377.921 16.175C380.045 15.3117 382.425 14.88 385.061 14.88ZM385.061 46.17C388.421 46.17 390.93 45.0383 392.586 42.775C394.243 40.5117 395.071 37.3267 395.071 33.22C395.071 29.1133 394.243 25.9283 392.586 23.665C390.93 21.3783 388.421 20.235 385.061 20.235C381.655 20.235 379.111 21.3783 377.431 23.665C375.775 25.9283 374.946 29.1133 374.946 33.22C374.946 37.3267 375.775 40.5117 377.431 42.775C379.111 45.0383 381.655 46.17 385.061 46.17ZM460.05 44.945L460.015 51H428.865V0.739996H460.015V6.795H436.355V22.72H455.395V28.565H436.355V44.945H460.05ZM476.755 6.795V23.63H496.915V29.685H476.755V51H469.265V0.739996H500.415V6.795H476.755ZM532.4 51H524.91V0.739996H532.4V51ZM552.292 51H544.802V0.739996H552.292V51Z" fill="#4C5773"/>
</svg>
