<svg width="714" height="53" viewBox="0 0 714 53" fill="none" xmlns="http://www.w3.org/2000/svg">
<path d="M30.4334 9.93C30.2001 10.3267 29.9551 10.6183 29.6984 10.805C29.4417 10.9917 29.1151 11.085 28.7184 11.085C28.2984 11.085 27.8201 10.8983 27.2834 10.525C26.7467 10.1283 26.0701 9.69667 25.2534 9.23C24.4601 8.74 23.5034 8.30833 22.3834 7.935C21.2634 7.53833 19.9217 7.34 18.3584 7.34C16.8884 7.34 15.5934 7.53833 14.4734 7.935C13.3767 8.30833 12.4551 8.83333 11.7084 9.51C10.9617 10.1633 10.3901 10.945 9.9934 11.855C9.62007 12.7417 9.4334 13.71 9.4334 14.76C9.4334 16.1133 9.77173 17.2333 10.4484 18.12C11.1484 19.0067 12.0584 19.765 13.1784 20.395C14.2984 21.025 15.5701 21.5733 16.9934 22.04C18.4167 22.5067 19.8751 22.9967 21.3684 23.51C22.8617 24 24.3201 24.5717 25.7434 25.225C27.1667 25.8783 28.4384 26.7067 29.5584 27.71C30.6784 28.69 31.5767 29.9033 32.2534 31.35C32.9534 32.7733 33.3034 34.5233 33.3034 36.6C33.3034 38.8167 32.9184 40.8933 32.1484 42.83C31.4017 44.7667 30.3051 46.4583 28.8584 47.905C27.4117 49.3517 25.6267 50.495 23.5034 51.335C21.4034 52.1517 19.0117 52.56 16.3284 52.56C14.7184 52.56 13.1551 52.3967 11.6384 52.07C10.1217 51.7667 8.68673 51.335 7.3334 50.775C5.98007 50.1917 4.7084 49.5033 3.5184 48.71C2.35173 47.8933 1.30173 46.9833 0.368399 45.98L2.5034 42.41C2.7134 42.13 2.9584 41.8967 3.2384 41.71C3.54173 41.5233 3.88007 41.43 4.2534 41.43C4.7434 41.43 5.3034 41.6867 5.9334 42.2C6.58673 42.7133 7.38007 43.285 8.3134 43.915C9.27007 44.5217 10.4017 45.0817 11.7084 45.595C13.0384 46.1083 14.6484 46.365 16.5384 46.365C18.0784 46.365 19.4551 46.1667 20.6684 45.77C21.8817 45.35 22.8967 44.7667 23.7134 44.02C24.5534 43.25 25.1951 42.3283 25.6384 41.255C26.0817 40.1817 26.3034 38.9917 26.3034 37.685C26.3034 36.215 25.9651 35.0133 25.2884 34.08C24.6117 33.1467 23.7134 32.365 22.5934 31.735C21.4734 31.105 20.2017 30.5683 18.7784 30.125C17.3551 29.6817 15.8967 29.2267 14.4034 28.76C12.9101 28.27 11.4517 27.71 10.0284 27.08C8.60507 26.45 7.3334 25.6333 6.2134 24.63C5.0934 23.6033 4.19507 22.3317 3.5184 20.815C2.84173 19.275 2.5034 17.385 2.5034 15.145C2.5034 13.3483 2.8534 11.61 3.5534 9.93C4.2534 8.25 5.2684 6.76833 6.5984 5.485C7.95173 4.17833 9.6084 3.14 11.5684 2.37C13.5284 1.57666 15.7684 1.18 18.2884 1.18C21.1117 1.18 23.7017 1.635 26.0584 2.545C28.4384 3.43166 30.5034 4.715 32.2534 6.395L30.4334 9.93ZM68.2525 33.275L60.7975 13.78C60.2609 12.45 59.7242 10.77 59.1875 8.74C58.9309 9.74333 58.6625 10.6767 58.3825 11.54C58.1259 12.4033 57.8692 13.1733 57.6125 13.85L50.1925 33.275H68.2525ZM82.9875 52H77.2475C76.5942 52 76.0575 51.8367 75.6375 51.51C75.2175 51.1833 74.9142 50.7633 74.7275 50.25L70.2825 38.595H48.1275L43.6825 50.25C43.5192 50.6933 43.2159 51.1017 42.7725 51.475C42.3292 51.825 41.7925 52 41.1625 52H35.4225L55.4425 1.74H62.9675L82.9875 52ZM120.447 45.945L120.412 52H89.2624V1.74H120.412V7.795H96.7524V23.72H115.792V29.565H96.7524V45.945H120.447ZM147.618 46.085C149.508 46.085 151.118 45.8633 152.448 45.42C153.801 44.9767 154.898 44.37 155.738 43.6C156.601 42.83 157.231 41.92 157.628 40.87C158.024 39.7967 158.223 38.63 158.223 37.37C158.223 34.8733 157.359 32.9133 155.633 31.49C153.906 30.0433 151.234 29.32 147.618 29.32H137.118V46.085H147.618ZM137.118 7.585V24.035H145.693C149.356 24.035 152.074 23.3 153.848 21.83C155.644 20.3367 156.543 18.33 156.543 15.81C156.543 12.94 155.691 10.8517 153.988 9.545C152.284 8.23833 149.636 7.585 146.043 7.585H137.118ZM146.043 1.74C149.193 1.74 151.888 2.04333 154.128 2.65C156.391 3.25666 158.246 4.13166 159.693 5.275C161.139 6.41833 162.201 7.80667 162.878 9.44C163.578 11.05 163.928 12.8817 163.928 14.935C163.928 16.1483 163.741 17.315 163.368 18.435C162.994 19.555 162.423 20.605 161.653 21.585C160.883 22.5417 159.914 23.405 158.748 24.175C157.581 24.945 156.204 25.5867 154.618 26.1C161.921 27.5467 165.573 31.3617 165.573 37.545C165.573 39.6917 165.176 41.6517 164.383 43.425C163.589 45.175 162.434 46.6917 160.918 47.975C159.401 49.2583 157.534 50.25 155.318 50.95C153.101 51.65 150.581 52 147.758 52H129.663V1.74H146.043ZM173.162 47.905C173.162 47.275 173.278 46.68 173.512 46.12C173.745 45.56 174.06 45.07 174.457 44.65C174.877 44.23 175.367 43.9033 175.927 43.67C176.487 43.4133 177.093 43.285 177.747 43.285C178.377 43.285 178.972 43.4133 179.532 43.67C180.092 43.9033 180.582 44.23 181.002 44.65C181.422 45.07 181.748 45.56 181.982 46.12C182.238 46.68 182.367 47.275 182.367 47.905C182.367 48.5583 182.238 49.165 181.982 49.725C181.748 50.285 181.422 50.775 181.002 51.195C180.582 51.615 180.092 51.9417 179.532 52.175C178.972 52.4083 178.377 52.525 177.747 52.525C177.093 52.525 176.487 52.4083 175.927 52.175C175.367 51.9417 174.877 51.615 174.457 51.195C174.06 50.775 173.745 50.285 173.512 49.725C173.278 49.165 173.162 48.5583 173.162 47.905ZM173.162 22.005C173.162 21.375 173.278 20.78 173.512 20.22C173.745 19.66 174.06 19.17 174.457 18.75C174.877 18.33 175.367 18.0033 175.927 17.77C176.487 17.5133 177.093 17.385 177.747 17.385C178.377 17.385 178.972 17.5133 179.532 17.77C180.092 18.0033 180.582 18.33 181.002 18.75C181.422 19.17 181.748 19.66 181.982 20.22C182.238 20.78 182.367 21.375 182.367 22.005C182.367 22.6583 182.238 23.265 181.982 23.825C181.748 24.385 181.422 24.875 181.002 25.295C180.582 25.715 180.092 26.0417 179.532 26.275C178.972 26.5083 178.377 26.625 177.747 26.625C177.093 26.625 176.487 26.5083 175.927 26.275C175.367 26.0417 174.877 25.715 174.457 25.295C174.06 24.875 173.745 24.385 173.512 23.825C173.278 23.265 173.162 22.6583 173.162 22.005ZM263.314 1.74V52H256.804V16.23C256.804 15.6933 256.815 15.1217 256.839 14.515C256.885 13.9083 256.932 13.29 256.979 12.66L240.249 43.355C239.665 44.4983 238.767 45.07 237.554 45.07H236.504C235.29 45.07 234.404 44.4983 233.844 43.355L216.799 12.555C216.939 13.8617 217.009 15.0867 217.009 16.23V52H210.464V1.74H215.994C216.647 1.74 217.149 1.81 217.499 1.95C217.872 2.06666 218.222 2.41666 218.549 3L235.349 33.1C235.675 33.7067 235.979 34.3483 236.259 35.025C236.539 35.7017 236.807 36.3783 237.064 37.055C237.554 35.6783 238.125 34.3483 238.779 33.065L255.264 3C255.567 2.41666 255.894 2.06666 256.244 1.95C256.617 1.81 257.13 1.74 257.784 1.74H263.314ZM296.808 30.265C296.808 28.9117 296.61 27.6633 296.213 26.52C295.84 25.3767 295.28 24.385 294.533 23.545C293.786 22.705 292.876 22.0517 291.803 21.585C290.73 21.1183 289.493 20.885 288.093 20.885C285.223 20.885 282.96 21.7133 281.303 23.37C279.67 25.0267 278.631 27.325 278.188 30.265H296.808ZM302.443 46.925C301.603 47.905 300.635 48.7567 299.538 49.48C298.441 50.18 297.275 50.7517 296.038 51.195C294.801 51.6383 293.518 51.965 292.188 52.175C290.881 52.385 289.586 52.49 288.303 52.49C285.853 52.49 283.578 52.0817 281.478 51.265C279.401 50.425 277.593 49.2117 276.053 47.625C274.536 46.015 273.346 44.0317 272.483 41.675C271.643 39.295 271.223 36.565 271.223 33.485C271.223 31.0117 271.608 28.7133 272.378 26.59C273.148 24.4433 274.245 22.5767 275.668 20.99C277.115 19.4033 278.876 18.155 280.953 17.245C283.03 16.335 285.363 15.88 287.953 15.88C290.123 15.88 292.118 16.2417 293.938 16.965C295.781 17.665 297.368 18.6917 298.698 20.045C300.028 21.3983 301.066 23.0667 301.813 25.05C302.583 27.0333 302.968 29.2967 302.968 31.84C302.968 32.89 302.851 33.6017 302.618 33.975C302.385 34.325 301.953 34.5 301.323 34.5H278.013C278.083 36.6233 278.386 38.4783 278.923 40.065C279.46 41.6283 280.195 42.935 281.128 43.985C282.085 45.035 283.216 45.8167 284.523 46.33C285.83 46.8433 287.288 47.1 288.898 47.1C290.415 47.1 291.721 46.925 292.818 46.575C293.938 46.225 294.895 45.8517 295.688 45.455C296.505 45.035 297.181 44.65 297.718 44.3C298.278 43.95 298.768 43.775 299.188 43.775C299.748 43.775 300.18 43.985 300.483 44.405L302.443 46.925ZM321.16 52.56C318.29 52.56 316.074 51.755 314.51 50.145C312.97 48.535 312.2 46.2367 312.2 43.25V21.97H308.07C307.674 21.97 307.335 21.8533 307.055 21.62C306.799 21.3633 306.67 20.99 306.67 20.5V17.735L312.445 16.93L313.985 6.325C314.079 5.92833 314.254 5.625 314.51 5.415C314.79 5.18166 315.14 5.065 315.56 5.065H319.025V17H329.105V21.97H319.025V42.795C319.025 44.195 319.364 45.245 320.04 45.945C320.74 46.6217 321.627 46.96 322.7 46.96C323.33 46.96 323.867 46.8783 324.31 46.715C324.777 46.5517 325.174 46.3767 325.5 46.19C325.827 45.98 326.107 45.7933 326.34 45.63C326.574 45.4667 326.784 45.385 326.97 45.385C327.204 45.385 327.379 45.4433 327.495 45.56C327.635 45.6533 327.775 45.8167 327.915 46.05L329.945 49.34C328.825 50.3667 327.495 51.16 325.955 51.72C324.415 52.28 322.817 52.56 321.16 52.56ZM354.502 36.215C351.725 36.3083 349.368 36.53 347.432 36.88C345.495 37.2067 343.92 37.65 342.707 38.21C341.493 38.77 340.618 39.435 340.082 40.205C339.545 40.9517 339.277 41.7917 339.277 42.725C339.277 43.6117 339.417 44.3817 339.697 45.035C340 45.665 340.397 46.19 340.887 46.61C341.4 47.0067 341.995 47.2983 342.672 47.485C343.348 47.6717 344.083 47.765 344.877 47.765C345.927 47.765 346.883 47.66 347.747 47.45C348.633 47.24 349.462 46.9483 350.232 46.575C351.002 46.1783 351.737 45.7 352.437 45.14C353.137 44.58 353.825 43.9383 354.502 43.215V36.215ZM334.482 21.41C336.465 19.52 338.612 18.1083 340.922 17.175C343.255 16.2417 345.81 15.775 348.587 15.775C350.617 15.775 352.413 16.1133 353.977 16.79C355.54 17.4433 356.858 18.365 357.932 19.555C359.005 20.745 359.81 22.1683 360.347 23.825C360.907 25.4817 361.187 27.3133 361.187 29.32V52H358.142C357.465 52 356.952 51.895 356.602 51.685C356.252 51.4517 355.972 51.0317 355.762 50.425L355.027 47.31C354.117 48.15 353.218 48.8967 352.332 49.55C351.445 50.18 350.512 50.7283 349.532 51.195C348.575 51.6383 347.548 51.9767 346.452 52.21C345.355 52.4433 344.142 52.56 342.812 52.56C341.412 52.56 340.093 52.3733 338.857 52C337.643 51.6033 336.582 51.0083 335.672 50.215C334.762 49.4217 334.038 48.43 333.502 47.24C332.988 46.05 332.732 44.6617 332.732 43.075C332.732 41.675 333.105 40.3333 333.852 39.05C334.622 37.7433 335.858 36.5767 337.562 35.55C339.288 34.5233 341.528 33.6833 344.282 33.03C347.058 32.3767 350.465 32.0033 354.502 31.91V29.32C354.502 26.6367 353.93 24.63 352.787 23.3C351.643 21.97 349.963 21.305 347.747 21.305C346.253 21.305 344.993 21.4917 343.967 21.865C342.963 22.2383 342.088 22.6583 341.342 23.125C340.618 23.5683 339.977 23.9767 339.417 24.35C338.88 24.7233 338.32 24.91 337.737 24.91C337.27 24.91 336.862 24.7817 336.512 24.525C336.185 24.2683 335.917 23.965 335.707 23.615L334.482 21.41ZM391.288 22.565C391.102 22.8683 390.903 23.09 390.693 23.23C390.483 23.3467 390.215 23.405 389.888 23.405C389.515 23.405 389.095 23.2767 388.628 23.02C388.185 22.7633 387.637 22.4833 386.983 22.18C386.353 21.8767 385.607 21.5967 384.743 21.34C383.88 21.0833 382.853 20.955 381.663 20.955C380.683 20.955 379.785 21.0833 378.968 21.34C378.175 21.5733 377.498 21.9117 376.938 22.355C376.378 22.775 375.947 23.2883 375.643 23.895C375.34 24.4783 375.188 25.1083 375.188 25.785C375.188 26.6717 375.445 27.4067 375.958 27.99C376.495 28.5733 377.183 29.075 378.023 29.495C378.887 29.915 379.855 30.3 380.928 30.65C382.025 30.9767 383.133 31.3267 384.253 31.7C385.397 32.0733 386.505 32.505 387.578 32.995C388.675 33.4617 389.643 34.0567 390.483 34.78C391.347 35.48 392.035 36.3317 392.548 37.335C393.085 38.3383 393.353 39.5633 393.353 41.01C393.353 42.6667 393.05 44.2067 392.443 45.63C391.86 47.03 390.985 48.2433 389.818 49.27C388.675 50.2967 387.252 51.1017 385.548 51.685C383.845 52.2683 381.897 52.56 379.703 52.56C377.253 52.56 374.99 52.1517 372.913 51.335C370.837 50.5183 369.098 49.48 367.698 48.22L369.308 45.595C369.495 45.2683 369.728 45.0233 370.008 44.86C370.288 44.6733 370.662 44.58 371.128 44.58C371.572 44.58 372.027 44.7433 372.493 45.07C372.96 45.3967 373.52 45.7583 374.173 46.155C374.827 46.5283 375.62 46.8783 376.553 47.205C377.487 47.5083 378.653 47.66 380.053 47.66C381.22 47.66 382.235 47.52 383.098 47.24C383.962 46.9367 384.673 46.54 385.233 46.05C385.817 45.5367 386.248 44.9533 386.528 44.3C386.808 43.6467 386.948 42.9583 386.948 42.235C386.948 41.3017 386.68 40.5317 386.143 39.925C385.63 39.295 384.942 38.7583 384.078 38.315C383.238 37.8717 382.27 37.4867 381.173 37.16C380.077 36.8333 378.957 36.4833 377.813 36.11C376.67 35.7367 375.55 35.305 374.453 34.815C373.357 34.325 372.377 33.7067 371.513 32.96C370.673 32.2133 369.985 31.3033 369.448 30.23C368.935 29.1567 368.678 27.85 368.678 26.31C368.678 24.9333 368.958 23.615 369.518 22.355C370.102 21.095 370.93 19.9867 372.003 19.03C373.1 18.0733 374.442 17.315 376.028 16.755C377.638 16.1717 379.47 15.88 381.523 15.88C383.88 15.88 386.003 16.2533 387.893 17C389.807 17.7467 391.44 18.7733 392.793 20.08L391.288 22.565ZM441.373 25.05C440.253 23.58 439.04 22.5533 437.733 21.97C436.45 21.3867 435.003 21.095 433.393 21.095C430.267 21.095 427.84 22.2267 426.113 24.49C424.41 26.73 423.558 30.0083 423.558 34.325C423.558 36.5883 423.745 38.525 424.118 40.135C424.515 41.7217 425.075 43.0283 425.798 44.055C426.545 45.0583 427.455 45.805 428.528 46.295C429.602 46.7617 430.815 46.995 432.168 46.995C434.152 46.995 435.867 46.5517 437.313 45.665C438.76 44.7783 440.113 43.53 441.373 41.92V25.05ZM448.233 0.339998V52H444.103C443.147 52 442.552 51.545 442.318 50.635L441.723 46.54C440.207 48.3367 438.48 49.7833 436.543 50.88C434.63 51.9533 432.413 52.49 429.893 52.49C427.863 52.49 426.02 52.0933 424.363 51.3C422.73 50.5067 421.33 49.3517 420.163 47.835C418.997 46.295 418.098 44.3933 417.468 42.13C416.838 39.8667 416.523 37.265 416.523 34.325C416.523 31.6883 416.873 29.2383 417.573 26.975C418.273 24.7117 419.288 22.7517 420.618 21.095C421.948 19.4383 423.558 18.1433 425.448 17.21C427.338 16.2533 429.473 15.775 431.853 15.775C434 15.775 435.82 16.125 437.313 16.825C438.83 17.525 440.183 18.5167 441.373 19.8V0.339998H448.233ZM481.31 30.265C481.31 28.9117 481.112 27.6633 480.715 26.52C480.342 25.3767 479.782 24.385 479.035 23.545C478.288 22.705 477.378 22.0517 476.305 21.585C475.232 21.1183 473.995 20.885 472.595 20.885C469.725 20.885 467.462 21.7133 465.805 23.37C464.172 25.0267 463.133 27.325 462.69 30.265H481.31ZM486.945 46.925C486.105 47.905 485.137 48.7567 484.04 49.48C482.943 50.18 481.777 50.7517 480.54 51.195C479.303 51.6383 478.02 51.965 476.69 52.175C475.383 52.385 474.088 52.49 472.805 52.49C470.355 52.49 468.08 52.0817 465.98 51.265C463.903 50.425 462.095 49.2117 460.555 47.625C459.038 46.015 457.848 44.0317 456.985 41.675C456.145 39.295 455.725 36.565 455.725 33.485C455.725 31.0117 456.11 28.7133 456.88 26.59C457.65 24.4433 458.747 22.5767 460.17 20.99C461.617 19.4033 463.378 18.155 465.455 17.245C467.532 16.335 469.865 15.88 472.455 15.88C474.625 15.88 476.62 16.2417 478.44 16.965C480.283 17.665 481.87 18.6917 483.2 20.045C484.53 21.3983 485.568 23.0667 486.315 25.05C487.085 27.0333 487.47 29.2967 487.47 31.84C487.47 32.89 487.353 33.6017 487.12 33.975C486.887 34.325 486.455 34.5 485.825 34.5H462.515C462.585 36.6233 462.888 38.4783 463.425 40.065C463.962 41.6283 464.697 42.935 465.63 43.985C466.587 45.035 467.718 45.8167 469.025 46.33C470.332 46.8433 471.79 47.1 473.4 47.1C474.917 47.1 476.223 46.925 477.32 46.575C478.44 46.225 479.397 45.8517 480.19 45.455C481.007 45.035 481.683 44.65 482.22 44.3C482.78 43.95 483.27 43.775 483.69 43.775C484.25 43.775 484.682 43.985 484.985 44.405L486.945 46.925ZM521.401 7.795V24.63H541.561V30.685H521.401V52H513.911V1.74H545.061V7.795H521.401ZM579.068 16.44V52H574.973C574.04 52 573.433 51.545 573.153 50.635L572.663 47.065C571.893 47.8817 571.088 48.6283 570.248 49.305C569.408 49.9817 568.51 50.565 567.553 51.055C566.597 51.5217 565.582 51.8833 564.508 52.14C563.435 52.42 562.28 52.56 561.043 52.56C559.083 52.56 557.357 52.2333 555.863 51.58C554.393 50.9267 553.157 50.0167 552.153 48.85C551.15 47.66 550.392 46.2367 549.878 44.58C549.365 42.9233 549.108 41.0917 549.108 39.085V16.44H555.968V39.085C555.968 41.6283 556.552 43.6117 557.718 45.035C558.885 46.435 560.67 47.135 563.073 47.135C564.823 47.135 566.457 46.7267 567.973 45.91C569.49 45.07 570.913 43.9267 572.243 42.48V16.44H579.068ZM595 21.375C595.77 20.5583 596.575 19.8117 597.415 19.135C598.255 18.4583 599.141 17.8867 600.075 17.42C601.031 16.93 602.046 16.5567 603.12 16.3C604.216 16.02 605.383 15.88 606.62 15.88C608.58 15.88 610.295 16.2067 611.765 16.86C613.258 17.5133 614.506 18.435 615.51 19.625C616.513 20.7917 617.271 22.2033 617.785 23.86C618.298 25.5167 618.555 27.3483 618.555 29.355V52H611.695V29.355C611.695 26.8117 611.111 24.84 609.945 23.44C608.778 22.0167 606.993 21.305 604.59 21.305C602.84 21.305 601.195 21.725 599.655 22.565C598.138 23.3817 596.726 24.5017 595.42 25.925V52H588.595V16.44H592.69C593.646 16.44 594.241 16.895 594.475 17.805L595 21.375ZM650.69 25.05C649.57 23.58 648.356 22.5533 647.05 21.97C645.766 21.3867 644.32 21.095 642.71 21.095C639.583 21.095 637.156 22.2267 635.43 24.49C633.726 26.73 632.875 30.0083 632.875 34.325C632.875 36.5883 633.061 38.525 633.435 40.135C633.831 41.7217 634.391 43.0283 635.115 44.055C635.861 45.0583 636.771 45.805 637.845 46.295C638.918 46.7617 640.131 46.995 641.485 46.995C643.468 46.995 645.183 46.5517 646.63 45.665C648.076 44.7783 649.43 43.53 650.69 41.92V25.05ZM657.55 0.339998V52H653.42C652.463 52 651.868 51.545 651.635 50.635L651.04 46.54C649.523 48.3367 647.796 49.7833 645.86 50.88C643.946 51.9533 641.73 52.49 639.21 52.49C637.18 52.49 635.336 52.0933 633.68 51.3C632.046 50.5067 630.646 49.3517 629.48 47.835C628.313 46.295 627.415 44.3933 626.785 42.13C626.155 39.8667 625.84 37.265 625.84 34.325C625.84 31.6883 626.19 29.2383 626.89 26.975C627.59 24.7117 628.605 22.7517 629.935 21.095C631.265 19.4383 632.875 18.1433 634.765 17.21C636.655 16.2533 638.79 15.775 641.17 15.775C643.316 15.775 645.136 16.125 646.63 16.825C648.146 17.525 649.5 18.5167 650.69 19.8V0.339998H657.55ZM693.666 52H686.176V1.74H693.666V52ZM713.559 52H706.069V1.74H713.559V52Z" fill="#4C5773"/>
</svg>
