<svg width="583" height="52" viewBox="0 0 583 52" fill="none" xmlns="http://www.w3.org/2000/svg">
<path d="M31.0408 8.93C30.8075 9.32666 30.5625 9.61833 30.3058 9.805C30.0492 9.99167 29.7225 10.085 29.3258 10.085C28.9058 10.085 28.4275 9.89833 27.8908 9.525C27.3542 9.12833 26.6775 8.69667 25.8608 8.23C25.0675 7.74 24.1108 7.30833 22.9908 6.935C21.8708 6.53833 20.5292 6.34 18.9658 6.34C17.4958 6.34 16.2008 6.53833 15.0808 6.935C13.9842 7.30833 13.0625 7.83333 12.3158 8.51C11.5692 9.16333 10.9975 9.945 10.6008 10.855C10.2275 11.7417 10.0408 12.71 10.0408 13.76C10.0408 15.1133 10.3792 16.2333 11.0558 17.12C11.7558 18.0067 12.6658 18.765 13.7858 19.395C14.9058 20.025 16.1775 20.5733 17.6008 21.04C19.0242 21.5067 20.4825 21.9967 21.9758 22.51C23.4692 23 24.9275 23.5717 26.3508 24.225C27.7742 24.8783 29.0458 25.7067 30.1658 26.71C31.2858 27.69 32.1842 28.9033 32.8608 30.35C33.5608 31.7733 33.9108 33.5233 33.9108 35.6C33.9108 37.8167 33.5258 39.8933 32.7558 41.83C32.0092 43.7667 30.9125 45.4583 29.4658 46.905C28.0192 48.3517 26.2342 49.495 24.1108 50.335C22.0108 51.1517 19.6192 51.56 16.9358 51.56C15.3258 51.56 13.7625 51.3967 12.2458 51.07C10.7292 50.7667 9.29415 50.335 7.94082 49.775C6.58749 49.1917 5.31582 48.5033 4.12582 47.71C2.95915 46.8933 1.90915 45.9833 0.97582 44.98L3.11082 41.41C3.32082 41.13 3.56582 40.8967 3.84582 40.71C4.14915 40.5233 4.48749 40.43 4.86082 40.43C5.35082 40.43 5.91082 40.6867 6.54082 41.2C7.19415 41.7133 7.98749 42.285 8.92082 42.915C9.87749 43.5217 11.0092 44.0817 12.3158 44.595C13.6458 45.1083 15.2558 45.365 17.1458 45.365C18.6858 45.365 20.0625 45.1667 21.2758 44.77C22.4892 44.35 23.5042 43.7667 24.3208 43.02C25.1608 42.25 25.8025 41.3283 26.2458 40.255C26.6892 39.1817 26.9108 37.9917 26.9108 36.685C26.9108 35.215 26.5725 34.0133 25.8958 33.08C25.2192 32.1467 24.3208 31.365 23.2008 30.735C22.0808 30.105 20.8092 29.5683 19.3858 29.125C17.9625 28.6817 16.5042 28.2267 15.0108 27.76C13.5175 27.27 12.0592 26.71 10.6358 26.08C9.21249 25.45 7.94082 24.6333 6.82082 23.63C5.70082 22.6033 4.80249 21.3317 4.12582 19.815C3.44915 18.275 3.11082 16.385 3.11082 14.145C3.11082 12.3483 3.46082 10.61 4.16082 8.93C4.86082 7.25 5.87582 5.76833 7.20582 4.485C8.55915 3.17833 10.2158 2.14 12.1758 1.37C14.1358 0.576665 16.3758 0.179999 18.8958 0.179999C21.7192 0.179999 24.3092 0.634998 26.6658 1.545C29.0458 2.43166 31.1108 3.715 32.8608 5.395L31.0408 8.93ZM68.86 32.275L61.405 12.78C60.8683 11.45 60.3316 9.77 59.795 7.74C59.5383 8.74333 59.27 9.67666 58.99 10.54C58.7333 11.4033 58.4766 12.1733 58.22 12.85L50.8 32.275H68.86ZM83.595 51H77.855C77.2016 51 76.665 50.8367 76.245 50.51C75.825 50.1833 75.5216 49.7633 75.335 49.25L70.89 37.595H48.735L44.29 49.25C44.1266 49.6933 43.8233 50.1017 43.38 50.475C42.9366 50.825 42.4 51 41.77 51H36.03L56.05 0.739996H63.575L83.595 51ZM121.055 44.945L121.02 51H89.8698V0.739996H121.02V6.795H97.3598V22.72H116.4V28.565H97.3598V44.945H121.055ZM148.225 45.085C150.115 45.085 151.725 44.8633 153.055 44.42C154.409 43.9767 155.505 43.37 156.345 42.6C157.209 41.83 157.839 40.92 158.235 39.87C158.632 38.7967 158.83 37.63 158.83 36.37C158.83 33.8733 157.967 31.9133 156.24 30.49C154.514 29.0433 151.842 28.32 148.225 28.32H137.725V45.085H148.225ZM137.725 6.585V23.035H146.3C149.964 23.035 152.682 22.3 154.455 20.83C156.252 19.3367 157.15 17.33 157.15 14.81C157.15 11.94 156.299 9.85166 154.595 8.545C152.892 7.23833 150.244 6.585 146.65 6.585H137.725ZM146.65 0.739996C149.8 0.739996 152.495 1.04333 154.735 1.65C156.999 2.25666 158.854 3.13166 160.3 4.275C161.747 5.41833 162.809 6.80667 163.485 8.44C164.185 10.05 164.535 11.8817 164.535 13.935C164.535 15.1483 164.349 16.315 163.975 17.435C163.602 18.555 163.03 19.605 162.26 20.585C161.49 21.5417 160.522 22.405 159.355 23.175C158.189 23.945 156.812 24.5867 155.225 25.1C162.529 26.5467 166.18 30.3617 166.18 36.545C166.18 38.6917 165.784 40.6517 164.99 42.425C164.197 44.175 163.042 45.6917 161.525 46.975C160.009 48.2583 158.142 49.25 155.925 49.95C153.709 50.65 151.189 51 148.365 51H130.27V0.739996H146.65ZM173.769 46.905C173.769 46.275 173.886 45.68 174.119 45.12C174.353 44.56 174.668 44.07 175.064 43.65C175.484 43.23 175.974 42.9033 176.534 42.67C177.094 42.4133 177.701 42.285 178.354 42.285C178.984 42.285 179.579 42.4133 180.139 42.67C180.699 42.9033 181.189 43.23 181.609 43.65C182.029 44.07 182.356 44.56 182.589 45.12C182.846 45.68 182.974 46.275 182.974 46.905C182.974 47.5583 182.846 48.165 182.589 48.725C182.356 49.285 182.029 49.775 181.609 50.195C181.189 50.615 180.699 50.9417 180.139 51.175C179.579 51.4083 178.984 51.525 178.354 51.525C177.701 51.525 177.094 51.4083 176.534 51.175C175.974 50.9417 175.484 50.615 175.064 50.195C174.668 49.775 174.353 49.285 174.119 48.725C173.886 48.165 173.769 47.5583 173.769 46.905ZM173.769 21.005C173.769 20.375 173.886 19.78 174.119 19.22C174.353 18.66 174.668 18.17 175.064 17.75C175.484 17.33 175.974 17.0033 176.534 16.77C177.094 16.5133 177.701 16.385 178.354 16.385C178.984 16.385 179.579 16.5133 180.139 16.77C180.699 17.0033 181.189 17.33 181.609 17.75C182.029 18.17 182.356 18.66 182.589 19.22C182.846 19.78 182.974 20.375 182.974 21.005C182.974 21.6583 182.846 22.265 182.589 22.825C182.356 23.385 182.029 23.875 181.609 24.295C181.189 24.715 180.699 25.0417 180.139 25.275C179.579 25.5083 178.984 25.625 178.354 25.625C177.701 25.625 177.094 25.5083 176.534 25.275C175.974 25.0417 175.484 24.715 175.064 24.295C174.668 23.875 174.353 23.385 174.119 22.825C173.886 22.265 173.769 21.6583 173.769 21.005ZM215.201 15.58C215.201 18.6833 216.041 21.075 217.721 22.755C219.401 24.435 221.734 25.275 224.721 25.275C226.331 25.275 227.754 25.0183 228.991 24.505C230.228 23.9683 231.266 23.2683 232.106 22.405C232.969 21.5183 233.623 20.5033 234.066 19.36C234.509 18.1933 234.731 16.98 234.731 15.72C234.731 14.2033 234.486 12.8383 233.996 11.625C233.529 10.3883 232.864 9.35 232.001 8.51C231.138 7.64666 230.111 6.99333 228.921 6.55C227.754 6.08333 226.459 5.85 225.036 5.85C223.566 5.85 222.224 6.095 221.011 6.585C219.798 7.05166 218.759 7.71666 217.896 8.58C217.033 9.44333 216.368 10.47 215.901 11.66C215.434 12.85 215.201 14.1567 215.201 15.58ZM228.991 31.12C229.901 29.93 230.753 28.7633 231.546 27.62C230.286 28.5767 228.874 29.3 227.311 29.79C225.771 30.28 224.126 30.525 222.376 30.525C220.533 30.525 218.759 30.21 217.056 29.58C215.376 28.95 213.883 28.0283 212.576 26.815C211.293 25.5783 210.266 24.0617 209.496 22.265C208.726 20.4683 208.341 18.4033 208.341 16.07C208.341 13.8767 208.749 11.8117 209.566 9.875C210.383 7.93833 211.526 6.25833 212.996 4.835C214.489 3.38833 216.263 2.25667 218.316 1.44C220.393 0.599999 222.668 0.179999 225.141 0.179999C227.591 0.179999 229.808 0.576665 231.791 1.37C233.798 2.16333 235.501 3.28333 236.901 4.73C238.301 6.15333 239.386 7.86833 240.156 9.875C240.926 11.8817 241.311 14.0867 241.311 16.49C241.311 17.96 241.171 19.36 240.891 20.69C240.634 22.02 240.249 23.315 239.736 24.575C239.246 25.835 238.639 27.0833 237.916 28.32C237.216 29.5333 236.411 30.7817 235.501 32.065L223.426 49.39C223.099 49.8567 222.621 50.2417 221.991 50.545C221.384 50.8483 220.684 51 219.891 51H213.626L228.991 31.12ZM259.586 0.144998C261.22 0.144998 262.713 0.401664 264.066 0.914996C265.42 1.405 266.563 2.12833 267.496 3.085C268.453 4.01833 269.188 5.16166 269.701 6.515C270.238 7.845 270.506 9.35 270.506 11.03C270.506 12.7333 270.238 14.2617 269.701 15.615C269.188 16.9683 268.453 18.1233 267.496 19.08C266.563 20.0133 265.42 20.7367 264.066 21.25C262.713 21.7633 261.22 22.02 259.586 22.02C257.93 22.02 256.425 21.7633 255.071 21.25C253.718 20.7367 252.563 20.0133 251.606 19.08C250.65 18.1233 249.903 16.9683 249.366 15.615C248.853 14.2617 248.596 12.7333 248.596 11.03C248.596 9.35 248.853 7.845 249.366 6.515C249.903 5.16166 250.65 4.01833 251.606 3.085C252.563 2.12833 253.718 1.405 255.071 0.914996C256.425 0.401664 257.93 0.144998 259.586 0.144998ZM259.586 17.925C263.296 17.925 265.151 15.6383 265.151 11.065C265.151 6.49167 263.296 4.205 259.586 4.205C257.65 4.205 256.226 4.78833 255.316 5.955C254.406 7.09833 253.951 8.80167 253.951 11.065C253.951 13.3283 254.406 15.0433 255.316 16.21C256.226 17.3533 257.65 17.925 259.586 17.925ZM315.256 35.215C312.479 35.3083 310.122 35.53 308.186 35.88C306.249 36.2067 304.674 36.65 303.461 37.21C302.247 37.77 301.372 38.435 300.836 39.205C300.299 39.9517 300.031 40.7917 300.031 41.725C300.031 42.6117 300.171 43.3817 300.451 44.035C300.754 44.665 301.151 45.19 301.641 45.61C302.154 46.0067 302.749 46.2983 303.426 46.485C304.102 46.6717 304.837 46.765 305.631 46.765C306.681 46.765 307.637 46.66 308.501 46.45C309.387 46.24 310.216 45.9483 310.986 45.575C311.756 45.1783 312.491 44.7 313.191 44.14C313.891 43.58 314.579 42.9383 315.256 42.215V35.215ZM295.236 20.41C297.219 18.52 299.366 17.1083 301.676 16.175C304.009 15.2417 306.564 14.775 309.341 14.775C311.371 14.775 313.167 15.1133 314.731 15.79C316.294 16.4433 317.612 17.365 318.686 18.555C319.759 19.745 320.564 21.1683 321.101 22.825C321.661 24.4817 321.941 26.3133 321.941 28.32V51H318.896C318.219 51 317.706 50.895 317.356 50.685C317.006 50.4517 316.726 50.0317 316.516 49.425L315.781 46.31C314.871 47.15 313.972 47.8967 313.086 48.55C312.199 49.18 311.266 49.7283 310.286 50.195C309.329 50.6383 308.302 50.9767 307.206 51.21C306.109 51.4433 304.896 51.56 303.566 51.56C302.166 51.56 300.847 51.3733 299.611 51C298.397 50.6033 297.336 50.0083 296.426 49.215C295.516 48.4217 294.792 47.43 294.256 46.24C293.742 45.05 293.486 43.6617 293.486 42.075C293.486 40.675 293.859 39.3333 294.606 38.05C295.376 36.7433 296.612 35.5767 298.316 34.55C300.042 33.5233 302.282 32.6833 305.036 32.03C307.812 31.3767 311.219 31.0033 315.256 30.91V28.32C315.256 25.6367 314.684 23.63 313.541 22.3C312.397 20.97 310.717 20.305 308.501 20.305C307.007 20.305 305.747 20.4917 304.721 20.865C303.717 21.2383 302.842 21.6583 302.096 22.125C301.372 22.5683 300.731 22.9767 300.171 23.35C299.634 23.7233 299.074 23.91 298.491 23.91C298.024 23.91 297.616 23.7817 297.266 23.525C296.939 23.2683 296.671 22.965 296.461 22.615L295.236 20.41ZM337.482 20.375C338.252 19.5583 339.057 18.8117 339.897 18.135C340.737 17.4583 341.624 16.8867 342.557 16.42C343.514 15.93 344.529 15.5567 345.602 15.3C346.699 15.02 347.866 14.88 349.102 14.88C351.062 14.88 352.777 15.2067 354.247 15.86C355.741 16.5133 356.989 17.435 357.992 18.625C358.996 19.7917 359.754 21.2033 360.267 22.86C360.781 24.5167 361.037 26.3483 361.037 28.355V51H354.177V28.355C354.177 25.8117 353.594 23.84 352.427 22.44C351.261 21.0167 349.476 20.305 347.072 20.305C345.322 20.305 343.677 20.725 342.137 21.565C340.621 22.3817 339.209 23.5017 337.902 24.925V51H331.077V15.44H335.172C336.129 15.44 336.724 15.895 336.957 16.805L337.482 20.375ZM385.402 14.88C388.015 14.88 390.372 15.3117 392.472 16.175C394.595 17.015 396.392 18.24 397.862 19.85C399.355 21.4367 400.499 23.3617 401.292 25.625C402.085 27.865 402.482 30.385 402.482 33.185C402.482 35.985 402.085 38.5167 401.292 40.78C400.499 43.0433 399.355 44.9683 397.862 46.555C396.392 48.1417 394.595 49.3667 392.472 50.23C390.372 51.07 388.015 51.49 385.402 51.49C382.765 51.49 380.385 51.07 378.262 50.23C376.162 49.3667 374.365 48.1417 372.872 46.555C371.379 44.9683 370.224 43.0433 369.407 40.78C368.614 38.5167 368.217 35.985 368.217 33.185C368.217 30.385 368.614 27.865 369.407 25.625C370.224 23.3617 371.379 21.4367 372.872 19.85C374.365 18.24 376.162 17.015 378.262 16.175C380.385 15.3117 382.765 14.88 385.402 14.88ZM385.402 46.17C388.762 46.17 391.27 45.0383 392.927 42.775C394.584 40.5117 395.412 37.3267 395.412 33.22C395.412 29.1133 394.584 25.9283 392.927 23.665C391.27 21.3783 388.762 20.235 385.402 20.235C381.995 20.235 379.452 21.3783 377.772 23.665C376.115 25.9283 375.287 29.1133 375.287 33.22C375.287 37.3267 376.115 40.5117 377.772 42.775C379.452 45.0383 381.995 46.17 385.402 46.17ZM427.281 27.06H444.781V32.87H427.281V27.06ZM492.556 45.015C494.562 45.015 496.359 44.6767 497.946 44C499.532 43.3233 500.874 42.3783 501.971 41.165C503.067 39.9283 503.907 38.47 504.491 36.79C505.074 35.0867 505.366 33.2083 505.366 31.155V0.739996H512.786V31.155C512.786 34.095 512.319 36.8133 511.386 39.31C510.452 41.8067 509.111 43.965 507.361 45.785C505.611 47.605 503.487 49.0283 500.991 50.055C498.494 51.0817 495.682 51.595 492.556 51.595C489.429 51.595 486.617 51.0817 484.121 50.055C481.624 49.0283 479.501 47.605 477.751 45.785C476.001 43.965 474.659 41.8067 473.726 39.31C472.792 36.8133 472.326 34.095 472.326 31.155V0.739996H479.781V31.12C479.781 33.1733 480.061 35.0517 480.621 36.755C481.204 38.4583 482.044 39.9283 483.141 41.165C484.237 42.3783 485.579 43.3233 487.166 44C488.752 44.6767 490.549 45.015 492.556 45.015ZM532.057 6.795V23.63H552.217V29.685H532.057V51H524.567V0.739996H555.717V6.795H532.057ZM580.499 21.565C580.313 21.8683 580.114 22.09 579.904 22.23C579.694 22.3467 579.426 22.405 579.099 22.405C578.726 22.405 578.306 22.2767 577.839 22.02C577.396 21.7633 576.848 21.4833 576.194 21.18C575.564 20.8767 574.818 20.5967 573.954 20.34C573.091 20.0833 572.064 19.955 570.874 19.955C569.894 19.955 568.996 20.0833 568.179 20.34C567.386 20.5733 566.709 20.9117 566.149 21.355C565.589 21.775 565.158 22.2883 564.854 22.895C564.551 23.4783 564.399 24.1083 564.399 24.785C564.399 25.6717 564.656 26.4067 565.169 26.99C565.706 27.5733 566.394 28.075 567.234 28.495C568.098 28.915 569.066 29.3 570.139 29.65C571.236 29.9767 572.344 30.3267 573.464 30.7C574.608 31.0733 575.716 31.505 576.789 31.995C577.886 32.4617 578.854 33.0567 579.694 33.78C580.558 34.48 581.246 35.3317 581.759 36.335C582.296 37.3383 582.564 38.5633 582.564 40.01C582.564 41.6667 582.261 43.2067 581.654 44.63C581.071 46.03 580.196 47.2433 579.029 48.27C577.886 49.2967 576.463 50.1017 574.759 50.685C573.056 51.2683 571.108 51.56 568.914 51.56C566.464 51.56 564.201 51.1517 562.124 50.335C560.048 49.5183 558.309 48.48 556.909 47.22L558.519 44.595C558.706 44.2683 558.939 44.0233 559.219 43.86C559.499 43.6733 559.873 43.58 560.339 43.58C560.783 43.58 561.238 43.7433 561.704 44.07C562.171 44.3967 562.731 44.7583 563.384 45.155C564.038 45.5283 564.831 45.8783 565.764 46.205C566.698 46.5083 567.864 46.66 569.264 46.66C570.431 46.66 571.446 46.52 572.309 46.24C573.173 45.9367 573.884 45.54 574.444 45.05C575.028 44.5367 575.459 43.9533 575.739 43.3C576.019 42.6467 576.159 41.9583 576.159 41.235C576.159 40.3017 575.891 39.5317 575.354 38.925C574.841 38.295 574.153 37.7583 573.289 37.315C572.449 36.8717 571.481 36.4867 570.384 36.16C569.288 35.8333 568.168 35.4833 567.024 35.11C565.881 34.7367 564.761 34.305 563.664 33.815C562.568 33.325 561.588 32.7067 560.724 31.96C559.884 31.2133 559.196 30.3033 558.659 29.23C558.146 28.1567 557.889 26.85 557.889 25.31C557.889 23.9333 558.169 22.615 558.729 21.355C559.313 20.095 560.141 18.9867 561.214 18.03C562.311 17.0733 563.653 16.315 565.239 15.755C566.849 15.1717 568.681 14.88 570.734 14.88C573.091 14.88 575.214 15.2533 577.104 16C579.018 16.7467 580.651 17.7733 582.004 19.08L580.499 21.565Z" fill="#4C5773"/>
</svg>
