<svg width="898" height="53" viewBox="0 0 898 53" fill="none" xmlns="http://www.w3.org/2000/svg">
<path d="M30.5066 9.93C30.2733 10.3267 30.0283 10.6183 29.7716 10.805C29.515 10.9917 29.1883 11.085 28.7916 11.085C28.3716 11.085 27.8933 10.8983 27.3566 10.525C26.82 10.1283 26.1433 9.69667 25.3266 9.23C24.5333 8.74 23.5766 8.30833 22.4566 7.935C21.3366 7.53833 19.995 7.34 18.4316 7.34C16.9616 7.34 15.6666 7.53833 14.5466 7.935C13.45 8.30833 12.5283 8.83333 11.7816 9.51C11.035 10.1633 10.4633 10.945 10.0666 11.855C9.69331 12.7417 9.50664 13.71 9.50664 14.76C9.50664 16.1133 9.84497 17.2333 10.5216 18.12C11.2216 19.0067 12.1316 19.765 13.2516 20.395C14.3716 21.025 15.6433 21.5733 17.0666 22.04C18.49 22.5067 19.9483 22.9967 21.4416 23.51C22.935 24 24.3933 24.5717 25.8166 25.225C27.24 25.8783 28.5116 26.7067 29.6316 27.71C30.7516 28.69 31.65 29.9033 32.3266 31.35C33.0266 32.7733 33.3766 34.5233 33.3766 36.6C33.3766 38.8167 32.9916 40.8933 32.2216 42.83C31.475 44.7667 30.3783 46.4583 28.9316 47.905C27.485 49.3517 25.7 50.495 23.5766 51.335C21.4766 52.1517 19.085 52.56 16.4016 52.56C14.7916 52.56 13.2283 52.3967 11.7116 52.07C10.195 51.7667 8.75997 51.335 7.40664 50.775C6.05331 50.1917 4.78164 49.5033 3.59164 48.71C2.42497 47.8933 1.37497 46.9833 0.441641 45.98L2.57664 42.41C2.78664 42.13 3.03164 41.8967 3.31164 41.71C3.61497 41.5233 3.95331 41.43 4.32664 41.43C4.81664 41.43 5.37664 41.6867 6.00664 42.2C6.65997 42.7133 7.45331 43.285 8.38664 43.915C9.34331 44.5217 10.475 45.0817 11.7816 45.595C13.1116 46.1083 14.7216 46.365 16.6116 46.365C18.1516 46.365 19.5283 46.1667 20.7416 45.77C21.955 45.35 22.97 44.7667 23.7866 44.02C24.6266 43.25 25.2683 42.3283 25.7116 41.255C26.155 40.1817 26.3766 38.9917 26.3766 37.685C26.3766 36.215 26.0383 35.0133 25.3616 34.08C24.685 33.1467 23.7866 32.365 22.6666 31.735C21.5466 31.105 20.275 30.5683 18.8516 30.125C17.4283 29.6817 15.97 29.2267 14.4766 28.76C12.9833 28.27 11.525 27.71 10.1016 27.08C8.67831 26.45 7.40664 25.6333 6.28664 24.63C5.16664 23.6033 4.26831 22.3317 3.59164 20.815C2.91497 19.275 2.57664 17.385 2.57664 15.145C2.57664 13.3483 2.92664 11.61 3.62664 9.93C4.32664 8.25 5.34164 6.76833 6.67164 5.485C8.02497 4.17833 9.68164 3.14 11.6416 2.37C13.6016 1.57666 15.8416 1.18 18.3616 1.18C21.185 1.18 23.775 1.635 26.1316 2.545C28.5116 3.43166 30.5766 4.715 32.3266 6.395L30.5066 9.93ZM68.3258 33.275L60.8708 13.78C60.3341 12.45 59.7974 10.77 59.2608 8.74C59.0041 9.74333 58.7358 10.6767 58.4558 11.54C58.1991 12.4033 57.9424 13.1733 57.6858 13.85L50.2658 33.275H68.3258ZM83.0608 52H77.3208C76.6674 52 76.1308 51.8367 75.7108 51.51C75.2908 51.1833 74.9874 50.7633 74.8008 50.25L70.3558 38.595H48.2008L43.7558 50.25C43.5924 50.6933 43.2891 51.1017 42.8458 51.475C42.4024 51.825 41.8658 52 41.2358 52H35.4958L55.5158 1.74H63.0408L83.0608 52ZM120.521 45.945L120.486 52H89.3356V1.74H120.486V7.795H96.8256V23.72H115.866V29.565H96.8256V45.945H120.521ZM147.691 46.085C149.581 46.085 151.191 45.8633 152.521 45.42C153.874 44.9767 154.971 44.37 155.811 43.6C156.674 42.83 157.304 41.92 157.701 40.87C158.098 39.7967 158.296 38.63 158.296 37.37C158.296 34.8733 157.433 32.9133 155.706 31.49C153.979 30.0433 151.308 29.32 147.691 29.32H137.191V46.085H147.691ZM137.191 7.585V24.035H145.766C149.429 24.035 152.148 23.3 153.921 21.83C155.718 20.3367 156.616 18.33 156.616 15.81C156.616 12.94 155.764 10.8517 154.061 9.545C152.358 8.23833 149.709 7.585 146.116 7.585H137.191ZM146.116 1.74C149.266 1.74 151.961 2.04333 154.201 2.65C156.464 3.25666 158.319 4.13166 159.766 5.275C161.213 6.41833 162.274 7.80667 162.951 9.44C163.651 11.05 164.001 12.8817 164.001 14.935C164.001 16.1483 163.814 17.315 163.441 18.435C163.068 19.555 162.496 20.605 161.726 21.585C160.956 22.5417 159.988 23.405 158.821 24.175C157.654 24.945 156.278 25.5867 154.691 26.1C161.994 27.5467 165.646 31.3617 165.646 37.545C165.646 39.6917 165.249 41.6517 164.456 43.425C163.663 45.175 162.508 46.6917 160.991 47.975C159.474 49.2583 157.608 50.25 155.391 50.95C153.174 51.65 150.654 52 147.831 52H129.736V1.74H146.116ZM173.235 47.905C173.235 47.275 173.352 46.68 173.585 46.12C173.818 45.56 174.133 45.07 174.53 44.65C174.95 44.23 175.44 43.9033 176 43.67C176.56 43.4133 177.167 43.285 177.82 43.285C178.45 43.285 179.045 43.4133 179.605 43.67C180.165 43.9033 180.655 44.23 181.075 44.65C181.495 45.07 181.822 45.56 182.055 46.12C182.312 46.68 182.44 47.275 182.44 47.905C182.44 48.5583 182.312 49.165 182.055 49.725C181.822 50.285 181.495 50.775 181.075 51.195C180.655 51.615 180.165 51.9417 179.605 52.175C179.045 52.4083 178.45 52.525 177.82 52.525C177.167 52.525 176.56 52.4083 176 52.175C175.44 51.9417 174.95 51.615 174.53 51.195C174.133 50.775 173.818 50.285 173.585 49.725C173.352 49.165 173.235 48.5583 173.235 47.905ZM173.235 22.005C173.235 21.375 173.352 20.78 173.585 20.22C173.818 19.66 174.133 19.17 174.53 18.75C174.95 18.33 175.44 18.0033 176 17.77C176.56 17.5133 177.167 17.385 177.82 17.385C178.45 17.385 179.045 17.5133 179.605 17.77C180.165 18.0033 180.655 18.33 181.075 18.75C181.495 19.17 181.822 19.66 182.055 20.22C182.312 20.78 182.44 21.375 182.44 22.005C182.44 22.6583 182.312 23.265 182.055 23.825C181.822 24.385 181.495 24.875 181.075 25.295C180.655 25.715 180.165 26.0417 179.605 26.275C179.045 26.5083 178.45 26.625 177.82 26.625C177.167 26.625 176.56 26.5083 176 26.275C175.44 26.0417 174.95 25.715 174.53 25.295C174.133 24.875 173.818 24.385 173.585 23.825C173.352 23.265 173.235 22.6583 173.235 22.005ZM263.387 1.74V52H256.877V16.23C256.877 15.6933 256.888 15.1217 256.912 14.515C256.958 13.9083 257.005 13.29 257.052 12.66L240.322 43.355C239.738 44.4983 238.84 45.07 237.627 45.07H236.577C235.363 45.07 234.477 44.4983 233.917 43.355L216.872 12.555C217.012 13.8617 217.082 15.0867 217.082 16.23V52H210.537V1.74H216.067C216.72 1.74 217.222 1.81 217.572 1.95C217.945 2.06666 218.295 2.41666 218.622 3L235.422 33.1C235.748 33.7067 236.052 34.3483 236.332 35.025C236.612 35.7017 236.88 36.3783 237.137 37.055C237.627 35.6783 238.198 34.3483 238.852 33.065L255.337 3C255.64 2.41666 255.967 2.06666 256.317 1.95C256.69 1.81 257.203 1.74 257.857 1.74H263.387ZM296.881 30.265C296.881 28.9117 296.683 27.6633 296.286 26.52C295.913 25.3767 295.353 24.385 294.606 23.545C293.86 22.705 292.95 22.0517 291.876 21.585C290.803 21.1183 289.566 20.885 288.166 20.885C285.296 20.885 283.033 21.7133 281.376 23.37C279.743 25.0267 278.705 27.325 278.261 30.265H296.881ZM302.516 46.925C301.676 47.905 300.708 48.7567 299.611 49.48C298.515 50.18 297.348 50.7517 296.111 51.195C294.875 51.6383 293.591 51.965 292.261 52.175C290.955 52.385 289.66 52.49 288.376 52.49C285.926 52.49 283.651 52.0817 281.551 51.265C279.475 50.425 277.666 49.2117 276.126 47.625C274.61 46.015 273.42 44.0317 272.556 41.675C271.716 39.295 271.296 36.565 271.296 33.485C271.296 31.0117 271.681 28.7133 272.451 26.59C273.221 24.4433 274.318 22.5767 275.741 20.99C277.188 19.4033 278.95 18.155 281.026 17.245C283.103 16.335 285.436 15.88 288.026 15.88C290.196 15.88 292.191 16.2417 294.011 16.965C295.855 17.665 297.441 18.6917 298.771 20.045C300.101 21.3983 301.14 23.0667 301.886 25.05C302.656 27.0333 303.041 29.2967 303.041 31.84C303.041 32.89 302.925 33.6017 302.691 33.975C302.458 34.325 302.026 34.5 301.396 34.5H278.086C278.156 36.6233 278.46 38.4783 278.996 40.065C279.533 41.6283 280.268 42.935 281.201 43.985C282.158 45.035 283.29 45.8167 284.596 46.33C285.903 46.8433 287.361 47.1 288.971 47.1C290.488 47.1 291.795 46.925 292.891 46.575C294.011 46.225 294.968 45.8517 295.761 45.455C296.578 45.035 297.255 44.65 297.791 44.3C298.351 43.95 298.841 43.775 299.261 43.775C299.821 43.775 300.253 43.985 300.556 44.405L302.516 46.925ZM321.234 52.56C318.364 52.56 316.147 51.755 314.584 50.145C313.044 48.535 312.274 46.2367 312.274 43.25V21.97H308.144C307.747 21.97 307.409 21.8533 307.129 21.62C306.872 21.3633 306.744 20.99 306.744 20.5V17.735L312.519 16.93L314.059 6.325C314.152 5.92833 314.327 5.625 314.584 5.415C314.864 5.18166 315.214 5.065 315.634 5.065H319.099V17H329.179V21.97H319.099V42.795C319.099 44.195 319.437 45.245 320.114 45.945C320.814 46.6217 321.7 46.96 322.774 46.96C323.404 46.96 323.94 46.8783 324.384 46.715C324.85 46.5517 325.247 46.3767 325.574 46.19C325.9 45.98 326.18 45.7933 326.414 45.63C326.647 45.4667 326.857 45.385 327.044 45.385C327.277 45.385 327.452 45.4433 327.569 45.56C327.709 45.6533 327.849 45.8167 327.989 46.05L330.019 49.34C328.899 50.3667 327.569 51.16 326.029 51.72C324.489 52.28 322.89 52.56 321.234 52.56ZM354.575 36.215C351.798 36.3083 349.442 36.53 347.505 36.88C345.568 37.2067 343.993 37.65 342.78 38.21C341.567 38.77 340.692 39.435 340.155 40.205C339.618 40.9517 339.35 41.7917 339.35 42.725C339.35 43.6117 339.49 44.3817 339.77 45.035C340.073 45.665 340.47 46.19 340.96 46.61C341.473 47.0067 342.068 47.2983 342.745 47.485C343.422 47.6717 344.157 47.765 344.95 47.765C346 47.765 346.957 47.66 347.82 47.45C348.707 47.24 349.535 46.9483 350.305 46.575C351.075 46.1783 351.81 45.7 352.51 45.14C353.21 44.58 353.898 43.9383 354.575 43.215V36.215ZM334.555 21.41C336.538 19.52 338.685 18.1083 340.995 17.175C343.328 16.2417 345.883 15.775 348.66 15.775C350.69 15.775 352.487 16.1133 354.05 16.79C355.613 17.4433 356.932 18.365 358.005 19.555C359.078 20.745 359.883 22.1683 360.42 23.825C360.98 25.4817 361.26 27.3133 361.26 29.32V52H358.215C357.538 52 357.025 51.895 356.675 51.685C356.325 51.4517 356.045 51.0317 355.835 50.425L355.1 47.31C354.19 48.15 353.292 48.8967 352.405 49.55C351.518 50.18 350.585 50.7283 349.605 51.195C348.648 51.6383 347.622 51.9767 346.525 52.21C345.428 52.4433 344.215 52.56 342.885 52.56C341.485 52.56 340.167 52.3733 338.93 52C337.717 51.6033 336.655 51.0083 335.745 50.215C334.835 49.4217 334.112 48.43 333.575 47.24C333.062 46.05 332.805 44.6617 332.805 43.075C332.805 41.675 333.178 40.3333 333.925 39.05C334.695 37.7433 335.932 36.5767 337.635 35.55C339.362 34.5233 341.602 33.6833 344.355 33.03C347.132 32.3767 350.538 32.0033 354.575 31.91V29.32C354.575 26.6367 354.003 24.63 352.86 23.3C351.717 21.97 350.037 21.305 347.82 21.305C346.327 21.305 345.067 21.4917 344.04 21.865C343.037 22.2383 342.162 22.6583 341.415 23.125C340.692 23.5683 340.05 23.9767 339.49 24.35C338.953 24.7233 338.393 24.91 337.81 24.91C337.343 24.91 336.935 24.7817 336.585 24.525C336.258 24.2683 335.99 23.965 335.78 23.615L334.555 21.41ZM391.362 22.565C391.175 22.8683 390.977 23.09 390.767 23.23C390.557 23.3467 390.288 23.405 389.962 23.405C389.588 23.405 389.168 23.2767 388.702 23.02C388.258 22.7633 387.71 22.4833 387.057 22.18C386.427 21.8767 385.68 21.5967 384.817 21.34C383.953 21.0833 382.927 20.955 381.737 20.955C380.757 20.955 379.858 21.0833 379.042 21.34C378.248 21.5733 377.572 21.9117 377.012 22.355C376.452 22.775 376.02 23.2883 375.717 23.895C375.413 24.4783 375.262 25.1083 375.262 25.785C375.262 26.6717 375.518 27.4067 376.032 27.99C376.568 28.5733 377.257 29.075 378.097 29.495C378.96 29.915 379.928 30.3 381.002 30.65C382.098 30.9767 383.207 31.3267 384.327 31.7C385.47 32.0733 386.578 32.505 387.652 32.995C388.748 33.4617 389.717 34.0567 390.557 34.78C391.42 35.48 392.108 36.3317 392.622 37.335C393.158 38.3383 393.427 39.5633 393.427 41.01C393.427 42.6667 393.123 44.2067 392.517 45.63C391.933 47.03 391.058 48.2433 389.892 49.27C388.748 50.2967 387.325 51.1017 385.622 51.685C383.918 52.2683 381.97 52.56 379.777 52.56C377.327 52.56 375.063 52.1517 372.987 51.335C370.91 50.5183 369.172 49.48 367.772 48.22L369.382 45.595C369.568 45.2683 369.802 45.0233 370.082 44.86C370.362 44.6733 370.735 44.58 371.202 44.58C371.645 44.58 372.1 44.7433 372.567 45.07C373.033 45.3967 373.593 45.7583 374.247 46.155C374.9 46.5283 375.693 46.8783 376.627 47.205C377.56 47.5083 378.727 47.66 380.127 47.66C381.293 47.66 382.308 47.52 383.172 47.24C384.035 46.9367 384.747 46.54 385.307 46.05C385.89 45.5367 386.322 44.9533 386.602 44.3C386.882 43.6467 387.022 42.9583 387.022 42.235C387.022 41.3017 386.753 40.5317 386.217 39.925C385.703 39.295 385.015 38.7583 384.152 38.315C383.312 37.8717 382.343 37.4867 381.247 37.16C380.15 36.8333 379.03 36.4833 377.887 36.11C376.743 35.7367 375.623 35.305 374.527 34.815C373.43 34.325 372.45 33.7067 371.587 32.96C370.747 32.2133 370.058 31.3033 369.522 30.23C369.008 29.1567 368.752 27.85 368.752 26.31C368.752 24.9333 369.032 23.615 369.592 22.355C370.175 21.095 371.003 19.9867 372.077 19.03C373.173 18.0733 374.515 17.315 376.102 16.755C377.712 16.1717 379.543 15.88 381.597 15.88C383.953 15.88 386.077 16.2533 387.967 17C389.88 17.7467 391.513 18.7733 392.867 20.08L391.362 22.565ZM441.447 25.05C440.327 23.58 439.113 22.5533 437.807 21.97C436.523 21.3867 435.077 21.095 433.467 21.095C430.34 21.095 427.913 22.2267 426.187 24.49C424.483 26.73 423.632 30.0083 423.632 34.325C423.632 36.5883 423.818 38.525 424.192 40.135C424.588 41.7217 425.148 43.0283 425.872 44.055C426.618 45.0583 427.528 45.805 428.602 46.295C429.675 46.7617 430.888 46.995 432.242 46.995C434.225 46.995 435.94 46.5517 437.387 45.665C438.833 44.7783 440.187 43.53 441.447 41.92V25.05ZM448.307 0.339998V52H444.177C443.22 52 442.625 51.545 442.392 50.635L441.797 46.54C440.28 48.3367 438.553 49.7833 436.617 50.88C434.703 51.9533 432.487 52.49 429.967 52.49C427.937 52.49 426.093 52.0933 424.437 51.3C422.803 50.5067 421.403 49.3517 420.237 47.835C419.07 46.295 418.172 44.3933 417.542 42.13C416.912 39.8667 416.597 37.265 416.597 34.325C416.597 31.6883 416.947 29.2383 417.647 26.975C418.347 24.7117 419.362 22.7517 420.692 21.095C422.022 19.4383 423.632 18.1433 425.522 17.21C427.412 16.2533 429.547 15.775 431.927 15.775C434.073 15.775 435.893 16.125 437.387 16.825C438.903 17.525 440.257 18.5167 441.447 19.8V0.339998H448.307ZM481.383 30.265C481.383 28.9117 481.185 27.6633 480.788 26.52C480.415 25.3767 479.855 24.385 479.108 23.545C478.362 22.705 477.452 22.0517 476.378 21.585C475.305 21.1183 474.068 20.885 472.668 20.885C469.798 20.885 467.535 21.7133 465.878 23.37C464.245 25.0267 463.207 27.325 462.763 30.265H481.383ZM487.018 46.925C486.178 47.905 485.21 48.7567 484.113 49.48C483.017 50.18 481.85 50.7517 480.613 51.195C479.377 51.6383 478.093 51.965 476.763 52.175C475.457 52.385 474.162 52.49 472.878 52.49C470.428 52.49 468.153 52.0817 466.053 51.265C463.977 50.425 462.168 49.2117 460.628 47.625C459.112 46.015 457.922 44.0317 457.058 41.675C456.218 39.295 455.798 36.565 455.798 33.485C455.798 31.0117 456.183 28.7133 456.953 26.59C457.723 24.4433 458.82 22.5767 460.243 20.99C461.69 19.4033 463.452 18.155 465.528 17.245C467.605 16.335 469.938 15.88 472.528 15.88C474.698 15.88 476.693 16.2417 478.513 16.965C480.357 17.665 481.943 18.6917 483.273 20.045C484.603 21.3983 485.642 23.0667 486.388 25.05C487.158 27.0333 487.543 29.2967 487.543 31.84C487.543 32.89 487.427 33.6017 487.193 33.975C486.96 34.325 486.528 34.5 485.898 34.5H462.588C462.658 36.6233 462.962 38.4783 463.498 40.065C464.035 41.6283 464.77 42.935 465.703 43.985C466.66 45.035 467.792 45.8167 469.098 46.33C470.405 46.8433 471.863 47.1 473.473 47.1C474.99 47.1 476.297 46.925 477.393 46.575C478.513 46.225 479.47 45.8517 480.263 45.455C481.08 45.035 481.757 44.65 482.293 44.3C482.853 43.95 483.343 43.775 483.763 43.775C484.323 43.775 484.755 43.985 485.058 44.405L487.018 46.925ZM521.474 7.795V24.63H541.634V30.685H521.474V52H513.984V1.74H545.134V7.795H521.474ZM579.141 16.44V52H575.046C574.113 52 573.506 51.545 573.226 50.635L572.736 47.065C571.966 47.8817 571.161 48.6283 570.321 49.305C569.481 49.9817 568.583 50.565 567.626 51.055C566.67 51.5217 565.655 51.8833 564.581 52.14C563.508 52.42 562.353 52.56 561.116 52.56C559.156 52.56 557.43 52.2333 555.936 51.58C554.466 50.9267 553.23 50.0167 552.226 48.85C551.223 47.66 550.465 46.2367 549.951 44.58C549.438 42.9233 549.181 41.0917 549.181 39.085V16.44H556.041V39.085C556.041 41.6283 556.625 43.6117 557.791 45.035C558.958 46.435 560.743 47.135 563.146 47.135C564.896 47.135 566.53 46.7267 568.046 45.91C569.563 45.07 570.986 43.9267 572.316 42.48V16.44H579.141ZM595.073 21.375C595.843 20.5583 596.648 19.8117 597.488 19.135C598.328 18.4583 599.215 17.8867 600.148 17.42C601.105 16.93 602.12 16.5567 603.193 16.3C604.29 16.02 605.456 15.88 606.693 15.88C608.653 15.88 610.368 16.2067 611.838 16.86C613.331 17.5133 614.58 18.435 615.583 19.625C616.586 20.7917 617.345 22.2033 617.858 23.86C618.371 25.5167 618.628 27.3483 618.628 29.355V52H611.768V29.355C611.768 26.8117 611.185 24.84 610.018 23.44C608.851 22.0167 607.066 21.305 604.663 21.305C602.913 21.305 601.268 21.725 599.728 22.565C598.211 23.3817 596.8 24.5017 595.493 25.925V52H588.668V16.44H592.763C593.72 16.44 594.315 16.895 594.548 17.805L595.073 21.375ZM650.763 25.05C649.643 23.58 648.43 22.5533 647.123 21.97C645.84 21.3867 644.393 21.095 642.783 21.095C639.656 21.095 637.23 22.2267 635.503 24.49C633.8 26.73 632.948 30.0083 632.948 34.325C632.948 36.5883 633.135 38.525 633.508 40.135C633.905 41.7217 634.465 43.0283 635.188 44.055C635.935 45.0583 636.845 45.805 637.918 46.295C638.991 46.7617 640.205 46.995 641.558 46.995C643.541 46.995 645.256 46.5517 646.703 45.665C648.15 44.7783 649.503 43.53 650.763 41.92V25.05ZM657.623 0.339998V52H653.493C652.536 52 651.941 51.545 651.708 50.635L651.113 46.54C649.596 48.3367 647.87 49.7833 645.933 50.88C644.02 51.9533 641.803 52.49 639.283 52.49C637.253 52.49 635.41 52.0933 633.753 51.3C632.12 50.5067 630.72 49.3517 629.553 47.835C628.386 46.295 627.488 44.3933 626.858 42.13C626.228 39.8667 625.913 37.265 625.913 34.325C625.913 31.6883 626.263 29.2383 626.963 26.975C627.663 24.7117 628.678 22.7517 630.008 21.095C631.338 19.4383 632.948 18.1433 634.838 17.21C636.728 16.2533 638.863 15.775 641.243 15.775C643.39 15.775 645.21 16.125 646.703 16.825C648.22 17.525 649.573 18.5167 650.763 19.8V0.339998H657.623ZM693.74 52H686.25V1.74H693.74V52ZM713.632 52H706.142V1.74H713.632V52ZM741.815 28.06H759.315V33.87H741.815V28.06ZM807.09 46.015C809.097 46.015 810.893 45.6767 812.48 45C814.067 44.3233 815.408 43.3783 816.505 42.165C817.602 40.9283 818.442 39.47 819.025 37.79C819.608 36.0867 819.9 34.2083 819.9 32.155V1.74H827.32V32.155C827.32 35.095 826.853 37.8133 825.92 40.31C824.987 42.8067 823.645 44.965 821.895 46.785C820.145 48.605 818.022 50.0283 815.525 51.055C813.028 52.0817 810.217 52.595 807.09 52.595C803.963 52.595 801.152 52.0817 798.655 51.055C796.158 50.0283 794.035 48.605 792.285 46.785C790.535 44.965 789.193 42.8067 788.26 40.31C787.327 37.8133 786.86 35.095 786.86 32.155V1.74H794.315V32.12C794.315 34.1733 794.595 36.0517 795.155 37.755C795.738 39.4583 796.578 40.9283 797.675 42.165C798.772 43.3783 800.113 44.3233 801.7 45C803.287 45.6767 805.083 46.015 807.09 46.015ZM846.591 7.795V24.63H866.751V30.685H846.591V52H839.101V1.74H870.251V7.795H846.591ZM895.033 22.565C894.847 22.8683 894.648 23.09 894.438 23.23C894.228 23.3467 893.96 23.405 893.633 23.405C893.26 23.405 892.84 23.2767 892.373 23.02C891.93 22.7633 891.382 22.4833 890.728 22.18C890.098 21.8767 889.352 21.5967 888.488 21.34C887.625 21.0833 886.598 20.955 885.408 20.955C884.428 20.955 883.53 21.0833 882.713 21.34C881.92 21.5733 881.243 21.9117 880.683 22.355C880.123 22.775 879.692 23.2883 879.388 23.895C879.085 24.4783 878.933 25.1083 878.933 25.785C878.933 26.6717 879.19 27.4067 879.703 27.99C880.24 28.5733 880.928 29.075 881.768 29.495C882.632 29.915 883.6 30.3 884.673 30.65C885.77 30.9767 886.878 31.3267 887.998 31.7C889.142 32.0733 890.25 32.505 891.323 32.995C892.42 33.4617 893.388 34.0567 894.228 34.78C895.092 35.48 895.78 36.3317 896.293 37.335C896.83 38.3383 897.098 39.5633 897.098 41.01C897.098 42.6667 896.795 44.2067 896.188 45.63C895.605 47.03 894.73 48.2433 893.563 49.27C892.42 50.2967 890.997 51.1017 889.293 51.685C887.59 52.2683 885.642 52.56 883.448 52.56C880.998 52.56 878.735 52.1517 876.658 51.335C874.582 50.5183 872.843 49.48 871.443 48.22L873.053 45.595C873.24 45.2683 873.473 45.0233 873.753 44.86C874.033 44.6733 874.407 44.58 874.873 44.58C875.317 44.58 875.772 44.7433 876.238 45.07C876.705 45.3967 877.265 45.7583 877.918 46.155C878.572 46.5283 879.365 46.8783 880.298 47.205C881.232 47.5083 882.398 47.66 883.798 47.66C884.965 47.66 885.98 47.52 886.843 47.24C887.707 46.9367 888.418 46.54 888.978 46.05C889.562 45.5367 889.993 44.9533 890.273 44.3C890.553 43.6467 890.693 42.9583 890.693 42.235C890.693 41.3017 890.425 40.5317 889.888 39.925C889.375 39.295 888.687 38.7583 887.823 38.315C886.983 37.8717 886.015 37.4867 884.918 37.16C883.822 36.8333 882.702 36.4833 881.558 36.11C880.415 35.7367 879.295 35.305 878.198 34.815C877.102 34.325 876.122 33.7067 875.258 32.96C874.418 32.2133 873.73 31.3033 873.193 30.23C872.68 29.1567 872.423 27.85 872.423 26.31C872.423 24.9333 872.703 23.615 873.263 22.355C873.847 21.095 874.675 19.9867 875.748 19.03C876.845 18.0733 878.187 17.315 879.773 16.755C881.383 16.1717 883.215 15.88 885.268 15.88C887.625 15.88 889.748 16.2533 891.638 17C893.552 17.7467 895.185 18.7733 896.538 20.08L895.033 22.565Z" fill="#4C5773"/>
</svg>
