<svg width="801" height="64" viewBox="0 0 801 64" fill="none" xmlns="http://www.w3.org/2000/svg">
<path d="M30.1658 9.93C29.9325 10.3267 29.6875 10.6183 29.4308 10.805C29.1742 10.9917 28.8475 11.085 28.4508 11.085C28.0308 11.085 27.5525 10.8983 27.0158 10.525C26.4792 10.1283 25.8025 9.69667 24.9858 9.23C24.1925 8.74 23.2358 8.30833 22.1158 7.935C20.9958 7.53833 19.6542 7.34 18.0908 7.34C16.6208 7.34 15.3258 7.53833 14.2058 7.935C13.1092 8.30833 12.1875 8.83333 11.4408 9.51C10.6942 10.1633 10.1225 10.945 9.72582 11.855C9.35249 12.7417 9.16582 13.71 9.16582 14.76C9.16582 16.1133 9.50415 17.2333 10.1808 18.12C10.8808 19.0067 11.7908 19.765 12.9108 20.395C14.0308 21.025 15.3025 21.5733 16.7258 22.04C18.1492 22.5067 19.6075 22.9967 21.1008 23.51C22.5942 24 24.0525 24.5717 25.4758 25.225C26.8992 25.8783 28.1708 26.7067 29.2908 27.71C30.4108 28.69 31.3092 29.9033 31.9858 31.35C32.6858 32.7733 33.0358 34.5233 33.0358 36.6C33.0358 38.8167 32.6508 40.8933 31.8808 42.83C31.1342 44.7667 30.0375 46.4583 28.5908 47.905C27.1442 49.3517 25.3592 50.495 23.2358 51.335C21.1358 52.1517 18.7442 52.56 16.0608 52.56C14.4508 52.56 12.8875 52.3967 11.3708 52.07C9.85415 51.7667 8.41915 51.335 7.06582 50.775C5.71249 50.1917 4.44082 49.5033 3.25082 48.71C2.08415 47.8933 1.03415 46.9833 0.10082 45.98L2.23582 42.41C2.44582 42.13 2.69082 41.8967 2.97082 41.71C3.27415 41.5233 3.61249 41.43 3.98582 41.43C4.47582 41.43 5.03582 41.6867 5.66582 42.2C6.31915 42.7133 7.11249 43.285 8.04582 43.915C9.00249 44.5217 10.1342 45.0817 11.4408 45.595C12.7708 46.1083 14.3808 46.365 16.2708 46.365C17.8108 46.365 19.1875 46.1667 20.4008 45.77C21.6142 45.35 22.6292 44.7667 23.4458 44.02C24.2858 43.25 24.9275 42.3283 25.3708 41.255C25.8142 40.1817 26.0358 38.9917 26.0358 37.685C26.0358 36.215 25.6975 35.0133 25.0208 34.08C24.3442 33.1467 23.4458 32.365 22.3258 31.735C21.2058 31.105 19.9342 30.5683 18.5108 30.125C17.0875 29.6817 15.6292 29.2267 14.1358 28.76C12.6425 28.27 11.1842 27.71 9.76082 27.08C8.33749 26.45 7.06582 25.6333 5.94582 24.63C4.82582 23.6033 3.92749 22.3317 3.25082 20.815C2.57415 19.275 2.23582 17.385 2.23582 15.145C2.23582 13.3483 2.58582 11.61 3.28582 9.93C3.98582 8.25 5.00082 6.76833 6.33082 5.485C7.68415 4.17833 9.34082 3.14 11.3008 2.37C13.2608 1.57666 15.5008 1.18 18.0208 1.18C20.8442 1.18 23.4342 1.635 25.7908 2.545C28.1708 3.43166 30.2358 4.715 31.9858 6.395L30.1658 9.93ZM67.985 33.275L60.53 13.78C59.9933 12.45 59.4566 10.77 58.92 8.74C58.6633 9.74333 58.395 10.6767 58.115 11.54C57.8583 12.4033 57.6016 13.1733 57.345 13.85L49.925 33.275H67.985ZM82.72 52H76.98C76.3266 52 75.79 51.8367 75.37 51.51C74.95 51.1833 74.6466 50.7633 74.46 50.25L70.015 38.595H47.86L43.415 50.25C43.2516 50.6933 42.9483 51.1017 42.505 51.475C42.0616 51.825 41.525 52 40.895 52H35.155L55.175 1.74H62.7L82.72 52ZM120.18 45.945L120.145 52H88.9948V1.74H120.145V7.795H96.4848V23.72H115.525V29.565H96.4848V45.945H120.18ZM147.35 46.085C149.24 46.085 150.85 45.8633 152.18 45.42C153.534 44.9767 154.63 44.37 155.47 43.6C156.334 42.83 156.964 41.92 157.36 40.87C157.757 39.7967 157.955 38.63 157.955 37.37C157.955 34.8733 157.092 32.9133 155.365 31.49C153.639 30.0433 150.967 29.32 147.35 29.32H136.85V46.085H147.35ZM136.85 7.585V24.035H145.425C149.089 24.035 151.807 23.3 153.58 21.83C155.377 20.3367 156.275 18.33 156.275 15.81C156.275 12.94 155.424 10.8517 153.72 9.545C152.017 8.23833 149.369 7.585 145.775 7.585H136.85ZM145.775 1.74C148.925 1.74 151.62 2.04333 153.86 2.65C156.124 3.25666 157.979 4.13166 159.425 5.275C160.872 6.41833 161.934 7.80667 162.61 9.44C163.31 11.05 163.66 12.8817 163.66 14.935C163.66 16.1483 163.474 17.315 163.1 18.435C162.727 19.555 162.155 20.605 161.385 21.585C160.615 22.5417 159.647 23.405 158.48 24.175C157.314 24.945 155.937 25.5867 154.35 26.1C161.654 27.5467 165.305 31.3617 165.305 37.545C165.305 39.6917 164.909 41.6517 164.115 43.425C163.322 45.175 162.167 46.6917 160.65 47.975C159.134 49.2583 157.267 50.25 155.05 50.95C152.834 51.65 150.314 52 147.49 52H129.395V1.74H145.775ZM172.894 47.905C172.894 47.275 173.011 46.68 173.244 46.12C173.478 45.56 173.793 45.07 174.189 44.65C174.609 44.23 175.099 43.9033 175.659 43.67C176.219 43.4133 176.826 43.285 177.479 43.285C178.109 43.285 178.704 43.4133 179.264 43.67C179.824 43.9033 180.314 44.23 180.734 44.65C181.154 45.07 181.481 45.56 181.714 46.12C181.971 46.68 182.099 47.275 182.099 47.905C182.099 48.5583 181.971 49.165 181.714 49.725C181.481 50.285 181.154 50.775 180.734 51.195C180.314 51.615 179.824 51.9417 179.264 52.175C178.704 52.4083 178.109 52.525 177.479 52.525C176.826 52.525 176.219 52.4083 175.659 52.175C175.099 51.9417 174.609 51.615 174.189 51.195C173.793 50.775 173.478 50.285 173.244 49.725C173.011 49.165 172.894 48.5583 172.894 47.905ZM172.894 22.005C172.894 21.375 173.011 20.78 173.244 20.22C173.478 19.66 173.793 19.17 174.189 18.75C174.609 18.33 175.099 18.0033 175.659 17.77C176.219 17.5133 176.826 17.385 177.479 17.385C178.109 17.385 178.704 17.5133 179.264 17.77C179.824 18.0033 180.314 18.33 180.734 18.75C181.154 19.17 181.481 19.66 181.714 20.22C181.971 20.78 182.099 21.375 182.099 22.005C182.099 22.6583 181.971 23.265 181.714 23.825C181.481 24.385 181.154 24.875 180.734 25.295C180.314 25.715 179.824 26.0417 179.264 26.275C178.704 26.5083 178.109 26.625 177.479 26.625C176.826 26.625 176.219 26.5083 175.659 26.275C175.099 26.0417 174.609 25.715 174.189 25.295C173.793 24.875 173.478 24.385 173.244 23.825C173.011 23.265 172.894 22.6583 172.894 22.005ZM217.056 20.5C219.623 19.9633 221.944 19.695 224.021 19.695C226.634 19.695 228.944 20.0917 230.951 20.885C232.958 21.655 234.638 22.7283 235.991 24.105C237.368 25.4583 238.394 27.0683 239.071 28.935C239.771 30.7783 240.121 32.785 240.121 34.955C240.121 37.615 239.654 40.03 238.721 42.2C237.788 44.37 236.504 46.225 234.871 47.765C233.238 49.305 231.301 50.495 229.061 51.335C226.844 52.1517 224.453 52.56 221.886 52.56C220.369 52.56 218.923 52.4083 217.546 52.105C216.193 51.8017 214.921 51.405 213.731 50.915C212.541 50.4017 211.433 49.8183 210.406 49.165C209.403 48.5117 208.504 47.8233 207.711 47.1L209.811 44.16C210.254 43.5067 210.849 43.18 211.596 43.18C212.086 43.18 212.623 43.3667 213.206 43.74C213.813 44.09 214.524 44.4867 215.341 44.93C216.158 45.3733 217.126 45.7817 218.246 46.155C219.366 46.505 220.696 46.68 222.236 46.68C223.939 46.68 225.468 46.4117 226.821 45.875C228.198 45.315 229.353 44.5333 230.286 43.53C231.243 42.5267 231.966 41.325 232.456 39.925C232.969 38.525 233.226 36.9733 233.226 35.27C233.226 33.7533 233.004 32.3883 232.561 31.175C232.118 29.9617 231.453 28.9233 230.566 28.06C229.679 27.1967 228.571 26.5433 227.241 26.1C225.911 25.6333 224.359 25.4 222.586 25.4C220.113 25.4 217.476 25.8433 214.676 26.73L210.371 25.47L214.466 1.74H238.546V4.715C238.546 5.695 238.231 6.5 237.601 7.13C236.994 7.73666 235.968 8.04 234.521 8.04H219.226L217.056 20.5ZM258.711 1.145C260.345 1.145 261.838 1.40166 263.191 1.915C264.545 2.405 265.688 3.12833 266.621 4.085C267.578 5.01833 268.313 6.16166 268.826 7.515C269.363 8.845 269.631 10.35 269.631 12.03C269.631 13.7333 269.363 15.2617 268.826 16.615C268.313 17.9683 267.578 19.1233 266.621 20.08C265.688 21.0133 264.545 21.7367 263.191 22.25C261.838 22.7633 260.345 23.02 258.711 23.02C257.055 23.02 255.55 22.7633 254.196 22.25C252.843 21.7367 251.688 21.0133 250.731 20.08C249.775 19.1233 249.028 17.9683 248.491 16.615C247.978 15.2617 247.721 13.7333 247.721 12.03C247.721 10.35 247.978 8.845 248.491 7.515C249.028 6.16166 249.775 5.01833 250.731 4.085C251.688 3.12833 252.843 2.405 254.196 1.915C255.55 1.40166 257.055 1.145 258.711 1.145ZM258.711 18.925C262.421 18.925 264.276 16.6383 264.276 12.065C264.276 7.49167 262.421 5.205 258.711 5.205C256.775 5.205 255.351 5.78833 254.441 6.955C253.531 8.09833 253.076 9.80167 253.076 12.065C253.076 14.3283 253.531 16.0433 254.441 17.21C255.351 18.3533 256.775 18.925 258.711 18.925ZM314.381 36.215C311.604 36.3083 309.247 36.53 307.311 36.88C305.374 37.2067 303.799 37.65 302.586 38.21C301.372 38.77 300.497 39.435 299.961 40.205C299.424 40.9517 299.156 41.7917 299.156 42.725C299.156 43.6117 299.296 44.3817 299.576 45.035C299.879 45.665 300.276 46.19 300.766 46.61C301.279 47.0067 301.874 47.2983 302.551 47.485C303.227 47.6717 303.962 47.765 304.756 47.765C305.806 47.765 306.762 47.66 307.626 47.45C308.512 47.24 309.341 46.9483 310.111 46.575C310.881 46.1783 311.616 45.7 312.316 45.14C313.016 44.58 313.704 43.9383 314.381 43.215V36.215ZM294.361 21.41C296.344 19.52 298.491 18.1083 300.801 17.175C303.134 16.2417 305.689 15.775 308.466 15.775C310.496 15.775 312.292 16.1133 313.856 16.79C315.419 17.4433 316.737 18.365 317.811 19.555C318.884 20.745 319.689 22.1683 320.226 23.825C320.786 25.4817 321.066 27.3133 321.066 29.32V52H318.021C317.344 52 316.831 51.895 316.481 51.685C316.131 51.4517 315.851 51.0317 315.641 50.425L314.906 47.31C313.996 48.15 313.097 48.8967 312.211 49.55C311.324 50.18 310.391 50.7283 309.411 51.195C308.454 51.6383 307.427 51.9767 306.331 52.21C305.234 52.4433 304.021 52.56 302.691 52.56C301.291 52.56 299.972 52.3733 298.736 52C297.522 51.6033 296.461 51.0083 295.551 50.215C294.641 49.4217 293.917 48.43 293.381 47.24C292.867 46.05 292.611 44.6617 292.611 43.075C292.611 41.675 292.984 40.3333 293.731 39.05C294.501 37.7433 295.737 36.5767 297.441 35.55C299.167 34.5233 301.407 33.6833 304.161 33.03C306.937 32.3767 310.344 32.0033 314.381 31.91V29.32C314.381 26.6367 313.809 24.63 312.666 23.3C311.522 21.97 309.842 21.305 307.626 21.305C306.132 21.305 304.872 21.4917 303.846 21.865C302.842 22.2383 301.967 22.6583 301.221 23.125C300.497 23.5683 299.856 23.9767 299.296 24.35C298.759 24.7233 298.199 24.91 297.616 24.91C297.149 24.91 296.741 24.7817 296.391 24.525C296.064 24.2683 295.796 23.965 295.586 23.615L294.361 21.41ZM336.607 21.375C337.377 20.5583 338.182 19.8117 339.022 19.135C339.862 18.4583 340.749 17.8867 341.682 17.42C342.639 16.93 343.654 16.5567 344.727 16.3C345.824 16.02 346.991 15.88 348.227 15.88C350.187 15.88 351.902 16.2067 353.372 16.86C354.866 17.5133 356.114 18.435 357.117 19.625C358.121 20.7917 358.879 22.2033 359.392 23.86C359.906 25.5167 360.162 27.3483 360.162 29.355V52H353.302V29.355C353.302 26.8117 352.719 24.84 351.552 23.44C350.386 22.0167 348.601 21.305 346.197 21.305C344.447 21.305 342.802 21.725 341.262 22.565C339.746 23.3817 338.334 24.5017 337.027 25.925V52H330.202V16.44H334.297C335.254 16.44 335.849 16.895 336.082 17.805L336.607 21.375ZM384.527 15.88C387.14 15.88 389.497 16.3117 391.597 17.175C393.72 18.015 395.517 19.24 396.987 20.85C398.48 22.4367 399.624 24.3617 400.417 26.625C401.21 28.865 401.607 31.385 401.607 34.185C401.607 36.985 401.21 39.5167 400.417 41.78C399.624 44.0433 398.48 45.9683 396.987 47.555C395.517 49.1417 393.72 50.3667 391.597 51.23C389.497 52.07 387.14 52.49 384.527 52.49C381.89 52.49 379.51 52.07 377.387 51.23C375.287 50.3667 373.49 49.1417 371.997 47.555C370.504 45.9683 369.349 44.0433 368.532 41.78C367.739 39.5167 367.342 36.985 367.342 34.185C367.342 31.385 367.739 28.865 368.532 26.625C369.349 24.3617 370.504 22.4367 371.997 20.85C373.49 19.24 375.287 18.015 377.387 17.175C379.51 16.3117 381.89 15.88 384.527 15.88ZM384.527 47.17C387.887 47.17 390.395 46.0383 392.052 43.775C393.709 41.5117 394.537 38.3267 394.537 34.22C394.537 30.1133 393.709 26.9283 392.052 24.665C390.395 22.3783 387.887 21.235 384.527 21.235C381.12 21.235 378.577 22.3783 376.897 24.665C375.24 26.9283 374.412 30.1133 374.412 34.22C374.412 38.3267 375.24 41.5117 376.897 43.775C378.577 46.0383 381.12 47.17 384.527 47.17ZM426.406 28.06H443.906V33.87H426.406V28.06ZM524.931 1.74V52H518.421V16.23C518.421 15.6933 518.432 15.1217 518.456 14.515C518.502 13.9083 518.549 13.29 518.596 12.66L501.866 43.355C501.282 44.4983 500.384 45.07 499.171 45.07H498.121C496.907 45.07 496.021 44.4983 495.461 43.355L478.416 12.555C478.556 13.8617 478.626 15.0867 478.626 16.23V52H472.081V1.74H477.611C478.264 1.74 478.766 1.81 479.116 1.95C479.489 2.06666 479.839 2.41666 480.166 3L496.966 33.1C497.292 33.7067 497.596 34.3483 497.876 35.025C498.156 35.7017 498.424 36.3783 498.681 37.055C499.171 35.6783 499.742 34.3483 500.396 33.065L516.881 3C517.184 2.41666 517.511 2.06666 517.861 1.95C518.234 1.81 518.747 1.74 519.401 1.74H524.931ZM564.924 16.44V52H560.829C559.895 52 559.289 51.545 559.009 50.635L558.519 47.065C557.749 47.8817 556.944 48.6283 556.104 49.305C555.264 49.9817 554.365 50.565 553.409 51.055C552.452 51.5217 551.437 51.8833 550.364 52.14C549.29 52.42 548.135 52.56 546.899 52.56C544.939 52.56 543.212 52.2333 541.719 51.58C540.249 50.9267 539.012 50.0167 538.009 48.85C537.005 47.66 536.247 46.2367 535.734 44.58C535.22 42.9233 534.964 41.0917 534.964 39.085V16.44H541.824V39.085C541.824 41.6283 542.407 43.6117 543.574 45.035C544.74 46.435 546.525 47.135 548.929 47.135C550.679 47.135 552.312 46.7267 553.829 45.91C555.345 45.07 556.769 43.9267 558.099 42.48V16.44H564.924ZM580.855 21.375C581.625 20.5583 582.43 19.8117 583.27 19.135C584.11 18.4583 584.997 17.8867 585.93 17.42C586.887 16.93 587.902 16.5567 588.975 16.3C590.072 16.02 591.239 15.88 592.475 15.88C594.435 15.88 596.15 16.2067 597.62 16.86C599.114 17.5133 600.362 18.435 601.365 19.625C602.369 20.7917 603.127 22.2033 603.64 23.86C604.154 25.5167 604.41 27.3483 604.41 29.355V52H597.55V29.355C597.55 26.8117 596.967 24.84 595.8 23.44C594.634 22.0167 592.849 21.305 590.445 21.305C588.695 21.305 587.05 21.725 585.51 22.565C583.994 23.3817 582.582 24.5017 581.275 25.925V52H574.45V16.44H578.545C579.502 16.44 580.097 16.895 580.33 17.805L580.855 21.375ZM620.76 16.44V52H613.935V16.44H620.76ZM622.055 5.45C622.055 6.08 621.927 6.68666 621.67 7.27C621.414 7.83 621.064 8.33166 620.62 8.775C620.2 9.195 619.699 9.53333 619.115 9.79C618.532 10.0233 617.925 10.14 617.295 10.14C616.665 10.14 616.07 10.0233 615.51 9.79C614.95 9.53333 614.449 9.195 614.005 8.775C613.585 8.33166 613.247 7.83 612.99 7.27C612.757 6.68666 612.64 6.08 612.64 5.45C612.64 4.79667 612.757 4.19 612.99 3.63C613.247 3.04666 613.585 2.545 614.005 2.125C614.449 1.68166 614.95 1.34333 615.51 1.11C616.07 0.853331 616.665 0.724999 617.295 0.724999C617.925 0.724999 618.532 0.853331 619.115 1.11C619.699 1.34333 620.2 1.68166 620.62 2.125C621.064 2.545 621.414 3.04666 621.67 3.63C621.927 4.19 622.055 4.79667 622.055 5.45ZM655.562 23.09C655.352 23.3467 655.142 23.5567 654.932 23.72C654.745 23.86 654.465 23.93 654.092 23.93C653.718 23.93 653.322 23.79 652.902 23.51C652.505 23.2067 651.992 22.8917 651.362 22.565C650.755 22.215 650.008 21.9 649.122 21.62C648.258 21.3167 647.185 21.165 645.902 21.165C644.222 21.165 642.74 21.4683 641.457 22.075C640.173 22.6817 639.1 23.545 638.237 24.665C637.397 25.785 636.755 27.15 636.312 28.76C635.868 30.37 635.647 32.1783 635.647 34.185C635.647 36.2617 635.88 38.1167 636.347 39.75C636.813 41.36 637.478 42.725 638.342 43.845C639.205 44.9417 640.255 45.7817 641.492 46.365C642.728 46.925 644.105 47.205 645.622 47.205C647.092 47.205 648.305 47.03 649.262 46.68C650.218 46.3067 651.012 45.91 651.642 45.49C652.272 45.07 652.797 44.685 653.217 44.335C653.637 43.9617 654.068 43.775 654.512 43.775C655.072 43.775 655.503 43.985 655.807 44.405L657.767 46.925C656.95 47.9283 656.028 48.78 655.002 49.48C653.998 50.18 652.925 50.7517 651.782 51.195C650.638 51.6383 649.437 51.965 648.177 52.175C646.94 52.385 645.68 52.49 644.397 52.49C642.18 52.49 640.103 52.0817 638.167 51.265C636.253 50.4483 634.585 49.2583 633.162 47.695C631.762 46.1317 630.653 44.2183 629.837 41.955C629.02 39.6683 628.612 37.0783 628.612 34.185C628.612 31.5483 628.973 29.11 629.697 26.87C630.443 24.63 631.528 22.705 632.952 21.095C634.398 19.4617 636.172 18.19 638.272 17.28C640.372 16.3467 642.775 15.88 645.482 15.88C648.025 15.88 650.265 16.2883 652.202 17.105C654.138 17.9217 655.865 19.0767 657.382 20.57L655.562 23.09ZM671.313 16.44V52H664.453V16.44H671.313ZM678.733 1.18L670.438 10.21C670.088 10.6067 669.749 10.8867 669.423 11.05C669.096 11.19 668.664 11.26 668.128 11.26H663.998L669.178 2.79C669.504 2.25333 669.854 1.85667 670.228 1.6C670.624 1.32 671.231 1.18 672.048 1.18H678.733ZM687.984 43.25C689.104 44.72 690.306 45.7467 691.589 46.33C692.896 46.9133 694.354 47.205 695.964 47.205C699.091 47.205 701.506 46.085 703.209 43.845C704.936 41.5817 705.799 38.2917 705.799 33.975C705.799 31.7117 705.601 29.7867 705.204 28.2C704.831 26.59 704.271 25.2833 703.524 24.28C702.801 23.2533 701.903 22.5067 700.829 22.04C699.756 21.55 698.543 21.305 697.189 21.305C695.206 21.305 693.479 21.7483 692.009 22.635C690.563 23.5217 689.221 24.7817 687.984 26.415V43.25ZM687.634 21.76C688.381 20.8733 689.174 20.0683 690.014 19.345C690.878 18.5983 691.799 17.9683 692.779 17.455C693.759 16.9183 694.798 16.51 695.894 16.23C697.014 15.9267 698.204 15.775 699.464 15.775C701.494 15.775 703.326 16.1717 704.959 16.965C706.616 17.7583 708.028 18.925 709.194 20.465C710.361 22.005 711.259 23.9067 711.889 26.17C712.543 28.4333 712.869 31.035 712.869 33.975C712.869 36.6117 712.508 39.0617 711.784 41.325C711.084 43.565 710.069 45.5133 708.739 47.17C707.433 48.8267 705.823 50.1333 703.909 51.09C702.019 52.0233 699.884 52.49 697.504 52.49C695.381 52.49 693.561 52.14 692.044 51.44C690.528 50.74 689.174 49.76 687.984 48.5V63.935H681.159V16.44H685.254C686.211 16.44 686.806 16.895 687.039 17.805L687.634 21.76ZM727.674 16.44V52H720.849V16.44H727.674ZM728.969 5.45C728.969 6.08 728.841 6.68666 728.584 7.27C728.328 7.83 727.978 8.33166 727.534 8.775C727.114 9.195 726.613 9.53333 726.029 9.79C725.446 10.0233 724.839 10.14 724.209 10.14C723.579 10.14 722.984 10.0233 722.424 9.79C721.864 9.53333 721.363 9.195 720.919 8.775C720.499 8.33166 720.161 7.83 719.904 7.27C719.671 6.68666 719.554 6.08 719.554 5.45C719.554 4.79667 719.671 4.19 719.904 3.63C720.161 3.04666 720.499 2.545 720.919 2.125C721.363 1.68166 721.864 1.34333 722.424 1.11C722.984 0.853331 723.579 0.724999 724.209 0.724999C724.839 0.724999 725.446 0.853331 726.029 1.11C726.613 1.34333 727.114 1.68166 727.534 2.125C727.978 2.545 728.328 3.04666 728.584 3.63C728.841 4.19 728.969 4.79667 728.969 5.45ZM752.711 15.88C755.324 15.88 757.681 16.3117 759.781 17.175C761.904 18.015 763.701 19.24 765.171 20.85C766.664 22.4367 767.807 24.3617 768.601 26.625C769.394 28.865 769.791 31.385 769.791 34.185C769.791 36.985 769.394 39.5167 768.601 41.78C767.807 44.0433 766.664 45.9683 765.171 47.555C763.701 49.1417 761.904 50.3667 759.781 51.23C757.681 52.07 755.324 52.49 752.711 52.49C750.074 52.49 747.694 52.07 745.571 51.23C743.471 50.3667 741.674 49.1417 740.181 47.555C738.687 45.9683 737.532 44.0433 736.716 41.78C735.922 39.5167 735.526 36.985 735.526 34.185C735.526 31.385 735.922 28.865 736.716 26.625C737.532 24.3617 738.687 22.4367 740.181 20.85C741.674 19.24 743.471 18.015 745.571 17.175C747.694 16.3117 750.074 15.88 752.711 15.88ZM752.711 47.17C756.071 47.17 758.579 46.0383 760.236 43.775C761.892 41.5117 762.721 38.3267 762.721 34.22C762.721 30.1133 761.892 26.9283 760.236 24.665C758.579 22.3783 756.071 21.235 752.711 21.235C749.304 21.235 746.761 22.3783 745.081 24.665C743.424 26.9283 742.596 30.1133 742.596 34.22C742.596 38.3267 743.424 41.5117 745.081 43.775C746.761 46.0383 749.304 47.17 752.711 47.17ZM798.374 22.565C798.188 22.8683 797.989 23.09 797.779 23.23C797.569 23.3467 797.301 23.405 796.974 23.405C796.601 23.405 796.181 23.2767 795.714 23.02C795.271 22.7633 794.723 22.4833 794.069 22.18C793.439 21.8767 792.693 21.5967 791.829 21.34C790.966 21.0833 789.939 20.955 788.749 20.955C787.769 20.955 786.871 21.0833 786.054 21.34C785.261 21.5733 784.584 21.9117 784.024 22.355C783.464 22.775 783.033 23.2883 782.729 23.895C782.426 24.4783 782.274 25.1083 782.274 25.785C782.274 26.6717 782.531 27.4067 783.044 27.99C783.581 28.5733 784.269 29.075 785.109 29.495C785.973 29.915 786.941 30.3 788.014 30.65C789.111 30.9767 790.219 31.3267 791.339 31.7C792.483 32.0733 793.591 32.505 794.664 32.995C795.761 33.4617 796.729 34.0567 797.569 34.78C798.433 35.48 799.121 36.3317 799.634 37.335C800.171 38.3383 800.439 39.5633 800.439 41.01C800.439 42.6667 800.136 44.2067 799.529 45.63C798.946 47.03 798.071 48.2433 796.904 49.27C795.761 50.2967 794.338 51.1017 792.634 51.685C790.931 52.2683 788.983 52.56 786.789 52.56C784.339 52.56 782.076 52.1517 779.999 51.335C777.923 50.5183 776.184 49.48 774.784 48.22L776.394 45.595C776.581 45.2683 776.814 45.0233 777.094 44.86C777.374 44.6733 777.748 44.58 778.214 44.58C778.658 44.58 779.113 44.7433 779.579 45.07C780.046 45.3967 780.606 45.7583 781.259 46.155C781.913 46.5283 782.706 46.8783 783.639 47.205C784.573 47.5083 785.739 47.66 787.139 47.66C788.306 47.66 789.321 47.52 790.184 47.24C791.048 46.9367 791.759 46.54 792.319 46.05C792.903 45.5367 793.334 44.9533 793.614 44.3C793.894 43.6467 794.034 42.9583 794.034 42.235C794.034 41.3017 793.766 40.5317 793.229 39.925C792.716 39.295 792.028 38.7583 791.164 38.315C790.324 37.8717 789.356 37.4867 788.259 37.16C787.163 36.8333 786.043 36.4833 784.899 36.11C783.756 35.7367 782.636 35.305 781.539 34.815C780.443 34.325 779.463 33.7067 778.599 32.96C777.759 32.2133 777.071 31.3033 776.534 30.23C776.021 29.1567 775.764 27.85 775.764 26.31C775.764 24.9333 776.044 23.615 776.604 22.355C777.188 21.095 778.016 19.9867 779.089 19.03C780.186 18.0733 781.528 17.315 783.114 16.755C784.724 16.1717 786.556 15.88 788.609 15.88C790.966 15.88 793.089 16.2533 794.979 17C796.893 17.7467 798.526 18.7733 799.879 20.08L798.374 22.565Z" fill="#4C5773"/>
</svg>
