<svg width="1210" height="64" viewBox="0 0 1210 64" fill="none" xmlns="http://www.w3.org/2000/svg">
<path d="M30.6688 9.93C30.4354 10.3267 30.1904 10.6183 29.9338 10.805C29.6771 10.9917 29.3504 11.085 28.9538 11.085C28.5338 11.085 28.0554 10.8983 27.5188 10.525C26.9821 10.1283 26.3054 9.69667 25.4888 9.23C24.6954 8.74 23.7388 8.30833 22.6188 7.935C21.4988 7.53833 20.1571 7.34 18.5938 7.34C17.1238 7.34 15.8288 7.53833 14.7088 7.935C13.6121 8.30833 12.6904 8.83333 11.9438 9.51C11.1971 10.1633 10.6254 10.945 10.2288 11.855C9.85542 12.7417 9.66875 13.71 9.66875 14.76C9.66875 16.1133 10.0071 17.2333 10.6838 18.12C11.3838 19.0067 12.2938 19.765 13.4138 20.395C14.5338 21.025 15.8054 21.5733 17.2288 22.04C18.6521 22.5067 20.1104 22.9967 21.6038 23.51C23.0971 24 24.5554 24.5717 25.9788 25.225C27.4021 25.8783 28.6738 26.7067 29.7938 27.71C30.9138 28.69 31.8121 29.9033 32.4888 31.35C33.1888 32.7733 33.5388 34.5233 33.5388 36.6C33.5388 38.8167 33.1538 40.8933 32.3838 42.83C31.6371 44.7667 30.5404 46.4583 29.0938 47.905C27.6471 49.3517 25.8621 50.495 23.7388 51.335C21.6388 52.1517 19.2471 52.56 16.5638 52.56C14.9538 52.56 13.3904 52.3967 11.8738 52.07C10.3571 51.7667 8.92208 51.335 7.56875 50.775C6.21542 50.1917 4.94375 49.5033 3.75375 48.71C2.58708 47.8933 1.53708 46.9833 0.60375 45.98L2.73875 42.41C2.94875 42.13 3.19375 41.8967 3.47375 41.71C3.77708 41.5233 4.11542 41.43 4.48875 41.43C4.97875 41.43 5.53875 41.6867 6.16875 42.2C6.82208 42.7133 7.61542 43.285 8.54875 43.915C9.50542 44.5217 10.6371 45.0817 11.9438 45.595C13.2738 46.1083 14.8838 46.365 16.7738 46.365C18.3138 46.365 19.6904 46.1667 20.9038 45.77C22.1171 45.35 23.1321 44.7667 23.9488 44.02C24.7888 43.25 25.4304 42.3283 25.8738 41.255C26.3171 40.1817 26.5388 38.9917 26.5388 37.685C26.5388 36.215 26.2004 35.0133 25.5238 34.08C24.8471 33.1467 23.9488 32.365 22.8288 31.735C21.7088 31.105 20.4371 30.5683 19.0138 30.125C17.5904 29.6817 16.1321 29.2267 14.6388 28.76C13.1454 28.27 11.6871 27.71 10.2638 27.08C8.84042 26.45 7.56875 25.6333 6.44875 24.63C5.32875 23.6033 4.43042 22.3317 3.75375 20.815C3.07708 19.275 2.73875 17.385 2.73875 15.145C2.73875 13.3483 3.08875 11.61 3.78875 9.93C4.48875 8.25 5.50375 6.76833 6.83375 5.485C8.18708 4.17833 9.84375 3.14 11.8038 2.37C13.7638 1.57666 16.0038 1.18 18.5238 1.18C21.3471 1.18 23.9371 1.635 26.2938 2.545C28.6738 3.43166 30.7388 4.715 32.4888 6.395L30.6688 9.93ZM48.2065 16.44V52H41.3815V16.44H48.2065ZM49.5015 5.45C49.5015 6.08 49.3732 6.68666 49.1165 7.27C48.8598 7.83 48.5098 8.33166 48.0665 8.775C47.6465 9.195 47.1448 9.53333 46.5615 9.79C45.9782 10.0233 45.3715 10.14 44.7415 10.14C44.1115 10.14 43.5165 10.0233 42.9565 9.79C42.3965 9.53333 41.8948 9.195 41.4515 8.775C41.0315 8.33166 40.6932 7.83 40.4365 7.27C40.2032 6.68666 40.0865 6.08 40.0865 5.45C40.0865 4.79667 40.2032 4.19 40.4365 3.63C40.6932 3.04666 41.0315 2.545 41.4515 2.125C41.8948 1.68166 42.3965 1.34333 42.9565 1.11C43.5165 0.853331 44.1115 0.724999 44.7415 0.724999C45.3715 0.724999 45.9782 0.853331 46.5615 1.11C47.1448 1.34333 47.6465 1.68166 48.0665 2.125C48.5098 2.545 48.8598 3.04666 49.1165 3.63C49.3732 4.19 49.5015 4.79667 49.5015 5.45ZM79.053 22.565C78.8663 22.8683 78.668 23.09 78.458 23.23C78.248 23.3467 77.9796 23.405 77.653 23.405C77.2796 23.405 76.8596 23.2767 76.393 23.02C75.9496 22.7633 75.4013 22.4833 74.748 22.18C74.118 21.8767 73.3713 21.5967 72.508 21.34C71.6446 21.0833 70.618 20.955 69.428 20.955C68.448 20.955 67.5496 21.0833 66.733 21.34C65.9396 21.5733 65.263 21.9117 64.703 22.355C64.143 22.775 63.7113 23.2883 63.408 23.895C63.1046 24.4783 62.953 25.1083 62.953 25.785C62.953 26.6717 63.2096 27.4067 63.723 27.99C64.2596 28.5733 64.948 29.075 65.788 29.495C66.6513 29.915 67.6196 30.3 68.693 30.65C69.7896 30.9767 70.898 31.3267 72.018 31.7C73.1613 32.0733 74.2696 32.505 75.343 32.995C76.4396 33.4617 77.408 34.0567 78.248 34.78C79.1113 35.48 79.7996 36.3317 80.313 37.335C80.8496 38.3383 81.118 39.5633 81.118 41.01C81.118 42.6667 80.8146 44.2067 80.208 45.63C79.6246 47.03 78.7496 48.2433 77.583 49.27C76.4396 50.2967 75.0163 51.1017 73.313 51.685C71.6096 52.2683 69.6613 52.56 67.468 52.56C65.018 52.56 62.7546 52.1517 60.678 51.335C58.6013 50.5183 56.863 49.48 55.463 48.22L57.073 45.595C57.2596 45.2683 57.493 45.0233 57.773 44.86C58.053 44.6733 58.4263 44.58 58.893 44.58C59.3363 44.58 59.7913 44.7433 60.258 45.07C60.7246 45.3967 61.2846 45.7583 61.938 46.155C62.5913 46.5283 63.3846 46.8783 64.318 47.205C65.2513 47.5083 66.418 47.66 67.818 47.66C68.9846 47.66 69.9996 47.52 70.863 47.24C71.7263 46.9367 72.438 46.54 72.998 46.05C73.5813 45.5367 74.013 44.9533 74.293 44.3C74.573 43.6467 74.713 42.9583 74.713 42.235C74.713 41.3017 74.4446 40.5317 73.908 39.925C73.3946 39.295 72.7063 38.7583 71.843 38.315C71.003 37.8717 70.0346 37.4867 68.938 37.16C67.8413 36.8333 66.7213 36.4833 65.578 36.11C64.4346 35.7367 63.3146 35.305 62.218 34.815C61.1213 34.325 60.1413 33.7067 59.278 32.96C58.438 32.2133 57.7496 31.3033 57.213 30.23C56.6996 29.1567 56.443 27.85 56.443 26.31C56.443 24.9333 56.723 23.615 57.283 22.355C57.8663 21.095 58.6946 19.9867 59.768 19.03C60.8646 18.0733 62.2063 17.315 63.793 16.755C65.403 16.1717 67.2346 15.88 69.288 15.88C71.6446 15.88 73.768 16.2533 75.658 17C77.5713 17.7467 79.2046 18.7733 80.558 20.08L79.053 22.565ZM99.6379 52.56C96.7679 52.56 94.5512 51.755 92.9879 50.145C91.4479 48.535 90.6779 46.2367 90.6779 43.25V21.97H86.5479C86.1512 21.97 85.8129 21.8533 85.5329 21.62C85.2762 21.3633 85.1479 20.99 85.1479 20.5V17.735L90.9229 16.93L92.4629 6.325C92.5562 5.92833 92.7312 5.625 92.9879 5.415C93.2679 5.18166 93.6179 5.065 94.0379 5.065H97.5029V17H107.583V21.97H97.5029V42.795C97.5029 44.195 97.8412 45.245 98.5179 45.945C99.2179 46.6217 100.105 46.96 101.178 46.96C101.808 46.96 102.345 46.8783 102.788 46.715C103.255 46.5517 103.651 46.3767 103.978 46.19C104.305 45.98 104.585 45.7933 104.818 45.63C105.051 45.4667 105.261 45.385 105.448 45.385C105.681 45.385 105.856 45.4433 105.973 45.56C106.113 45.6533 106.253 45.8167 106.393 46.05L108.423 49.34C107.303 50.3667 105.973 51.16 104.433 51.72C102.893 52.28 101.295 52.56 99.6379 52.56ZM137.219 30.265C137.219 28.9117 137.021 27.6633 136.624 26.52C136.251 25.3767 135.691 24.385 134.944 23.545C134.197 22.705 133.287 22.0517 132.214 21.585C131.141 21.1183 129.904 20.885 128.504 20.885C125.634 20.885 123.371 21.7133 121.714 23.37C120.081 25.0267 119.042 27.325 118.599 30.265H137.219ZM142.854 46.925C142.014 47.905 141.046 48.7567 139.949 49.48C138.852 50.18 137.686 50.7517 136.449 51.195C135.212 51.6383 133.929 51.965 132.599 52.175C131.292 52.385 129.997 52.49 128.714 52.49C126.264 52.49 123.989 52.0817 121.889 51.265C119.812 50.425 118.004 49.2117 116.464 47.625C114.947 46.015 113.757 44.0317 112.894 41.675C112.054 39.295 111.634 36.565 111.634 33.485C111.634 31.0117 112.019 28.7133 112.789 26.59C113.559 24.4433 114.656 22.5767 116.079 20.99C117.526 19.4033 119.287 18.155 121.364 17.245C123.441 16.335 125.774 15.88 128.364 15.88C130.534 15.88 132.529 16.2417 134.349 16.965C136.192 17.665 137.779 18.6917 139.109 20.045C140.439 21.3983 141.477 23.0667 142.224 25.05C142.994 27.0333 143.379 29.2967 143.379 31.84C143.379 32.89 143.262 33.6017 143.029 33.975C142.796 34.325 142.364 34.5 141.734 34.5H118.424C118.494 36.6233 118.797 38.4783 119.334 40.065C119.871 41.6283 120.606 42.935 121.539 43.985C122.496 45.035 123.627 45.8167 124.934 46.33C126.241 46.8433 127.699 47.1 129.309 47.1C130.826 47.1 132.132 46.925 133.229 46.575C134.349 46.225 135.306 45.8517 136.099 45.455C136.916 45.035 137.592 44.65 138.129 44.3C138.689 43.95 139.179 43.775 139.599 43.775C140.159 43.775 140.591 43.985 140.894 44.405L142.854 46.925ZM150.715 52V16.44H154.81C155.767 16.44 156.362 16.895 156.595 17.805L157.085 21.2C158.392 19.6367 159.838 18.365 161.425 17.385C163.035 16.3817 164.913 15.88 167.06 15.88C169.417 15.88 171.33 16.5333 172.8 17.84C174.27 19.1233 175.343 20.8733 176.02 23.09C176.533 21.83 177.198 20.745 178.015 19.835C178.832 18.925 179.742 18.1783 180.745 17.595C181.748 17.0117 182.81 16.58 183.93 16.3C185.073 16.02 186.228 15.88 187.395 15.88C189.285 15.88 190.965 16.1833 192.435 16.79C193.928 17.3733 195.188 18.2367 196.215 19.38C197.242 20.5233 198.023 21.935 198.56 23.615C199.097 25.295 199.365 27.2083 199.365 29.355V52H192.505V29.355C192.505 26.695 191.922 24.6883 190.755 23.335C189.612 21.9817 187.932 21.305 185.715 21.305C184.735 21.305 183.802 21.48 182.915 21.83C182.028 22.1567 181.247 22.6583 180.57 23.335C179.917 24.0117 179.392 24.8517 178.995 25.855C178.622 26.8583 178.435 28.025 178.435 29.355V52H171.575V29.355C171.575 26.6017 171.027 24.5717 169.93 23.265C168.833 21.9583 167.223 21.305 165.1 21.305C163.63 21.305 162.265 21.69 161.005 22.46C159.745 23.23 158.59 24.28 157.54 25.61V52H150.715ZM227.657 36.215C224.88 36.3083 222.524 36.53 220.587 36.88C218.65 37.2067 217.075 37.65 215.862 38.21C214.649 38.77 213.774 39.435 213.237 40.205C212.7 40.9517 212.432 41.7917 212.432 42.725C212.432 43.6117 212.572 44.3817 212.852 45.035C213.155 45.665 213.552 46.19 214.042 46.61C214.555 47.0067 215.15 47.2983 215.827 47.485C216.504 47.6717 217.239 47.765 218.032 47.765C219.082 47.765 220.039 47.66 220.902 47.45C221.789 47.24 222.617 46.9483 223.387 46.575C224.157 46.1783 224.892 45.7 225.592 45.14C226.292 44.58 226.98 43.9383 227.657 43.215V36.215ZM207.637 21.41C209.62 19.52 211.767 18.1083 214.077 17.175C216.41 16.2417 218.965 15.775 221.742 15.775C223.772 15.775 225.569 16.1133 227.132 16.79C228.695 17.4433 230.014 18.365 231.087 19.555C232.16 20.745 232.965 22.1683 233.502 23.825C234.062 25.4817 234.342 27.3133 234.342 29.32V52H231.297C230.62 52 230.107 51.895 229.757 51.685C229.407 51.4517 229.127 51.0317 228.917 50.425L228.182 47.31C227.272 48.15 226.374 48.8967 225.487 49.55C224.6 50.18 223.667 50.7283 222.687 51.195C221.73 51.6383 220.704 51.9767 219.607 52.21C218.51 52.4433 217.297 52.56 215.967 52.56C214.567 52.56 213.249 52.3733 212.012 52C210.799 51.6033 209.737 51.0083 208.827 50.215C207.917 49.4217 207.194 48.43 206.657 47.24C206.144 46.05 205.887 44.6617 205.887 43.075C205.887 41.675 206.26 40.3333 207.007 39.05C207.777 37.7433 209.014 36.5767 210.717 35.55C212.444 34.5233 214.684 33.6833 217.437 33.03C220.214 32.3767 223.62 32.0033 227.657 31.91V29.32C227.657 26.6367 227.085 24.63 225.942 23.3C224.799 21.97 223.119 21.305 220.902 21.305C219.409 21.305 218.149 21.4917 217.122 21.865C216.119 22.2383 215.244 22.6583 214.497 23.125C213.774 23.5683 213.132 23.9767 212.572 24.35C212.035 24.7233 211.475 24.91 210.892 24.91C210.425 24.91 210.017 24.7817 209.667 24.525C209.34 24.2683 209.072 23.965 208.862 23.615L207.637 21.41ZM264.444 22.565C264.257 22.8683 264.059 23.09 263.849 23.23C263.639 23.3467 263.37 23.405 263.044 23.405C262.67 23.405 262.25 23.2767 261.784 23.02C261.34 22.7633 260.792 22.4833 260.139 22.18C259.509 21.8767 258.762 21.5967 257.899 21.34C257.035 21.0833 256.009 20.955 254.819 20.955C253.839 20.955 252.94 21.0833 252.124 21.34C251.33 21.5733 250.654 21.9117 250.094 22.355C249.534 22.775 249.102 23.2883 248.799 23.895C248.495 24.4783 248.344 25.1083 248.344 25.785C248.344 26.6717 248.6 27.4067 249.114 27.99C249.65 28.5733 250.339 29.075 251.179 29.495C252.042 29.915 253.01 30.3 254.084 30.65C255.18 30.9767 256.289 31.3267 257.409 31.7C258.552 32.0733 259.66 32.505 260.734 32.995C261.83 33.4617 262.799 34.0567 263.639 34.78C264.502 35.48 265.19 36.3317 265.704 37.335C266.24 38.3383 266.509 39.5633 266.509 41.01C266.509 42.6667 266.205 44.2067 265.599 45.63C265.015 47.03 264.14 48.2433 262.974 49.27C261.83 50.2967 260.407 51.1017 258.704 51.685C257 52.2683 255.052 52.56 252.859 52.56C250.409 52.56 248.145 52.1517 246.069 51.335C243.992 50.5183 242.254 49.48 240.854 48.22L242.464 45.595C242.65 45.2683 242.884 45.0233 243.164 44.86C243.444 44.6733 243.817 44.58 244.284 44.58C244.727 44.58 245.182 44.7433 245.649 45.07C246.115 45.3967 246.675 45.7583 247.329 46.155C247.982 46.5283 248.775 46.8783 249.709 47.205C250.642 47.5083 251.809 47.66 253.209 47.66C254.375 47.66 255.39 47.52 256.254 47.24C257.117 46.9367 257.829 46.54 258.389 46.05C258.972 45.5367 259.404 44.9533 259.684 44.3C259.964 43.6467 260.104 42.9583 260.104 42.235C260.104 41.3017 259.835 40.5317 259.299 39.925C258.785 39.295 258.097 38.7583 257.234 38.315C256.394 37.8717 255.425 37.4867 254.329 37.16C253.232 36.8333 252.112 36.4833 250.969 36.11C249.825 35.7367 248.705 35.305 247.609 34.815C246.512 34.325 245.532 33.7067 244.669 32.96C243.829 32.2133 243.14 31.3033 242.604 30.23C242.09 29.1567 241.834 27.85 241.834 26.31C241.834 24.9333 242.114 23.615 242.674 22.355C243.257 21.095 244.085 19.9867 245.159 19.03C246.255 18.0733 247.597 17.315 249.184 16.755C250.794 16.1717 252.625 15.88 254.679 15.88C257.035 15.88 259.159 16.2533 261.049 17C262.962 17.7467 264.595 18.7733 265.949 20.08L264.444 22.565ZM324.189 45.945L324.154 52H293.004V1.74H324.154V7.795H300.494V23.72H319.534V29.565H300.494V45.945H324.189ZM352.422 22.565C352.235 22.8683 352.037 23.09 351.827 23.23C351.617 23.3467 351.349 23.405 351.022 23.405C350.649 23.405 350.229 23.2767 349.762 23.02C349.319 22.7633 348.77 22.4833 348.117 22.18C347.487 21.8767 346.74 21.5967 345.877 21.34C345.014 21.0833 343.987 20.955 342.797 20.955C341.817 20.955 340.919 21.0833 340.102 21.34C339.309 21.5733 338.632 21.9117 338.072 22.355C337.512 22.775 337.08 23.2883 336.777 23.895C336.474 24.4783 336.322 25.1083 336.322 25.785C336.322 26.6717 336.579 27.4067 337.092 27.99C337.629 28.5733 338.317 29.075 339.157 29.495C340.02 29.915 340.989 30.3 342.062 30.65C343.159 30.9767 344.267 31.3267 345.387 31.7C346.53 32.0733 347.639 32.505 348.712 32.995C349.809 33.4617 350.777 34.0567 351.617 34.78C352.48 35.48 353.169 36.3317 353.682 37.335C354.219 38.3383 354.487 39.5633 354.487 41.01C354.487 42.6667 354.184 44.2067 353.577 45.63C352.994 47.03 352.119 48.2433 350.952 49.27C349.809 50.2967 348.385 51.1017 346.682 51.685C344.979 52.2683 343.03 52.56 340.837 52.56C338.387 52.56 336.124 52.1517 334.047 51.335C331.97 50.5183 330.232 49.48 328.832 48.22L330.442 45.595C330.629 45.2683 330.862 45.0233 331.142 44.86C331.422 44.6733 331.795 44.58 332.262 44.58C332.705 44.58 333.16 44.7433 333.627 45.07C334.094 45.3967 334.654 45.7583 335.307 46.155C335.96 46.5283 336.754 46.8783 337.687 47.205C338.62 47.5083 339.787 47.66 341.187 47.66C342.354 47.66 343.369 47.52 344.232 47.24C345.095 46.9367 345.807 46.54 346.367 46.05C346.95 45.5367 347.382 44.9533 347.662 44.3C347.942 43.6467 348.082 42.9583 348.082 42.235C348.082 41.3017 347.814 40.5317 347.277 39.925C346.764 39.295 346.075 38.7583 345.212 38.315C344.372 37.8717 343.404 37.4867 342.307 37.16C341.21 36.8333 340.09 36.4833 338.947 36.11C337.804 35.7367 336.684 35.305 335.587 34.815C334.49 34.325 333.51 33.7067 332.647 32.96C331.807 32.2133 331.119 31.3033 330.582 30.23C330.069 29.1567 329.812 27.85 329.812 26.31C329.812 24.9333 330.092 23.615 330.652 22.355C331.235 21.095 332.064 19.9867 333.137 19.03C334.234 18.0733 335.575 17.315 337.162 16.755C338.772 16.1717 340.604 15.88 342.657 15.88C345.014 15.88 347.137 16.2533 349.027 17C350.94 17.7467 352.574 18.7733 353.927 20.08L352.422 22.565ZM373.007 52.56C370.137 52.56 367.92 51.755 366.357 50.145C364.817 48.535 364.047 46.2367 364.047 43.25V21.97H359.917C359.52 21.97 359.182 21.8533 358.902 21.62C358.645 21.3633 358.517 20.99 358.517 20.5V17.735L364.292 16.93L365.832 6.325C365.925 5.92833 366.1 5.625 366.357 5.415C366.637 5.18166 366.987 5.065 367.407 5.065H370.872V17H380.952V21.97H370.872V42.795C370.872 44.195 371.21 45.245 371.887 45.945C372.587 46.6217 373.474 46.96 374.547 46.96C375.177 46.96 375.714 46.8783 376.157 46.715C376.624 46.5517 377.02 46.3767 377.347 46.19C377.674 45.98 377.954 45.7933 378.187 45.63C378.42 45.4667 378.63 45.385 378.817 45.385C379.05 45.385 379.225 45.4433 379.342 45.56C379.482 45.6533 379.622 45.8167 379.762 46.05L381.792 49.34C380.672 50.3667 379.342 51.16 377.802 51.72C376.262 52.28 374.664 52.56 373.007 52.56ZM406.348 36.215C403.572 36.3083 401.215 36.53 399.278 36.88C397.342 37.2067 395.767 37.65 394.553 38.21C393.34 38.77 392.465 39.435 391.928 40.205C391.392 40.9517 391.123 41.7917 391.123 42.725C391.123 43.6117 391.263 44.3817 391.543 45.035C391.847 45.665 392.243 46.19 392.733 46.61C393.247 47.0067 393.842 47.2983 394.518 47.485C395.195 47.6717 395.93 47.765 396.723 47.765C397.773 47.765 398.73 47.66 399.593 47.45C400.48 47.24 401.308 46.9483 402.078 46.575C402.848 46.1783 403.583 45.7 404.283 45.14C404.983 44.58 405.672 43.9383 406.348 43.215V36.215ZM386.328 21.41C388.312 19.52 390.458 18.1083 392.768 17.175C395.102 16.2417 397.657 15.775 400.433 15.775C402.463 15.775 404.26 16.1133 405.823 16.79C407.387 17.4433 408.705 18.365 409.778 19.555C410.852 20.745 411.657 22.1683 412.193 23.825C412.753 25.4817 413.033 27.3133 413.033 29.32V52H409.988C409.312 52 408.798 51.895 408.448 51.685C408.098 51.4517 407.818 51.0317 407.608 50.425L406.873 47.31C405.963 48.15 405.065 48.8967 404.178 49.55C403.292 50.18 402.358 50.7283 401.378 51.195C400.422 51.6383 399.395 51.9767 398.298 52.21C397.202 52.4433 395.988 52.56 394.658 52.56C393.258 52.56 391.94 52.3733 390.703 52C389.49 51.6033 388.428 51.0083 387.518 50.215C386.608 49.4217 385.885 48.43 385.348 47.24C384.835 46.05 384.578 44.6617 384.578 43.075C384.578 41.675 384.952 40.3333 385.698 39.05C386.468 37.7433 387.705 36.5767 389.408 35.55C391.135 34.5233 393.375 33.6833 396.128 33.03C398.905 32.3767 402.312 32.0033 406.348 31.91V29.32C406.348 26.6367 405.777 24.63 404.633 23.3C403.49 21.97 401.81 21.305 399.593 21.305C398.1 21.305 396.84 21.4917 395.813 21.865C394.81 22.2383 393.935 22.6583 393.188 23.125C392.465 23.5683 391.823 23.9767 391.263 24.35C390.727 24.7233 390.167 24.91 389.583 24.91C389.117 24.91 388.708 24.7817 388.358 24.525C388.032 24.2683 387.763 23.965 387.553 23.615L386.328 21.41ZM445.095 25.05C443.975 23.58 442.762 22.5533 441.455 21.97C440.172 21.3867 438.725 21.095 437.115 21.095C433.988 21.095 431.562 22.2267 429.835 24.49C428.132 26.73 427.28 30.0083 427.28 34.325C427.28 36.5883 427.467 38.525 427.84 40.135C428.237 41.7217 428.797 43.0283 429.52 44.055C430.267 45.0583 431.177 45.805 432.25 46.295C433.323 46.7617 434.537 46.995 435.89 46.995C437.873 46.995 439.588 46.5517 441.035 45.665C442.482 44.7783 443.835 43.53 445.095 41.92V25.05ZM451.955 0.339998V52H447.825C446.868 52 446.273 51.545 446.04 50.635L445.445 46.54C443.928 48.3367 442.202 49.7833 440.265 50.88C438.352 51.9533 436.135 52.49 433.615 52.49C431.585 52.49 429.742 52.0933 428.085 51.3C426.452 50.5067 425.052 49.3517 423.885 47.835C422.718 46.295 421.82 44.3933 421.19 42.13C420.56 39.8667 420.245 37.265 420.245 34.325C420.245 31.6883 420.595 29.2383 421.295 26.975C421.995 24.7117 423.01 22.7517 424.34 21.095C425.67 19.4383 427.28 18.1433 429.17 17.21C431.06 16.2533 433.195 15.775 435.575 15.775C437.722 15.775 439.542 16.125 441.035 16.825C442.552 17.525 443.905 18.5167 445.095 19.8V0.339998H451.955ZM491.052 16.44V52H486.957C486.023 52 485.417 51.545 485.137 50.635L484.647 47.065C483.877 47.8817 483.072 48.6283 482.232 49.305C481.392 49.9817 480.493 50.565 479.537 51.055C478.58 51.5217 477.565 51.8833 476.492 52.14C475.418 52.42 474.263 52.56 473.027 52.56C471.067 52.56 469.34 52.2333 467.847 51.58C466.377 50.9267 465.14 50.0167 464.137 48.85C463.133 47.66 462.375 46.2367 461.862 44.58C461.348 42.9233 461.092 41.0917 461.092 39.085V16.44H467.952V39.085C467.952 41.6283 468.535 43.6117 469.702 45.035C470.868 46.435 472.653 47.135 475.057 47.135C476.807 47.135 478.44 46.7267 479.957 45.91C481.473 45.07 482.897 43.9267 484.227 42.48V16.44H491.052ZM519.688 36.215C516.912 36.3083 514.555 36.53 512.618 36.88C510.682 37.2067 509.107 37.65 507.893 38.21C506.68 38.77 505.805 39.435 505.268 40.205C504.732 40.9517 504.463 41.7917 504.463 42.725C504.463 43.6117 504.603 44.3817 504.883 45.035C505.187 45.665 505.583 46.19 506.073 46.61C506.587 47.0067 507.182 47.2983 507.858 47.485C508.535 47.6717 509.27 47.765 510.063 47.765C511.113 47.765 512.07 47.66 512.933 47.45C513.82 47.24 514.648 46.9483 515.418 46.575C516.188 46.1783 516.923 45.7 517.623 45.14C518.323 44.58 519.012 43.9383 519.688 43.215V36.215ZM499.668 21.41C501.652 19.52 503.798 18.1083 506.108 17.175C508.442 16.2417 510.997 15.775 513.773 15.775C515.803 15.775 517.6 16.1133 519.163 16.79C520.727 17.4433 522.045 18.365 523.118 19.555C524.192 20.745 524.997 22.1683 525.533 23.825C526.093 25.4817 526.373 27.3133 526.373 29.32V52H523.328C522.652 52 522.138 51.895 521.788 51.685C521.438 51.4517 521.158 51.0317 520.948 50.425L520.213 47.31C519.303 48.15 518.405 48.8967 517.518 49.55C516.632 50.18 515.698 50.7283 514.718 51.195C513.762 51.6383 512.735 51.9767 511.638 52.21C510.542 52.4433 509.328 52.56 507.998 52.56C506.598 52.56 505.28 52.3733 504.043 52C502.83 51.6033 501.768 51.0083 500.858 50.215C499.948 49.4217 499.225 48.43 498.688 47.24C498.175 46.05 497.918 44.6617 497.918 43.075C497.918 41.675 498.292 40.3333 499.038 39.05C499.808 37.7433 501.045 36.5767 502.748 35.55C504.475 34.5233 506.715 33.6833 509.468 33.03C512.245 32.3767 515.652 32.0033 519.688 31.91V29.32C519.688 26.6367 519.117 24.63 517.973 23.3C516.83 21.97 515.15 21.305 512.933 21.305C511.44 21.305 510.18 21.4917 509.153 21.865C508.15 22.2383 507.275 22.6583 506.528 23.125C505.805 23.5683 505.163 23.9767 504.603 24.35C504.067 24.7233 503.507 24.91 502.923 24.91C502.457 24.91 502.048 24.7817 501.698 24.525C501.372 24.2683 501.103 23.965 500.893 23.615L499.668 21.41ZM542.65 16.44V52H535.825V16.44H542.65ZM543.945 5.45C543.945 6.08 543.817 6.68666 543.56 7.27C543.303 7.83 542.953 8.33166 542.51 8.775C542.09 9.195 541.588 9.53333 541.005 9.79C540.422 10.0233 539.815 10.14 539.185 10.14C538.555 10.14 537.96 10.0233 537.4 9.79C536.84 9.53333 536.338 9.195 535.895 8.775C535.475 8.33166 535.137 7.83 534.88 7.27C534.647 6.68666 534.53 6.08 534.53 5.45C534.53 4.79667 534.647 4.19 534.88 3.63C535.137 3.04666 535.475 2.545 535.895 2.125C536.338 1.68166 536.84 1.34333 537.4 1.11C537.96 0.853331 538.555 0.724999 539.185 0.724999C539.815 0.724999 540.422 0.853331 541.005 1.11C541.588 1.34333 542.09 1.68166 542.51 2.125C542.953 2.545 543.303 3.04666 543.56 3.63C543.817 4.19 543.945 4.79667 543.945 5.45ZM573.496 22.565C573.31 22.8683 573.111 23.09 572.901 23.23C572.691 23.3467 572.423 23.405 572.096 23.405C571.723 23.405 571.303 23.2767 570.836 23.02C570.393 22.7633 569.845 22.4833 569.191 22.18C568.561 21.8767 567.815 21.5967 566.951 21.34C566.088 21.0833 565.061 20.955 563.871 20.955C562.891 20.955 561.993 21.0833 561.176 21.34C560.383 21.5733 559.706 21.9117 559.146 22.355C558.586 22.775 558.155 23.2883 557.851 23.895C557.548 24.4783 557.396 25.1083 557.396 25.785C557.396 26.6717 557.653 27.4067 558.166 27.99C558.703 28.5733 559.391 29.075 560.231 29.495C561.095 29.915 562.063 30.3 563.136 30.65C564.233 30.9767 565.341 31.3267 566.461 31.7C567.605 32.0733 568.713 32.505 569.786 32.995C570.883 33.4617 571.851 34.0567 572.691 34.78C573.555 35.48 574.243 36.3317 574.756 37.335C575.293 38.3383 575.561 39.5633 575.561 41.01C575.561 42.6667 575.258 44.2067 574.651 45.63C574.068 47.03 573.193 48.2433 572.026 49.27C570.883 50.2967 569.46 51.1017 567.756 51.685C566.053 52.2683 564.105 52.56 561.911 52.56C559.461 52.56 557.198 52.1517 555.121 51.335C553.045 50.5183 551.306 49.48 549.906 48.22L551.516 45.595C551.703 45.2683 551.936 45.0233 552.216 44.86C552.496 44.6733 552.87 44.58 553.336 44.58C553.78 44.58 554.235 44.7433 554.701 45.07C555.168 45.3967 555.728 45.7583 556.381 46.155C557.035 46.5283 557.828 46.8783 558.761 47.205C559.695 47.5083 560.861 47.66 562.261 47.66C563.428 47.66 564.443 47.52 565.306 47.24C566.17 46.9367 566.881 46.54 567.441 46.05C568.025 45.5367 568.456 44.9533 568.736 44.3C569.016 43.6467 569.156 42.9583 569.156 42.235C569.156 41.3017 568.888 40.5317 568.351 39.925C567.838 39.295 567.15 38.7583 566.286 38.315C565.446 37.8717 564.478 37.4867 563.381 37.16C562.285 36.8333 561.165 36.4833 560.021 36.11C558.878 35.7367 557.758 35.305 556.661 34.815C555.565 34.325 554.585 33.7067 553.721 32.96C552.881 32.2133 552.193 31.3033 551.656 30.23C551.143 29.1567 550.886 27.85 550.886 26.31C550.886 24.9333 551.166 23.615 551.726 22.355C552.31 21.095 553.138 19.9867 554.211 19.03C555.308 18.0733 556.65 17.315 558.236 16.755C559.846 16.1717 561.678 15.88 563.731 15.88C566.088 15.88 568.211 16.2533 570.101 17C572.015 17.7467 573.648 18.7733 575.001 20.08L573.496 22.565ZM582.391 47.905C582.391 47.275 582.508 46.68 582.741 46.12C582.975 45.56 583.29 45.07 583.686 44.65C584.106 44.23 584.596 43.9033 585.156 43.67C585.716 43.4133 586.323 43.285 586.976 43.285C587.606 43.285 588.201 43.4133 588.761 43.67C589.321 43.9033 589.811 44.23 590.231 44.65C590.651 45.07 590.978 45.56 591.211 46.12C591.468 46.68 591.596 47.275 591.596 47.905C591.596 48.5583 591.468 49.165 591.211 49.725C590.978 50.285 590.651 50.775 590.231 51.195C589.811 51.615 589.321 51.9417 588.761 52.175C588.201 52.4083 587.606 52.525 586.976 52.525C586.323 52.525 585.716 52.4083 585.156 52.175C584.596 51.9417 584.106 51.615 583.686 51.195C583.29 50.775 582.975 50.285 582.741 49.725C582.508 49.165 582.391 48.5583 582.391 47.905ZM582.391 22.005C582.391 21.375 582.508 20.78 582.741 20.22C582.975 19.66 583.29 19.17 583.686 18.75C584.106 18.33 584.596 18.0033 585.156 17.77C585.716 17.5133 586.323 17.385 586.976 17.385C587.606 17.385 588.201 17.5133 588.761 17.77C589.321 18.0033 589.811 18.33 590.231 18.75C590.651 19.17 590.978 19.66 591.211 20.22C591.468 20.78 591.596 21.375 591.596 22.005C591.596 22.6583 591.468 23.265 591.211 23.825C590.978 24.385 590.651 24.875 590.231 25.295C589.811 25.715 589.321 26.0417 588.761 26.275C588.201 26.5083 587.606 26.625 586.976 26.625C586.323 26.625 585.716 26.5083 585.156 26.275C584.596 26.0417 584.106 25.715 583.686 25.295C583.29 24.875 582.975 24.385 582.741 23.825C582.508 23.265 582.391 22.6583 582.391 22.005ZM648.008 45.525C648.755 45.525 649.338 45.7467 649.758 46.19C650.178 46.61 650.388 47.17 650.388 47.87V52H616.648V49.655C616.648 49.1883 616.741 48.6983 616.928 48.185C617.115 47.6483 617.43 47.17 617.873 46.75L633.763 30.825C635.093 29.495 636.295 28.2117 637.368 26.975C638.441 25.7383 639.351 24.5133 640.098 23.3C640.845 22.0633 641.416 20.8033 641.813 19.52C642.233 18.2367 642.443 16.8833 642.443 15.46C642.443 14.06 642.221 12.835 641.778 11.785C641.335 10.7117 640.728 9.825 639.958 9.125C639.188 8.425 638.278 7.9 637.228 7.55C636.178 7.2 635.046 7.025 633.833 7.025C632.62 7.025 631.5 7.2 630.473 7.55C629.47 7.9 628.571 8.39 627.778 9.02C626.985 9.65 626.32 10.3967 625.783 11.26C625.246 12.1233 624.861 13.0567 624.628 14.06C624.301 14.9467 623.881 15.5417 623.368 15.845C622.878 16.1483 622.155 16.2183 621.198 16.055L617.628 15.425C617.955 13.0917 618.596 11.0383 619.553 9.265C620.51 7.49166 621.711 6.01 623.158 4.82C624.605 3.60666 626.261 2.69666 628.128 2.09C630.018 1.48333 632.048 1.18 634.218 1.18C636.411 1.18 638.43 1.50667 640.273 2.16C642.14 2.79 643.75 3.71166 645.103 4.925C646.456 6.13833 647.518 7.62 648.288 9.37C649.058 11.0967 649.443 13.0567 649.443 15.25C649.443 17.1167 649.163 18.855 648.603 20.465C648.066 22.0517 647.32 23.5683 646.363 25.015C645.43 26.4617 644.333 27.8733 643.073 29.25C641.836 30.6033 640.518 31.98 639.118 33.38L626.378 46.4C627.358 46.1433 628.338 45.9333 629.318 45.77C630.321 45.6067 631.266 45.525 632.153 45.525H648.008ZM668.209 1.145C669.842 1.145 671.335 1.40166 672.689 1.915C674.042 2.405 675.185 3.12833 676.119 4.085C677.075 5.01833 677.81 6.16166 678.324 7.515C678.86 8.845 679.129 10.35 679.129 12.03C679.129 13.7333 678.86 15.2617 678.324 16.615C677.81 17.9683 677.075 19.1233 676.119 20.08C675.185 21.0133 674.042 21.7367 672.689 22.25C671.335 22.7633 669.842 23.02 668.209 23.02C666.552 23.02 665.047 22.7633 663.694 22.25C662.34 21.7367 661.185 21.0133 660.229 20.08C659.272 19.1233 658.525 17.9683 657.989 16.615C657.475 15.2617 657.219 13.7333 657.219 12.03C657.219 10.35 657.475 8.845 657.989 7.515C658.525 6.16166 659.272 5.01833 660.229 4.085C661.185 3.12833 662.34 2.405 663.694 1.915C665.047 1.40166 666.552 1.145 668.209 1.145ZM668.209 18.925C671.919 18.925 673.774 16.6383 673.774 12.065C673.774 7.49167 671.919 5.205 668.209 5.205C666.272 5.205 664.849 5.78833 663.939 6.955C663.029 8.09833 662.574 9.80167 662.574 12.065C662.574 14.3283 663.029 16.0433 663.939 17.21C664.849 18.3533 666.272 18.925 668.209 18.925ZM723.878 36.215C721.101 36.3083 718.744 36.53 716.808 36.88C714.871 37.2067 713.296 37.65 712.083 38.21C710.869 38.77 709.994 39.435 709.458 40.205C708.921 40.9517 708.653 41.7917 708.653 42.725C708.653 43.6117 708.793 44.3817 709.073 45.035C709.376 45.665 709.773 46.19 710.263 46.61C710.776 47.0067 711.371 47.2983 712.048 47.485C712.724 47.6717 713.459 47.765 714.253 47.765C715.303 47.765 716.259 47.66 717.123 47.45C718.009 47.24 718.838 46.9483 719.608 46.575C720.378 46.1783 721.113 45.7 721.813 45.14C722.513 44.58 723.201 43.9383 723.878 43.215V36.215ZM703.858 21.41C705.841 19.52 707.988 18.1083 710.298 17.175C712.631 16.2417 715.186 15.775 717.963 15.775C719.993 15.775 721.789 16.1133 723.353 16.79C724.916 17.4433 726.234 18.365 727.308 19.555C728.381 20.745 729.186 22.1683 729.723 23.825C730.283 25.4817 730.563 27.3133 730.563 29.32V52H727.518C726.841 52 726.328 51.895 725.978 51.685C725.628 51.4517 725.348 51.0317 725.138 50.425L724.403 47.31C723.493 48.15 722.594 48.8967 721.708 49.55C720.821 50.18 719.888 50.7283 718.908 51.195C717.951 51.6383 716.924 51.9767 715.828 52.21C714.731 52.4433 713.518 52.56 712.188 52.56C710.788 52.56 709.469 52.3733 708.233 52C707.019 51.6033 705.958 51.0083 705.048 50.215C704.138 49.4217 703.414 48.43 702.878 47.24C702.364 46.05 702.108 44.6617 702.108 43.075C702.108 41.675 702.481 40.3333 703.228 39.05C703.998 37.7433 705.234 36.5767 706.938 35.55C708.664 34.5233 710.904 33.6833 713.658 33.03C716.434 32.3767 719.841 32.0033 723.878 31.91V29.32C723.878 26.6367 723.306 24.63 722.163 23.3C721.019 21.97 719.339 21.305 717.123 21.305C715.629 21.305 714.369 21.4917 713.343 21.865C712.339 22.2383 711.464 22.6583 710.718 23.125C709.994 23.5683 709.353 23.9767 708.793 24.35C708.256 24.7233 707.696 24.91 707.113 24.91C706.646 24.91 706.238 24.7817 705.888 24.525C705.561 24.2683 705.293 23.965 705.083 23.615L703.858 21.41ZM746.104 21.375C746.874 20.5583 747.679 19.8117 748.519 19.135C749.359 18.4583 750.246 17.8867 751.179 17.42C752.136 16.93 753.151 16.5567 754.224 16.3C755.321 16.02 756.488 15.88 757.724 15.88C759.684 15.88 761.399 16.2067 762.869 16.86C764.363 17.5133 765.611 18.435 766.614 19.625C767.618 20.7917 768.376 22.2033 768.889 23.86C769.403 25.5167 769.659 27.3483 769.659 29.355V52H762.799V29.355C762.799 26.8117 762.216 24.84 761.049 23.44C759.883 22.0167 758.098 21.305 755.694 21.305C753.944 21.305 752.299 21.725 750.759 22.565C749.243 23.3817 747.831 24.5017 746.524 25.925V52H739.699V16.44H743.794C744.751 16.44 745.346 16.895 745.579 17.805L746.104 21.375ZM794.024 15.88C796.638 15.88 798.994 16.3117 801.094 17.175C803.218 18.015 805.014 19.24 806.484 20.85C807.978 22.4367 809.121 24.3617 809.914 26.625C810.708 28.865 811.104 31.385 811.104 34.185C811.104 36.985 810.708 39.5167 809.914 41.78C809.121 44.0433 807.978 45.9683 806.484 47.555C805.014 49.1417 803.218 50.3667 801.094 51.23C798.994 52.07 796.638 52.49 794.024 52.49C791.388 52.49 789.008 52.07 786.884 51.23C784.784 50.3667 782.988 49.1417 781.494 47.555C780.001 45.9683 778.846 44.0433 778.029 41.78C777.236 39.5167 776.839 36.985 776.839 34.185C776.839 31.385 777.236 28.865 778.029 26.625C778.846 24.3617 780.001 22.4367 781.494 20.85C782.988 19.24 784.784 18.015 786.884 17.175C789.008 16.3117 791.388 15.88 794.024 15.88ZM794.024 47.17C797.384 47.17 799.893 46.0383 801.549 43.775C803.206 41.5117 804.034 38.3267 804.034 34.22C804.034 30.1133 803.206 26.9283 801.549 24.665C799.893 22.3783 797.384 21.235 794.024 21.235C790.618 21.235 788.074 22.3783 786.394 24.665C784.738 26.9283 783.909 30.1133 783.909 34.22C783.909 38.3267 784.738 41.5117 786.394 43.775C788.074 46.0383 790.618 47.17 794.024 47.17ZM835.903 28.06H853.403V33.87H835.903V28.06ZM934.428 1.74V52H927.918V16.23C927.918 15.6933 927.929 15.1217 927.953 14.515C927.999 13.9083 928.046 13.29 928.093 12.66L911.363 43.355C910.779 44.4983 909.881 45.07 908.668 45.07H907.618C906.404 45.07 905.518 44.4983 904.958 43.355L887.913 12.555C888.053 13.8617 888.123 15.0867 888.123 16.23V52H881.578V1.74H887.108C887.761 1.74 888.263 1.81 888.613 1.95C888.986 2.06666 889.336 2.41666 889.663 3L906.463 33.1C906.789 33.7067 907.093 34.3483 907.373 35.025C907.653 35.7017 907.921 36.3783 908.178 37.055C908.668 35.6783 909.239 34.3483 909.893 33.065L926.378 3C926.681 2.41666 927.008 2.06666 927.358 1.95C927.731 1.81 928.244 1.74 928.898 1.74H934.428ZM974.421 16.44V52H970.326C969.392 52 968.786 51.545 968.506 50.635L968.016 47.065C967.246 47.8817 966.441 48.6283 965.601 49.305C964.761 49.9817 963.862 50.565 962.906 51.055C961.949 51.5217 960.934 51.8833 959.861 52.14C958.787 52.42 957.632 52.56 956.396 52.56C954.436 52.56 952.709 52.2333 951.216 51.58C949.746 50.9267 948.509 50.0167 947.506 48.85C946.502 47.66 945.744 46.2367 945.231 44.58C944.717 42.9233 944.461 41.0917 944.461 39.085V16.44H951.321V39.085C951.321 41.6283 951.904 43.6117 953.071 45.035C954.237 46.435 956.022 47.135 958.426 47.135C960.176 47.135 961.809 46.7267 963.326 45.91C964.842 45.07 966.266 43.9267 967.596 42.48V16.44H974.421ZM990.352 21.375C991.122 20.5583 991.927 19.8117 992.767 19.135C993.607 18.4583 994.494 17.8867 995.427 17.42C996.384 16.93 997.399 16.5567 998.472 16.3C999.569 16.02 1000.74 15.88 1001.97 15.88C1003.93 15.88 1005.65 16.2067 1007.12 16.86C1008.61 17.5133 1009.86 18.435 1010.86 19.625C1011.87 20.7917 1012.62 22.2033 1013.14 23.86C1013.65 25.5167 1013.91 27.3483 1013.91 29.355V52H1007.05V29.355C1007.05 26.8117 1006.46 24.84 1005.3 23.44C1004.13 22.0167 1002.35 21.305 999.942 21.305C998.192 21.305 996.547 21.725 995.007 22.565C993.491 23.3817 992.079 24.5017 990.772 25.925V52H983.947V16.44H988.042C988.999 16.44 989.594 16.895 989.827 17.805L990.352 21.375ZM1030.26 16.44V52H1023.43V16.44H1030.26ZM1031.55 5.45C1031.55 6.08 1031.42 6.68666 1031.17 7.27C1030.91 7.83 1030.56 8.33166 1030.12 8.775C1029.7 9.195 1029.2 9.53333 1028.61 9.79C1028.03 10.0233 1027.42 10.14 1026.79 10.14C1026.16 10.14 1025.57 10.0233 1025.01 9.79C1024.45 9.53333 1023.95 9.195 1023.5 8.775C1023.08 8.33166 1022.74 7.83 1022.49 7.27C1022.25 6.68666 1022.14 6.08 1022.14 5.45C1022.14 4.79667 1022.25 4.19 1022.49 3.63C1022.74 3.04666 1023.08 2.545 1023.5 2.125C1023.95 1.68166 1024.45 1.34333 1025.01 1.11C1025.57 0.853331 1026.16 0.724999 1026.79 0.724999C1027.42 0.724999 1028.03 0.853331 1028.61 1.11C1029.2 1.34333 1029.7 1.68166 1030.12 2.125C1030.56 2.545 1030.91 3.04666 1031.17 3.63C1031.42 4.19 1031.55 4.79667 1031.55 5.45ZM1065.06 23.09C1064.85 23.3467 1064.64 23.5567 1064.43 23.72C1064.24 23.86 1063.96 23.93 1063.59 23.93C1063.22 23.93 1062.82 23.79 1062.4 23.51C1062 23.2067 1061.49 22.8917 1060.86 22.565C1060.25 22.215 1059.51 21.9 1058.62 21.62C1057.76 21.3167 1056.68 21.165 1055.4 21.165C1053.72 21.165 1052.24 21.4683 1050.95 22.075C1049.67 22.6817 1048.6 23.545 1047.73 24.665C1046.89 25.785 1046.25 27.15 1045.81 28.76C1045.37 30.37 1045.14 32.1783 1045.14 34.185C1045.14 36.2617 1045.38 38.1167 1045.84 39.75C1046.31 41.36 1046.98 42.725 1047.84 43.845C1048.7 44.9417 1049.75 45.7817 1050.99 46.365C1052.23 46.925 1053.6 47.205 1055.12 47.205C1056.59 47.205 1057.8 47.03 1058.76 46.68C1059.72 46.3067 1060.51 45.91 1061.14 45.49C1061.77 45.07 1062.29 44.685 1062.71 44.335C1063.13 43.9617 1063.57 43.775 1064.01 43.775C1064.57 43.775 1065 43.985 1065.3 44.405L1067.26 46.925C1066.45 47.9283 1065.53 48.78 1064.5 49.48C1063.5 50.18 1062.42 50.7517 1061.28 51.195C1060.14 51.6383 1058.93 51.965 1057.67 52.175C1056.44 52.385 1055.18 52.49 1053.89 52.49C1051.68 52.49 1049.6 52.0817 1047.66 51.265C1045.75 50.4483 1044.08 49.2583 1042.66 47.695C1041.26 46.1317 1040.15 44.2183 1039.33 41.955C1038.52 39.6683 1038.11 37.0783 1038.11 34.185C1038.11 31.5483 1038.47 29.11 1039.19 26.87C1039.94 24.63 1041.03 22.705 1042.45 21.095C1043.9 19.4617 1045.67 18.19 1047.77 17.28C1049.87 16.3467 1052.27 15.88 1054.98 15.88C1057.52 15.88 1059.76 16.2883 1061.7 17.105C1063.64 17.9217 1065.36 19.0767 1066.88 20.57L1065.06 23.09ZM1080.81 16.44V52H1073.95V16.44H1080.81ZM1088.23 1.18L1079.93 10.21C1079.58 10.6067 1079.25 10.8867 1078.92 11.05C1078.59 11.19 1078.16 11.26 1077.62 11.26H1073.49L1078.67 2.79C1079 2.25333 1079.35 1.85667 1079.72 1.6C1080.12 1.32 1080.73 1.18 1081.54 1.18H1088.23ZM1097.48 43.25C1098.6 44.72 1099.8 45.7467 1101.09 46.33C1102.39 46.9133 1103.85 47.205 1105.46 47.205C1108.59 47.205 1111 46.085 1112.71 43.845C1114.43 41.5817 1115.3 38.2917 1115.3 33.975C1115.3 31.7117 1115.1 29.7867 1114.7 28.2C1114.33 26.59 1113.77 25.2833 1113.02 24.28C1112.3 23.2533 1111.4 22.5067 1110.33 22.04C1109.25 21.55 1108.04 21.305 1106.69 21.305C1104.7 21.305 1102.98 21.7483 1101.51 22.635C1100.06 23.5217 1098.72 24.7817 1097.48 26.415V43.25ZM1097.13 21.76C1097.88 20.8733 1098.67 20.0683 1099.51 19.345C1100.37 18.5983 1101.3 17.9683 1102.28 17.455C1103.26 16.9183 1104.29 16.51 1105.39 16.23C1106.51 15.9267 1107.7 15.775 1108.96 15.775C1110.99 15.775 1112.82 16.1717 1114.46 16.965C1116.11 17.7583 1117.52 18.925 1118.69 20.465C1119.86 22.005 1120.76 23.9067 1121.39 26.17C1122.04 28.4333 1122.37 31.035 1122.37 33.975C1122.37 36.6117 1122 39.0617 1121.28 41.325C1120.58 43.565 1119.57 45.5133 1118.24 47.17C1116.93 48.8267 1115.32 50.1333 1113.41 51.09C1111.52 52.0233 1109.38 52.49 1107 52.49C1104.88 52.49 1103.06 52.14 1101.54 51.44C1100.02 50.74 1098.67 49.76 1097.48 48.5V63.935H1090.66V16.44H1094.75C1095.71 16.44 1096.3 16.895 1096.54 17.805L1097.13 21.76ZM1137.17 16.44V52H1130.35V16.44H1137.17ZM1138.47 5.45C1138.47 6.08 1138.34 6.68666 1138.08 7.27C1137.82 7.83 1137.47 8.33166 1137.03 8.775C1136.61 9.195 1136.11 9.53333 1135.53 9.79C1134.94 10.0233 1134.34 10.14 1133.71 10.14C1133.08 10.14 1132.48 10.0233 1131.92 9.79C1131.36 9.53333 1130.86 9.195 1130.42 8.775C1130 8.33166 1129.66 7.83 1129.4 7.27C1129.17 6.68666 1129.05 6.08 1129.05 5.45C1129.05 4.79667 1129.17 4.19 1129.4 3.63C1129.66 3.04666 1130 2.545 1130.42 2.125C1130.86 1.68166 1131.36 1.34333 1131.92 1.11C1132.48 0.853331 1133.08 0.724999 1133.71 0.724999C1134.34 0.724999 1134.94 0.853331 1135.53 1.11C1136.11 1.34333 1136.61 1.68166 1137.03 2.125C1137.47 2.545 1137.82 3.04666 1138.08 3.63C1138.34 4.19 1138.47 4.79667 1138.47 5.45ZM1162.21 15.88C1164.82 15.88 1167.18 16.3117 1169.28 17.175C1171.4 18.015 1173.2 19.24 1174.67 20.85C1176.16 22.4367 1177.3 24.3617 1178.1 26.625C1178.89 28.865 1179.29 31.385 1179.29 34.185C1179.29 36.985 1178.89 39.5167 1178.1 41.78C1177.3 44.0433 1176.16 45.9683 1174.67 47.555C1173.2 49.1417 1171.4 50.3667 1169.28 51.23C1167.18 52.07 1164.82 52.49 1162.21 52.49C1159.57 52.49 1157.19 52.07 1155.07 51.23C1152.97 50.3667 1151.17 49.1417 1149.68 47.555C1148.18 45.9683 1147.03 44.0433 1146.21 41.78C1145.42 39.5167 1145.02 36.985 1145.02 34.185C1145.02 31.385 1145.42 28.865 1146.21 26.625C1147.03 24.3617 1148.18 22.4367 1149.68 20.85C1151.17 19.24 1152.97 18.015 1155.07 17.175C1157.19 16.3117 1159.57 15.88 1162.21 15.88ZM1162.21 47.17C1165.57 47.17 1168.08 46.0383 1169.73 43.775C1171.39 41.5117 1172.22 38.3267 1172.22 34.22C1172.22 30.1133 1171.39 26.9283 1169.73 24.665C1168.08 22.3783 1165.57 21.235 1162.21 21.235C1158.8 21.235 1156.26 22.3783 1154.58 24.665C1152.92 26.9283 1152.09 30.1133 1152.09 34.22C1152.09 38.3267 1152.92 41.5117 1154.58 43.775C1156.26 46.0383 1158.8 47.17 1162.21 47.17ZM1207.87 22.565C1207.68 22.8683 1207.49 23.09 1207.28 23.23C1207.07 23.3467 1206.8 23.405 1206.47 23.405C1206.1 23.405 1205.68 23.2767 1205.21 23.02C1204.77 22.7633 1204.22 22.4833 1203.57 22.18C1202.94 21.8767 1202.19 21.5967 1201.33 21.34C1200.46 21.0833 1199.44 20.955 1198.25 20.955C1197.27 20.955 1196.37 21.0833 1195.55 21.34C1194.76 21.5733 1194.08 21.9117 1193.52 22.355C1192.96 22.775 1192.53 23.2883 1192.23 23.895C1191.92 24.4783 1191.77 25.1083 1191.77 25.785C1191.77 26.6717 1192.03 27.4067 1192.54 27.99C1193.08 28.5733 1193.77 29.075 1194.61 29.495C1195.47 29.915 1196.44 30.3 1197.51 30.65C1198.61 30.9767 1199.72 31.3267 1200.84 31.7C1201.98 32.0733 1203.09 32.505 1204.16 32.995C1205.26 33.4617 1206.23 34.0567 1207.07 34.78C1207.93 35.48 1208.62 36.3317 1209.13 37.335C1209.67 38.3383 1209.94 39.5633 1209.94 41.01C1209.94 42.6667 1209.63 44.2067 1209.03 45.63C1208.44 47.03 1207.57 48.2433 1206.4 49.27C1205.26 50.2967 1203.83 51.1017 1202.13 51.685C1200.43 52.2683 1198.48 52.56 1196.29 52.56C1193.84 52.56 1191.57 52.1517 1189.5 51.335C1187.42 50.5183 1185.68 49.48 1184.28 48.22L1185.89 45.595C1186.08 45.2683 1186.31 45.0233 1186.59 44.86C1186.87 44.6733 1187.24 44.58 1187.71 44.58C1188.15 44.58 1188.61 44.7433 1189.08 45.07C1189.54 45.3967 1190.1 45.7583 1190.76 46.155C1191.41 46.5283 1192.2 46.8783 1193.14 47.205C1194.07 47.5083 1195.24 47.66 1196.64 47.66C1197.8 47.66 1198.82 47.52 1199.68 47.24C1200.54 46.9367 1201.26 46.54 1201.82 46.05C1202.4 45.5367 1202.83 44.9533 1203.11 44.3C1203.39 43.6467 1203.53 42.9583 1203.53 42.235C1203.53 41.3017 1203.26 40.5317 1202.73 39.925C1202.21 39.295 1201.52 38.7583 1200.66 38.315C1199.82 37.8717 1198.85 37.4867 1197.76 37.16C1196.66 36.8333 1195.54 36.4833 1194.4 36.11C1193.25 35.7367 1192.13 35.305 1191.04 34.815C1189.94 34.325 1188.96 33.7067 1188.1 32.96C1187.26 32.2133 1186.57 31.3033 1186.03 30.23C1185.52 29.1567 1185.26 27.85 1185.26 26.31C1185.26 24.9333 1185.54 23.615 1186.1 22.355C1186.68 21.095 1187.51 19.9867 1188.59 19.03C1189.68 18.0733 1191.02 17.315 1192.61 16.755C1194.22 16.1717 1196.05 15.88 1198.11 15.88C1200.46 15.88 1202.59 16.2533 1204.48 17C1206.39 17.7467 1208.02 18.7733 1209.38 20.08L1207.87 22.565Z" fill="#4C5773"/>
</svg>
