<svg width="992" height="53" viewBox="0 0 992 53" fill="none" xmlns="http://www.w3.org/2000/svg">
<path d="M31.0438 9.93C30.8104 10.3267 30.5654 10.6183 30.3088 10.805C30.0521 10.9917 29.7254 11.085 29.3288 11.085C28.9088 11.085 28.4304 10.8983 27.8938 10.525C27.3571 10.1283 26.6804 9.69667 25.8638 9.23C25.0704 8.74 24.1138 8.30833 22.9938 7.935C21.8738 7.53833 20.5321 7.34 18.9688 7.34C17.4988 7.34 16.2038 7.53833 15.0838 7.935C13.9871 8.30833 13.0654 8.83333 12.3188 9.51C11.5721 10.1633 11.0004 10.945 10.6038 11.855C10.2304 12.7417 10.0438 13.71 10.0438 14.76C10.0438 16.1133 10.3821 17.2333 11.0588 18.12C11.7588 19.0067 12.6688 19.765 13.7888 20.395C14.9088 21.025 16.1804 21.5733 17.6038 22.04C19.0271 22.5067 20.4854 22.9967 21.9788 23.51C23.4721 24 24.9304 24.5717 26.3538 25.225C27.7771 25.8783 29.0488 26.7067 30.1688 27.71C31.2888 28.69 32.1871 29.9033 32.8638 31.35C33.5638 32.7733 33.9138 34.5233 33.9138 36.6C33.9138 38.8167 33.5288 40.8933 32.7588 42.83C32.0121 44.7667 30.9154 46.4583 29.4688 47.905C28.0221 49.3517 26.2371 50.495 24.1138 51.335C22.0138 52.1517 19.6221 52.56 16.9388 52.56C15.3288 52.56 13.7654 52.3967 12.2488 52.07C10.7321 51.7667 9.29708 51.335 7.94375 50.775C6.59042 50.1917 5.31875 49.5033 4.12875 48.71C2.96208 47.8933 1.91208 46.9833 0.97875 45.98L3.11375 42.41C3.32375 42.13 3.56875 41.8967 3.84875 41.71C4.15208 41.5233 4.49042 41.43 4.86375 41.43C5.35375 41.43 5.91375 41.6867 6.54375 42.2C7.19708 42.7133 7.99042 43.285 8.92375 43.915C9.88042 44.5217 11.0121 45.0817 12.3188 45.595C13.6488 46.1083 15.2588 46.365 17.1488 46.365C18.6888 46.365 20.0654 46.1667 21.2788 45.77C22.4921 45.35 23.5071 44.7667 24.3238 44.02C25.1638 43.25 25.8054 42.3283 26.2488 41.255C26.6921 40.1817 26.9138 38.9917 26.9138 37.685C26.9138 36.215 26.5754 35.0133 25.8988 34.08C25.2221 33.1467 24.3238 32.365 23.2038 31.735C22.0838 31.105 20.8121 30.5683 19.3888 30.125C17.9654 29.6817 16.5071 29.2267 15.0138 28.76C13.5204 28.27 12.0621 27.71 10.6388 27.08C9.21542 26.45 7.94375 25.6333 6.82375 24.63C5.70375 23.6033 4.80542 22.3317 4.12875 20.815C3.45208 19.275 3.11375 17.385 3.11375 15.145C3.11375 13.3483 3.46375 11.61 4.16375 9.93C4.86375 8.25 5.87875 6.76833 7.20875 5.485C8.56208 4.17833 10.2188 3.14 12.1788 2.37C14.1388 1.57666 16.3788 1.18 18.8988 1.18C21.7221 1.18 24.3121 1.635 26.6688 2.545C29.0488 3.43166 31.1138 4.715 32.8638 6.395L31.0438 9.93ZM48.5815 16.44V52H41.7565V16.44H48.5815ZM49.8765 5.45C49.8765 6.08 49.7482 6.68666 49.4915 7.27C49.2348 7.83 48.8848 8.33166 48.4415 8.775C48.0215 9.195 47.5198 9.53333 46.9365 9.79C46.3532 10.0233 45.7465 10.14 45.1165 10.14C44.4865 10.14 43.8915 10.0233 43.3315 9.79C42.7715 9.53333 42.2698 9.195 41.8265 8.775C41.4065 8.33166 41.0682 7.83 40.8115 7.27C40.5782 6.68666 40.4615 6.08 40.4615 5.45C40.4615 4.79667 40.5782 4.19 40.8115 3.63C41.0682 3.04666 41.4065 2.545 41.8265 2.125C42.2698 1.68166 42.7715 1.34333 43.3315 1.11C43.8915 0.853331 44.4865 0.724999 45.1165 0.724999C45.7465 0.724999 46.3532 0.853331 46.9365 1.11C47.5198 1.34333 48.0215 1.68166 48.4415 2.125C48.8848 2.545 49.2348 3.04666 49.4915 3.63C49.7482 4.19 49.8765 4.79667 49.8765 5.45ZM79.428 22.565C79.2413 22.8683 79.043 23.09 78.833 23.23C78.623 23.3467 78.3546 23.405 78.028 23.405C77.6546 23.405 77.2346 23.2767 76.768 23.02C76.3246 22.7633 75.7763 22.4833 75.123 22.18C74.493 21.8767 73.7463 21.5967 72.883 21.34C72.0196 21.0833 70.993 20.955 69.803 20.955C68.823 20.955 67.9246 21.0833 67.108 21.34C66.3146 21.5733 65.638 21.9117 65.078 22.355C64.518 22.775 64.0863 23.2883 63.783 23.895C63.4796 24.4783 63.328 25.1083 63.328 25.785C63.328 26.6717 63.5846 27.4067 64.098 27.99C64.6346 28.5733 65.323 29.075 66.163 29.495C67.0263 29.915 67.9946 30.3 69.068 30.65C70.1646 30.9767 71.273 31.3267 72.393 31.7C73.5363 32.0733 74.6446 32.505 75.718 32.995C76.8146 33.4617 77.783 34.0567 78.623 34.78C79.4863 35.48 80.1746 36.3317 80.688 37.335C81.2246 38.3383 81.493 39.5633 81.493 41.01C81.493 42.6667 81.1896 44.2067 80.583 45.63C79.9996 47.03 79.1246 48.2433 77.958 49.27C76.8146 50.2967 75.3913 51.1017 73.688 51.685C71.9846 52.2683 70.0363 52.56 67.843 52.56C65.393 52.56 63.1296 52.1517 61.053 51.335C58.9763 50.5183 57.238 49.48 55.838 48.22L57.448 45.595C57.6346 45.2683 57.868 45.0233 58.148 44.86C58.428 44.6733 58.8013 44.58 59.268 44.58C59.7113 44.58 60.1663 44.7433 60.633 45.07C61.0996 45.3967 61.6596 45.7583 62.313 46.155C62.9663 46.5283 63.7596 46.8783 64.693 47.205C65.6263 47.5083 66.793 47.66 68.193 47.66C69.3596 47.66 70.3746 47.52 71.238 47.24C72.1013 46.9367 72.813 46.54 73.373 46.05C73.9563 45.5367 74.388 44.9533 74.668 44.3C74.948 43.6467 75.088 42.9583 75.088 42.235C75.088 41.3017 74.8196 40.5317 74.283 39.925C73.7696 39.295 73.0813 38.7583 72.218 38.315C71.378 37.8717 70.4096 37.4867 69.313 37.16C68.2163 36.8333 67.0963 36.4833 65.953 36.11C64.8096 35.7367 63.6896 35.305 62.593 34.815C61.4963 34.325 60.5163 33.7067 59.653 32.96C58.813 32.2133 58.1246 31.3033 57.588 30.23C57.0746 29.1567 56.818 27.85 56.818 26.31C56.818 24.9333 57.098 23.615 57.658 22.355C58.2413 21.095 59.0696 19.9867 60.143 19.03C61.2396 18.0733 62.5813 17.315 64.168 16.755C65.778 16.1717 67.6096 15.88 69.663 15.88C72.0196 15.88 74.143 16.2533 76.033 17C77.9463 17.7467 79.5796 18.7733 80.933 20.08L79.428 22.565ZM100.013 52.56C97.1429 52.56 94.9262 51.755 93.3629 50.145C91.8229 48.535 91.0529 46.2367 91.0529 43.25V21.97H86.9229C86.5262 21.97 86.1879 21.8533 85.9079 21.62C85.6512 21.3633 85.5229 20.99 85.5229 20.5V17.735L91.2979 16.93L92.8379 6.325C92.9312 5.92833 93.1062 5.625 93.3629 5.415C93.6429 5.18166 93.9929 5.065 94.4129 5.065H97.8779V17H107.958V21.97H97.8779V42.795C97.8779 44.195 98.2162 45.245 98.8929 45.945C99.5929 46.6217 100.48 46.96 101.553 46.96C102.183 46.96 102.72 46.8783 103.163 46.715C103.63 46.5517 104.026 46.3767 104.353 46.19C104.68 45.98 104.96 45.7933 105.193 45.63C105.426 45.4667 105.636 45.385 105.823 45.385C106.056 45.385 106.231 45.4433 106.348 45.56C106.488 45.6533 106.628 45.8167 106.768 46.05L108.798 49.34C107.678 50.3667 106.348 51.16 104.808 51.72C103.268 52.28 101.67 52.56 100.013 52.56ZM137.594 30.265C137.594 28.9117 137.396 27.6633 136.999 26.52C136.626 25.3767 136.066 24.385 135.319 23.545C134.572 22.705 133.662 22.0517 132.589 21.585C131.516 21.1183 130.279 20.885 128.879 20.885C126.009 20.885 123.746 21.7133 122.089 23.37C120.456 25.0267 119.417 27.325 118.974 30.265H137.594ZM143.229 46.925C142.389 47.905 141.421 48.7567 140.324 49.48C139.227 50.18 138.061 50.7517 136.824 51.195C135.587 51.6383 134.304 51.965 132.974 52.175C131.667 52.385 130.372 52.49 129.089 52.49C126.639 52.49 124.364 52.0817 122.264 51.265C120.187 50.425 118.379 49.2117 116.839 47.625C115.322 46.015 114.132 44.0317 113.269 41.675C112.429 39.295 112.009 36.565 112.009 33.485C112.009 31.0117 112.394 28.7133 113.164 26.59C113.934 24.4433 115.031 22.5767 116.454 20.99C117.901 19.4033 119.662 18.155 121.739 17.245C123.816 16.335 126.149 15.88 128.739 15.88C130.909 15.88 132.904 16.2417 134.724 16.965C136.567 17.665 138.154 18.6917 139.484 20.045C140.814 21.3983 141.852 23.0667 142.599 25.05C143.369 27.0333 143.754 29.2967 143.754 31.84C143.754 32.89 143.637 33.6017 143.404 33.975C143.171 34.325 142.739 34.5 142.109 34.5H118.799C118.869 36.6233 119.172 38.4783 119.709 40.065C120.246 41.6283 120.981 42.935 121.914 43.985C122.871 45.035 124.002 45.8167 125.309 46.33C126.616 46.8433 128.074 47.1 129.684 47.1C131.201 47.1 132.507 46.925 133.604 46.575C134.724 46.225 135.681 45.8517 136.474 45.455C137.291 45.035 137.967 44.65 138.504 44.3C139.064 43.95 139.554 43.775 139.974 43.775C140.534 43.775 140.966 43.985 141.269 44.405L143.229 46.925ZM151.09 52V16.44H155.185C156.142 16.44 156.737 16.895 156.97 17.805L157.46 21.2C158.767 19.6367 160.213 18.365 161.8 17.385C163.41 16.3817 165.288 15.88 167.435 15.88C169.792 15.88 171.705 16.5333 173.175 17.84C174.645 19.1233 175.718 20.8733 176.395 23.09C176.908 21.83 177.573 20.745 178.39 19.835C179.207 18.925 180.117 18.1783 181.12 17.595C182.123 17.0117 183.185 16.58 184.305 16.3C185.448 16.02 186.603 15.88 187.77 15.88C189.66 15.88 191.34 16.1833 192.81 16.79C194.303 17.3733 195.563 18.2367 196.59 19.38C197.617 20.5233 198.398 21.935 198.935 23.615C199.472 25.295 199.74 27.2083 199.74 29.355V52H192.88V29.355C192.88 26.695 192.297 24.6883 191.13 23.335C189.987 21.9817 188.307 21.305 186.09 21.305C185.11 21.305 184.177 21.48 183.29 21.83C182.403 22.1567 181.622 22.6583 180.945 23.335C180.292 24.0117 179.767 24.8517 179.37 25.855C178.997 26.8583 178.81 28.025 178.81 29.355V52H171.95V29.355C171.95 26.6017 171.402 24.5717 170.305 23.265C169.208 21.9583 167.598 21.305 165.475 21.305C164.005 21.305 162.64 21.69 161.38 22.46C160.12 23.23 158.965 24.28 157.915 25.61V52H151.09ZM228.032 36.215C225.255 36.3083 222.899 36.53 220.962 36.88C219.025 37.2067 217.45 37.65 216.237 38.21C215.024 38.77 214.149 39.435 213.612 40.205C213.075 40.9517 212.807 41.7917 212.807 42.725C212.807 43.6117 212.947 44.3817 213.227 45.035C213.53 45.665 213.927 46.19 214.417 46.61C214.93 47.0067 215.525 47.2983 216.202 47.485C216.879 47.6717 217.614 47.765 218.407 47.765C219.457 47.765 220.414 47.66 221.277 47.45C222.164 47.24 222.992 46.9483 223.762 46.575C224.532 46.1783 225.267 45.7 225.967 45.14C226.667 44.58 227.355 43.9383 228.032 43.215V36.215ZM208.012 21.41C209.995 19.52 212.142 18.1083 214.452 17.175C216.785 16.2417 219.34 15.775 222.117 15.775C224.147 15.775 225.944 16.1133 227.507 16.79C229.07 17.4433 230.389 18.365 231.462 19.555C232.535 20.745 233.34 22.1683 233.877 23.825C234.437 25.4817 234.717 27.3133 234.717 29.32V52H231.672C230.995 52 230.482 51.895 230.132 51.685C229.782 51.4517 229.502 51.0317 229.292 50.425L228.557 47.31C227.647 48.15 226.749 48.8967 225.862 49.55C224.975 50.18 224.042 50.7283 223.062 51.195C222.105 51.6383 221.079 51.9767 219.982 52.21C218.885 52.4433 217.672 52.56 216.342 52.56C214.942 52.56 213.624 52.3733 212.387 52C211.174 51.6033 210.112 51.0083 209.202 50.215C208.292 49.4217 207.569 48.43 207.032 47.24C206.519 46.05 206.262 44.6617 206.262 43.075C206.262 41.675 206.635 40.3333 207.382 39.05C208.152 37.7433 209.389 36.5767 211.092 35.55C212.819 34.5233 215.059 33.6833 217.812 33.03C220.589 32.3767 223.995 32.0033 228.032 31.91V29.32C228.032 26.6367 227.46 24.63 226.317 23.3C225.174 21.97 223.494 21.305 221.277 21.305C219.784 21.305 218.524 21.4917 217.497 21.865C216.494 22.2383 215.619 22.6583 214.872 23.125C214.149 23.5683 213.507 23.9767 212.947 24.35C212.41 24.7233 211.85 24.91 211.267 24.91C210.8 24.91 210.392 24.7817 210.042 24.525C209.715 24.2683 209.447 23.965 209.237 23.615L208.012 21.41ZM264.819 22.565C264.632 22.8683 264.434 23.09 264.224 23.23C264.014 23.3467 263.745 23.405 263.419 23.405C263.045 23.405 262.625 23.2767 262.159 23.02C261.715 22.7633 261.167 22.4833 260.514 22.18C259.884 21.8767 259.137 21.5967 258.274 21.34C257.41 21.0833 256.384 20.955 255.194 20.955C254.214 20.955 253.315 21.0833 252.499 21.34C251.705 21.5733 251.029 21.9117 250.469 22.355C249.909 22.775 249.477 23.2883 249.174 23.895C248.87 24.4783 248.719 25.1083 248.719 25.785C248.719 26.6717 248.975 27.4067 249.489 27.99C250.025 28.5733 250.714 29.075 251.554 29.495C252.417 29.915 253.385 30.3 254.459 30.65C255.555 30.9767 256.664 31.3267 257.784 31.7C258.927 32.0733 260.035 32.505 261.109 32.995C262.205 33.4617 263.174 34.0567 264.014 34.78C264.877 35.48 265.565 36.3317 266.079 37.335C266.615 38.3383 266.884 39.5633 266.884 41.01C266.884 42.6667 266.58 44.2067 265.974 45.63C265.39 47.03 264.515 48.2433 263.349 49.27C262.205 50.2967 260.782 51.1017 259.079 51.685C257.375 52.2683 255.427 52.56 253.234 52.56C250.784 52.56 248.52 52.1517 246.444 51.335C244.367 50.5183 242.629 49.48 241.229 48.22L242.839 45.595C243.025 45.2683 243.259 45.0233 243.539 44.86C243.819 44.6733 244.192 44.58 244.659 44.58C245.102 44.58 245.557 44.7433 246.024 45.07C246.49 45.3967 247.05 45.7583 247.704 46.155C248.357 46.5283 249.15 46.8783 250.084 47.205C251.017 47.5083 252.184 47.66 253.584 47.66C254.75 47.66 255.765 47.52 256.629 47.24C257.492 46.9367 258.204 46.54 258.764 46.05C259.347 45.5367 259.779 44.9533 260.059 44.3C260.339 43.6467 260.479 42.9583 260.479 42.235C260.479 41.3017 260.21 40.5317 259.674 39.925C259.16 39.295 258.472 38.7583 257.609 38.315C256.769 37.8717 255.8 37.4867 254.704 37.16C253.607 36.8333 252.487 36.4833 251.344 36.11C250.2 35.7367 249.08 35.305 247.984 34.815C246.887 34.325 245.907 33.7067 245.044 32.96C244.204 32.2133 243.515 31.3033 242.979 30.23C242.465 29.1567 242.209 27.85 242.209 26.31C242.209 24.9333 242.489 23.615 243.049 22.355C243.632 21.095 244.46 19.9867 245.534 19.03C246.63 18.0733 247.972 17.315 249.559 16.755C251.169 16.1717 253 15.88 255.054 15.88C257.41 15.88 259.534 16.2533 261.424 17C263.337 17.7467 264.97 18.7733 266.324 20.08L264.819 22.565ZM324.564 45.945L324.529 52H293.379V1.74H324.529V7.795H300.869V23.72H319.909V29.565H300.869V45.945H324.564ZM352.797 22.565C352.61 22.8683 352.412 23.09 352.202 23.23C351.992 23.3467 351.724 23.405 351.397 23.405C351.024 23.405 350.604 23.2767 350.137 23.02C349.694 22.7633 349.145 22.4833 348.492 22.18C347.862 21.8767 347.115 21.5967 346.252 21.34C345.389 21.0833 344.362 20.955 343.172 20.955C342.192 20.955 341.294 21.0833 340.477 21.34C339.684 21.5733 339.007 21.9117 338.447 22.355C337.887 22.775 337.455 23.2883 337.152 23.895C336.849 24.4783 336.697 25.1083 336.697 25.785C336.697 26.6717 336.954 27.4067 337.467 27.99C338.004 28.5733 338.692 29.075 339.532 29.495C340.395 29.915 341.364 30.3 342.437 30.65C343.534 30.9767 344.642 31.3267 345.762 31.7C346.905 32.0733 348.014 32.505 349.087 32.995C350.184 33.4617 351.152 34.0567 351.992 34.78C352.855 35.48 353.544 36.3317 354.057 37.335C354.594 38.3383 354.862 39.5633 354.862 41.01C354.862 42.6667 354.559 44.2067 353.952 45.63C353.369 47.03 352.494 48.2433 351.327 49.27C350.184 50.2967 348.76 51.1017 347.057 51.685C345.354 52.2683 343.405 52.56 341.212 52.56C338.762 52.56 336.499 52.1517 334.422 51.335C332.345 50.5183 330.607 49.48 329.207 48.22L330.817 45.595C331.004 45.2683 331.237 45.0233 331.517 44.86C331.797 44.6733 332.17 44.58 332.637 44.58C333.08 44.58 333.535 44.7433 334.002 45.07C334.469 45.3967 335.029 45.7583 335.682 46.155C336.335 46.5283 337.129 46.8783 338.062 47.205C338.995 47.5083 340.162 47.66 341.562 47.66C342.729 47.66 343.744 47.52 344.607 47.24C345.47 46.9367 346.182 46.54 346.742 46.05C347.325 45.5367 347.757 44.9533 348.037 44.3C348.317 43.6467 348.457 42.9583 348.457 42.235C348.457 41.3017 348.189 40.5317 347.652 39.925C347.139 39.295 346.45 38.7583 345.587 38.315C344.747 37.8717 343.779 37.4867 342.682 37.16C341.585 36.8333 340.465 36.4833 339.322 36.11C338.179 35.7367 337.059 35.305 335.962 34.815C334.865 34.325 333.885 33.7067 333.022 32.96C332.182 32.2133 331.494 31.3033 330.957 30.23C330.444 29.1567 330.187 27.85 330.187 26.31C330.187 24.9333 330.467 23.615 331.027 22.355C331.61 21.095 332.439 19.9867 333.512 19.03C334.609 18.0733 335.95 17.315 337.537 16.755C339.147 16.1717 340.979 15.88 343.032 15.88C345.389 15.88 347.512 16.2533 349.402 17C351.315 17.7467 352.949 18.7733 354.302 20.08L352.797 22.565ZM373.382 52.56C370.512 52.56 368.295 51.755 366.732 50.145C365.192 48.535 364.422 46.2367 364.422 43.25V21.97H360.292C359.895 21.97 359.557 21.8533 359.277 21.62C359.02 21.3633 358.892 20.99 358.892 20.5V17.735L364.667 16.93L366.207 6.325C366.3 5.92833 366.475 5.625 366.732 5.415C367.012 5.18166 367.362 5.065 367.782 5.065H371.247V17H381.327V21.97H371.247V42.795C371.247 44.195 371.585 45.245 372.262 45.945C372.962 46.6217 373.849 46.96 374.922 46.96C375.552 46.96 376.089 46.8783 376.532 46.715C376.999 46.5517 377.395 46.3767 377.722 46.19C378.049 45.98 378.329 45.7933 378.562 45.63C378.795 45.4667 379.005 45.385 379.192 45.385C379.425 45.385 379.6 45.4433 379.717 45.56C379.857 45.6533 379.997 45.8167 380.137 46.05L382.167 49.34C381.047 50.3667 379.717 51.16 378.177 51.72C376.637 52.28 375.039 52.56 373.382 52.56ZM406.723 36.215C403.947 36.3083 401.59 36.53 399.653 36.88C397.717 37.2067 396.142 37.65 394.928 38.21C393.715 38.77 392.84 39.435 392.303 40.205C391.767 40.9517 391.498 41.7917 391.498 42.725C391.498 43.6117 391.638 44.3817 391.918 45.035C392.222 45.665 392.618 46.19 393.108 46.61C393.622 47.0067 394.217 47.2983 394.893 47.485C395.57 47.6717 396.305 47.765 397.098 47.765C398.148 47.765 399.105 47.66 399.968 47.45C400.855 47.24 401.683 46.9483 402.453 46.575C403.223 46.1783 403.958 45.7 404.658 45.14C405.358 44.58 406.047 43.9383 406.723 43.215V36.215ZM386.703 21.41C388.687 19.52 390.833 18.1083 393.143 17.175C395.477 16.2417 398.032 15.775 400.808 15.775C402.838 15.775 404.635 16.1133 406.198 16.79C407.762 17.4433 409.08 18.365 410.153 19.555C411.227 20.745 412.032 22.1683 412.568 23.825C413.128 25.4817 413.408 27.3133 413.408 29.32V52H410.363C409.687 52 409.173 51.895 408.823 51.685C408.473 51.4517 408.193 51.0317 407.983 50.425L407.248 47.31C406.338 48.15 405.44 48.8967 404.553 49.55C403.667 50.18 402.733 50.7283 401.753 51.195C400.797 51.6383 399.77 51.9767 398.673 52.21C397.577 52.4433 396.363 52.56 395.033 52.56C393.633 52.56 392.315 52.3733 391.078 52C389.865 51.6033 388.803 51.0083 387.893 50.215C386.983 49.4217 386.26 48.43 385.723 47.24C385.21 46.05 384.953 44.6617 384.953 43.075C384.953 41.675 385.327 40.3333 386.073 39.05C386.843 37.7433 388.08 36.5767 389.783 35.55C391.51 34.5233 393.75 33.6833 396.503 33.03C399.28 32.3767 402.687 32.0033 406.723 31.91V29.32C406.723 26.6367 406.152 24.63 405.008 23.3C403.865 21.97 402.185 21.305 399.968 21.305C398.475 21.305 397.215 21.4917 396.188 21.865C395.185 22.2383 394.31 22.6583 393.563 23.125C392.84 23.5683 392.198 23.9767 391.638 24.35C391.102 24.7233 390.542 24.91 389.958 24.91C389.492 24.91 389.083 24.7817 388.733 24.525C388.407 24.2683 388.138 23.965 387.928 23.615L386.703 21.41ZM445.47 25.05C444.35 23.58 443.137 22.5533 441.83 21.97C440.547 21.3867 439.1 21.095 437.49 21.095C434.363 21.095 431.937 22.2267 430.21 24.49C428.507 26.73 427.655 30.0083 427.655 34.325C427.655 36.5883 427.842 38.525 428.215 40.135C428.612 41.7217 429.172 43.0283 429.895 44.055C430.642 45.0583 431.552 45.805 432.625 46.295C433.698 46.7617 434.912 46.995 436.265 46.995C438.248 46.995 439.963 46.5517 441.41 45.665C442.857 44.7783 444.21 43.53 445.47 41.92V25.05ZM452.33 0.339998V52H448.2C447.243 52 446.648 51.545 446.415 50.635L445.82 46.54C444.303 48.3367 442.577 49.7833 440.64 50.88C438.727 51.9533 436.51 52.49 433.99 52.49C431.96 52.49 430.117 52.0933 428.46 51.3C426.827 50.5067 425.427 49.3517 424.26 47.835C423.093 46.295 422.195 44.3933 421.565 42.13C420.935 39.8667 420.62 37.265 420.62 34.325C420.62 31.6883 420.97 29.2383 421.67 26.975C422.37 24.7117 423.385 22.7517 424.715 21.095C426.045 19.4383 427.655 18.1433 429.545 17.21C431.435 16.2533 433.57 15.775 435.95 15.775C438.097 15.775 439.917 16.125 441.41 16.825C442.927 17.525 444.28 18.5167 445.47 19.8V0.339998H452.33ZM491.427 16.44V52H487.332C486.398 52 485.792 51.545 485.512 50.635L485.022 47.065C484.252 47.8817 483.447 48.6283 482.607 49.305C481.767 49.9817 480.868 50.565 479.912 51.055C478.955 51.5217 477.94 51.8833 476.867 52.14C475.793 52.42 474.638 52.56 473.402 52.56C471.442 52.56 469.715 52.2333 468.222 51.58C466.752 50.9267 465.515 50.0167 464.512 48.85C463.508 47.66 462.75 46.2367 462.237 44.58C461.723 42.9233 461.467 41.0917 461.467 39.085V16.44H468.327V39.085C468.327 41.6283 468.91 43.6117 470.077 45.035C471.243 46.435 473.028 47.135 475.432 47.135C477.182 47.135 478.815 46.7267 480.332 45.91C481.848 45.07 483.272 43.9267 484.602 42.48V16.44H491.427ZM520.063 36.215C517.287 36.3083 514.93 36.53 512.993 36.88C511.057 37.2067 509.482 37.65 508.268 38.21C507.055 38.77 506.18 39.435 505.643 40.205C505.107 40.9517 504.838 41.7917 504.838 42.725C504.838 43.6117 504.978 44.3817 505.258 45.035C505.562 45.665 505.958 46.19 506.448 46.61C506.962 47.0067 507.557 47.2983 508.233 47.485C508.91 47.6717 509.645 47.765 510.438 47.765C511.488 47.765 512.445 47.66 513.308 47.45C514.195 47.24 515.023 46.9483 515.793 46.575C516.563 46.1783 517.298 45.7 517.998 45.14C518.698 44.58 519.387 43.9383 520.063 43.215V36.215ZM500.043 21.41C502.027 19.52 504.173 18.1083 506.483 17.175C508.817 16.2417 511.372 15.775 514.148 15.775C516.178 15.775 517.975 16.1133 519.538 16.79C521.102 17.4433 522.42 18.365 523.493 19.555C524.567 20.745 525.372 22.1683 525.908 23.825C526.468 25.4817 526.748 27.3133 526.748 29.32V52H523.703C523.027 52 522.513 51.895 522.163 51.685C521.813 51.4517 521.533 51.0317 521.323 50.425L520.588 47.31C519.678 48.15 518.78 48.8967 517.893 49.55C517.007 50.18 516.073 50.7283 515.093 51.195C514.137 51.6383 513.11 51.9767 512.013 52.21C510.917 52.4433 509.703 52.56 508.373 52.56C506.973 52.56 505.655 52.3733 504.418 52C503.205 51.6033 502.143 51.0083 501.233 50.215C500.323 49.4217 499.6 48.43 499.063 47.24C498.55 46.05 498.293 44.6617 498.293 43.075C498.293 41.675 498.667 40.3333 499.413 39.05C500.183 37.7433 501.42 36.5767 503.123 35.55C504.85 34.5233 507.09 33.6833 509.843 33.03C512.62 32.3767 516.027 32.0033 520.063 31.91V29.32C520.063 26.6367 519.492 24.63 518.348 23.3C517.205 21.97 515.525 21.305 513.308 21.305C511.815 21.305 510.555 21.4917 509.528 21.865C508.525 22.2383 507.65 22.6583 506.903 23.125C506.18 23.5683 505.538 23.9767 504.978 24.35C504.442 24.7233 503.882 24.91 503.298 24.91C502.832 24.91 502.423 24.7817 502.073 24.525C501.747 24.2683 501.478 23.965 501.268 23.615L500.043 21.41ZM543.025 16.44V52H536.2V16.44H543.025ZM544.32 5.45C544.32 6.08 544.192 6.68666 543.935 7.27C543.678 7.83 543.328 8.33166 542.885 8.775C542.465 9.195 541.963 9.53333 541.38 9.79C540.797 10.0233 540.19 10.14 539.56 10.14C538.93 10.14 538.335 10.0233 537.775 9.79C537.215 9.53333 536.713 9.195 536.27 8.775C535.85 8.33166 535.512 7.83 535.255 7.27C535.022 6.68666 534.905 6.08 534.905 5.45C534.905 4.79667 535.022 4.19 535.255 3.63C535.512 3.04666 535.85 2.545 536.27 2.125C536.713 1.68166 537.215 1.34333 537.775 1.11C538.335 0.853331 538.93 0.724999 539.56 0.724999C540.19 0.724999 540.797 0.853331 541.38 1.11C541.963 1.34333 542.465 1.68166 542.885 2.125C543.328 2.545 543.678 3.04666 543.935 3.63C544.192 4.19 544.32 4.79667 544.32 5.45ZM573.871 22.565C573.685 22.8683 573.486 23.09 573.276 23.23C573.066 23.3467 572.798 23.405 572.471 23.405C572.098 23.405 571.678 23.2767 571.211 23.02C570.768 22.7633 570.22 22.4833 569.566 22.18C568.936 21.8767 568.19 21.5967 567.326 21.34C566.463 21.0833 565.436 20.955 564.246 20.955C563.266 20.955 562.368 21.0833 561.551 21.34C560.758 21.5733 560.081 21.9117 559.521 22.355C558.961 22.775 558.53 23.2883 558.226 23.895C557.923 24.4783 557.771 25.1083 557.771 25.785C557.771 26.6717 558.028 27.4067 558.541 27.99C559.078 28.5733 559.766 29.075 560.606 29.495C561.47 29.915 562.438 30.3 563.511 30.65C564.608 30.9767 565.716 31.3267 566.836 31.7C567.98 32.0733 569.088 32.505 570.161 32.995C571.258 33.4617 572.226 34.0567 573.066 34.78C573.93 35.48 574.618 36.3317 575.131 37.335C575.668 38.3383 575.936 39.5633 575.936 41.01C575.936 42.6667 575.633 44.2067 575.026 45.63C574.443 47.03 573.568 48.2433 572.401 49.27C571.258 50.2967 569.835 51.1017 568.131 51.685C566.428 52.2683 564.48 52.56 562.286 52.56C559.836 52.56 557.573 52.1517 555.496 51.335C553.42 50.5183 551.681 49.48 550.281 48.22L551.891 45.595C552.078 45.2683 552.311 45.0233 552.591 44.86C552.871 44.6733 553.245 44.58 553.711 44.58C554.155 44.58 554.61 44.7433 555.076 45.07C555.543 45.3967 556.103 45.7583 556.756 46.155C557.41 46.5283 558.203 46.8783 559.136 47.205C560.07 47.5083 561.236 47.66 562.636 47.66C563.803 47.66 564.818 47.52 565.681 47.24C566.545 46.9367 567.256 46.54 567.816 46.05C568.4 45.5367 568.831 44.9533 569.111 44.3C569.391 43.6467 569.531 42.9583 569.531 42.235C569.531 41.3017 569.263 40.5317 568.726 39.925C568.213 39.295 567.525 38.7583 566.661 38.315C565.821 37.8717 564.853 37.4867 563.756 37.16C562.66 36.8333 561.54 36.4833 560.396 36.11C559.253 35.7367 558.133 35.305 557.036 34.815C555.94 34.325 554.96 33.7067 554.096 32.96C553.256 32.2133 552.568 31.3033 552.031 30.23C551.518 29.1567 551.261 27.85 551.261 26.31C551.261 24.9333 551.541 23.615 552.101 22.355C552.685 21.095 553.513 19.9867 554.586 19.03C555.683 18.0733 557.025 17.315 558.611 16.755C560.221 16.1717 562.053 15.88 564.106 15.88C566.463 15.88 568.586 16.2533 570.476 17C572.39 17.7467 574.023 18.7733 575.376 20.08L573.871 22.565ZM582.766 47.905C582.766 47.275 582.883 46.68 583.116 46.12C583.35 45.56 583.665 45.07 584.061 44.65C584.481 44.23 584.971 43.9033 585.531 43.67C586.091 43.4133 586.698 43.285 587.351 43.285C587.981 43.285 588.576 43.4133 589.136 43.67C589.696 43.9033 590.186 44.23 590.606 44.65C591.026 45.07 591.353 45.56 591.586 46.12C591.843 46.68 591.971 47.275 591.971 47.905C591.971 48.5583 591.843 49.165 591.586 49.725C591.353 50.285 591.026 50.775 590.606 51.195C590.186 51.615 589.696 51.9417 589.136 52.175C588.576 52.4083 587.981 52.525 587.351 52.525C586.698 52.525 586.091 52.4083 585.531 52.175C584.971 51.9417 584.481 51.615 584.061 51.195C583.665 50.775 583.35 50.285 583.116 49.725C582.883 49.165 582.766 48.5583 582.766 47.905ZM582.766 22.005C582.766 21.375 582.883 20.78 583.116 20.22C583.35 19.66 583.665 19.17 584.061 18.75C584.481 18.33 584.971 18.0033 585.531 17.77C586.091 17.5133 586.698 17.385 587.351 17.385C587.981 17.385 588.576 17.5133 589.136 17.77C589.696 18.0033 590.186 18.33 590.606 18.75C591.026 19.17 591.353 19.66 591.586 20.22C591.843 20.78 591.971 21.375 591.971 22.005C591.971 22.6583 591.843 23.265 591.586 23.825C591.353 24.385 591.026 24.875 590.606 25.295C590.186 25.715 589.696 26.0417 589.136 26.275C588.576 26.5083 587.981 26.625 587.351 26.625C586.698 26.625 586.091 26.5083 585.531 26.275C584.971 26.0417 584.481 25.715 584.061 25.295C583.665 24.875 583.35 24.385 583.116 23.825C582.883 23.265 582.766 22.6583 582.766 22.005ZM648.383 45.525C649.13 45.525 649.713 45.7467 650.133 46.19C650.553 46.61 650.763 47.17 650.763 47.87V52H617.023V49.655C617.023 49.1883 617.116 48.6983 617.303 48.185C617.49 47.6483 617.805 47.17 618.248 46.75L634.138 30.825C635.468 29.495 636.67 28.2117 637.743 26.975C638.816 25.7383 639.726 24.5133 640.473 23.3C641.22 22.0633 641.791 20.8033 642.188 19.52C642.608 18.2367 642.818 16.8833 642.818 15.46C642.818 14.06 642.596 12.835 642.153 11.785C641.71 10.7117 641.103 9.825 640.333 9.125C639.563 8.425 638.653 7.9 637.603 7.55C636.553 7.2 635.421 7.025 634.208 7.025C632.995 7.025 631.875 7.2 630.848 7.55C629.845 7.9 628.946 8.39 628.153 9.02C627.36 9.65 626.695 10.3967 626.158 11.26C625.621 12.1233 625.236 13.0567 625.003 14.06C624.676 14.9467 624.256 15.5417 623.743 15.845C623.253 16.1483 622.53 16.2183 621.573 16.055L618.003 15.425C618.33 13.0917 618.971 11.0383 619.928 9.265C620.885 7.49166 622.086 6.01 623.533 4.82C624.98 3.60666 626.636 2.69666 628.503 2.09C630.393 1.48333 632.423 1.18 634.593 1.18C636.786 1.18 638.805 1.50667 640.648 2.16C642.515 2.79 644.125 3.71166 645.478 4.925C646.831 6.13833 647.893 7.62 648.663 9.37C649.433 11.0967 649.818 13.0567 649.818 15.25C649.818 17.1167 649.538 18.855 648.978 20.465C648.441 22.0517 647.695 23.5683 646.738 25.015C645.805 26.4617 644.708 27.8733 643.448 29.25C642.211 30.6033 640.893 31.98 639.493 33.38L626.753 46.4C627.733 46.1433 628.713 45.9333 629.693 45.77C630.696 45.6067 631.641 45.525 632.528 45.525H648.383ZM668.584 1.145C670.217 1.145 671.71 1.40166 673.064 1.915C674.417 2.405 675.56 3.12833 676.494 4.085C677.45 5.01833 678.185 6.16166 678.699 7.515C679.235 8.845 679.504 10.35 679.504 12.03C679.504 13.7333 679.235 15.2617 678.699 16.615C678.185 17.9683 677.45 19.1233 676.494 20.08C675.56 21.0133 674.417 21.7367 673.064 22.25C671.71 22.7633 670.217 23.02 668.584 23.02C666.927 23.02 665.422 22.7633 664.069 22.25C662.715 21.7367 661.56 21.0133 660.604 20.08C659.647 19.1233 658.9 17.9683 658.364 16.615C657.85 15.2617 657.594 13.7333 657.594 12.03C657.594 10.35 657.85 8.845 658.364 7.515C658.9 6.16166 659.647 5.01833 660.604 4.085C661.56 3.12833 662.715 2.405 664.069 1.915C665.422 1.40166 666.927 1.145 668.584 1.145ZM668.584 18.925C672.294 18.925 674.149 16.6383 674.149 12.065C674.149 7.49167 672.294 5.205 668.584 5.205C666.647 5.205 665.224 5.78833 664.314 6.955C663.404 8.09833 662.949 9.80167 662.949 12.065C662.949 14.3283 663.404 16.0433 664.314 17.21C665.224 18.3533 666.647 18.925 668.584 18.925ZM724.253 36.215C721.476 36.3083 719.119 36.53 717.183 36.88C715.246 37.2067 713.671 37.65 712.458 38.21C711.244 38.77 710.369 39.435 709.833 40.205C709.296 40.9517 709.028 41.7917 709.028 42.725C709.028 43.6117 709.168 44.3817 709.448 45.035C709.751 45.665 710.148 46.19 710.638 46.61C711.151 47.0067 711.746 47.2983 712.423 47.485C713.099 47.6717 713.834 47.765 714.628 47.765C715.678 47.765 716.634 47.66 717.498 47.45C718.384 47.24 719.213 46.9483 719.983 46.575C720.753 46.1783 721.488 45.7 722.188 45.14C722.888 44.58 723.576 43.9383 724.253 43.215V36.215ZM704.233 21.41C706.216 19.52 708.363 18.1083 710.673 17.175C713.006 16.2417 715.561 15.775 718.338 15.775C720.368 15.775 722.164 16.1133 723.728 16.79C725.291 17.4433 726.609 18.365 727.683 19.555C728.756 20.745 729.561 22.1683 730.098 23.825C730.658 25.4817 730.938 27.3133 730.938 29.32V52H727.893C727.216 52 726.703 51.895 726.353 51.685C726.003 51.4517 725.723 51.0317 725.513 50.425L724.778 47.31C723.868 48.15 722.969 48.8967 722.083 49.55C721.196 50.18 720.263 50.7283 719.283 51.195C718.326 51.6383 717.299 51.9767 716.203 52.21C715.106 52.4433 713.893 52.56 712.563 52.56C711.163 52.56 709.844 52.3733 708.608 52C707.394 51.6033 706.333 51.0083 705.423 50.215C704.513 49.4217 703.789 48.43 703.253 47.24C702.739 46.05 702.483 44.6617 702.483 43.075C702.483 41.675 702.856 40.3333 703.603 39.05C704.373 37.7433 705.609 36.5767 707.313 35.55C709.039 34.5233 711.279 33.6833 714.033 33.03C716.809 32.3767 720.216 32.0033 724.253 31.91V29.32C724.253 26.6367 723.681 24.63 722.538 23.3C721.394 21.97 719.714 21.305 717.498 21.305C716.004 21.305 714.744 21.4917 713.718 21.865C712.714 22.2383 711.839 22.6583 711.093 23.125C710.369 23.5683 709.728 23.9767 709.168 24.35C708.631 24.7233 708.071 24.91 707.488 24.91C707.021 24.91 706.613 24.7817 706.263 24.525C705.936 24.2683 705.668 23.965 705.458 23.615L704.233 21.41ZM746.479 21.375C747.249 20.5583 748.054 19.8117 748.894 19.135C749.734 18.4583 750.621 17.8867 751.554 17.42C752.511 16.93 753.526 16.5567 754.599 16.3C755.696 16.02 756.863 15.88 758.099 15.88C760.059 15.88 761.774 16.2067 763.244 16.86C764.738 17.5133 765.986 18.435 766.989 19.625C767.993 20.7917 768.751 22.2033 769.264 23.86C769.778 25.5167 770.034 27.3483 770.034 29.355V52H763.174V29.355C763.174 26.8117 762.591 24.84 761.424 23.44C760.258 22.0167 758.473 21.305 756.069 21.305C754.319 21.305 752.674 21.725 751.134 22.565C749.618 23.3817 748.206 24.5017 746.899 25.925V52H740.074V16.44H744.169C745.126 16.44 745.721 16.895 745.954 17.805L746.479 21.375ZM794.399 15.88C797.013 15.88 799.369 16.3117 801.469 17.175C803.593 18.015 805.389 19.24 806.859 20.85C808.353 22.4367 809.496 24.3617 810.289 26.625C811.083 28.865 811.479 31.385 811.479 34.185C811.479 36.985 811.083 39.5167 810.289 41.78C809.496 44.0433 808.353 45.9683 806.859 47.555C805.389 49.1417 803.593 50.3667 801.469 51.23C799.369 52.07 797.013 52.49 794.399 52.49C791.763 52.49 789.383 52.07 787.259 51.23C785.159 50.3667 783.363 49.1417 781.869 47.555C780.376 45.9683 779.221 44.0433 778.404 41.78C777.611 39.5167 777.214 36.985 777.214 34.185C777.214 31.385 777.611 28.865 778.404 26.625C779.221 24.3617 780.376 22.4367 781.869 20.85C783.363 19.24 785.159 18.015 787.259 17.175C789.383 16.3117 791.763 15.88 794.399 15.88ZM794.399 47.17C797.759 47.17 800.268 46.0383 801.924 43.775C803.581 41.5117 804.409 38.3267 804.409 34.22C804.409 30.1133 803.581 26.9283 801.924 24.665C800.268 22.3783 797.759 21.235 794.399 21.235C790.993 21.235 788.449 22.3783 786.769 24.665C785.113 26.9283 784.284 30.1133 784.284 34.22C784.284 38.3267 785.113 41.5117 786.769 43.775C788.449 46.0383 790.993 47.17 794.399 47.17ZM836.278 28.06H853.778V33.87H836.278V28.06ZM901.553 46.015C903.559 46.015 905.356 45.6767 906.943 45C908.529 44.3233 909.871 43.3783 910.968 42.165C912.064 40.9283 912.904 39.47 913.488 37.79C914.071 36.0867 914.363 34.2083 914.363 32.155V1.74H921.783V32.155C921.783 35.095 921.316 37.8133 920.383 40.31C919.449 42.8067 918.108 44.965 916.358 46.785C914.608 48.605 912.484 50.0283 909.988 51.055C907.491 52.0817 904.679 52.595 901.553 52.595C898.426 52.595 895.614 52.0817 893.118 51.055C890.621 50.0283 888.498 48.605 886.748 46.785C884.998 44.965 883.656 42.8067 882.723 40.31C881.789 37.8133 881.323 35.095 881.323 32.155V1.74H888.778V32.12C888.778 34.1733 889.058 36.0517 889.618 37.755C890.201 39.4583 891.041 40.9283 892.138 42.165C893.234 43.3783 894.576 44.3233 896.163 45C897.749 45.6767 899.546 46.015 901.553 46.015ZM941.054 7.795V24.63H961.214V30.685H941.054V52H933.564V1.74H964.714V7.795H941.054ZM989.496 22.565C989.31 22.8683 989.111 23.09 988.901 23.23C988.691 23.3467 988.423 23.405 988.096 23.405C987.723 23.405 987.303 23.2767 986.836 23.02C986.393 22.7633 985.845 22.4833 985.191 22.18C984.561 21.8767 983.815 21.5967 982.951 21.34C982.088 21.0833 981.061 20.955 979.871 20.955C978.891 20.955 977.993 21.0833 977.176 21.34C976.383 21.5733 975.706 21.9117 975.146 22.355C974.586 22.775 974.155 23.2883 973.851 23.895C973.548 24.4783 973.396 25.1083 973.396 25.785C973.396 26.6717 973.653 27.4067 974.166 27.99C974.703 28.5733 975.391 29.075 976.231 29.495C977.095 29.915 978.063 30.3 979.136 30.65C980.233 30.9767 981.341 31.3267 982.461 31.7C983.605 32.0733 984.713 32.505 985.786 32.995C986.883 33.4617 987.851 34.0567 988.691 34.78C989.555 35.48 990.243 36.3317 990.756 37.335C991.293 38.3383 991.561 39.5633 991.561 41.01C991.561 42.6667 991.258 44.2067 990.651 45.63C990.068 47.03 989.193 48.2433 988.026 49.27C986.883 50.2967 985.46 51.1017 983.756 51.685C982.053 52.2683 980.105 52.56 977.911 52.56C975.461 52.56 973.198 52.1517 971.121 51.335C969.045 50.5183 967.306 49.48 965.906 48.22L967.516 45.595C967.703 45.2683 967.936 45.0233 968.216 44.86C968.496 44.6733 968.87 44.58 969.336 44.58C969.78 44.58 970.235 44.7433 970.701 45.07C971.168 45.3967 971.728 45.7583 972.381 46.155C973.035 46.5283 973.828 46.8783 974.761 47.205C975.695 47.5083 976.861 47.66 978.261 47.66C979.428 47.66 980.443 47.52 981.306 47.24C982.17 46.9367 982.881 46.54 983.441 46.05C984.025 45.5367 984.456 44.9533 984.736 44.3C985.016 43.6467 985.156 42.9583 985.156 42.235C985.156 41.3017 984.888 40.5317 984.351 39.925C983.838 39.295 983.15 38.7583 982.286 38.315C981.446 37.8717 980.478 37.4867 979.381 37.16C978.285 36.8333 977.165 36.4833 976.021 36.11C974.878 35.7367 973.758 35.305 972.661 34.815C971.565 34.325 970.585 33.7067 969.721 32.96C968.881 32.2133 968.193 31.3033 967.656 30.23C967.143 29.1567 966.886 27.85 966.886 26.31C966.886 24.9333 967.166 23.615 967.726 22.355C968.31 21.095 969.138 19.9867 970.211 19.03C971.308 18.0733 972.65 17.315 974.236 16.755C975.846 16.1717 977.678 15.88 979.731 15.88C982.088 15.88 984.211 16.2533 986.101 17C988.015 17.7467 989.648 18.7733 991.001 20.08L989.496 22.565Z" fill="#4C5773"/>
</svg>
