<svg width="1023" height="49" viewBox="0 0 1023 49" fill="none" xmlns="http://www.w3.org/2000/svg">
<path d="M36.9608 7.744H22.3688V48H15.5848V7.744H0.92875V2.048H36.9608V7.744ZM56.0763 28.128C56.0763 26.8907 55.8949 25.7493 55.5323 24.704C55.1909 23.6587 54.6789 22.752 53.9963 21.984C53.3136 21.216 52.4816 20.6187 51.5003 20.192C50.5189 19.7653 49.3883 19.552 48.1083 19.552C45.4843 19.552 43.4149 20.3093 41.9003 21.824C40.4069 23.3387 39.4576 25.44 39.0523 28.128H56.0763ZM61.2283 43.36C60.4603 44.256 59.5749 45.0347 58.5723 45.696C57.5696 46.336 56.5029 46.8587 55.3723 47.264C54.2416 47.6693 53.0683 47.968 51.8523 48.16C50.6576 48.352 49.4736 48.448 48.3003 48.448C46.0603 48.448 43.9803 48.0747 42.0603 47.328C40.1616 46.56 38.5083 45.4507 37.1003 44C35.7136 42.528 34.6256 40.7147 33.8363 38.56C33.0683 36.384 32.6843 33.888 32.6843 31.072C32.6843 28.8107 33.0363 26.7093 33.7403 24.768C34.4443 22.8053 35.4469 21.0987 36.7483 19.648C38.0709 18.1973 39.6816 17.056 41.5803 16.224C43.4789 15.392 45.6123 14.976 47.9803 14.976C49.9643 14.976 51.7883 15.3067 53.4523 15.968C55.1376 16.608 56.5883 17.5467 57.8043 18.784C59.0203 20.0213 59.9696 21.5467 60.6523 23.36C61.3563 25.1733 61.7083 27.2427 61.7083 29.568C61.7083 30.528 61.6016 31.1787 61.3883 31.52C61.1749 31.84 60.7803 32 60.2043 32H38.8923C38.9563 33.9413 39.2336 35.6373 39.7243 37.088C40.2149 38.5173 40.8869 39.712 41.7403 40.672C42.6149 41.632 43.6496 42.3467 44.8443 42.816C46.0389 43.2853 47.3723 43.52 48.8443 43.52C50.2309 43.52 51.4256 43.36 52.4283 43.04C53.4523 42.72 54.3269 42.3787 55.0523 42.016C55.7989 41.632 56.4176 41.28 56.9083 40.96C57.4203 40.64 57.8683 40.48 58.2523 40.48C58.7643 40.48 59.1589 40.672 59.4363 41.056L61.2283 43.36ZM74.3033 21.728C75.3486 19.5947 76.6073 17.92 78.0793 16.704C79.5513 15.488 81.3219 14.88 83.3913 14.88C84.0953 14.88 84.7566 14.9653 85.3753 15.136C86.0153 15.2853 86.5699 15.52 87.0393 15.84L86.6233 20.544C86.4739 21.12 86.1219 21.408 85.5673 21.408C85.2686 21.408 84.8206 21.3547 84.2233 21.248C83.6259 21.12 82.9859 21.056 82.3033 21.056C81.3006 21.056 80.4153 21.2053 79.6473 21.504C78.8793 21.7813 78.1859 22.208 77.5673 22.784C76.9699 23.3387 76.4366 24.032 75.9673 24.864C75.4979 25.6747 75.0606 26.6027 74.6553 27.648V48H68.4153V15.488H71.9993C72.6819 15.488 73.1406 15.616 73.3753 15.872C73.6313 16.1067 73.8126 16.5333 73.9193 17.152L74.3033 21.728ZM97.7408 21.728C98.7861 19.5947 100.045 17.92 101.517 16.704C102.989 15.488 104.759 14.88 106.829 14.88C107.533 14.88 108.194 14.9653 108.813 15.136C109.453 15.2853 110.007 15.52 110.477 15.84L110.061 20.544C109.911 21.12 109.559 21.408 109.005 21.408C108.706 21.408 108.258 21.3547 107.661 21.248C107.063 21.12 106.423 21.056 105.741 21.056C104.738 21.056 103.853 21.2053 103.085 21.504C102.317 21.7813 101.623 22.208 101.005 22.784C100.407 23.3387 99.8741 24.032 99.4048 24.864C98.9354 25.6747 98.4981 26.6027 98.0928 27.648V48H91.8528V15.488H95.4368C96.1194 15.488 96.5781 15.616 96.8128 15.872C97.0688 16.1067 97.2501 16.5333 97.3568 17.152L97.7408 21.728ZM121.818 15.488V48H115.578V15.488H121.818ZM123.002 5.44C123.002 6.016 122.885 6.57066 122.65 7.104C122.416 7.616 122.096 8.07467 121.69 8.48C121.306 8.864 120.848 9.17333 120.314 9.408C119.781 9.62133 119.226 9.728 118.65 9.728C118.074 9.728 117.53 9.62133 117.018 9.408C116.506 9.17333 116.048 8.864 115.642 8.48C115.258 8.07467 114.949 7.616 114.714 7.104C114.501 6.57066 114.394 6.016 114.394 5.44C114.394 4.84267 114.501 4.288 114.714 3.776C114.949 3.24266 115.258 2.784 115.642 2.4C116.048 1.99466 116.506 1.68533 117.018 1.472C117.53 1.23733 118.074 1.12 118.65 1.12C119.226 1.12 119.781 1.23733 120.314 1.472C120.848 1.68533 121.306 1.99466 121.69 2.4C122.096 2.784 122.416 3.24266 122.65 3.776C122.885 4.288 123.002 4.84267 123.002 5.44ZM141.029 48.512C138.405 48.512 136.378 47.776 134.949 46.304C133.541 44.832 132.837 42.7307 132.837 40V20.544H129.061C128.698 20.544 128.389 20.4373 128.133 20.224C127.898 19.9893 127.781 19.648 127.781 19.2V16.672L133.061 15.936L134.469 6.24C134.554 5.87733 134.714 5.6 134.949 5.408C135.205 5.19466 135.525 5.088 135.909 5.088H139.077V16H148.293V20.544H139.077V39.584C139.077 40.864 139.386 41.824 140.005 42.464C140.645 43.0827 141.455 43.392 142.437 43.392C143.013 43.392 143.503 43.3173 143.909 43.168C144.335 43.0187 144.698 42.8587 144.997 42.688C145.295 42.496 145.551 42.3253 145.765 42.176C145.978 42.0267 146.17 41.952 146.341 41.952C146.554 41.952 146.714 42.0053 146.821 42.112C146.949 42.1973 147.077 42.3467 147.205 42.56L149.061 45.568C148.037 46.5067 146.821 47.232 145.413 47.744C144.005 48.256 142.543 48.512 141.029 48.512ZM167.709 14.976C170.098 14.976 172.253 15.3707 174.173 16.16C176.114 16.928 177.757 18.048 179.101 19.52C180.466 20.9707 181.511 22.7307 182.237 24.8C182.962 26.848 183.325 29.152 183.325 31.712C183.325 34.272 182.962 36.5867 182.237 38.656C181.511 40.7253 180.466 42.4853 179.101 43.936C177.757 45.3867 176.114 46.5067 174.173 47.296C172.253 48.064 170.098 48.448 167.709 48.448C165.298 48.448 163.122 48.064 161.181 47.296C159.261 46.5067 157.618 45.3867 156.253 43.936C154.887 42.4853 153.831 40.7253 153.085 38.656C152.359 36.5867 151.997 34.272 151.997 31.712C151.997 29.152 152.359 26.848 153.085 24.8C153.831 22.7307 154.887 20.9707 156.253 19.52C157.618 18.048 159.261 16.928 161.181 16.16C163.122 15.3707 165.298 14.976 167.709 14.976ZM167.709 43.584C170.781 43.584 173.074 42.5493 174.589 40.48C176.103 38.4107 176.861 35.4987 176.861 31.744C176.861 27.9893 176.103 25.0773 174.589 23.008C173.074 20.9173 170.781 19.872 167.709 19.872C164.594 19.872 162.269 20.9173 160.733 23.008C159.218 25.0773 158.461 27.9893 158.461 31.744C158.461 35.4987 159.218 38.4107 160.733 40.48C162.269 42.5493 164.594 43.584 167.709 43.584ZM177.501 1.536L169.917 9.792C169.597 10.1547 169.287 10.4107 168.989 10.56C168.69 10.688 168.295 10.752 167.805 10.752H164.029L168.765 3.008C169.063 2.51733 169.383 2.15467 169.725 1.92C170.087 1.664 170.642 1.536 171.389 1.536H177.501ZM196.178 21.728C197.224 19.5947 198.482 17.92 199.954 16.704C201.426 15.488 203.197 14.88 205.266 14.88C205.97 14.88 206.632 14.9653 207.25 15.136C207.89 15.2853 208.445 15.52 208.914 15.84L208.498 20.544C208.349 21.12 207.997 21.408 207.442 21.408C207.144 21.408 206.696 21.3547 206.098 21.248C205.501 21.12 204.861 21.056 204.178 21.056C203.176 21.056 202.29 21.2053 201.522 21.504C200.754 21.7813 200.061 22.208 199.442 22.784C198.845 23.3387 198.312 24.032 197.842 24.864C197.373 25.6747 196.936 26.6027 196.53 27.648V48H190.29V15.488H193.874C194.557 15.488 195.016 15.616 195.25 15.872C195.506 16.1067 195.688 16.5333 195.794 17.152L196.178 21.728ZM220.256 15.488V48H214.016V15.488H220.256ZM221.44 5.44C221.44 6.016 221.322 6.57066 221.088 7.104C220.853 7.616 220.533 8.07467 220.128 8.48C219.744 8.864 219.285 9.17333 218.752 9.408C218.218 9.62133 217.664 9.728 217.088 9.728C216.512 9.728 215.968 9.62133 215.456 9.408C214.944 9.17333 214.485 8.864 214.08 8.48C213.696 8.07467 213.386 7.616 213.152 7.104C212.938 6.57066 212.832 6.016 212.832 5.44C212.832 4.84267 212.938 4.288 213.152 3.776C213.386 3.24266 213.696 2.784 214.08 2.4C214.485 1.99466 214.944 1.68533 215.456 1.472C215.968 1.23733 216.512 1.12 217.088 1.12C217.664 1.12 218.218 1.23733 218.752 1.472C219.285 1.68533 219.744 1.99466 220.128 2.4C220.533 2.784 220.853 3.24266 221.088 3.776C221.322 4.288 221.44 4.84267 221.44 5.44ZM243.146 14.976C245.536 14.976 247.69 15.3707 249.61 16.16C251.552 16.928 253.194 18.048 254.538 19.52C255.904 20.9707 256.949 22.7307 257.674 24.8C258.4 26.848 258.762 29.152 258.762 31.712C258.762 34.272 258.4 36.5867 257.674 38.656C256.949 40.7253 255.904 42.4853 254.538 43.936C253.194 45.3867 251.552 46.5067 249.61 47.296C247.69 48.064 245.536 48.448 243.146 48.448C240.736 48.448 238.56 48.064 236.618 47.296C234.698 46.5067 233.056 45.3867 231.69 43.936C230.325 42.4853 229.269 40.7253 228.522 38.656C227.797 36.5867 227.434 34.272 227.434 31.712C227.434 29.152 227.797 26.848 228.522 24.8C229.269 22.7307 230.325 20.9707 231.69 19.52C233.056 18.048 234.698 16.928 236.618 16.16C238.56 15.3707 240.736 14.976 243.146 14.976ZM243.146 43.584C246.218 43.584 248.512 42.5493 250.026 40.48C251.541 38.4107 252.298 35.4987 252.298 31.744C252.298 27.9893 251.541 25.0773 250.026 23.008C248.512 20.9173 246.218 19.872 243.146 19.872C240.032 19.872 237.706 20.9173 236.17 23.008C234.656 25.0773 233.898 27.9893 233.898 31.744C233.898 35.4987 234.656 38.4107 236.17 40.48C237.706 42.5493 240.032 43.584 243.146 43.584ZM284.896 21.088C284.725 21.3653 284.544 21.568 284.352 21.696C284.16 21.8027 283.914 21.856 283.616 21.856C283.274 21.856 282.89 21.7387 282.464 21.504C282.058 21.2693 281.557 21.0133 280.96 20.736C280.384 20.4587 279.701 20.2027 278.912 19.968C278.122 19.7333 277.184 19.616 276.096 19.616C275.2 19.616 274.378 19.7333 273.632 19.968C272.906 20.1813 272.288 20.4907 271.776 20.896C271.264 21.28 270.869 21.7493 270.592 22.304C270.314 22.8373 270.176 23.4133 270.176 24.032C270.176 24.8427 270.41 25.5147 270.88 26.048C271.37 26.5813 272 27.04 272.768 27.424C273.557 27.808 274.442 28.16 275.424 28.48C276.426 28.7787 277.44 29.0987 278.464 29.44C279.509 29.7813 280.522 30.176 281.504 30.624C282.506 31.0507 283.392 31.5947 284.16 32.256C284.949 32.896 285.578 33.6747 286.048 34.592C286.538 35.5093 286.784 36.6293 286.784 37.952C286.784 39.4667 286.506 40.8747 285.952 42.176C285.418 43.456 284.618 44.5653 283.552 45.504C282.506 46.4427 281.205 47.1787 279.648 47.712C278.09 48.2453 276.309 48.512 274.304 48.512C272.064 48.512 269.994 48.1387 268.096 47.392C266.197 46.6453 264.608 45.696 263.328 44.544L264.8 42.144C264.97 41.8453 265.184 41.6213 265.44 41.472C265.696 41.3013 266.037 41.216 266.464 41.216C266.869 41.216 267.285 41.3653 267.712 41.664C268.138 41.9627 268.65 42.2933 269.248 42.656C269.845 42.9973 270.57 43.3173 271.424 43.616C272.277 43.8933 273.344 44.032 274.624 44.032C275.69 44.032 276.618 43.904 277.408 43.648C278.197 43.3707 278.848 43.008 279.36 42.56C279.893 42.0907 280.288 41.5573 280.544 40.96C280.8 40.3627 280.928 39.7333 280.928 39.072C280.928 38.2187 280.682 37.5147 280.192 36.96C279.722 36.384 279.093 35.8933 278.304 35.488C277.536 35.0827 276.65 34.7307 275.648 34.432C274.645 34.1333 273.621 33.8133 272.576 33.472C271.53 33.1307 270.506 32.736 269.504 32.288C268.501 31.84 267.605 31.2747 266.816 30.592C266.048 29.9093 265.418 29.0773 264.928 28.096C264.458 27.1147 264.224 25.92 264.224 24.512C264.224 23.2533 264.48 22.048 264.992 20.896C265.525 19.744 266.282 18.7307 267.264 17.856C268.266 16.9813 269.493 16.288 270.944 15.776C272.416 15.2427 274.09 14.976 275.968 14.976C278.122 14.976 280.064 15.3173 281.792 16C283.541 16.6827 285.034 17.6213 286.272 18.816L284.896 21.088ZM330.688 23.36C329.664 22.016 328.554 21.0773 327.36 20.544C326.186 20.0107 324.864 19.744 323.392 19.744C320.533 19.744 318.314 20.7787 316.736 22.848C315.178 24.896 314.4 27.8933 314.4 31.84C314.4 33.9093 314.57 35.68 314.912 37.152C315.274 38.6027 315.786 39.7973 316.448 40.736C317.13 41.6533 317.962 42.336 318.944 42.784C319.925 43.2107 321.034 43.424 322.272 43.424C324.085 43.424 325.653 43.0187 326.976 42.208C328.298 41.3973 329.536 40.256 330.688 38.784V23.36ZM336.96 0.767998V48H333.184C332.309 48 331.765 47.584 331.552 46.752L331.008 43.008C329.621 44.6507 328.042 45.9733 326.272 46.976C324.522 47.9573 322.496 48.448 320.192 48.448C318.336 48.448 316.65 48.0853 315.136 47.36C313.642 46.6347 312.362 45.5787 311.296 44.192C310.229 42.784 309.408 41.0453 308.832 38.976C308.256 36.9067 307.968 34.528 307.968 31.84C307.968 29.4293 308.288 27.1893 308.928 25.12C309.568 23.0507 310.496 21.2587 311.712 19.744C312.928 18.2293 314.4 17.0453 316.128 16.192C317.856 15.3173 319.808 14.88 321.984 14.88C323.946 14.88 325.61 15.2 326.976 15.84C328.362 16.48 329.6 17.3867 330.688 18.56V0.767998H336.96ZM363.137 33.568C360.599 33.6533 358.444 33.856 356.673 34.176C354.903 34.4747 353.463 34.88 352.353 35.392C351.244 35.904 350.444 36.512 349.953 37.216C349.463 37.8987 349.217 38.6667 349.217 39.52C349.217 40.3307 349.345 41.0347 349.601 41.632C349.879 42.208 350.241 42.688 350.689 43.072C351.159 43.4347 351.703 43.7013 352.321 43.872C352.94 44.0427 353.612 44.128 354.337 44.128C355.297 44.128 356.172 44.032 356.961 43.84C357.772 43.648 358.529 43.3813 359.233 43.04C359.937 42.6773 360.609 42.24 361.249 41.728C361.889 41.216 362.519 40.6293 363.137 39.968V33.568ZM344.833 20.032C346.647 18.304 348.609 17.0133 350.721 16.16C352.855 15.3067 355.191 14.88 357.729 14.88C359.585 14.88 361.228 15.1893 362.657 15.808C364.087 16.4053 365.292 17.248 366.273 18.336C367.255 19.424 367.991 20.7253 368.481 22.24C368.993 23.7547 369.249 25.4293 369.249 27.264V48H366.465C365.847 48 365.377 47.904 365.057 47.712C364.737 47.4987 364.481 47.1147 364.289 46.56L363.617 43.712C362.785 44.48 361.964 45.1627 361.153 45.76C360.343 46.336 359.489 46.8373 358.593 47.264C357.719 47.6693 356.78 47.9787 355.777 48.192C354.775 48.4053 353.665 48.512 352.449 48.512C351.169 48.512 349.964 48.3413 348.833 48C347.724 47.6373 346.753 47.0933 345.921 46.368C345.089 45.6427 344.428 44.736 343.937 43.648C343.468 42.56 343.233 41.2907 343.233 39.84C343.233 38.56 343.575 37.3333 344.257 36.16C344.961 34.9653 346.092 33.8987 347.649 32.96C349.228 32.0213 351.276 31.2533 353.793 30.656C356.332 30.0587 359.447 29.7173 363.137 29.632V27.264C363.137 24.8107 362.615 22.976 361.569 21.76C360.524 20.544 358.988 19.936 356.961 19.936C355.596 19.936 354.444 20.1067 353.505 20.448C352.588 20.7893 351.788 21.1733 351.105 21.6C350.444 22.0053 349.857 22.3787 349.345 22.72C348.855 23.0613 348.343 23.232 347.809 23.232C347.383 23.232 347.009 23.1147 346.689 22.88C346.391 22.6453 346.145 22.368 345.953 22.048L344.833 20.032ZM443.39 2.048V48H437.438V15.296C437.438 14.8053 437.449 14.2827 437.47 13.728C437.513 13.1733 437.556 12.608 437.598 12.032L422.302 40.096C421.769 41.1413 420.948 41.664 419.838 41.664H418.878C417.769 41.664 416.958 41.1413 416.446 40.096L400.862 11.936C400.99 13.1307 401.054 14.2507 401.054 15.296V48H395.07V2.048H400.126C400.724 2.048 401.182 2.112 401.502 2.24C401.844 2.34666 402.164 2.66666 402.462 3.2L417.822 30.72C418.121 31.2747 418.398 31.8613 418.654 32.48C418.91 33.0987 419.156 33.7173 419.39 34.336C419.838 33.0773 420.361 31.8613 420.958 30.688L436.03 3.2C436.308 2.66666 436.606 2.34666 436.926 2.24C437.268 2.112 437.737 2.048 438.334 2.048H443.39ZM474.014 28.128C474.014 26.8907 473.832 25.7493 473.47 24.704C473.128 23.6587 472.616 22.752 471.934 21.984C471.251 21.216 470.419 20.6187 469.438 20.192C468.456 19.7653 467.326 19.552 466.046 19.552C463.422 19.552 461.352 20.3093 459.838 21.824C458.344 23.3387 457.395 25.44 456.99 28.128H474.014ZM479.166 43.36C478.398 44.256 477.512 45.0347 476.51 45.696C475.507 46.336 474.44 46.8587 473.31 47.264C472.179 47.6693 471.006 47.968 469.79 48.16C468.595 48.352 467.411 48.448 466.238 48.448C463.998 48.448 461.918 48.0747 459.998 47.328C458.099 46.56 456.446 45.4507 455.038 44C453.651 42.528 452.563 40.7147 451.774 38.56C451.006 36.384 450.622 33.888 450.622 31.072C450.622 28.8107 450.974 26.7093 451.678 24.768C452.382 22.8053 453.384 21.0987 454.686 19.648C456.008 18.1973 457.619 17.056 459.518 16.224C461.416 15.392 463.55 14.976 465.918 14.976C467.902 14.976 469.726 15.3067 471.39 15.968C473.075 16.608 474.526 17.5467 475.742 18.784C476.958 20.0213 477.907 21.5467 478.59 23.36C479.294 25.1733 479.646 27.2427 479.646 29.568C479.646 30.528 479.539 31.1787 479.326 31.52C479.112 31.84 478.718 32 478.142 32H456.83C456.894 33.9413 457.171 35.6373 457.662 37.088C458.152 38.5173 458.824 39.712 459.678 40.672C460.552 41.632 461.587 42.3467 462.782 42.816C463.976 43.2853 465.31 43.52 466.782 43.52C468.168 43.52 469.363 43.36 470.366 43.04C471.39 42.72 472.264 42.3787 472.99 42.016C473.736 41.632 474.355 41.28 474.846 40.96C475.358 40.64 475.806 40.48 476.19 40.48C476.702 40.48 477.096 40.672 477.374 41.056L479.166 43.36ZM496.279 48.512C493.655 48.512 491.628 47.776 490.199 46.304C488.791 44.832 488.087 42.7307 488.087 40V20.544H484.311C483.948 20.544 483.639 20.4373 483.383 20.224C483.148 19.9893 483.031 19.648 483.031 19.2V16.672L488.311 15.936L489.719 6.24C489.804 5.87733 489.964 5.6 490.199 5.408C490.455 5.19466 490.775 5.088 491.159 5.088H494.327V16H503.543V20.544H494.327V39.584C494.327 40.864 494.636 41.824 495.255 42.464C495.895 43.0827 496.705 43.392 497.687 43.392C498.263 43.392 498.753 43.3173 499.159 43.168C499.585 43.0187 499.948 42.8587 500.247 42.688C500.545 42.496 500.801 42.3253 501.015 42.176C501.228 42.0267 501.42 41.952 501.591 41.952C501.804 41.952 501.964 42.0053 502.071 42.112C502.199 42.1973 502.327 42.3467 502.455 42.56L504.311 45.568C503.287 46.5067 502.071 47.232 500.663 47.744C499.255 48.256 497.793 48.512 496.279 48.512ZM526.762 33.568C524.224 33.6533 522.069 33.856 520.298 34.176C518.528 34.4747 517.088 34.88 515.978 35.392C514.869 35.904 514.069 36.512 513.578 37.216C513.088 37.8987 512.842 38.6667 512.842 39.52C512.842 40.3307 512.97 41.0347 513.226 41.632C513.504 42.208 513.866 42.688 514.314 43.072C514.784 43.4347 515.328 43.7013 515.946 43.872C516.565 44.0427 517.237 44.128 517.962 44.128C518.922 44.128 519.797 44.032 520.586 43.84C521.397 43.648 522.154 43.3813 522.858 43.04C523.562 42.6773 524.234 42.24 524.874 41.728C525.514 41.216 526.144 40.6293 526.762 39.968V33.568ZM508.458 20.032C510.272 18.304 512.234 17.0133 514.346 16.16C516.48 15.3067 518.816 14.88 521.354 14.88C523.21 14.88 524.853 15.1893 526.282 15.808C527.712 16.4053 528.917 17.248 529.898 18.336C530.88 19.424 531.616 20.7253 532.106 22.24C532.618 23.7547 532.874 25.4293 532.874 27.264V48H530.09C529.472 48 529.002 47.904 528.682 47.712C528.362 47.4987 528.106 47.1147 527.914 46.56L527.242 43.712C526.41 44.48 525.589 45.1627 524.778 45.76C523.968 46.336 523.114 46.8373 522.218 47.264C521.344 47.6693 520.405 47.9787 519.402 48.192C518.4 48.4053 517.29 48.512 516.074 48.512C514.794 48.512 513.589 48.3413 512.458 48C511.349 47.6373 510.378 47.0933 509.546 46.368C508.714 45.6427 508.053 44.736 507.562 43.648C507.093 42.56 506.858 41.2907 506.858 39.84C506.858 38.56 507.2 37.3333 507.882 36.16C508.586 34.9653 509.717 33.8987 511.274 32.96C512.853 32.0213 514.901 31.2533 517.418 30.656C519.957 30.0587 523.072 29.7173 526.762 29.632V27.264C526.762 24.8107 526.24 22.976 525.194 21.76C524.149 20.544 522.613 19.936 520.586 19.936C519.221 19.936 518.069 20.1067 517.13 20.448C516.213 20.7893 515.413 21.1733 514.73 21.6C514.069 22.0053 513.482 22.3787 512.97 22.72C512.48 23.0613 511.968 23.232 511.434 23.232C511.008 23.232 510.634 23.1147 510.314 22.88C510.016 22.6453 509.77 22.368 509.578 22.048L508.458 20.032ZM578.375 23.36C577.351 22.016 576.242 21.0773 575.047 20.544C573.874 20.0107 572.551 19.744 571.079 19.744C568.221 19.744 566.002 20.7787 564.423 22.848C562.866 24.896 562.087 27.8933 562.087 31.84C562.087 33.9093 562.258 35.68 562.599 37.152C562.962 38.6027 563.474 39.7973 564.135 40.736C564.818 41.6533 565.65 42.336 566.631 42.784C567.613 43.2107 568.722 43.424 569.959 43.424C571.773 43.424 573.341 43.0187 574.663 42.208C575.986 41.3973 577.223 40.256 578.375 38.784V23.36ZM584.647 0.767998V48H580.871C579.997 48 579.453 47.584 579.239 46.752L578.695 43.008C577.309 44.6507 575.73 45.9733 573.959 46.976C572.21 47.9573 570.183 48.448 567.879 48.448C566.023 48.448 564.338 48.0853 562.823 47.36C561.33 46.6347 560.05 45.5787 558.983 44.192C557.917 42.784 557.095 41.0453 556.519 38.976C555.943 36.9067 555.655 34.528 555.655 31.84C555.655 29.4293 555.975 27.1893 556.615 25.12C557.255 23.0507 558.183 21.2587 559.399 19.744C560.615 18.2293 562.087 17.0453 563.815 16.192C565.543 15.3173 567.495 14.88 569.671 14.88C571.634 14.88 573.298 15.2 574.663 15.84C576.05 16.48 577.287 17.3867 578.375 18.56V0.767998H584.647ZM607.209 14.976C609.598 14.976 611.753 15.3707 613.673 16.16C615.614 16.928 617.257 18.048 618.601 19.52C619.966 20.9707 621.011 22.7307 621.737 24.8C622.462 26.848 622.825 29.152 622.825 31.712C622.825 34.272 622.462 36.5867 621.737 38.656C621.011 40.7253 619.966 42.4853 618.601 43.936C617.257 45.3867 615.614 46.5067 613.673 47.296C611.753 48.064 609.598 48.448 607.209 48.448C604.798 48.448 602.622 48.064 600.681 47.296C598.761 46.5067 597.118 45.3867 595.753 43.936C594.387 42.4853 593.331 40.7253 592.585 38.656C591.859 36.5867 591.497 34.272 591.497 31.712C591.497 29.152 591.859 26.848 592.585 24.8C593.331 22.7307 594.387 20.9707 595.753 19.52C597.118 18.048 598.761 16.928 600.681 16.16C602.622 15.3707 604.798 14.976 607.209 14.976ZM607.209 43.584C610.281 43.584 612.574 42.5493 614.089 40.48C615.603 38.4107 616.361 35.4987 616.361 31.744C616.361 27.9893 615.603 25.0773 614.089 23.008C612.574 20.9173 610.281 19.872 607.209 19.872C604.094 19.872 601.769 20.9173 600.233 23.008C598.718 25.0773 597.961 27.9893 597.961 31.744C597.961 35.4987 598.718 38.4107 600.233 40.48C601.769 42.5493 604.094 43.584 607.209 43.584ZM654.106 7.584V22.976H672.538V28.512H654.106V48H647.258V2.048H675.738V7.584H654.106ZM706.83 15.488V48H703.086C702.233 48 701.678 47.584 701.422 46.752L700.974 43.488C700.27 44.2347 699.534 44.9173 698.766 45.536C697.998 46.1547 697.177 46.688 696.302 47.136C695.428 47.5627 694.5 47.8933 693.518 48.128C692.537 48.384 691.481 48.512 690.35 48.512C688.558 48.512 686.98 48.2133 685.614 47.616C684.27 47.0187 683.14 46.1867 682.222 45.12C681.305 44.032 680.612 42.7307 680.142 41.216C679.673 39.7013 679.438 38.0267 679.438 36.192V15.488H685.71V36.192C685.71 38.5173 686.244 40.3307 687.31 41.632C688.377 42.912 690.009 43.552 692.206 43.552C693.806 43.552 695.3 43.1787 696.686 42.432C698.073 41.664 699.374 40.6187 700.59 39.296V15.488H706.83ZM721.396 20C722.1 19.2533 722.836 18.5707 723.604 17.952C724.372 17.3333 725.183 16.8107 726.036 16.384C726.911 15.936 727.839 15.5947 728.82 15.36C729.823 15.104 730.89 14.976 732.02 14.976C733.812 14.976 735.38 15.2747 736.724 15.872C738.09 16.4693 739.231 17.312 740.148 18.4C741.066 19.4667 741.759 20.7573 742.228 22.272C742.698 23.7867 742.932 25.4613 742.932 27.296V48H736.66V27.296C736.66 24.9707 736.127 23.168 735.06 21.888C733.994 20.5867 732.362 19.936 730.164 19.936C728.564 19.936 727.06 20.32 725.652 21.088C724.266 21.8347 722.975 22.8587 721.78 24.16V48H715.54V15.488H719.284C720.159 15.488 720.703 15.904 720.916 16.736L721.396 20ZM772.313 23.36C771.289 22.016 770.179 21.0773 768.985 20.544C767.811 20.0107 766.489 19.744 765.017 19.744C762.158 19.744 759.939 20.7787 758.361 22.848C756.803 24.896 756.025 27.8933 756.025 31.84C756.025 33.9093 756.195 35.68 756.537 37.152C756.899 38.6027 757.411 39.7973 758.073 40.736C758.755 41.6533 759.587 42.336 760.569 42.784C761.55 43.2107 762.659 43.424 763.897 43.424C765.71 43.424 767.278 43.0187 768.601 42.208C769.923 41.3973 771.161 40.256 772.313 38.784V23.36ZM778.585 0.767998V48H774.809C773.934 48 773.39 47.584 773.177 46.752L772.633 43.008C771.246 44.6507 769.667 45.9733 767.897 46.976C766.147 47.9573 764.121 48.448 761.817 48.448C759.961 48.448 758.275 48.0853 756.761 47.36C755.267 46.6347 753.987 45.5787 752.921 44.192C751.854 42.784 751.033 41.0453 750.457 38.976C749.881 36.9067 749.593 34.528 749.593 31.84C749.593 29.4293 749.913 27.1893 750.553 25.12C751.193 23.0507 752.121 21.2587 753.337 19.744C754.553 18.2293 756.025 17.0453 757.753 16.192C759.481 15.3173 761.433 14.88 763.609 14.88C765.571 14.88 767.235 15.2 768.601 15.84C769.987 16.48 771.225 17.3867 772.313 18.56V0.767998H778.585ZM787.29 48V15.488H791.034C791.909 15.488 792.453 15.904 792.666 16.736L793.114 19.84C794.309 18.4107 795.632 17.248 797.082 16.352C798.554 15.4347 800.272 14.976 802.234 14.976C804.389 14.976 806.138 15.5733 807.482 16.768C808.826 17.9413 809.808 19.5413 810.426 21.568C810.896 20.416 811.504 19.424 812.25 18.592C812.997 17.76 813.829 17.0773 814.746 16.544C815.664 16.0107 816.634 15.616 817.658 15.36C818.704 15.104 819.76 14.976 820.826 14.976C822.554 14.976 824.09 15.2533 825.434 15.808C826.8 16.3413 827.952 17.1307 828.89 18.176C829.829 19.2213 830.544 20.512 831.034 22.048C831.525 23.584 831.77 25.3333 831.77 27.296V48H825.498V27.296C825.498 24.864 824.965 23.0293 823.898 21.792C822.853 20.5547 821.317 19.936 819.29 19.936C818.394 19.936 817.541 20.096 816.73 20.416C815.92 20.7147 815.205 21.1733 814.586 21.792C813.989 22.4107 813.509 23.1787 813.146 24.096C812.805 25.0133 812.634 26.08 812.634 27.296V48H806.362V27.296C806.362 24.7787 805.861 22.9227 804.858 21.728C803.856 20.5333 802.384 19.936 800.442 19.936C799.098 19.936 797.85 20.288 796.698 20.992C795.546 21.696 794.49 22.656 793.53 23.872V48H787.29ZM861.701 28.128C861.701 26.8907 861.52 25.7493 861.157 24.704C860.816 23.6587 860.304 22.752 859.621 21.984C858.939 21.216 858.107 20.6187 857.125 20.192C856.144 19.7653 855.013 19.552 853.733 19.552C851.109 19.552 849.04 20.3093 847.525 21.824C846.032 23.3387 845.083 25.44 844.677 28.128H861.701ZM866.853 43.36C866.085 44.256 865.2 45.0347 864.197 45.696C863.195 46.336 862.128 46.8587 860.997 47.264C859.867 47.6693 858.693 47.968 857.477 48.16C856.283 48.352 855.099 48.448 853.925 48.448C851.685 48.448 849.605 48.0747 847.685 47.328C845.787 46.56 844.133 45.4507 842.725 44C841.339 42.528 840.251 40.7147 839.461 38.56C838.693 36.384 838.309 33.888 838.309 31.072C838.309 28.8107 838.661 26.7093 839.365 24.768C840.069 22.8053 841.072 21.0987 842.373 19.648C843.696 18.1973 845.307 17.056 847.205 16.224C849.104 15.392 851.237 14.976 853.605 14.976C855.589 14.976 857.413 15.3067 859.077 15.968C860.763 16.608 862.213 17.5467 863.429 18.784C864.645 20.0213 865.595 21.5467 866.277 23.36C866.981 25.1733 867.333 27.2427 867.333 29.568C867.333 30.528 867.227 31.1787 867.013 31.52C866.8 31.84 866.405 32 865.829 32H844.517C844.581 33.9413 844.859 35.6373 845.349 37.088C845.84 38.5173 846.512 39.712 847.365 40.672C848.24 41.632 849.275 42.3467 850.469 42.816C851.664 43.2853 852.997 43.52 854.469 43.52C855.856 43.52 857.051 43.36 858.053 43.04C859.077 42.72 859.952 42.3787 860.677 42.016C861.424 41.632 862.043 41.28 862.533 40.96C863.045 40.64 863.493 40.48 863.877 40.48C864.389 40.48 864.784 40.672 865.061 41.056L866.853 43.36ZM879.896 20C880.6 19.2533 881.336 18.5707 882.104 17.952C882.872 17.3333 883.683 16.8107 884.536 16.384C885.411 15.936 886.339 15.5947 887.32 15.36C888.323 15.104 889.39 14.976 890.52 14.976C892.312 14.976 893.88 15.2747 895.224 15.872C896.59 16.4693 897.731 17.312 898.648 18.4C899.566 19.4667 900.259 20.7573 900.728 22.272C901.198 23.7867 901.432 25.4613 901.432 27.296V48H895.16V27.296C895.16 24.9707 894.627 23.168 893.56 21.888C892.494 20.5867 890.862 19.936 888.664 19.936C887.064 19.936 885.56 20.32 884.152 21.088C882.766 21.8347 881.475 22.8587 880.28 24.16V48H874.04V15.488H877.784C878.659 15.488 879.203 15.904 879.416 16.736L879.896 20ZM919.591 48.512C916.967 48.512 914.941 47.776 913.511 46.304C912.103 44.832 911.399 42.7307 911.399 40V20.544H907.623C907.261 20.544 906.951 20.4373 906.695 20.224C906.461 19.9893 906.343 19.648 906.343 19.2V16.672L911.623 15.936L913.031 6.24C913.117 5.87733 913.277 5.6 913.511 5.408C913.767 5.19466 914.087 5.088 914.471 5.088H917.639V16H926.855V20.544H917.639V39.584C917.639 40.864 917.949 41.824 918.567 42.464C919.207 43.0827 920.018 43.392 920.999 43.392C921.575 43.392 922.066 43.3173 922.471 43.168C922.898 43.0187 923.261 42.8587 923.559 42.688C923.858 42.496 924.114 42.3253 924.327 42.176C924.541 42.0267 924.733 41.952 924.903 41.952C925.117 41.952 925.277 42.0053 925.383 42.112C925.511 42.1973 925.639 42.3467 925.767 42.56L927.623 45.568C926.599 46.5067 925.383 47.232 923.975 47.744C922.567 48.256 921.106 48.512 919.591 48.512ZM950.075 33.568C947.536 33.6533 945.381 33.856 943.611 34.176C941.84 34.4747 940.4 34.88 939.291 35.392C938.181 35.904 937.381 36.512 936.891 37.216C936.4 37.8987 936.155 38.6667 936.155 39.52C936.155 40.3307 936.283 41.0347 936.539 41.632C936.816 42.208 937.179 42.688 937.627 43.072C938.096 43.4347 938.64 43.7013 939.259 43.872C939.877 44.0427 940.549 44.128 941.275 44.128C942.235 44.128 943.109 44.032 943.899 43.84C944.709 43.648 945.467 43.3813 946.171 43.04C946.875 42.6773 947.547 42.24 948.187 41.728C948.827 41.216 949.456 40.6293 950.075 39.968V33.568ZM931.771 20.032C933.584 18.304 935.547 17.0133 937.659 16.16C939.792 15.3067 942.128 14.88 944.667 14.88C946.523 14.88 948.165 15.1893 949.595 15.808C951.024 16.4053 952.229 17.248 953.211 18.336C954.192 19.424 954.928 20.7253 955.419 22.24C955.931 23.7547 956.187 25.4293 956.187 27.264V48H953.403C952.784 48 952.315 47.904 951.995 47.712C951.675 47.4987 951.419 47.1147 951.227 46.56L950.555 43.712C949.723 44.48 948.901 45.1627 948.091 45.76C947.28 46.336 946.427 46.8373 945.531 47.264C944.656 47.6693 943.717 47.9787 942.715 48.192C941.712 48.4053 940.603 48.512 939.387 48.512C938.107 48.512 936.901 48.3413 935.771 48C934.661 47.6373 933.691 47.0933 932.859 46.368C932.027 45.6427 931.365 44.736 930.875 43.648C930.405 42.56 930.171 41.2907 930.171 39.84C930.171 38.56 930.512 37.3333 931.195 36.16C931.899 34.9653 933.029 33.8987 934.587 32.96C936.165 32.0213 938.213 31.2533 940.731 30.656C943.269 30.0587 946.384 29.7173 950.075 29.632V27.264C950.075 24.8107 949.552 22.976 948.507 21.76C947.461 20.544 945.925 19.936 943.899 19.936C942.533 19.936 941.381 20.1067 940.443 20.448C939.525 20.7893 938.725 21.1733 938.043 21.6C937.381 22.0053 936.795 22.3787 936.283 22.72C935.792 23.0613 935.28 23.232 934.747 23.232C934.32 23.232 933.947 23.1147 933.627 22.88C933.328 22.6453 933.083 22.368 932.891 22.048L931.771 20.032ZM970.94 0.767998V48H964.668V0.767998H970.94ZM1004.17 48H997.32V2.048H1004.17V48ZM1022.36 48H1015.51V2.048H1022.36V48Z" fill="#4C5773"/>
</svg>
