<svg width="1052" height="49" viewBox="0 0 1052 49" fill="none" xmlns="http://www.w3.org/2000/svg">
<path d="M36.2733 7.744H21.6813V48H14.8973V7.744H0.24125V2.048H36.2733V7.744ZM55.3888 28.128C55.3888 26.8907 55.2074 25.7493 54.8448 24.704C54.5034 23.6587 53.9914 22.752 53.3088 21.984C52.6261 21.216 51.7941 20.6187 50.8128 20.192C49.8314 19.7653 48.7008 19.552 47.4208 19.552C44.7968 19.552 42.7274 20.3093 41.2128 21.824C39.7194 23.3387 38.7701 25.44 38.3648 28.128H55.3888ZM60.5408 43.36C59.7728 44.256 58.8874 45.0347 57.8848 45.696C56.8821 46.336 55.8154 46.8587 54.6848 47.264C53.5541 47.6693 52.3808 47.968 51.1648 48.16C49.9701 48.352 48.7861 48.448 47.6128 48.448C45.3728 48.448 43.2928 48.0747 41.3728 47.328C39.4741 46.56 37.8208 45.4507 36.4128 44C35.0261 42.528 33.9381 40.7147 33.1488 38.56C32.3808 36.384 31.9968 33.888 31.9968 31.072C31.9968 28.8107 32.3488 26.7093 33.0528 24.768C33.7568 22.8053 34.7594 21.0987 36.0608 19.648C37.3834 18.1973 38.9941 17.056 40.8928 16.224C42.7914 15.392 44.9248 14.976 47.2928 14.976C49.2768 14.976 51.1008 15.3067 52.7648 15.968C54.4501 16.608 55.9008 17.5467 57.1168 18.784C58.3328 20.0213 59.2821 21.5467 59.9648 23.36C60.6688 25.1733 61.0208 27.2427 61.0208 29.568C61.0208 30.528 60.9141 31.1787 60.7008 31.52C60.4874 31.84 60.0928 32 59.5168 32H38.2048C38.2688 33.9413 38.5461 35.6373 39.0368 37.088C39.5274 38.5173 40.1994 39.712 41.0528 40.672C41.9274 41.632 42.9621 42.3467 44.1568 42.816C45.3514 43.2853 46.6848 43.52 48.1568 43.52C49.5434 43.52 50.7381 43.36 51.7408 43.04C52.7648 42.72 53.6394 42.3787 54.3648 42.016C55.1114 41.632 55.7301 41.28 56.2208 40.96C56.7328 40.64 57.1808 40.48 57.5648 40.48C58.0768 40.48 58.4714 40.672 58.7488 41.056L60.5408 43.36ZM73.6158 21.728C74.6611 19.5947 75.9198 17.92 77.3918 16.704C78.8638 15.488 80.6344 14.88 82.7038 14.88C83.4078 14.88 84.0691 14.9653 84.6878 15.136C85.3278 15.2853 85.8824 15.52 86.3518 15.84L85.9358 20.544C85.7864 21.12 85.4344 21.408 84.8798 21.408C84.5811 21.408 84.1331 21.3547 83.5358 21.248C82.9384 21.12 82.2984 21.056 81.6158 21.056C80.6131 21.056 79.7278 21.2053 78.9598 21.504C78.1918 21.7813 77.4984 22.208 76.8798 22.784C76.2824 23.3387 75.7491 24.032 75.2798 24.864C74.8104 25.6747 74.3731 26.6027 73.9678 27.648V48H67.7278V15.488H71.3118C71.9944 15.488 72.4531 15.616 72.6878 15.872C72.9438 16.1067 73.1251 16.5333 73.2318 17.152L73.6158 21.728ZM97.0533 21.728C98.0986 19.5947 99.3573 17.92 100.829 16.704C102.301 15.488 104.072 14.88 106.141 14.88C106.845 14.88 107.507 14.9653 108.125 15.136C108.765 15.2853 109.32 15.52 109.789 15.84L109.373 20.544C109.224 21.12 108.872 21.408 108.317 21.408C108.019 21.408 107.571 21.3547 106.973 21.248C106.376 21.12 105.736 21.056 105.053 21.056C104.051 21.056 103.165 21.2053 102.397 21.504C101.629 21.7813 100.936 22.208 100.317 22.784C99.7199 23.3387 99.1866 24.032 98.7173 24.864C98.2479 25.6747 97.8106 26.6027 97.4053 27.648V48H91.1653V15.488H94.7493C95.4319 15.488 95.8906 15.616 96.1253 15.872C96.3813 16.1067 96.5626 16.5333 96.6693 17.152L97.0533 21.728ZM121.131 15.488V48H114.891V15.488H121.131ZM122.315 5.44C122.315 6.016 122.197 6.57066 121.963 7.104C121.728 7.616 121.408 8.07467 121.003 8.48C120.619 8.864 120.16 9.17333 119.627 9.408C119.093 9.62133 118.539 9.728 117.963 9.728C117.387 9.728 116.843 9.62133 116.331 9.408C115.819 9.17333 115.36 8.864 114.955 8.48C114.571 8.07467 114.261 7.616 114.027 7.104C113.813 6.57066 113.707 6.016 113.707 5.44C113.707 4.84267 113.813 4.288 114.027 3.776C114.261 3.24266 114.571 2.784 114.955 2.4C115.36 1.99466 115.819 1.68533 116.331 1.472C116.843 1.23733 117.387 1.12 117.963 1.12C118.539 1.12 119.093 1.23733 119.627 1.472C120.16 1.68533 120.619 1.99466 121.003 2.4C121.408 2.784 121.728 3.24266 121.963 3.776C122.197 4.288 122.315 4.84267 122.315 5.44ZM140.341 48.512C137.717 48.512 135.691 47.776 134.261 46.304C132.853 44.832 132.149 42.7307 132.149 40V20.544H128.373C128.011 20.544 127.701 20.4373 127.445 20.224C127.211 19.9893 127.093 19.648 127.093 19.2V16.672L132.373 15.936L133.781 6.24C133.867 5.87733 134.027 5.6 134.261 5.408C134.517 5.19466 134.837 5.088 135.221 5.088H138.389V16H147.605V20.544H138.389V39.584C138.389 40.864 138.699 41.824 139.317 42.464C139.957 43.0827 140.768 43.392 141.749 43.392C142.325 43.392 142.816 43.3173 143.221 43.168C143.648 43.0187 144.011 42.8587 144.309 42.688C144.608 42.496 144.864 42.3253 145.077 42.176C145.291 42.0267 145.483 41.952 145.653 41.952C145.867 41.952 146.027 42.0053 146.133 42.112C146.261 42.1973 146.389 42.3467 146.517 42.56L148.373 45.568C147.349 46.5067 146.133 47.232 144.725 47.744C143.317 48.256 141.856 48.512 140.341 48.512ZM167.021 14.976C169.411 14.976 171.565 15.3707 173.485 16.16C175.427 16.928 177.069 18.048 178.413 19.52C179.779 20.9707 180.824 22.7307 181.549 24.8C182.275 26.848 182.637 29.152 182.637 31.712C182.637 34.272 182.275 36.5867 181.549 38.656C180.824 40.7253 179.779 42.4853 178.413 43.936C177.069 45.3867 175.427 46.5067 173.485 47.296C171.565 48.064 169.411 48.448 167.021 48.448C164.611 48.448 162.435 48.064 160.493 47.296C158.573 46.5067 156.931 45.3867 155.565 43.936C154.2 42.4853 153.144 40.7253 152.397 38.656C151.672 36.5867 151.309 34.272 151.309 31.712C151.309 29.152 151.672 26.848 152.397 24.8C153.144 22.7307 154.2 20.9707 155.565 19.52C156.931 18.048 158.573 16.928 160.493 16.16C162.435 15.3707 164.611 14.976 167.021 14.976ZM167.021 43.584C170.093 43.584 172.387 42.5493 173.901 40.48C175.416 38.4107 176.173 35.4987 176.173 31.744C176.173 27.9893 175.416 25.0773 173.901 23.008C172.387 20.9173 170.093 19.872 167.021 19.872C163.907 19.872 161.581 20.9173 160.045 23.008C158.531 25.0773 157.773 27.9893 157.773 31.744C157.773 35.4987 158.531 38.4107 160.045 40.48C161.581 42.5493 163.907 43.584 167.021 43.584ZM176.813 1.536L169.229 9.792C168.909 10.1547 168.6 10.4107 168.301 10.56C168.003 10.688 167.608 10.752 167.117 10.752H163.341L168.077 3.008C168.376 2.51733 168.696 2.15467 169.037 1.92C169.4 1.664 169.955 1.536 170.701 1.536H176.813ZM195.491 21.728C196.536 19.5947 197.795 17.92 199.267 16.704C200.739 15.488 202.509 14.88 204.579 14.88C205.283 14.88 205.944 14.9653 206.563 15.136C207.203 15.2853 207.757 15.52 208.227 15.84L207.811 20.544C207.661 21.12 207.309 21.408 206.755 21.408C206.456 21.408 206.008 21.3547 205.411 21.248C204.813 21.12 204.173 21.056 203.491 21.056C202.488 21.056 201.603 21.2053 200.835 21.504C200.067 21.7813 199.373 22.208 198.755 22.784C198.157 23.3387 197.624 24.032 197.155 24.864C196.685 25.6747 196.248 26.6027 195.843 27.648V48H189.603V15.488H193.187C193.869 15.488 194.328 15.616 194.563 15.872C194.819 16.1067 195 16.5333 195.107 17.152L195.491 21.728ZM219.568 15.488V48H213.328V15.488H219.568ZM220.752 5.44C220.752 6.016 220.635 6.57066 220.4 7.104C220.166 7.616 219.846 8.07467 219.44 8.48C219.056 8.864 218.598 9.17333 218.064 9.408C217.531 9.62133 216.976 9.728 216.4 9.728C215.824 9.728 215.28 9.62133 214.768 9.408C214.256 9.17333 213.798 8.864 213.392 8.48C213.008 8.07467 212.699 7.616 212.464 7.104C212.251 6.57066 212.144 6.016 212.144 5.44C212.144 4.84267 212.251 4.288 212.464 3.776C212.699 3.24266 213.008 2.784 213.392 2.4C213.798 1.99466 214.256 1.68533 214.768 1.472C215.28 1.23733 215.824 1.12 216.4 1.12C216.976 1.12 217.531 1.23733 218.064 1.472C218.598 1.68533 219.056 1.99466 219.44 2.4C219.846 2.784 220.166 3.24266 220.4 3.776C220.635 4.288 220.752 4.84267 220.752 5.44ZM242.459 14.976C244.848 14.976 247.003 15.3707 248.923 16.16C250.864 16.928 252.507 18.048 253.851 19.52C255.216 20.9707 256.261 22.7307 256.987 24.8C257.712 26.848 258.075 29.152 258.075 31.712C258.075 34.272 257.712 36.5867 256.987 38.656C256.261 40.7253 255.216 42.4853 253.851 43.936C252.507 45.3867 250.864 46.5067 248.923 47.296C247.003 48.064 244.848 48.448 242.459 48.448C240.048 48.448 237.872 48.064 235.931 47.296C234.011 46.5067 232.368 45.3867 231.003 43.936C229.637 42.4853 228.581 40.7253 227.835 38.656C227.109 36.5867 226.747 34.272 226.747 31.712C226.747 29.152 227.109 26.848 227.835 24.8C228.581 22.7307 229.637 20.9707 231.003 19.52C232.368 18.048 234.011 16.928 235.931 16.16C237.872 15.3707 240.048 14.976 242.459 14.976ZM242.459 43.584C245.531 43.584 247.824 42.5493 249.339 40.48C250.853 38.4107 251.611 35.4987 251.611 31.744C251.611 27.9893 250.853 25.0773 249.339 23.008C247.824 20.9173 245.531 19.872 242.459 19.872C239.344 19.872 237.019 20.9173 235.483 23.008C233.968 25.0773 233.211 27.9893 233.211 31.744C233.211 35.4987 233.968 38.4107 235.483 40.48C237.019 42.5493 239.344 43.584 242.459 43.584ZM284.208 21.088C284.038 21.3653 283.856 21.568 283.664 21.696C283.472 21.8027 283.227 21.856 282.928 21.856C282.587 21.856 282.203 21.7387 281.776 21.504C281.371 21.2693 280.87 21.0133 280.272 20.736C279.696 20.4587 279.014 20.2027 278.224 19.968C277.435 19.7333 276.496 19.616 275.408 19.616C274.512 19.616 273.691 19.7333 272.944 19.968C272.219 20.1813 271.6 20.4907 271.088 20.896C270.576 21.28 270.182 21.7493 269.904 22.304C269.627 22.8373 269.488 23.4133 269.488 24.032C269.488 24.8427 269.723 25.5147 270.192 26.048C270.683 26.5813 271.312 27.04 272.08 27.424C272.87 27.808 273.755 28.16 274.736 28.48C275.739 28.7787 276.752 29.0987 277.776 29.44C278.822 29.7813 279.835 30.176 280.816 30.624C281.819 31.0507 282.704 31.5947 283.472 32.256C284.262 32.896 284.891 33.6747 285.36 34.592C285.851 35.5093 286.096 36.6293 286.096 37.952C286.096 39.4667 285.819 40.8747 285.264 42.176C284.731 43.456 283.931 44.5653 282.864 45.504C281.819 46.4427 280.518 47.1787 278.96 47.712C277.403 48.2453 275.622 48.512 273.616 48.512C271.376 48.512 269.307 48.1387 267.408 47.392C265.51 46.6453 263.92 45.696 262.64 44.544L264.112 42.144C264.283 41.8453 264.496 41.6213 264.752 41.472C265.008 41.3013 265.35 41.216 265.776 41.216C266.182 41.216 266.598 41.3653 267.024 41.664C267.451 41.9627 267.963 42.2933 268.56 42.656C269.158 42.9973 269.883 43.3173 270.736 43.616C271.59 43.8933 272.656 44.032 273.936 44.032C275.003 44.032 275.931 43.904 276.72 43.648C277.51 43.3707 278.16 43.008 278.672 42.56C279.206 42.0907 279.6 41.5573 279.856 40.96C280.112 40.3627 280.24 39.7333 280.24 39.072C280.24 38.2187 279.995 37.5147 279.504 36.96C279.035 36.384 278.406 35.8933 277.616 35.488C276.848 35.0827 275.963 34.7307 274.96 34.432C273.958 34.1333 272.934 33.8133 271.888 33.472C270.843 33.1307 269.819 32.736 268.816 32.288C267.814 31.84 266.918 31.2747 266.128 30.592C265.36 29.9093 264.731 29.0773 264.24 28.096C263.771 27.1147 263.536 25.92 263.536 24.512C263.536 23.2533 263.792 22.048 264.304 20.896C264.838 19.744 265.595 18.7307 266.576 17.856C267.579 16.9813 268.806 16.288 270.256 15.776C271.728 15.2427 273.403 14.976 275.28 14.976C277.435 14.976 279.376 15.3173 281.104 16C282.854 16.6827 284.347 17.6213 285.584 18.816L284.208 21.088ZM330 23.36C328.976 22.016 327.867 21.0773 326.672 20.544C325.499 20.0107 324.176 19.744 322.704 19.744C319.846 19.744 317.627 20.7787 316.048 22.848C314.491 24.896 313.712 27.8933 313.712 31.84C313.712 33.9093 313.883 35.68 314.224 37.152C314.587 38.6027 315.099 39.7973 315.76 40.736C316.443 41.6533 317.275 42.336 318.256 42.784C319.238 43.2107 320.347 43.424 321.584 43.424C323.398 43.424 324.966 43.0187 326.288 42.208C327.611 41.3973 328.848 40.256 330 38.784V23.36ZM336.272 0.767998V48H332.496C331.622 48 331.078 47.584 330.864 46.752L330.32 43.008C328.934 44.6507 327.355 45.9733 325.584 46.976C323.835 47.9573 321.808 48.448 319.504 48.448C317.648 48.448 315.963 48.0853 314.448 47.36C312.955 46.6347 311.675 45.5787 310.608 44.192C309.542 42.784 308.72 41.0453 308.144 38.976C307.568 36.9067 307.28 34.528 307.28 31.84C307.28 29.4293 307.6 27.1893 308.24 25.12C308.88 23.0507 309.808 21.2587 311.024 19.744C312.24 18.2293 313.712 17.0453 315.44 16.192C317.168 15.3173 319.12 14.88 321.296 14.88C323.259 14.88 324.923 15.2 326.288 15.84C327.675 16.48 328.912 17.3867 330 18.56V0.767998H336.272ZM362.45 33.568C359.911 33.6533 357.756 33.856 355.986 34.176C354.215 34.4747 352.775 34.88 351.666 35.392C350.556 35.904 349.756 36.512 349.266 37.216C348.775 37.8987 348.53 38.6667 348.53 39.52C348.53 40.3307 348.658 41.0347 348.914 41.632C349.191 42.208 349.554 42.688 350.002 43.072C350.471 43.4347 351.015 43.7013 351.634 43.872C352.252 44.0427 352.924 44.128 353.65 44.128C354.61 44.128 355.484 44.032 356.274 43.84C357.084 43.648 357.842 43.3813 358.546 43.04C359.25 42.6773 359.922 42.24 360.562 41.728C361.202 41.216 361.831 40.6293 362.45 39.968V33.568ZM344.146 20.032C345.959 18.304 347.922 17.0133 350.034 16.16C352.167 15.3067 354.503 14.88 357.042 14.88C358.898 14.88 360.54 15.1893 361.97 15.808C363.399 16.4053 364.604 17.248 365.586 18.336C366.567 19.424 367.303 20.7253 367.794 22.24C368.306 23.7547 368.562 25.4293 368.562 27.264V48H365.778C365.159 48 364.69 47.904 364.37 47.712C364.05 47.4987 363.794 47.1147 363.602 46.56L362.93 43.712C362.098 44.48 361.276 45.1627 360.466 45.76C359.655 46.336 358.802 46.8373 357.906 47.264C357.031 47.6693 356.092 47.9787 355.09 48.192C354.087 48.4053 352.978 48.512 351.762 48.512C350.482 48.512 349.276 48.3413 348.146 48C347.036 47.6373 346.066 47.0933 345.234 46.368C344.402 45.6427 343.74 44.736 343.25 43.648C342.78 42.56 342.546 41.2907 342.546 39.84C342.546 38.56 342.887 37.3333 343.57 36.16C344.274 34.9653 345.404 33.8987 346.962 32.96C348.54 32.0213 350.588 31.2533 353.106 30.656C355.644 30.0587 358.759 29.7173 362.45 29.632V27.264C362.45 24.8107 361.927 22.976 360.882 21.76C359.836 20.544 358.3 19.936 356.274 19.936C354.908 19.936 353.756 20.1067 352.818 20.448C351.9 20.7893 351.1 21.1733 350.418 21.6C349.756 22.0053 349.17 22.3787 348.658 22.72C348.167 23.0613 347.655 23.232 347.122 23.232C346.695 23.232 346.322 23.1147 346.002 22.88C345.703 22.6453 345.458 22.368 345.266 22.048L344.146 20.032ZM442.703 2.048V48H436.751V15.296C436.751 14.8053 436.761 14.2827 436.783 13.728C436.825 13.1733 436.868 12.608 436.911 12.032L421.615 40.096C421.081 41.1413 420.26 41.664 419.151 41.664H418.191C417.081 41.664 416.271 41.1413 415.759 40.096L400.175 11.936C400.303 13.1307 400.367 14.2507 400.367 15.296V48H394.383V2.048H399.439C400.036 2.048 400.495 2.112 400.815 2.24C401.156 2.34666 401.476 2.66666 401.775 3.2L417.135 30.72C417.433 31.2747 417.711 31.8613 417.967 32.48C418.223 33.0987 418.468 33.7173 418.703 34.336C419.151 33.0773 419.673 31.8613 420.271 30.688L435.343 3.2C435.62 2.66666 435.919 2.34666 436.239 2.24C436.58 2.112 437.049 2.048 437.647 2.048H442.703ZM473.326 28.128C473.326 26.8907 473.145 25.7493 472.782 24.704C472.441 23.6587 471.929 22.752 471.246 21.984C470.564 21.216 469.732 20.6187 468.75 20.192C467.769 19.7653 466.638 19.552 465.358 19.552C462.734 19.552 460.665 20.3093 459.15 21.824C457.657 23.3387 456.708 25.44 456.302 28.128H473.326ZM478.478 43.36C477.71 44.256 476.825 45.0347 475.822 45.696C474.82 46.336 473.753 46.8587 472.622 47.264C471.492 47.6693 470.318 47.968 469.102 48.16C467.908 48.352 466.724 48.448 465.55 48.448C463.31 48.448 461.23 48.0747 459.31 47.328C457.412 46.56 455.758 45.4507 454.35 44C452.964 42.528 451.876 40.7147 451.086 38.56C450.318 36.384 449.934 33.888 449.934 31.072C449.934 28.8107 450.286 26.7093 450.99 24.768C451.694 22.8053 452.697 21.0987 453.998 19.648C455.321 18.1973 456.932 17.056 458.83 16.224C460.729 15.392 462.862 14.976 465.23 14.976C467.214 14.976 469.038 15.3067 470.702 15.968C472.388 16.608 473.838 17.5467 475.054 18.784C476.27 20.0213 477.22 21.5467 477.902 23.36C478.606 25.1733 478.958 27.2427 478.958 29.568C478.958 30.528 478.852 31.1787 478.638 31.52C478.425 31.84 478.03 32 477.454 32H456.142C456.206 33.9413 456.484 35.6373 456.974 37.088C457.465 38.5173 458.137 39.712 458.99 40.672C459.865 41.632 460.9 42.3467 462.094 42.816C463.289 43.2853 464.622 43.52 466.094 43.52C467.481 43.52 468.676 43.36 469.678 43.04C470.702 42.72 471.577 42.3787 472.302 42.016C473.049 41.632 473.668 41.28 474.158 40.96C474.67 40.64 475.118 40.48 475.502 40.48C476.014 40.48 476.409 40.672 476.686 41.056L478.478 43.36ZM495.591 48.512C492.967 48.512 490.941 47.776 489.511 46.304C488.103 44.832 487.399 42.7307 487.399 40V20.544H483.623C483.261 20.544 482.951 20.4373 482.695 20.224C482.461 19.9893 482.343 19.648 482.343 19.2V16.672L487.623 15.936L489.031 6.24C489.117 5.87733 489.277 5.6 489.511 5.408C489.767 5.19466 490.087 5.088 490.471 5.088H493.639V16H502.855V20.544H493.639V39.584C493.639 40.864 493.949 41.824 494.567 42.464C495.207 43.0827 496.018 43.392 496.999 43.392C497.575 43.392 498.066 43.3173 498.471 43.168C498.898 43.0187 499.261 42.8587 499.559 42.688C499.858 42.496 500.114 42.3253 500.327 42.176C500.541 42.0267 500.733 41.952 500.903 41.952C501.117 41.952 501.277 42.0053 501.383 42.112C501.511 42.1973 501.639 42.3467 501.767 42.56L503.623 45.568C502.599 46.5067 501.383 47.232 499.975 47.744C498.567 48.256 497.106 48.512 495.591 48.512ZM526.075 33.568C523.536 33.6533 521.381 33.856 519.611 34.176C517.84 34.4747 516.4 34.88 515.291 35.392C514.181 35.904 513.381 36.512 512.891 37.216C512.4 37.8987 512.155 38.6667 512.155 39.52C512.155 40.3307 512.283 41.0347 512.539 41.632C512.816 42.208 513.179 42.688 513.627 43.072C514.096 43.4347 514.64 43.7013 515.259 43.872C515.877 44.0427 516.549 44.128 517.275 44.128C518.235 44.128 519.109 44.032 519.899 43.84C520.709 43.648 521.467 43.3813 522.171 43.04C522.875 42.6773 523.547 42.24 524.187 41.728C524.827 41.216 525.456 40.6293 526.075 39.968V33.568ZM507.771 20.032C509.584 18.304 511.547 17.0133 513.659 16.16C515.792 15.3067 518.128 14.88 520.667 14.88C522.523 14.88 524.165 15.1893 525.595 15.808C527.024 16.4053 528.229 17.248 529.211 18.336C530.192 19.424 530.928 20.7253 531.419 22.24C531.931 23.7547 532.187 25.4293 532.187 27.264V48H529.403C528.784 48 528.315 47.904 527.995 47.712C527.675 47.4987 527.419 47.1147 527.227 46.56L526.555 43.712C525.723 44.48 524.901 45.1627 524.091 45.76C523.28 46.336 522.427 46.8373 521.531 47.264C520.656 47.6693 519.717 47.9787 518.715 48.192C517.712 48.4053 516.603 48.512 515.387 48.512C514.107 48.512 512.901 48.3413 511.771 48C510.661 47.6373 509.691 47.0933 508.859 46.368C508.027 45.6427 507.365 44.736 506.875 43.648C506.405 42.56 506.171 41.2907 506.171 39.84C506.171 38.56 506.512 37.3333 507.195 36.16C507.899 34.9653 509.029 33.8987 510.587 32.96C512.165 32.0213 514.213 31.2533 516.731 30.656C519.269 30.0587 522.384 29.7173 526.075 29.632V27.264C526.075 24.8107 525.552 22.976 524.507 21.76C523.461 20.544 521.925 19.936 519.899 19.936C518.533 19.936 517.381 20.1067 516.443 20.448C515.525 20.7893 514.725 21.1733 514.043 21.6C513.381 22.0053 512.795 22.3787 512.283 22.72C511.792 23.0613 511.28 23.232 510.747 23.232C510.32 23.232 509.947 23.1147 509.627 22.88C509.328 22.6453 509.083 22.368 508.891 22.048L507.771 20.032ZM577.688 23.36C576.664 22.016 575.554 21.0773 574.36 20.544C573.186 20.0107 571.864 19.744 570.392 19.744C567.533 19.744 565.314 20.7787 563.736 22.848C562.178 24.896 561.4 27.8933 561.4 31.84C561.4 33.9093 561.57 35.68 561.912 37.152C562.274 38.6027 562.786 39.7973 563.448 40.736C564.13 41.6533 564.962 42.336 565.944 42.784C566.925 43.2107 568.034 43.424 569.272 43.424C571.085 43.424 572.653 43.0187 573.976 42.208C575.298 41.3973 576.536 40.256 577.688 38.784V23.36ZM583.96 0.767998V48H580.184C579.309 48 578.765 47.584 578.552 46.752L578.008 43.008C576.621 44.6507 575.042 45.9733 573.272 46.976C571.522 47.9573 569.496 48.448 567.192 48.448C565.336 48.448 563.65 48.0853 562.136 47.36C560.642 46.6347 559.362 45.5787 558.296 44.192C557.229 42.784 556.408 41.0453 555.832 38.976C555.256 36.9067 554.968 34.528 554.968 31.84C554.968 29.4293 555.288 27.1893 555.928 25.12C556.568 23.0507 557.496 21.2587 558.712 19.744C559.928 18.2293 561.4 17.0453 563.128 16.192C564.856 15.3173 566.808 14.88 568.984 14.88C570.946 14.88 572.61 15.2 573.976 15.84C575.362 16.48 576.6 17.3867 577.688 18.56V0.767998H583.96ZM614.201 28.128C614.201 26.8907 614.02 25.7493 613.657 24.704C613.316 23.6587 612.804 22.752 612.121 21.984C611.439 21.216 610.607 20.6187 609.625 20.192C608.644 19.7653 607.513 19.552 606.233 19.552C603.609 19.552 601.54 20.3093 600.025 21.824C598.532 23.3387 597.583 25.44 597.177 28.128H614.201ZM619.353 43.36C618.585 44.256 617.7 45.0347 616.697 45.696C615.695 46.336 614.628 46.8587 613.497 47.264C612.367 47.6693 611.193 47.968 609.977 48.16C608.783 48.352 607.599 48.448 606.425 48.448C604.185 48.448 602.105 48.0747 600.185 47.328C598.287 46.56 596.633 45.4507 595.225 44C593.839 42.528 592.751 40.7147 591.961 38.56C591.193 36.384 590.809 33.888 590.809 31.072C590.809 28.8107 591.161 26.7093 591.865 24.768C592.569 22.8053 593.572 21.0987 594.873 19.648C596.196 18.1973 597.807 17.056 599.705 16.224C601.604 15.392 603.737 14.976 606.105 14.976C608.089 14.976 609.913 15.3067 611.577 15.968C613.263 16.608 614.713 17.5467 615.929 18.784C617.145 20.0213 618.095 21.5467 618.777 23.36C619.481 25.1733 619.833 27.2427 619.833 29.568C619.833 30.528 619.727 31.1787 619.513 31.52C619.3 31.84 618.905 32 618.329 32H597.017C597.081 33.9413 597.359 35.6373 597.849 37.088C598.34 38.5173 599.012 39.712 599.865 40.672C600.74 41.632 601.775 42.3467 602.969 42.816C604.164 43.2853 605.497 43.52 606.969 43.52C608.356 43.52 609.551 43.36 610.553 43.04C611.577 42.72 612.452 42.3787 613.177 42.016C613.924 41.632 614.543 41.28 615.033 40.96C615.545 40.64 615.993 40.48 616.377 40.48C616.889 40.48 617.284 40.672 617.561 41.056L619.353 43.36ZM650.856 7.584V22.976H669.288V28.512H650.856V48H644.008V2.048H672.488V7.584H650.856ZM703.58 15.488V48H699.836C698.983 48 698.428 47.584 698.172 46.752L697.724 43.488C697.02 44.2347 696.284 44.9173 695.516 45.536C694.748 46.1547 693.927 46.688 693.052 47.136C692.178 47.5627 691.25 47.8933 690.268 48.128C689.287 48.384 688.231 48.512 687.1 48.512C685.308 48.512 683.73 48.2133 682.364 47.616C681.02 47.0187 679.89 46.1867 678.972 45.12C678.055 44.032 677.362 42.7307 676.892 41.216C676.423 39.7013 676.188 38.0267 676.188 36.192V15.488H682.46V36.192C682.46 38.5173 682.994 40.3307 684.06 41.632C685.127 42.912 686.759 43.552 688.956 43.552C690.556 43.552 692.05 43.1787 693.436 42.432C694.823 41.664 696.124 40.6187 697.34 39.296V15.488H703.58ZM718.146 20C718.85 19.2533 719.586 18.5707 720.354 17.952C721.122 17.3333 721.933 16.8107 722.786 16.384C723.661 15.936 724.589 15.5947 725.57 15.36C726.573 15.104 727.64 14.976 728.77 14.976C730.562 14.976 732.13 15.2747 733.474 15.872C734.84 16.4693 735.981 17.312 736.898 18.4C737.816 19.4667 738.509 20.7573 738.978 22.272C739.448 23.7867 739.682 25.4613 739.682 27.296V48H733.41V27.296C733.41 24.9707 732.877 23.168 731.81 21.888C730.744 20.5867 729.112 19.936 726.914 19.936C725.314 19.936 723.81 20.32 722.402 21.088C721.016 21.8347 719.725 22.8587 718.53 24.16V48H712.29V15.488H716.034C716.909 15.488 717.453 15.904 717.666 16.736L718.146 20ZM769.063 23.36C768.039 22.016 766.929 21.0773 765.735 20.544C764.561 20.0107 763.239 19.744 761.767 19.744C758.908 19.744 756.689 20.7787 755.111 22.848C753.553 24.896 752.775 27.8933 752.775 31.84C752.775 33.9093 752.945 35.68 753.287 37.152C753.649 38.6027 754.161 39.7973 754.823 40.736C755.505 41.6533 756.337 42.336 757.319 42.784C758.3 43.2107 759.409 43.424 760.647 43.424C762.46 43.424 764.028 43.0187 765.351 42.208C766.673 41.3973 767.911 40.256 769.063 38.784V23.36ZM775.335 0.767998V48H771.559C770.684 48 770.14 47.584 769.927 46.752L769.383 43.008C767.996 44.6507 766.417 45.9733 764.647 46.976C762.897 47.9573 760.871 48.448 758.567 48.448C756.711 48.448 755.025 48.0853 753.511 47.36C752.017 46.6347 750.737 45.5787 749.671 44.192C748.604 42.784 747.783 41.0453 747.207 38.976C746.631 36.9067 746.343 34.528 746.343 31.84C746.343 29.4293 746.663 27.1893 747.303 25.12C747.943 23.0507 748.871 21.2587 750.087 19.744C751.303 18.2293 752.775 17.0453 754.503 16.192C756.231 15.3173 758.183 14.88 760.359 14.88C762.321 14.88 763.985 15.2 765.351 15.84C766.737 16.48 767.975 17.3867 769.063 18.56V0.767998H775.335ZM801.512 33.568C798.974 33.6533 796.819 33.856 795.048 34.176C793.278 34.4747 791.838 34.88 790.728 35.392C789.619 35.904 788.819 36.512 788.328 37.216C787.838 37.8987 787.592 38.6667 787.592 39.52C787.592 40.3307 787.72 41.0347 787.976 41.632C788.254 42.208 788.616 42.688 789.064 43.072C789.534 43.4347 790.078 43.7013 790.696 43.872C791.315 44.0427 791.987 44.128 792.712 44.128C793.672 44.128 794.547 44.032 795.336 43.84C796.147 43.648 796.904 43.3813 797.608 43.04C798.312 42.6773 798.984 42.24 799.624 41.728C800.264 41.216 800.894 40.6293 801.512 39.968V33.568ZM783.208 20.032C785.022 18.304 786.984 17.0133 789.096 16.16C791.23 15.3067 793.566 14.88 796.104 14.88C797.96 14.88 799.603 15.1893 801.032 15.808C802.462 16.4053 803.667 17.248 804.648 18.336C805.63 19.424 806.366 20.7253 806.856 22.24C807.368 23.7547 807.624 25.4293 807.624 27.264V48H804.84C804.222 48 803.752 47.904 803.432 47.712C803.112 47.4987 802.856 47.1147 802.664 46.56L801.992 43.712C801.16 44.48 800.339 45.1627 799.528 45.76C798.718 46.336 797.864 46.8373 796.968 47.264C796.094 47.6693 795.155 47.9787 794.152 48.192C793.15 48.4053 792.04 48.512 790.824 48.512C789.544 48.512 788.339 48.3413 787.208 48C786.099 47.6373 785.128 47.0933 784.296 46.368C783.464 45.6427 782.803 44.736 782.312 43.648C781.843 42.56 781.608 41.2907 781.608 39.84C781.608 38.56 781.95 37.3333 782.632 36.16C783.336 34.9653 784.467 33.8987 786.024 32.96C787.603 32.0213 789.651 31.2533 792.168 30.656C794.707 30.0587 797.822 29.7173 801.512 29.632V27.264C801.512 24.8107 800.99 22.976 799.944 21.76C798.899 20.544 797.363 19.936 795.336 19.936C793.971 19.936 792.819 20.1067 791.88 20.448C790.963 20.7893 790.163 21.1733 789.48 21.6C788.819 22.0053 788.232 22.3787 787.72 22.72C787.23 23.0613 786.718 23.232 786.184 23.232C785.758 23.232 785.384 23.1147 785.064 22.88C784.766 22.6453 784.52 22.368 784.328 22.048L783.208 20.032ZM815.978 48V15.488H819.722C820.596 15.488 821.14 15.904 821.354 16.736L821.802 19.84C822.996 18.4107 824.319 17.248 825.77 16.352C827.242 15.4347 828.959 14.976 830.922 14.976C833.076 14.976 834.826 15.5733 836.17 16.768C837.514 17.9413 838.495 19.5413 839.114 21.568C839.583 20.416 840.191 19.424 840.938 18.592C841.684 17.76 842.516 17.0773 843.434 16.544C844.351 16.0107 845.322 15.616 846.346 15.36C847.391 15.104 848.447 14.976 849.514 14.976C851.242 14.976 852.778 15.2533 854.122 15.808C855.487 16.3413 856.639 17.1307 857.578 18.176C858.516 19.2213 859.231 20.512 859.722 22.048C860.212 23.584 860.458 25.3333 860.458 27.296V48H854.186V27.296C854.186 24.864 853.652 23.0293 852.586 21.792C851.54 20.5547 850.004 19.936 847.978 19.936C847.082 19.936 846.228 20.096 845.418 20.416C844.607 20.7147 843.892 21.1733 843.274 21.792C842.676 22.4107 842.196 23.1787 841.834 24.096C841.492 25.0133 841.322 26.08 841.322 27.296V48H835.05V27.296C835.05 24.7787 834.548 22.9227 833.546 21.728C832.543 20.5333 831.071 19.936 829.13 19.936C827.786 19.936 826.538 20.288 825.386 20.992C824.234 21.696 823.178 22.656 822.218 23.872V48H815.978ZM890.389 28.128C890.389 26.8907 890.207 25.7493 889.845 24.704C889.503 23.6587 888.991 22.752 888.309 21.984C887.626 21.216 886.794 20.6187 885.813 20.192C884.831 19.7653 883.701 19.552 882.421 19.552C879.797 19.552 877.727 20.3093 876.213 21.824C874.719 23.3387 873.77 25.44 873.365 28.128H890.389ZM895.541 43.36C894.773 44.256 893.887 45.0347 892.885 45.696C891.882 46.336 890.815 46.8587 889.685 47.264C888.554 47.6693 887.381 47.968 886.165 48.16C884.97 48.352 883.786 48.448 882.613 48.448C880.373 48.448 878.293 48.0747 876.373 47.328C874.474 46.56 872.821 45.4507 871.413 44C870.026 42.528 868.938 40.7147 868.149 38.56C867.381 36.384 866.997 33.888 866.997 31.072C866.997 28.8107 867.349 26.7093 868.053 24.768C868.757 22.8053 869.759 21.0987 871.061 19.648C872.383 18.1973 873.994 17.056 875.893 16.224C877.791 15.392 879.925 14.976 882.293 14.976C884.277 14.976 886.101 15.3067 887.765 15.968C889.45 16.608 890.901 17.5467 892.117 18.784C893.333 20.0213 894.282 21.5467 894.965 23.36C895.669 25.1733 896.021 27.2427 896.021 29.568C896.021 30.528 895.914 31.1787 895.701 31.52C895.487 31.84 895.093 32 894.517 32H873.205C873.269 33.9413 873.546 35.6373 874.037 37.088C874.527 38.5173 875.199 39.712 876.053 40.672C876.927 41.632 877.962 42.3467 879.157 42.816C880.351 43.2853 881.685 43.52 883.157 43.52C884.543 43.52 885.738 43.36 886.741 43.04C887.765 42.72 888.639 42.3787 889.365 42.016C890.111 41.632 890.73 41.28 891.221 40.96C891.733 40.64 892.181 40.48 892.565 40.48C893.077 40.48 893.471 40.672 893.749 41.056L895.541 43.36ZM908.584 20C909.288 19.2533 910.024 18.5707 910.792 17.952C911.56 17.3333 912.37 16.8107 913.224 16.384C914.098 15.936 915.026 15.5947 916.008 15.36C917.01 15.104 918.077 14.976 919.208 14.976C921 14.976 922.568 15.2747 923.912 15.872C925.277 16.4693 926.418 17.312 927.336 18.4C928.253 19.4667 928.946 20.7573 929.416 22.272C929.885 23.7867 930.12 25.4613 930.12 27.296V48H923.848V27.296C923.848 24.9707 923.314 23.168 922.248 21.888C921.181 20.5867 919.549 19.936 917.352 19.936C915.752 19.936 914.248 20.32 912.84 21.088C911.453 21.8347 910.162 22.8587 908.968 24.16V48H902.728V15.488H906.472C907.346 15.488 907.89 15.904 908.104 16.736L908.584 20ZM948.279 48.512C945.655 48.512 943.628 47.776 942.199 46.304C940.791 44.832 940.087 42.7307 940.087 40V20.544H936.311C935.948 20.544 935.639 20.4373 935.383 20.224C935.148 19.9893 935.031 19.648 935.031 19.2V16.672L940.311 15.936L941.719 6.24C941.804 5.87733 941.964 5.6 942.199 5.408C942.455 5.19466 942.775 5.088 943.159 5.088H946.327V16H955.543V20.544H946.327V39.584C946.327 40.864 946.636 41.824 947.255 42.464C947.895 43.0827 948.705 43.392 949.687 43.392C950.263 43.392 950.753 43.3173 951.159 43.168C951.585 43.0187 951.948 42.8587 952.247 42.688C952.545 42.496 952.801 42.3253 953.015 42.176C953.228 42.0267 953.42 41.952 953.591 41.952C953.804 41.952 953.964 42.0053 954.071 42.112C954.199 42.1973 954.327 42.3467 954.455 42.56L956.311 45.568C955.287 46.5067 954.071 47.232 952.663 47.744C951.255 48.256 949.793 48.512 948.279 48.512ZM978.762 33.568C976.224 33.6533 974.069 33.856 972.298 34.176C970.528 34.4747 969.088 34.88 967.978 35.392C966.869 35.904 966.069 36.512 965.578 37.216C965.088 37.8987 964.842 38.6667 964.842 39.52C964.842 40.3307 964.97 41.0347 965.226 41.632C965.504 42.208 965.866 42.688 966.314 43.072C966.784 43.4347 967.328 43.7013 967.946 43.872C968.565 44.0427 969.237 44.128 969.962 44.128C970.922 44.128 971.797 44.032 972.586 43.84C973.397 43.648 974.154 43.3813 974.858 43.04C975.562 42.6773 976.234 42.24 976.874 41.728C977.514 41.216 978.144 40.6293 978.762 39.968V33.568ZM960.458 20.032C962.272 18.304 964.234 17.0133 966.346 16.16C968.48 15.3067 970.816 14.88 973.354 14.88C975.21 14.88 976.853 15.1893 978.282 15.808C979.712 16.4053 980.917 17.248 981.898 18.336C982.88 19.424 983.616 20.7253 984.106 22.24C984.618 23.7547 984.874 25.4293 984.874 27.264V48H982.09C981.472 48 981.002 47.904 980.682 47.712C980.362 47.4987 980.106 47.1147 979.914 46.56L979.242 43.712C978.41 44.48 977.589 45.1627 976.778 45.76C975.968 46.336 975.114 46.8373 974.218 47.264C973.344 47.6693 972.405 47.9787 971.402 48.192C970.4 48.4053 969.29 48.512 968.074 48.512C966.794 48.512 965.589 48.3413 964.458 48C963.349 47.6373 962.378 47.0933 961.546 46.368C960.714 45.6427 960.053 44.736 959.562 43.648C959.093 42.56 958.858 41.2907 958.858 39.84C958.858 38.56 959.2 37.3333 959.882 36.16C960.586 34.9653 961.717 33.8987 963.274 32.96C964.853 32.0213 966.901 31.2533 969.418 30.656C971.957 30.0587 975.072 29.7173 978.762 29.632V27.264C978.762 24.8107 978.24 22.976 977.194 21.76C976.149 20.544 974.613 19.936 972.586 19.936C971.221 19.936 970.069 20.1067 969.13 20.448C968.213 20.7893 967.413 21.1733 966.73 21.6C966.069 22.0053 965.482 22.3787 964.97 22.72C964.48 23.0613 963.968 23.232 963.434 23.232C963.008 23.232 962.634 23.1147 962.314 22.88C962.016 22.6453 961.77 22.368 961.578 22.048L960.458 20.032ZM999.628 0.767998V48H993.356V0.767998H999.628ZM1032.86 48H1026.01V2.048H1032.86V48ZM1051.04 48H1044.2V2.048H1051.04V48Z" fill="#4C5773"/>
</svg>
