<svg width="1123" height="58" viewBox="0 0 1123 58" fill="none" xmlns="http://www.w3.org/2000/svg">
<path d="M28.2213 8.536C28.0079 8.89867 27.7839 9.16533 27.5493 9.336C27.3146 9.50667 27.0159 9.592 26.6533 9.592C26.2693 9.592 25.8319 9.42133 25.3413 9.08C24.8506 8.71733 24.2319 8.32267 23.4853 7.896C22.7599 7.448 21.8853 7.05333 20.8613 6.712C19.8373 6.34933 18.6106 6.168 17.1813 6.168C15.8373 6.168 14.6533 6.34933 13.6293 6.712C12.6266 7.05333 11.7839 7.53333 11.1013 8.152C10.4186 8.74933 9.89592 9.464 9.53325 10.296C9.19192 11.1067 9.02125 11.992 9.02125 12.952C9.02125 14.1893 9.33058 15.2133 9.94925 16.024C10.5893 16.8347 11.4213 17.528 12.4453 18.104C13.4693 18.68 14.6319 19.1813 15.9333 19.608C17.2346 20.0347 18.5679 20.4827 19.9333 20.952C21.2986 21.4 22.6319 21.9227 23.9333 22.52C25.2346 23.1173 26.3973 23.8747 27.4213 24.792C28.4453 25.688 29.2666 26.7973 29.8853 28.12C30.5253 29.4213 30.8453 31.0213 30.8453 32.92C30.8453 34.9467 30.4933 36.8453 29.7893 38.616C29.1066 40.3867 28.1039 41.9333 26.7813 43.256C25.4586 44.5787 23.8266 45.624 21.8853 46.392C19.9653 47.1387 17.7786 47.512 15.3253 47.512C13.8533 47.512 12.4239 47.3627 11.0373 47.064C9.65058 46.7867 8.33858 46.392 7.10125 45.88C5.86392 45.3467 4.70125 44.7173 3.61325 43.992C2.54658 43.2453 1.58658 42.4133 0.73325 41.496L2.68525 38.232C2.87725 37.976 3.10125 37.7627 3.35725 37.592C3.63458 37.4213 3.94392 37.336 4.28525 37.336C4.73325 37.336 5.24525 37.5707 5.82125 38.04C6.41858 38.5093 7.14392 39.032 7.99725 39.608C8.87192 40.1627 9.90658 40.6747 11.1013 41.144C12.3173 41.6133 13.7893 41.848 15.5173 41.848C16.9253 41.848 18.1839 41.6667 19.2933 41.304C20.4026 40.92 21.3306 40.3867 22.0773 39.704C22.8453 39 23.4319 38.1573 23.8373 37.176C24.2426 36.1947 24.4453 35.1067 24.4453 33.912C24.4453 32.568 24.1359 31.4693 23.5173 30.616C22.8986 29.7627 22.0773 29.048 21.0533 28.472C20.0293 27.896 18.8666 27.4053 17.5653 27C16.2639 26.5947 14.9306 26.1787 13.5653 25.752C12.1999 25.304 10.8666 24.792 9.56525 24.216C8.26392 23.64 7.10125 22.8933 6.07725 21.976C5.05325 21.0373 4.23192 19.8747 3.61325 18.488C2.99458 17.08 2.68525 15.352 2.68525 13.304C2.68525 11.6613 3.00525 10.072 3.64525 8.536C4.28525 7 5.21325 5.64533 6.42925 4.472C7.66658 3.27733 9.18125 2.328 10.9733 1.624C12.7653 0.898665 14.8133 0.535999 17.1173 0.535999C19.6986 0.535999 22.0666 0.951998 24.2213 1.784C26.3973 2.59466 28.2853 3.768 29.8853 5.304L28.2213 8.536ZM62.7988 29.88L55.9828 12.056C55.4921 10.84 55.0014 9.304 54.5108 7.448C54.2761 8.36533 54.0308 9.21866 53.7748 10.008C53.5401 10.7973 53.3054 11.5013 53.0708 12.12L46.2868 29.88H62.7988ZM76.2708 47H71.0228C70.4254 47 69.9348 46.8507 69.5508 46.552C69.1668 46.2533 68.8894 45.8693 68.7188 45.4L64.6548 34.744H44.3988L40.3348 45.4C40.1854 45.8053 39.9081 46.1787 39.5028 46.52C39.0974 46.84 38.6068 47 38.0308 47H32.7828L51.0868 1.048H57.9668L76.2708 47ZM110.52 41.464L110.488 47H82.0078V1.048H110.488V6.584H88.8558V21.144H106.264V26.488H88.8558V41.464H110.52ZM135.361 41.592C137.089 41.592 138.561 41.3893 139.777 40.984C141.015 40.5787 142.017 40.024 142.785 39.32C143.575 38.616 144.151 37.784 144.513 36.824C144.876 35.8427 145.057 34.776 145.057 33.624C145.057 31.3413 144.268 29.5493 142.689 28.248C141.111 26.9253 138.668 26.264 135.361 26.264H125.761V41.592H135.361ZM125.761 6.392V21.432H133.601C136.951 21.432 139.436 20.76 141.057 19.416C142.7 18.0507 143.521 16.216 143.521 13.912C143.521 11.288 142.743 9.37866 141.185 8.184C139.628 6.98933 137.207 6.392 133.921 6.392H125.761ZM133.921 1.048C136.801 1.048 139.265 1.32533 141.313 1.88C143.383 2.43466 145.079 3.23466 146.401 4.28C147.724 5.32533 148.695 6.59467 149.313 8.088C149.953 9.56 150.273 11.2347 150.273 13.112C150.273 14.2213 150.103 15.288 149.761 16.312C149.42 17.336 148.897 18.296 148.193 19.192C147.489 20.0667 146.604 20.856 145.537 21.56C144.471 22.264 143.212 22.8507 141.761 23.32C148.439 24.6427 151.777 28.1307 151.777 33.784C151.777 35.7467 151.415 37.5387 150.689 39.16C149.964 40.76 148.908 42.1467 147.521 43.32C146.135 44.4933 144.428 45.4 142.401 46.04C140.375 46.68 138.071 47 135.489 47H118.945V1.048H133.921ZM158.716 43.256C158.716 42.68 158.822 42.136 159.036 41.624C159.249 41.112 159.537 40.664 159.9 40.28C160.284 39.896 160.732 39.5973 161.244 39.384C161.756 39.1493 162.31 39.032 162.908 39.032C163.484 39.032 164.028 39.1493 164.54 39.384C165.052 39.5973 165.5 39.896 165.884 40.28C166.268 40.664 166.566 41.112 166.78 41.624C167.014 42.136 167.132 42.68 167.132 43.256C167.132 43.8533 167.014 44.408 166.78 44.92C166.566 45.432 166.268 45.88 165.884 46.264C165.5 46.648 165.052 46.9467 164.54 47.16C164.028 47.3733 163.484 47.48 162.908 47.48C162.31 47.48 161.756 47.3733 161.244 47.16C160.732 46.9467 160.284 46.648 159.9 46.264C159.537 45.88 159.249 45.432 159.036 44.92C158.822 44.408 158.716 43.8533 158.716 43.256ZM158.716 19.576C158.716 19 158.822 18.456 159.036 17.944C159.249 17.432 159.537 16.984 159.9 16.6C160.284 16.216 160.732 15.9173 161.244 15.704C161.756 15.4693 162.31 15.352 162.908 15.352C163.484 15.352 164.028 15.4693 164.54 15.704C165.052 15.9173 165.5 16.216 165.884 16.6C166.268 16.984 166.566 17.432 166.78 17.944C167.014 18.456 167.132 19 167.132 19.576C167.132 20.1733 167.014 20.728 166.78 21.24C166.566 21.752 166.268 22.2 165.884 22.584C165.5 22.968 165.052 23.2667 164.54 23.48C164.028 23.6933 163.484 23.8 162.908 23.8C162.31 23.8 161.756 23.6933 161.244 23.48C160.732 23.2667 160.284 22.968 159.9 22.584C159.537 22.2 159.249 21.752 159.036 21.24C158.822 20.728 158.716 20.1733 158.716 19.576ZM222.211 6.744H207.619V47H200.835V6.744H186.179V1.048H222.211V6.744ZM241.326 27.128C241.326 25.8907 241.145 24.7493 240.782 23.704C240.441 22.6587 239.929 21.752 239.246 20.984C238.564 20.216 237.732 19.6187 236.75 19.192C235.769 18.7653 234.638 18.552 233.358 18.552C230.734 18.552 228.665 19.3093 227.15 20.824C225.657 22.3387 224.708 24.44 224.302 27.128H241.326ZM246.478 42.36C245.71 43.256 244.825 44.0347 243.822 44.696C242.82 45.336 241.753 45.8587 240.622 46.264C239.492 46.6693 238.318 46.968 237.102 47.16C235.908 47.352 234.724 47.448 233.55 47.448C231.31 47.448 229.23 47.0747 227.31 46.328C225.412 45.56 223.758 44.4507 222.35 43C220.964 41.528 219.876 39.7147 219.086 37.56C218.318 35.384 217.934 32.888 217.934 30.072C217.934 27.8107 218.286 25.7093 218.99 23.768C219.694 21.8053 220.697 20.0987 221.998 18.648C223.321 17.1973 224.932 16.056 226.83 15.224C228.729 14.392 230.862 13.976 233.23 13.976C235.214 13.976 237.038 14.3067 238.702 14.968C240.388 15.608 241.838 16.5467 243.054 17.784C244.27 19.0213 245.22 20.5467 245.902 22.36C246.606 24.1733 246.958 26.2427 246.958 28.568C246.958 29.528 246.852 30.1787 246.638 30.52C246.425 30.84 246.03 31 245.454 31H224.142C224.206 32.9413 224.484 34.6373 224.974 36.088C225.465 37.5173 226.137 38.712 226.99 39.672C227.865 40.632 228.9 41.3467 230.094 41.816C231.289 42.2853 232.622 42.52 234.094 42.52C235.481 42.52 236.676 42.36 237.678 42.04C238.702 41.72 239.577 41.3787 240.302 41.016C241.049 40.632 241.668 40.28 242.158 39.96C242.67 39.64 243.118 39.48 243.502 39.48C244.014 39.48 244.409 39.672 244.686 40.056L246.478 42.36ZM259.553 20.728C260.599 18.5947 261.857 16.92 263.329 15.704C264.801 14.488 266.572 13.88 268.641 13.88C269.345 13.88 270.007 13.9653 270.625 14.136C271.265 14.2853 271.82 14.52 272.289 14.84L271.873 19.544C271.724 20.12 271.372 20.408 270.817 20.408C270.519 20.408 270.071 20.3547 269.473 20.248C268.876 20.12 268.236 20.056 267.553 20.056C266.551 20.056 265.665 20.2053 264.897 20.504C264.129 20.7813 263.436 21.208 262.817 21.784C262.22 22.3387 261.687 23.032 261.217 23.864C260.748 24.6747 260.311 25.6027 259.905 26.648V47H253.665V14.488H257.249C257.932 14.488 258.391 14.616 258.625 14.872C258.881 15.1067 259.063 15.5333 259.169 16.152L259.553 20.728ZM282.991 20.728C284.036 18.5947 285.295 16.92 286.767 15.704C288.239 14.488 290.009 13.88 292.079 13.88C292.783 13.88 293.444 13.9653 294.063 14.136C294.703 14.2853 295.257 14.52 295.727 14.84L295.311 19.544C295.161 20.12 294.809 20.408 294.255 20.408C293.956 20.408 293.508 20.3547 292.911 20.248C292.313 20.12 291.673 20.056 290.991 20.056C289.988 20.056 289.103 20.2053 288.335 20.504C287.567 20.7813 286.873 21.208 286.255 21.784C285.657 22.3387 285.124 23.032 284.655 23.864C284.185 24.6747 283.748 25.6027 283.343 26.648V47H277.103V14.488H280.687C281.369 14.488 281.828 14.616 282.063 14.872C282.319 15.1067 282.5 15.5333 282.607 16.152L282.991 20.728ZM307.068 14.488V47H300.828V14.488H307.068ZM308.252 4.44C308.252 5.016 308.135 5.57066 307.9 6.104C307.666 6.616 307.346 7.07467 306.94 7.48C306.556 7.864 306.098 8.17333 305.564 8.408C305.031 8.62133 304.476 8.728 303.9 8.728C303.324 8.728 302.78 8.62133 302.268 8.408C301.756 8.17333 301.298 7.864 300.892 7.48C300.508 7.07467 300.199 6.616 299.964 6.104C299.751 5.57066 299.644 5.016 299.644 4.44C299.644 3.84267 299.751 3.288 299.964 2.776C300.199 2.24266 300.508 1.784 300.892 1.4C301.298 0.994663 301.756 0.685329 302.268 0.471996C302.78 0.237331 303.324 0.119999 303.9 0.119999C304.476 0.119999 305.031 0.237331 305.564 0.471996C306.098 0.685329 306.556 0.994663 306.94 1.4C307.346 1.784 307.666 2.24266 307.9 2.776C308.135 3.288 308.252 3.84267 308.252 4.44ZM326.279 47.512C323.655 47.512 321.628 46.776 320.199 45.304C318.791 43.832 318.087 41.7307 318.087 39V19.544H314.311C313.948 19.544 313.639 19.4373 313.383 19.224C313.148 18.9893 313.031 18.648 313.031 18.2V15.672L318.311 14.936L319.719 5.24C319.804 4.87733 319.964 4.6 320.199 4.408C320.455 4.19466 320.775 4.088 321.159 4.088H324.327V15H333.543V19.544H324.327V38.584C324.327 39.864 324.636 40.824 325.255 41.464C325.895 42.0827 326.705 42.392 327.687 42.392C328.263 42.392 328.753 42.3173 329.159 42.168C329.585 42.0187 329.948 41.8587 330.247 41.688C330.545 41.496 330.801 41.3253 331.015 41.176C331.228 41.0267 331.42 40.952 331.591 40.952C331.804 40.952 331.964 41.0053 332.071 41.112C332.199 41.1973 332.327 41.3467 332.455 41.56L334.311 44.568C333.287 45.5067 332.071 46.232 330.663 46.744C329.255 47.256 327.793 47.512 326.279 47.512ZM352.959 13.976C355.348 13.976 357.503 14.3707 359.423 15.16C361.364 15.928 363.007 17.048 364.351 18.52C365.716 19.9707 366.761 21.7307 367.487 23.8C368.212 25.848 368.575 28.152 368.575 30.712C368.575 33.272 368.212 35.5867 367.487 37.656C366.761 39.7253 365.716 41.4853 364.351 42.936C363.007 44.3867 361.364 45.5067 359.423 46.296C357.503 47.064 355.348 47.448 352.959 47.448C350.548 47.448 348.372 47.064 346.431 46.296C344.511 45.5067 342.868 44.3867 341.503 42.936C340.137 41.4853 339.081 39.7253 338.335 37.656C337.609 35.5867 337.247 33.272 337.247 30.712C337.247 28.152 337.609 25.848 338.335 23.8C339.081 21.7307 340.137 19.9707 341.503 18.52C342.868 17.048 344.511 15.928 346.431 15.16C348.372 14.3707 350.548 13.976 352.959 13.976ZM352.959 42.584C356.031 42.584 358.324 41.5493 359.839 39.48C361.353 37.4107 362.111 34.4987 362.111 30.744C362.111 26.9893 361.353 24.0773 359.839 22.008C358.324 19.9173 356.031 18.872 352.959 18.872C349.844 18.872 347.519 19.9173 345.983 22.008C344.468 24.0773 343.711 26.9893 343.711 30.744C343.711 34.4987 344.468 37.4107 345.983 39.48C347.519 41.5493 349.844 42.584 352.959 42.584ZM362.751 0.535999L355.167 8.792C354.847 9.15467 354.537 9.41066 354.239 9.56C353.94 9.688 353.545 9.752 353.055 9.752H349.279L354.015 2.008C354.313 1.51733 354.633 1.15467 354.975 0.919998C355.337 0.663999 355.892 0.535999 356.639 0.535999H362.751ZM381.428 20.728C382.474 18.5947 383.732 16.92 385.204 15.704C386.676 14.488 388.447 13.88 390.516 13.88C391.22 13.88 391.882 13.9653 392.5 14.136C393.14 14.2853 393.695 14.52 394.164 14.84L393.748 19.544C393.599 20.12 393.247 20.408 392.692 20.408C392.394 20.408 391.946 20.3547 391.348 20.248C390.751 20.12 390.111 20.056 389.428 20.056C388.426 20.056 387.54 20.2053 386.772 20.504C386.004 20.7813 385.311 21.208 384.692 21.784C384.095 22.3387 383.562 23.032 383.092 23.864C382.623 24.6747 382.186 25.6027 381.78 26.648V47H375.54V14.488H379.124C379.807 14.488 380.266 14.616 380.5 14.872C380.756 15.1067 380.938 15.5333 381.044 16.152L381.428 20.728ZM405.506 14.488V47H399.266V14.488H405.506ZM406.69 4.44C406.69 5.016 406.572 5.57066 406.338 6.104C406.103 6.616 405.783 7.07467 405.378 7.48C404.994 7.864 404.535 8.17333 404.002 8.408C403.468 8.62133 402.914 8.728 402.338 8.728C401.762 8.728 401.218 8.62133 400.706 8.408C400.194 8.17333 399.735 7.864 399.33 7.48C398.946 7.07467 398.636 6.616 398.402 6.104C398.188 5.57066 398.082 5.016 398.082 4.44C398.082 3.84267 398.188 3.288 398.402 2.776C398.636 2.24266 398.946 1.784 399.33 1.4C399.735 0.994663 400.194 0.685329 400.706 0.471996C401.218 0.237331 401.762 0.119999 402.338 0.119999C402.914 0.119999 403.468 0.237331 404.002 0.471996C404.535 0.685329 404.994 0.994663 405.378 1.4C405.783 1.784 406.103 2.24266 406.338 2.776C406.572 3.288 406.69 3.84267 406.69 4.44ZM428.396 13.976C430.786 13.976 432.94 14.3707 434.86 15.16C436.802 15.928 438.444 17.048 439.788 18.52C441.154 19.9707 442.199 21.7307 442.924 23.8C443.65 25.848 444.012 28.152 444.012 30.712C444.012 33.272 443.65 35.5867 442.924 37.656C442.199 39.7253 441.154 41.4853 439.788 42.936C438.444 44.3867 436.802 45.5067 434.86 46.296C432.94 47.064 430.786 47.448 428.396 47.448C425.986 47.448 423.81 47.064 421.868 46.296C419.948 45.5067 418.306 44.3867 416.94 42.936C415.575 41.4853 414.519 39.7253 413.772 37.656C413.047 35.5867 412.684 33.272 412.684 30.712C412.684 28.152 413.047 25.848 413.772 23.8C414.519 21.7307 415.575 19.9707 416.94 18.52C418.306 17.048 419.948 15.928 421.868 15.16C423.81 14.3707 425.986 13.976 428.396 13.976ZM428.396 42.584C431.468 42.584 433.762 41.5493 435.276 39.48C436.791 37.4107 437.548 34.4987 437.548 30.744C437.548 26.9893 436.791 24.0773 435.276 22.008C433.762 19.9173 431.468 18.872 428.396 18.872C425.282 18.872 422.956 19.9173 421.42 22.008C419.906 24.0773 419.148 26.9893 419.148 30.744C419.148 34.4987 419.906 37.4107 421.42 39.48C422.956 41.5493 425.282 42.584 428.396 42.584ZM470.146 20.088C469.975 20.3653 469.794 20.568 469.602 20.696C469.41 20.8027 469.164 20.856 468.866 20.856C468.524 20.856 468.14 20.7387 467.714 20.504C467.308 20.2693 466.807 20.0133 466.21 19.736C465.634 19.4587 464.951 19.2027 464.162 18.968C463.372 18.7333 462.434 18.616 461.346 18.616C460.45 18.616 459.628 18.7333 458.882 18.968C458.156 19.1813 457.538 19.4907 457.026 19.896C456.514 20.28 456.119 20.7493 455.842 21.304C455.564 21.8373 455.426 22.4133 455.426 23.032C455.426 23.8427 455.66 24.5147 456.13 25.048C456.62 25.5813 457.25 26.04 458.018 26.424C458.807 26.808 459.692 27.16 460.674 27.48C461.676 27.7787 462.69 28.0987 463.714 28.44C464.759 28.7813 465.772 29.176 466.754 29.624C467.756 30.0507 468.642 30.5947 469.41 31.256C470.199 31.896 470.828 32.6747 471.298 33.592C471.788 34.5093 472.034 35.6293 472.034 36.952C472.034 38.4667 471.756 39.8747 471.202 41.176C470.668 42.456 469.868 43.5653 468.802 44.504C467.756 45.4427 466.455 46.1787 464.898 46.712C463.34 47.2453 461.559 47.512 459.554 47.512C457.314 47.512 455.244 47.1387 453.346 46.392C451.447 45.6453 449.858 44.696 448.578 43.544L450.05 41.144C450.22 40.8453 450.434 40.6213 450.69 40.472C450.946 40.3013 451.287 40.216 451.714 40.216C452.119 40.216 452.535 40.3653 452.962 40.664C453.388 40.9627 453.9 41.2933 454.498 41.656C455.095 41.9973 455.82 42.3173 456.674 42.616C457.527 42.8933 458.594 43.032 459.874 43.032C460.94 43.032 461.868 42.904 462.658 42.648C463.447 42.3707 464.098 42.008 464.61 41.56C465.143 41.0907 465.538 40.5573 465.794 39.96C466.05 39.3627 466.178 38.7333 466.178 38.072C466.178 37.2187 465.932 36.5147 465.442 35.96C464.972 35.384 464.343 34.8933 463.554 34.488C462.786 34.0827 461.9 33.7307 460.898 33.432C459.895 33.1333 458.871 32.8133 457.826 32.472C456.78 32.1307 455.756 31.736 454.754 31.288C453.751 30.84 452.855 30.2747 452.066 29.592C451.298 28.9093 450.668 28.0773 450.178 27.096C449.708 26.1147 449.474 24.92 449.474 23.512C449.474 22.2533 449.73 21.048 450.242 19.896C450.775 18.744 451.532 17.7307 452.514 16.856C453.516 15.9813 454.743 15.288 456.194 14.776C457.666 14.2427 459.34 13.976 461.218 13.976C463.372 13.976 465.314 14.3173 467.042 15C468.791 15.6827 470.284 16.6213 471.522 17.816L470.146 20.088ZM503.106 6.584V21.976H521.538V27.512H503.106V47H496.258V1.048H524.738V6.584H503.106ZM542.209 13.976C544.598 13.976 546.753 14.3707 548.673 15.16C550.614 15.928 552.257 17.048 553.601 18.52C554.966 19.9707 556.011 21.7307 556.737 23.8C557.462 25.848 557.825 28.152 557.825 30.712C557.825 33.272 557.462 35.5867 556.737 37.656C556.011 39.7253 554.966 41.4853 553.601 42.936C552.257 44.3867 550.614 45.5067 548.673 46.296C546.753 47.064 544.598 47.448 542.209 47.448C539.798 47.448 537.622 47.064 535.681 46.296C533.761 45.5067 532.118 44.3867 530.753 42.936C529.387 41.4853 528.331 39.7253 527.585 37.656C526.859 35.5867 526.497 33.272 526.497 30.712C526.497 28.152 526.859 25.848 527.585 23.8C528.331 21.7307 529.387 19.9707 530.753 18.52C532.118 17.048 533.761 15.928 535.681 15.16C537.622 14.3707 539.798 13.976 542.209 13.976ZM542.209 42.584C545.281 42.584 547.574 41.5493 549.089 39.48C550.603 37.4107 551.361 34.4987 551.361 30.744C551.361 26.9893 550.603 24.0773 549.089 22.008C547.574 19.9173 545.281 18.872 542.209 18.872C539.094 18.872 536.769 19.9173 535.233 22.008C533.718 24.0773 532.961 26.9893 532.961 30.744C532.961 34.4987 533.718 37.4107 535.233 39.48C536.769 41.5493 539.094 42.584 542.209 42.584ZM570.678 20.728C571.724 18.5947 572.982 16.92 574.454 15.704C575.926 14.488 577.697 13.88 579.766 13.88C580.47 13.88 581.132 13.9653 581.75 14.136C582.39 14.2853 582.945 14.52 583.414 14.84L582.998 19.544C582.849 20.12 582.497 20.408 581.942 20.408C581.644 20.408 581.196 20.3547 580.598 20.248C580.001 20.12 579.361 20.056 578.678 20.056C577.676 20.056 576.79 20.2053 576.022 20.504C575.254 20.7813 574.561 21.208 573.942 21.784C573.345 22.3387 572.812 23.032 572.342 23.864C571.873 24.6747 571.436 25.6027 571.03 26.648V47H564.79V14.488H568.374C569.057 14.488 569.516 14.616 569.75 14.872C570.006 15.1067 570.188 15.5333 570.294 16.152L570.678 20.728ZM588.228 47V14.488H591.972C592.846 14.488 593.39 14.904 593.604 15.736L594.052 18.84C595.246 17.4107 596.569 16.248 598.02 15.352C599.492 14.4347 601.209 13.976 603.172 13.976C605.326 13.976 607.076 14.5733 608.42 15.768C609.764 16.9413 610.745 18.5413 611.364 20.568C611.833 19.416 612.441 18.424 613.188 17.592C613.934 16.76 614.766 16.0773 615.684 15.544C616.601 15.0107 617.572 14.616 618.596 14.36C619.641 14.104 620.697 13.976 621.764 13.976C623.492 13.976 625.028 14.2533 626.372 14.808C627.737 15.3413 628.889 16.1307 629.828 17.176C630.766 18.2213 631.481 19.512 631.972 21.048C632.462 22.584 632.708 24.3333 632.708 26.296V47H626.436V26.296C626.436 23.864 625.902 22.0293 624.836 20.792C623.79 19.5547 622.254 18.936 620.228 18.936C619.332 18.936 618.478 19.096 617.668 19.416C616.857 19.7147 616.142 20.1733 615.524 20.792C614.926 21.4107 614.446 22.1787 614.084 23.096C613.742 24.0133 613.572 25.08 613.572 26.296V47H607.3V26.296C607.3 23.7787 606.798 21.9227 605.796 20.728C604.793 19.5333 603.321 18.936 601.38 18.936C600.036 18.936 598.788 19.288 597.636 19.992C596.484 20.696 595.428 21.656 594.468 22.872V47H588.228ZM658.575 32.568C656.036 32.6533 653.881 32.856 652.111 33.176C650.34 33.4747 648.9 33.88 647.791 34.392C646.681 34.904 645.881 35.512 645.391 36.216C644.9 36.8987 644.655 37.6667 644.655 38.52C644.655 39.3307 644.783 40.0347 645.039 40.632C645.316 41.208 645.679 41.688 646.127 42.072C646.596 42.4347 647.14 42.7013 647.759 42.872C648.377 43.0427 649.049 43.128 649.775 43.128C650.735 43.128 651.609 43.032 652.399 42.84C653.209 42.648 653.967 42.3813 654.671 42.04C655.375 41.6773 656.047 41.24 656.687 40.728C657.327 40.216 657.956 39.6293 658.575 38.968V32.568ZM640.271 19.032C642.084 17.304 644.047 16.0133 646.159 15.16C648.292 14.3067 650.628 13.88 653.167 13.88C655.023 13.88 656.665 14.1893 658.095 14.808C659.524 15.4053 660.729 16.248 661.711 17.336C662.692 18.424 663.428 19.7253 663.919 21.24C664.431 22.7547 664.687 24.4293 664.687 26.264V47H661.903C661.284 47 660.815 46.904 660.495 46.712C660.175 46.4987 659.919 46.1147 659.727 45.56L659.055 42.712C658.223 43.48 657.401 44.1627 656.591 44.76C655.78 45.336 654.927 45.8373 654.031 46.264C653.156 46.6693 652.217 46.9787 651.215 47.192C650.212 47.4053 649.103 47.512 647.887 47.512C646.607 47.512 645.401 47.3413 644.271 47C643.161 46.6373 642.191 46.0933 641.359 45.368C640.527 44.6427 639.865 43.736 639.375 42.648C638.905 41.56 638.671 40.2907 638.671 38.84C638.671 37.56 639.012 36.3333 639.695 35.16C640.399 33.9653 641.529 32.8987 643.087 31.96C644.665 31.0213 646.713 30.2533 649.231 29.656C651.769 29.0587 654.884 28.7173 658.575 28.632V26.264C658.575 23.8107 658.052 21.976 657.007 20.76C655.961 19.544 654.425 18.936 652.399 18.936C651.033 18.936 649.881 19.1067 648.943 19.448C648.025 19.7893 647.225 20.1733 646.543 20.6C645.881 21.0053 645.295 21.3787 644.783 21.72C644.292 22.0613 643.78 22.232 643.247 22.232C642.82 22.232 642.447 22.1147 642.127 21.88C641.828 21.6453 641.583 21.368 641.391 21.048L640.271 19.032ZM678.928 20.728C679.974 18.5947 681.232 16.92 682.704 15.704C684.176 14.488 685.947 13.88 688.016 13.88C688.72 13.88 689.382 13.9653 690 14.136C690.64 14.2853 691.195 14.52 691.664 14.84L691.248 19.544C691.099 20.12 690.747 20.408 690.192 20.408C689.894 20.408 689.446 20.3547 688.848 20.248C688.251 20.12 687.611 20.056 686.928 20.056C685.926 20.056 685.04 20.2053 684.272 20.504C683.504 20.7813 682.811 21.208 682.192 21.784C681.595 22.3387 681.062 23.032 680.592 23.864C680.123 24.6747 679.686 25.6027 679.28 26.648V47H673.04V14.488H676.624C677.307 14.488 677.766 14.616 678 14.872C678.256 15.1067 678.438 15.5333 678.544 16.152L678.928 20.728ZM732.826 27.128C732.826 25.8907 732.645 24.7493 732.282 23.704C731.941 22.6587 731.429 21.752 730.746 20.984C730.064 20.216 729.232 19.6187 728.25 19.192C727.269 18.7653 726.138 18.552 724.858 18.552C722.234 18.552 720.165 19.3093 718.65 20.824C717.157 22.3387 716.208 24.44 715.802 27.128H732.826ZM737.978 42.36C737.21 43.256 736.325 44.0347 735.322 44.696C734.32 45.336 733.253 45.8587 732.122 46.264C730.992 46.6693 729.818 46.968 728.602 47.16C727.408 47.352 726.224 47.448 725.05 47.448C722.81 47.448 720.73 47.0747 718.81 46.328C716.912 45.56 715.258 44.4507 713.85 43C712.464 41.528 711.376 39.7147 710.586 37.56C709.818 35.384 709.434 32.888 709.434 30.072C709.434 27.8107 709.786 25.7093 710.49 23.768C711.194 21.8053 712.197 20.0987 713.498 18.648C714.821 17.1973 716.432 16.056 718.33 15.224C720.229 14.392 722.362 13.976 724.73 13.976C726.714 13.976 728.538 14.3067 730.202 14.968C731.888 15.608 733.338 16.5467 734.554 17.784C735.77 19.0213 736.72 20.5467 737.402 22.36C738.106 24.1733 738.458 26.2427 738.458 28.568C738.458 29.528 738.352 30.1787 738.138 30.52C737.925 30.84 737.53 31 736.954 31H715.642C715.706 32.9413 715.984 34.6373 716.474 36.088C716.965 37.5173 717.637 38.712 718.49 39.672C719.365 40.632 720.4 41.3467 721.594 41.816C722.789 42.2853 724.122 42.52 725.594 42.52C726.981 42.52 728.176 42.36 729.178 42.04C730.202 41.72 731.077 41.3787 731.802 41.016C732.549 40.632 733.168 40.28 733.658 39.96C734.17 39.64 734.618 39.48 735.002 39.48C735.514 39.48 735.909 39.672 736.186 40.056L737.978 42.36ZM794.729 37.144C795.113 37.144 795.443 37.2933 795.721 37.592L798.409 40.536C796.531 42.7547 794.238 44.472 791.529 45.688C788.841 46.904 785.598 47.512 781.801 47.512C778.473 47.512 775.454 46.936 772.745 45.784C770.057 44.632 767.753 43.0213 765.833 40.952C763.934 38.8827 762.462 36.408 761.417 33.528C760.371 30.648 759.849 27.48 759.849 24.024C759.849 20.568 760.393 17.4 761.481 14.52C762.59 11.64 764.137 9.16533 766.121 7.096C768.105 5.02666 770.473 3.416 773.225 2.264C775.998 1.112 779.059 0.535999 782.409 0.535999C785.673 0.535999 788.574 1.06933 791.113 2.136C793.651 3.20266 795.859 4.62133 797.737 6.392L795.497 9.56C795.347 9.79467 795.155 9.98667 794.921 10.136C794.707 10.2853 794.419 10.36 794.057 10.36C793.651 10.36 793.171 10.1573 792.617 9.752C792.083 9.34666 791.369 8.89866 790.473 8.408C789.598 7.896 788.51 7.43733 787.209 7.032C785.907 6.62667 784.286 6.424 782.345 6.424C780.062 6.424 777.971 6.82933 776.073 7.64C774.174 8.42933 772.531 9.58133 771.145 11.096C769.779 12.5893 768.713 14.4347 767.945 16.632C767.198 18.808 766.825 21.272 766.825 24.024C766.825 26.8187 767.219 29.304 768.009 31.48C768.798 33.656 769.886 35.5013 771.273 37.016C772.659 38.5307 774.291 39.6827 776.169 40.472C778.046 41.2613 780.073 41.656 782.249 41.656C783.571 41.656 784.755 41.5813 785.801 41.432C786.867 41.2613 787.838 41.016 788.713 40.696C789.609 40.376 790.451 39.9707 791.241 39.48C792.03 38.968 792.809 38.36 793.577 37.656C793.747 37.5067 793.929 37.3893 794.121 37.304C794.313 37.1973 794.515 37.144 794.729 37.144ZM824.889 27.128C824.889 25.8907 824.707 24.7493 824.345 23.704C824.003 22.6587 823.491 21.752 822.809 20.984C822.126 20.216 821.294 19.6187 820.313 19.192C819.331 18.7653 818.201 18.552 816.921 18.552C814.297 18.552 812.227 19.3093 810.713 20.824C809.219 22.3387 808.27 24.44 807.865 27.128H824.889ZM830.041 42.36C829.273 43.256 828.387 44.0347 827.385 44.696C826.382 45.336 825.315 45.8587 824.185 46.264C823.054 46.6693 821.881 46.968 820.665 47.16C819.47 47.352 818.286 47.448 817.113 47.448C814.873 47.448 812.793 47.0747 810.873 46.328C808.974 45.56 807.321 44.4507 805.913 43C804.526 41.528 803.438 39.7147 802.649 37.56C801.881 35.384 801.497 32.888 801.497 30.072C801.497 27.8107 801.849 25.7093 802.553 23.768C803.257 21.8053 804.259 20.0987 805.561 18.648C806.883 17.1973 808.494 16.056 810.393 15.224C812.291 14.392 814.425 13.976 816.793 13.976C818.777 13.976 820.601 14.3067 822.265 14.968C823.95 15.608 825.401 16.5467 826.617 17.784C827.833 19.0213 828.782 20.5467 829.465 22.36C830.169 24.1733 830.521 26.2427 830.521 28.568C830.521 29.528 830.414 30.1787 830.201 30.52C829.987 30.84 829.593 31 829.017 31H807.705C807.769 32.9413 808.046 34.6373 808.537 36.088C809.027 37.5173 809.699 38.712 810.553 39.672C811.427 40.632 812.462 41.3467 813.657 41.816C814.851 42.2853 816.185 42.52 817.657 42.52C819.043 42.52 820.238 42.36 821.241 42.04C822.265 41.72 823.139 41.3787 823.865 41.016C824.611 40.632 825.23 40.28 825.721 39.96C826.233 39.64 826.681 39.48 827.065 39.48C827.577 39.48 827.971 39.672 828.249 40.056L830.041 42.36ZM843.084 19C843.788 18.2533 844.524 17.5707 845.292 16.952C846.06 16.3333 846.87 15.8107 847.724 15.384C848.598 14.936 849.526 14.5947 850.508 14.36C851.51 14.104 852.577 13.976 853.708 13.976C855.5 13.976 857.068 14.2747 858.412 14.872C859.777 15.4693 860.918 16.312 861.836 17.4C862.753 18.4667 863.446 19.7573 863.916 21.272C864.385 22.7867 864.62 24.4613 864.62 26.296V47H858.348V26.296C858.348 23.9707 857.814 22.168 856.748 20.888C855.681 19.5867 854.049 18.936 851.852 18.936C850.252 18.936 848.748 19.32 847.34 20.088C845.953 20.8347 844.662 21.8587 843.468 23.16V47H837.228V14.488H840.972C841.846 14.488 842.39 14.904 842.604 15.736L843.084 19ZM879.28 39C880.304 40.344 881.403 41.2827 882.576 41.816C883.771 42.3493 885.104 42.616 886.576 42.616C889.435 42.616 891.643 41.592 893.2 39.544C894.779 37.4747 895.568 34.4667 895.568 30.52C895.568 28.4507 895.387 26.6907 895.024 25.24C894.683 23.768 894.171 22.5733 893.488 21.656C892.827 20.7173 892.006 20.0347 891.024 19.608C890.043 19.16 888.934 18.936 887.696 18.936C885.883 18.936 884.304 19.3413 882.96 20.152C881.638 20.9627 880.411 22.1147 879.28 23.608V39ZM878.96 19.352C879.643 18.5413 880.368 17.8053 881.136 17.144C881.926 16.4613 882.768 15.8853 883.664 15.416C884.56 14.9253 885.51 14.552 886.512 14.296C887.536 14.0187 888.624 13.88 889.776 13.88C891.632 13.88 893.307 14.2427 894.8 14.968C896.315 15.6933 897.606 16.76 898.672 18.168C899.739 19.576 900.56 21.3147 901.136 23.384C901.734 25.4533 902.032 27.832 902.032 30.52C902.032 32.9307 901.702 35.1707 901.04 37.24C900.4 39.288 899.472 41.0693 898.256 42.584C897.062 44.0987 895.59 45.2933 893.84 46.168C892.112 47.0213 890.16 47.448 887.984 47.448C886.043 47.448 884.379 47.128 882.992 46.488C881.606 45.848 880.368 44.952 879.28 43.8V57.912H873.04V14.488H876.784C877.659 14.488 878.203 14.904 878.416 15.736L878.96 19.352ZM914.928 20.728C915.974 18.5947 917.232 16.92 918.704 15.704C920.176 14.488 921.947 13.88 924.016 13.88C924.72 13.88 925.382 13.9653 926 14.136C926.64 14.2853 927.195 14.52 927.664 14.84L927.248 19.544C927.099 20.12 926.747 20.408 926.192 20.408C925.894 20.408 925.446 20.3547 924.848 20.248C924.251 20.12 923.611 20.056 922.928 20.056C921.926 20.056 921.04 20.2053 920.272 20.504C919.504 20.7813 918.811 21.208 918.192 21.784C917.595 22.3387 917.062 23.032 916.592 23.864C916.123 24.6747 915.686 25.6027 915.28 26.648V47H909.04V14.488H912.624C913.307 14.488 913.766 14.616 914 14.872C914.256 15.1067 914.438 15.5333 914.544 16.152L914.928 20.728ZM952.826 27.128C952.826 25.8907 952.645 24.7493 952.282 23.704C951.941 22.6587 951.429 21.752 950.746 20.984C950.064 20.216 949.232 19.6187 948.25 19.192C947.269 18.7653 946.138 18.552 944.858 18.552C942.234 18.552 940.165 19.3093 938.65 20.824C937.157 22.3387 936.208 24.44 935.802 27.128H952.826ZM957.978 42.36C957.21 43.256 956.325 44.0347 955.322 44.696C954.32 45.336 953.253 45.8587 952.122 46.264C950.992 46.6693 949.818 46.968 948.602 47.16C947.408 47.352 946.224 47.448 945.05 47.448C942.81 47.448 940.73 47.0747 938.81 46.328C936.912 45.56 935.258 44.4507 933.85 43C932.464 41.528 931.376 39.7147 930.586 37.56C929.818 35.384 929.434 32.888 929.434 30.072C929.434 27.8107 929.786 25.7093 930.49 23.768C931.194 21.8053 932.197 20.0987 933.498 18.648C934.821 17.1973 936.432 16.056 938.33 15.224C940.229 14.392 942.362 13.976 944.73 13.976C946.714 13.976 948.538 14.3067 950.202 14.968C951.888 15.608 953.338 16.5467 954.554 17.784C955.77 19.0213 956.72 20.5467 957.402 22.36C958.106 24.1733 958.458 26.2427 958.458 28.568C958.458 29.528 958.352 30.1787 958.138 30.52C957.925 30.84 957.53 31 956.954 31H935.642C935.706 32.9413 935.984 34.6373 936.474 36.088C936.965 37.5173 937.637 38.712 938.49 39.672C939.365 40.632 940.4 41.3467 941.594 41.816C942.789 42.2853 944.122 42.52 945.594 42.52C946.981 42.52 948.176 42.36 949.178 42.04C950.202 41.72 951.077 41.3787 951.802 41.016C952.549 40.632 953.168 40.28 953.658 39.96C954.17 39.64 954.618 39.48 955.002 39.48C955.514 39.48 955.909 39.672 956.186 40.056L957.978 42.36ZM980.873 25.112H996.873V30.424H980.873V25.112ZM1040.55 41.528C1042.39 41.528 1044.03 41.2187 1045.48 40.6C1046.93 39.9813 1048.16 39.1173 1049.16 38.008C1050.16 36.8773 1050.93 35.544 1051.46 34.008C1052 32.4507 1052.26 30.7333 1052.26 28.856V1.048H1059.05V28.856C1059.05 31.544 1058.62 34.0293 1057.77 36.312C1056.92 38.5947 1055.69 40.568 1054.09 42.232C1052.49 43.896 1050.55 45.1973 1048.26 46.136C1045.98 47.0747 1043.41 47.544 1040.55 47.544C1037.69 47.544 1035.12 47.0747 1032.84 46.136C1030.56 45.1973 1028.62 43.896 1027.02 42.232C1025.42 40.568 1024.19 38.5947 1023.34 36.312C1022.48 34.0293 1022.06 31.544 1022.06 28.856V1.048H1028.87V28.824C1028.87 30.7013 1029.13 32.4187 1029.64 33.976C1030.17 35.5333 1030.94 36.8773 1031.94 38.008C1032.95 39.1173 1034.17 39.9813 1035.62 40.6C1037.08 41.2187 1038.72 41.528 1040.55 41.528ZM1076.67 6.584V21.976H1095.1V27.512H1076.67V47H1069.82V1.048H1098.3V6.584H1076.67ZM1120.96 20.088C1120.79 20.3653 1120.61 20.568 1120.41 20.696C1120.22 20.8027 1119.98 20.856 1119.68 20.856C1119.34 20.856 1118.95 20.7387 1118.53 20.504C1118.12 20.2693 1117.62 20.0133 1117.02 19.736C1116.45 19.4587 1115.76 19.2027 1114.97 18.968C1114.18 18.7333 1113.25 18.616 1112.16 18.616C1111.26 18.616 1110.44 18.7333 1109.69 18.968C1108.97 19.1813 1108.35 19.4907 1107.84 19.896C1107.33 20.28 1106.93 20.7493 1106.65 21.304C1106.38 21.8373 1106.24 22.4133 1106.24 23.032C1106.24 23.8427 1106.47 24.5147 1106.94 25.048C1107.43 25.5813 1108.06 26.04 1108.83 26.424C1109.62 26.808 1110.5 27.16 1111.49 27.48C1112.49 27.7787 1113.5 28.0987 1114.53 28.44C1115.57 28.7813 1116.58 29.176 1117.57 29.624C1118.57 30.0507 1119.45 30.5947 1120.22 31.256C1121.01 31.896 1121.64 32.6747 1122.11 33.592C1122.6 34.5093 1122.85 35.6293 1122.85 36.952C1122.85 38.4667 1122.57 39.8747 1122.01 41.176C1121.48 42.456 1120.68 43.5653 1119.61 44.504C1118.57 45.4427 1117.27 46.1787 1115.71 46.712C1114.15 47.2453 1112.37 47.512 1110.37 47.512C1108.13 47.512 1106.06 47.1387 1104.16 46.392C1102.26 45.6453 1100.67 44.696 1099.39 43.544L1100.86 41.144C1101.03 40.8453 1101.25 40.6213 1101.5 40.472C1101.76 40.3013 1102.1 40.216 1102.53 40.216C1102.93 40.216 1103.35 40.3653 1103.77 40.664C1104.2 40.9627 1104.71 41.2933 1105.31 41.656C1105.91 41.9973 1106.63 42.3173 1107.49 42.616C1108.34 42.8933 1109.41 43.032 1110.69 43.032C1111.75 43.032 1112.68 42.904 1113.47 42.648C1114.26 42.3707 1114.91 42.008 1115.42 41.56C1115.96 41.0907 1116.35 40.5573 1116.61 39.96C1116.86 39.3627 1116.99 38.7333 1116.99 38.072C1116.99 37.2187 1116.74 36.5147 1116.25 35.96C1115.78 35.384 1115.16 34.8933 1114.37 34.488C1113.6 34.0827 1112.71 33.7307 1111.71 33.432C1110.71 33.1333 1109.68 32.8133 1108.64 32.472C1107.59 32.1307 1106.57 31.736 1105.57 31.288C1104.56 30.84 1103.67 30.2747 1102.88 29.592C1102.11 28.9093 1101.48 28.0773 1100.99 27.096C1100.52 26.1147 1100.29 24.92 1100.29 23.512C1100.29 22.2533 1100.54 21.048 1101.05 19.896C1101.59 18.744 1102.34 17.7307 1103.33 16.856C1104.33 15.9813 1105.56 15.288 1107.01 14.776C1108.48 14.2427 1110.15 13.976 1112.03 13.976C1114.18 13.976 1116.13 14.3173 1117.85 15C1119.6 15.6827 1121.1 16.6213 1122.33 17.816L1120.96 20.088Z" fill="#4C5773"/>
</svg>
