<svg width="1048" height="64" viewBox="0 0 1048 64" fill="none" xmlns="http://www.w3.org/2000/svg">
<path d="M30.1063 9.93C29.8729 10.3267 29.6279 10.6183 29.3713 10.805C29.1146 10.9917 28.7879 11.085 28.3913 11.085C27.9713 11.085 27.4929 10.8983 26.9563 10.525C26.4196 10.1283 25.7429 9.69667 24.9263 9.23C24.1329 8.74 23.1763 8.30833 22.0563 7.935C20.9363 7.53833 19.5946 7.34 18.0313 7.34C16.5613 7.34 15.2663 7.53833 14.1463 7.935C13.0496 8.30833 12.1279 8.83333 11.3813 9.51C10.6346 10.1633 10.0629 10.945 9.66625 11.855C9.29292 12.7417 9.10625 13.71 9.10625 14.76C9.10625 16.1133 9.44458 17.2333 10.1213 18.12C10.8213 19.0067 11.7313 19.765 12.8513 20.395C13.9713 21.025 15.2429 21.5733 16.6663 22.04C18.0896 22.5067 19.5479 22.9967 21.0413 23.51C22.5346 24 23.9929 24.5717 25.4163 25.225C26.8396 25.8783 28.1113 26.7067 29.2313 27.71C30.3513 28.69 31.2496 29.9033 31.9263 31.35C32.6263 32.7733 32.9763 34.5233 32.9763 36.6C32.9763 38.8167 32.5913 40.8933 31.8213 42.83C31.0746 44.7667 29.9779 46.4583 28.5313 47.905C27.0846 49.3517 25.2996 50.495 23.1763 51.335C21.0763 52.1517 18.6846 52.56 16.0013 52.56C14.3913 52.56 12.8279 52.3967 11.3113 52.07C9.79458 51.7667 8.35958 51.335 7.00625 50.775C5.65292 50.1917 4.38125 49.5033 3.19125 48.71C2.02458 47.8933 0.974583 46.9833 0.0412502 45.98L2.17625 42.41C2.38625 42.13 2.63125 41.8967 2.91125 41.71C3.21458 41.5233 3.55292 41.43 3.92625 41.43C4.41625 41.43 4.97625 41.6867 5.60625 42.2C6.25958 42.7133 7.05292 43.285 7.98625 43.915C8.94292 44.5217 10.0746 45.0817 11.3813 45.595C12.7113 46.1083 14.3213 46.365 16.2113 46.365C17.7513 46.365 19.1279 46.1667 20.3413 45.77C21.5546 45.35 22.5696 44.7667 23.3863 44.02C24.2263 43.25 24.8679 42.3283 25.3113 41.255C25.7546 40.1817 25.9763 38.9917 25.9763 37.685C25.9763 36.215 25.6379 35.0133 24.9613 34.08C24.2846 33.1467 23.3863 32.365 22.2663 31.735C21.1463 31.105 19.8746 30.5683 18.4513 30.125C17.0279 29.6817 15.5696 29.2267 14.0763 28.76C12.5829 28.27 11.1246 27.71 9.70125 27.08C8.27792 26.45 7.00625 25.6333 5.88625 24.63C4.76625 23.6033 3.86792 22.3317 3.19125 20.815C2.51458 19.275 2.17625 17.385 2.17625 15.145C2.17625 13.3483 2.52625 11.61 3.22625 9.93C3.92625 8.25 4.94125 6.76833 6.27125 5.485C7.62458 4.17833 9.28125 3.14 11.2413 2.37C13.2013 1.57666 15.4413 1.18 17.9613 1.18C20.7846 1.18 23.3746 1.635 25.7313 2.545C28.1113 3.43166 30.1763 4.715 31.9263 6.395L30.1063 9.93ZM67.9254 33.275L60.4704 13.78C59.9337 12.45 59.3971 10.77 58.8604 8.74C58.6037 9.74333 58.3354 10.6767 58.0554 11.54C57.7987 12.4033 57.5421 13.1733 57.2854 13.85L49.8654 33.275H67.9254ZM82.6604 52H76.9204C76.2671 52 75.7304 51.8367 75.3104 51.51C74.8904 51.1833 74.5871 50.7633 74.4004 50.25L69.9554 38.595H47.8004L43.3554 50.25C43.1921 50.6933 42.8887 51.1017 42.4454 51.475C42.0021 51.825 41.4654 52 40.8354 52H35.0954L55.1154 1.74H62.6404L82.6604 52ZM120.12 45.945L120.085 52H88.9352V1.74H120.085V7.795H96.4252V23.72H115.465V29.565H96.4252V45.945H120.12ZM147.291 46.085C149.181 46.085 150.791 45.8633 152.121 45.42C153.474 44.9767 154.571 44.37 155.411 43.6C156.274 42.83 156.904 41.92 157.301 40.87C157.697 39.7967 157.896 38.63 157.896 37.37C157.896 34.8733 157.032 32.9133 155.306 31.49C153.579 30.0433 150.907 29.32 147.291 29.32H136.791V46.085H147.291ZM136.791 7.585V24.035H145.366C149.029 24.035 151.747 23.3 153.521 21.83C155.317 20.3367 156.216 18.33 156.216 15.81C156.216 12.94 155.364 10.8517 153.661 9.545C151.957 8.23833 149.309 7.585 145.716 7.585H136.791ZM145.716 1.74C148.866 1.74 151.561 2.04333 153.801 2.65C156.064 3.25666 157.919 4.13166 159.366 5.275C160.812 6.41833 161.874 7.80667 162.551 9.44C163.251 11.05 163.601 12.8817 163.601 14.935C163.601 16.1483 163.414 17.315 163.041 18.435C162.667 19.555 162.096 20.605 161.326 21.585C160.556 22.5417 159.587 23.405 158.421 24.175C157.254 24.945 155.877 25.5867 154.291 26.1C161.594 27.5467 165.246 31.3617 165.246 37.545C165.246 39.6917 164.849 41.6517 164.056 43.425C163.262 45.175 162.107 46.6917 160.591 47.975C159.074 49.2583 157.207 50.25 154.991 50.95C152.774 51.65 150.254 52 147.431 52H129.336V1.74H145.716ZM172.835 47.905C172.835 47.275 172.951 46.68 173.185 46.12C173.418 45.56 173.733 45.07 174.13 44.65C174.55 44.23 175.04 43.9033 175.6 43.67C176.16 43.4133 176.766 43.285 177.42 43.285C178.05 43.285 178.645 43.4133 179.205 43.67C179.765 43.9033 180.255 44.23 180.675 44.65C181.095 45.07 181.421 45.56 181.655 46.12C181.911 46.68 182.04 47.275 182.04 47.905C182.04 48.5583 181.911 49.165 181.655 49.725C181.421 50.285 181.095 50.775 180.675 51.195C180.255 51.615 179.765 51.9417 179.205 52.175C178.645 52.4083 178.05 52.525 177.42 52.525C176.766 52.525 176.16 52.4083 175.6 52.175C175.04 51.9417 174.55 51.615 174.13 51.195C173.733 50.775 173.418 50.285 173.185 49.725C172.951 49.165 172.835 48.5583 172.835 47.905ZM172.835 22.005C172.835 21.375 172.951 20.78 173.185 20.22C173.418 19.66 173.733 19.17 174.13 18.75C174.55 18.33 175.04 18.0033 175.6 17.77C176.16 17.5133 176.766 17.385 177.42 17.385C178.05 17.385 178.645 17.5133 179.205 17.77C179.765 18.0033 180.255 18.33 180.675 18.75C181.095 19.17 181.421 19.66 181.655 20.22C181.911 20.78 182.04 21.375 182.04 22.005C182.04 22.6583 181.911 23.265 181.655 23.825C181.421 24.385 181.095 24.875 180.675 25.295C180.255 25.715 179.765 26.0417 179.205 26.275C178.645 26.5083 178.05 26.625 177.42 26.625C176.766 26.625 176.16 26.5083 175.6 26.275C175.04 26.0417 174.55 25.715 174.13 25.295C173.733 24.875 173.418 24.385 173.185 23.825C172.951 23.265 172.835 22.6583 172.835 22.005ZM242.282 7.97H226.322V52H218.902V7.97H202.872V1.74H242.282V7.97ZM263.19 30.265C263.19 28.9117 262.992 27.6633 262.595 26.52C262.222 25.3767 261.662 24.385 260.915 23.545C260.168 22.705 259.258 22.0517 258.185 21.585C257.112 21.1183 255.875 20.885 254.475 20.885C251.605 20.885 249.342 21.7133 247.685 23.37C246.052 25.0267 245.013 27.325 244.57 30.265H263.19ZM268.825 46.925C267.985 47.905 267.017 48.7567 265.92 49.48C264.823 50.18 263.657 50.7517 262.42 51.195C261.183 51.6383 259.9 51.965 258.57 52.175C257.263 52.385 255.968 52.49 254.685 52.49C252.235 52.49 249.96 52.0817 247.86 51.265C245.783 50.425 243.975 49.2117 242.435 47.625C240.918 46.015 239.728 44.0317 238.865 41.675C238.025 39.295 237.605 36.565 237.605 33.485C237.605 31.0117 237.99 28.7133 238.76 26.59C239.53 24.4433 240.627 22.5767 242.05 20.99C243.497 19.4033 245.258 18.155 247.335 17.245C249.412 16.335 251.745 15.88 254.335 15.88C256.505 15.88 258.5 16.2417 260.32 16.965C262.163 17.665 263.75 18.6917 265.08 20.045C266.41 21.3983 267.448 23.0667 268.195 25.05C268.965 27.0333 269.35 29.2967 269.35 31.84C269.35 32.89 269.233 33.6017 269 33.975C268.767 34.325 268.335 34.5 267.705 34.5H244.395C244.465 36.6233 244.768 38.4783 245.305 40.065C245.842 41.6283 246.577 42.935 247.51 43.985C248.467 45.035 249.598 45.8167 250.905 46.33C252.212 46.8433 253.67 47.1 255.28 47.1C256.797 47.1 258.103 46.925 259.2 46.575C260.32 46.225 261.277 45.8517 262.07 45.455C262.887 45.035 263.563 44.65 264.1 44.3C264.66 43.95 265.15 43.775 265.57 43.775C266.13 43.775 266.562 43.985 266.865 44.405L268.825 46.925ZM283.126 23.265C284.269 20.9317 285.646 19.1 287.256 17.77C288.866 16.44 290.802 15.775 293.066 15.775C293.836 15.775 294.559 15.8683 295.236 16.055C295.936 16.2183 296.542 16.475 297.056 16.825L296.601 21.97C296.437 22.6 296.052 22.915 295.446 22.915C295.119 22.915 294.629 22.8567 293.976 22.74C293.322 22.6 292.622 22.53 291.876 22.53C290.779 22.53 289.811 22.6933 288.971 23.02C288.131 23.3233 287.372 23.79 286.696 24.42C286.042 25.0267 285.459 25.785 284.946 26.695C284.432 27.5817 283.954 28.5967 283.511 29.74V52H276.686V16.44H280.606C281.352 16.44 281.854 16.58 282.111 16.86C282.391 17.1167 282.589 17.5833 282.706 18.26L283.126 23.265ZM308.76 23.265C309.904 20.9317 311.28 19.1 312.89 17.77C314.5 16.44 316.437 15.775 318.7 15.775C319.47 15.775 320.194 15.8683 320.87 16.055C321.57 16.2183 322.177 16.475 322.69 16.825L322.235 21.97C322.072 22.6 321.687 22.915 321.08 22.915C320.754 22.915 320.264 22.8567 319.61 22.74C318.957 22.6 318.257 22.53 317.51 22.53C316.414 22.53 315.445 22.6933 314.605 23.02C313.765 23.3233 313.007 23.79 312.33 24.42C311.677 25.0267 311.094 25.785 310.58 26.695C310.067 27.5817 309.589 28.5967 309.145 29.74V52H302.32V16.44H306.24C306.987 16.44 307.489 16.58 307.745 16.86C308.025 17.1167 308.224 17.5833 308.34 18.26L308.76 23.265ZM335.095 16.44V52H328.27V16.44H335.095ZM336.39 5.45C336.39 6.08 336.262 6.68666 336.005 7.27C335.748 7.83 335.398 8.33166 334.955 8.775C334.535 9.195 334.033 9.53333 333.45 9.79C332.867 10.0233 332.26 10.14 331.63 10.14C331 10.14 330.405 10.0233 329.845 9.79C329.285 9.53333 328.783 9.195 328.34 8.775C327.92 8.33166 327.582 7.83 327.325 7.27C327.092 6.68666 326.975 6.08 326.975 5.45C326.975 4.79667 327.092 4.19 327.325 3.63C327.582 3.04666 327.92 2.545 328.34 2.125C328.783 1.68166 329.285 1.34333 329.845 1.11C330.405 0.853331 331 0.724999 331.63 0.724999C332.26 0.724999 332.867 0.853331 333.45 1.11C334.033 1.34333 334.535 1.68166 334.955 2.125C335.398 2.545 335.748 3.04666 336.005 3.63C336.262 4.19 336.39 4.79667 336.39 5.45ZM356.107 52.56C353.237 52.56 351.02 51.755 349.457 50.145C347.917 48.535 347.147 46.2367 347.147 43.25V21.97H343.017C342.62 21.97 342.282 21.8533 342.002 21.62C341.745 21.3633 341.617 20.99 341.617 20.5V17.735L347.392 16.93L348.932 6.325C349.025 5.92833 349.2 5.625 349.457 5.415C349.737 5.18166 350.087 5.065 350.507 5.065H353.972V17H364.052V21.97H353.972V42.795C353.972 44.195 354.31 45.245 354.987 45.945C355.687 46.6217 356.573 46.96 357.647 46.96C358.277 46.96 358.813 46.8783 359.257 46.715C359.723 46.5517 360.12 46.3767 360.447 46.19C360.773 45.98 361.053 45.7933 361.287 45.63C361.52 45.4667 361.73 45.385 361.917 45.385C362.15 45.385 362.325 45.4433 362.442 45.56C362.582 45.6533 362.722 45.8167 362.862 46.05L364.892 49.34C363.772 50.3667 362.442 51.16 360.902 51.72C359.362 52.28 357.763 52.56 356.107 52.56ZM385.288 15.88C387.901 15.88 390.258 16.3117 392.358 17.175C394.481 18.015 396.278 19.24 397.748 20.85C399.241 22.4367 400.385 24.3617 401.178 26.625C401.971 28.865 402.368 31.385 402.368 34.185C402.368 36.985 401.971 39.5167 401.178 41.78C400.385 44.0433 399.241 45.9683 397.748 47.555C396.278 49.1417 394.481 50.3667 392.358 51.23C390.258 52.07 387.901 52.49 385.288 52.49C382.651 52.49 380.271 52.07 378.148 51.23C376.048 50.3667 374.251 49.1417 372.758 47.555C371.265 45.9683 370.11 44.0433 369.293 41.78C368.5 39.5167 368.103 36.985 368.103 34.185C368.103 31.385 368.5 28.865 369.293 26.625C370.11 24.3617 371.265 22.4367 372.758 20.85C374.251 19.24 376.048 18.015 378.148 17.175C380.271 16.3117 382.651 15.88 385.288 15.88ZM385.288 47.17C388.648 47.17 391.156 46.0383 392.813 43.775C394.47 41.5117 395.298 38.3267 395.298 34.22C395.298 30.1133 394.47 26.9283 392.813 24.665C391.156 22.3783 388.648 21.235 385.288 21.235C381.881 21.235 379.338 22.3783 377.658 24.665C376.001 26.9283 375.173 30.1133 375.173 34.22C375.173 38.3267 376.001 41.5117 377.658 43.775C379.338 46.0383 381.881 47.17 385.288 47.17ZM395.998 1.18L387.703 10.21C387.353 10.6067 387.015 10.8867 386.688 11.05C386.361 11.19 385.93 11.26 385.393 11.26H381.263L386.443 2.79C386.77 2.25333 387.12 1.85667 387.493 1.6C387.89 1.32 388.496 1.18 389.313 1.18H395.998ZM416.426 23.265C417.57 20.9317 418.946 19.1 420.556 17.77C422.166 16.44 424.103 15.775 426.366 15.775C427.136 15.775 427.86 15.8683 428.536 16.055C429.236 16.2183 429.843 16.475 430.356 16.825L429.901 21.97C429.738 22.6 429.353 22.915 428.746 22.915C428.42 22.915 427.93 22.8567 427.276 22.74C426.623 22.6 425.923 22.53 425.176 22.53C424.08 22.53 423.111 22.6933 422.271 23.02C421.431 23.3233 420.673 23.79 419.996 24.42C419.343 25.0267 418.76 25.785 418.246 26.695C417.733 27.5817 417.255 28.5967 416.811 29.74V52H409.986V16.44H413.906C414.653 16.44 415.155 16.58 415.411 16.86C415.691 17.1167 415.89 17.5833 416.006 18.26L416.426 23.265ZM442.761 16.44V52H435.936V16.44H442.761ZM444.056 5.45C444.056 6.08 443.928 6.68666 443.671 7.27C443.415 7.83 443.065 8.33166 442.621 8.775C442.201 9.195 441.7 9.53333 441.116 9.79C440.533 10.0233 439.926 10.14 439.296 10.14C438.666 10.14 438.071 10.0233 437.511 9.79C436.951 9.53333 436.45 9.195 436.006 8.775C435.586 8.33166 435.248 7.83 434.991 7.27C434.758 6.68666 434.641 6.08 434.641 5.45C434.641 4.79667 434.758 4.19 434.991 3.63C435.248 3.04666 435.586 2.545 436.006 2.125C436.45 1.68166 436.951 1.34333 437.511 1.11C438.071 0.853331 438.666 0.724999 439.296 0.724999C439.926 0.724999 440.533 0.853331 441.116 1.11C441.7 1.34333 442.201 1.68166 442.621 2.125C443.065 2.545 443.415 3.04666 443.671 3.63C443.928 4.19 444.056 4.79667 444.056 5.45ZM467.798 15.88C470.411 15.88 472.768 16.3117 474.868 17.175C476.991 18.015 478.788 19.24 480.258 20.85C481.751 22.4367 482.894 24.3617 483.688 26.625C484.481 28.865 484.878 31.385 484.878 34.185C484.878 36.985 484.481 39.5167 483.688 41.78C482.894 44.0433 481.751 45.9683 480.258 47.555C478.788 49.1417 476.991 50.3667 474.868 51.23C472.768 52.07 470.411 52.49 467.798 52.49C465.161 52.49 462.781 52.07 460.658 51.23C458.558 50.3667 456.761 49.1417 455.268 47.555C453.774 45.9683 452.619 44.0433 451.803 41.78C451.009 39.5167 450.613 36.985 450.613 34.185C450.613 31.385 451.009 28.865 451.803 26.625C452.619 24.3617 453.774 22.4367 455.268 20.85C456.761 19.24 458.558 18.015 460.658 17.175C462.781 16.3117 465.161 15.88 467.798 15.88ZM467.798 47.17C471.158 47.17 473.666 46.0383 475.323 43.775C476.979 41.5117 477.808 38.3267 477.808 34.22C477.808 30.1133 476.979 26.9283 475.323 24.665C473.666 22.3783 471.158 21.235 467.798 21.235C464.391 21.235 461.848 22.3783 460.168 24.665C458.511 26.9283 457.683 30.1133 457.683 34.22C457.683 38.3267 458.511 41.5117 460.168 43.775C461.848 46.0383 464.391 47.17 467.798 47.17ZM513.461 22.565C513.275 22.8683 513.076 23.09 512.866 23.23C512.656 23.3467 512.388 23.405 512.061 23.405C511.688 23.405 511.268 23.2767 510.801 23.02C510.358 22.7633 509.81 22.4833 509.156 22.18C508.526 21.8767 507.78 21.5967 506.916 21.34C506.053 21.0833 505.026 20.955 503.836 20.955C502.856 20.955 501.958 21.0833 501.141 21.34C500.348 21.5733 499.671 21.9117 499.111 22.355C498.551 22.775 498.12 23.2883 497.816 23.895C497.513 24.4783 497.361 25.1083 497.361 25.785C497.361 26.6717 497.618 27.4067 498.131 27.99C498.668 28.5733 499.356 29.075 500.196 29.495C501.06 29.915 502.028 30.3 503.101 30.65C504.198 30.9767 505.306 31.3267 506.426 31.7C507.57 32.0733 508.678 32.505 509.751 32.995C510.848 33.4617 511.816 34.0567 512.656 34.78C513.52 35.48 514.208 36.3317 514.721 37.335C515.258 38.3383 515.526 39.5633 515.526 41.01C515.526 42.6667 515.223 44.2067 514.616 45.63C514.033 47.03 513.158 48.2433 511.991 49.27C510.848 50.2967 509.425 51.1017 507.721 51.685C506.018 52.2683 504.07 52.56 501.876 52.56C499.426 52.56 497.163 52.1517 495.086 51.335C493.01 50.5183 491.271 49.48 489.871 48.22L491.481 45.595C491.668 45.2683 491.901 45.0233 492.181 44.86C492.461 44.6733 492.835 44.58 493.301 44.58C493.745 44.58 494.2 44.7433 494.666 45.07C495.133 45.3967 495.693 45.7583 496.346 46.155C497 46.5283 497.793 46.8783 498.726 47.205C499.66 47.5083 500.826 47.66 502.226 47.66C503.393 47.66 504.408 47.52 505.271 47.24C506.135 46.9367 506.846 46.54 507.406 46.05C507.99 45.5367 508.421 44.9533 508.701 44.3C508.981 43.6467 509.121 42.9583 509.121 42.235C509.121 41.3017 508.853 40.5317 508.316 39.925C507.803 39.295 507.115 38.7583 506.251 38.315C505.411 37.8717 504.443 37.4867 503.346 37.16C502.25 36.8333 501.13 36.4833 499.986 36.11C498.843 35.7367 497.723 35.305 496.626 34.815C495.53 34.325 494.55 33.7067 493.686 32.96C492.846 32.2133 492.158 31.3033 491.621 30.23C491.108 29.1567 490.851 27.85 490.851 26.31C490.851 24.9333 491.131 23.615 491.691 22.355C492.275 21.095 493.103 19.9867 494.176 19.03C495.273 18.0733 496.615 17.315 498.201 16.755C499.811 16.1717 501.643 15.88 503.696 15.88C506.053 15.88 508.176 16.2533 510.066 17C511.98 17.7467 513.613 18.7733 514.966 20.08L513.461 22.565ZM549.511 7.795V24.63H569.671V30.685H549.511V52H542.021V1.74H573.171V7.795H549.511ZM592.28 15.88C594.893 15.88 597.25 16.3117 599.35 17.175C601.473 18.015 603.27 19.24 604.74 20.85C606.233 22.4367 607.377 24.3617 608.17 26.625C608.963 28.865 609.36 31.385 609.36 34.185C609.36 36.985 608.963 39.5167 608.17 41.78C607.377 44.0433 606.233 45.9683 604.74 47.555C603.27 49.1417 601.473 50.3667 599.35 51.23C597.25 52.07 594.893 52.49 592.28 52.49C589.643 52.49 587.263 52.07 585.14 51.23C583.04 50.3667 581.243 49.1417 579.75 47.555C578.257 45.9683 577.102 44.0433 576.285 41.78C575.492 39.5167 575.095 36.985 575.095 34.185C575.095 31.385 575.492 28.865 576.285 26.625C577.102 24.3617 578.257 22.4367 579.75 20.85C581.243 19.24 583.04 18.015 585.14 17.175C587.263 16.3117 589.643 15.88 592.28 15.88ZM592.28 47.17C595.64 47.17 598.148 46.0383 599.805 43.775C601.462 41.5117 602.29 38.3267 602.29 34.22C602.29 30.1133 601.462 26.9283 599.805 24.665C598.148 22.3783 595.64 21.235 592.28 21.235C588.873 21.235 586.33 22.3783 584.65 24.665C582.993 26.9283 582.165 30.1133 582.165 34.22C582.165 38.3267 582.993 41.5117 584.65 43.775C586.33 46.0383 588.873 47.17 592.28 47.17ZM623.419 23.265C624.562 20.9317 625.939 19.1 627.549 17.77C629.159 16.44 631.095 15.775 633.359 15.775C634.129 15.775 634.852 15.8683 635.529 16.055C636.229 16.2183 636.835 16.475 637.349 16.825L636.894 21.97C636.73 22.6 636.345 22.915 635.739 22.915C635.412 22.915 634.922 22.8567 634.269 22.74C633.615 22.6 632.915 22.53 632.169 22.53C631.072 22.53 630.104 22.6933 629.264 23.02C628.424 23.3233 627.665 23.79 626.989 24.42C626.335 25.0267 625.752 25.785 625.239 26.695C624.725 27.5817 624.247 28.5967 623.804 29.74V52H616.979V16.44H620.899C621.645 16.44 622.147 16.58 622.404 16.86C622.684 17.1167 622.882 17.5833 622.999 18.26L623.419 23.265ZM642.613 52V16.44H646.708C647.665 16.44 648.26 16.895 648.493 17.805L648.983 21.2C650.29 19.6367 651.737 18.365 653.323 17.385C654.933 16.3817 656.812 15.88 658.958 15.88C661.315 15.88 663.228 16.5333 664.698 17.84C666.168 19.1233 667.242 20.8733 667.918 23.09C668.432 21.83 669.097 20.745 669.913 19.835C670.73 18.925 671.64 18.1783 672.643 17.595C673.647 17.0117 674.708 16.58 675.828 16.3C676.972 16.02 678.127 15.88 679.293 15.88C681.183 15.88 682.863 16.1833 684.333 16.79C685.827 17.3733 687.087 18.2367 688.113 19.38C689.14 20.5233 689.922 21.935 690.458 23.615C690.995 25.295 691.263 27.2083 691.263 29.355V52H684.403V29.355C684.403 26.695 683.82 24.6883 682.653 23.335C681.51 21.9817 679.83 21.305 677.613 21.305C676.633 21.305 675.7 21.48 674.813 21.83C673.927 22.1567 673.145 22.6583 672.468 23.335C671.815 24.0117 671.29 24.8517 670.893 25.855C670.52 26.8583 670.333 28.025 670.333 29.355V52H663.473V29.355C663.473 26.6017 662.925 24.5717 661.828 23.265C660.732 21.9583 659.122 21.305 656.998 21.305C655.528 21.305 654.163 21.69 652.903 22.46C651.643 23.23 650.488 24.28 649.438 25.61V52H642.613ZM719.555 36.215C716.779 36.3083 714.422 36.53 712.485 36.88C710.549 37.2067 708.974 37.65 707.76 38.21C706.547 38.77 705.672 39.435 705.135 40.205C704.599 40.9517 704.33 41.7917 704.33 42.725C704.33 43.6117 704.47 44.3817 704.75 45.035C705.054 45.665 705.45 46.19 705.94 46.61C706.454 47.0067 707.049 47.2983 707.725 47.485C708.402 47.6717 709.137 47.765 709.93 47.765C710.98 47.765 711.937 47.66 712.8 47.45C713.687 47.24 714.515 46.9483 715.285 46.575C716.055 46.1783 716.79 45.7 717.49 45.14C718.19 44.58 718.879 43.9383 719.555 43.215V36.215ZM699.535 21.41C701.519 19.52 703.665 18.1083 705.975 17.175C708.309 16.2417 710.864 15.775 713.64 15.775C715.67 15.775 717.467 16.1133 719.03 16.79C720.594 17.4433 721.912 18.365 722.985 19.555C724.059 20.745 724.864 22.1683 725.4 23.825C725.96 25.4817 726.24 27.3133 726.24 29.32V52H723.195C722.519 52 722.005 51.895 721.655 51.685C721.305 51.4517 721.025 51.0317 720.815 50.425L720.08 47.31C719.17 48.15 718.272 48.8967 717.385 49.55C716.499 50.18 715.565 50.7283 714.585 51.195C713.629 51.6383 712.602 51.9767 711.505 52.21C710.409 52.4433 709.195 52.56 707.865 52.56C706.465 52.56 705.147 52.3733 703.91 52C702.697 51.6033 701.635 51.0083 700.725 50.215C699.815 49.4217 699.092 48.43 698.555 47.24C698.042 46.05 697.785 44.6617 697.785 43.075C697.785 41.675 698.159 40.3333 698.905 39.05C699.675 37.7433 700.912 36.5767 702.615 35.55C704.342 34.5233 706.582 33.6833 709.335 33.03C712.112 32.3767 715.519 32.0033 719.555 31.91V29.32C719.555 26.6367 718.984 24.63 717.84 23.3C716.697 21.97 715.017 21.305 712.8 21.305C711.307 21.305 710.047 21.4917 709.02 21.865C708.017 22.2383 707.142 22.6583 706.395 23.125C705.672 23.5683 705.03 23.9767 704.47 24.35C703.934 24.7233 703.374 24.91 702.79 24.91C702.324 24.91 701.915 24.7817 701.565 24.525C701.239 24.2683 700.97 23.965 700.76 23.615L699.535 21.41ZM741.817 23.265C742.96 20.9317 744.337 19.1 745.947 17.77C747.557 16.44 749.494 15.775 751.757 15.775C752.527 15.775 753.25 15.8683 753.927 16.055C754.627 16.2183 755.234 16.475 755.747 16.825L755.292 21.97C755.129 22.6 754.744 22.915 754.137 22.915C753.81 22.915 753.32 22.8567 752.667 22.74C752.014 22.6 751.314 22.53 750.567 22.53C749.47 22.53 748.502 22.6933 747.662 23.02C746.822 23.3233 746.064 23.79 745.387 24.42C744.734 25.0267 744.15 25.785 743.637 26.695C743.124 27.5817 742.645 28.5967 742.202 29.74V52H735.377V16.44H739.297C740.044 16.44 740.545 16.58 740.802 16.86C741.082 17.1167 741.28 17.5833 741.397 18.26L741.817 23.265ZM800.768 30.265C800.768 28.9117 800.57 27.6633 800.173 26.52C799.8 25.3767 799.24 24.385 798.493 23.545C797.746 22.705 796.836 22.0517 795.763 21.585C794.69 21.1183 793.453 20.885 792.053 20.885C789.183 20.885 786.92 21.7133 785.263 23.37C783.63 25.0267 782.591 27.325 782.148 30.265H800.768ZM806.403 46.925C805.563 47.905 804.595 48.7567 803.498 49.48C802.401 50.18 801.235 50.7517 799.998 51.195C798.761 51.6383 797.478 51.965 796.148 52.175C794.841 52.385 793.546 52.49 792.263 52.49C789.813 52.49 787.538 52.0817 785.438 51.265C783.361 50.425 781.553 49.2117 780.013 47.625C778.496 46.015 777.306 44.0317 776.443 41.675C775.603 39.295 775.183 36.565 775.183 33.485C775.183 31.0117 775.568 28.7133 776.338 26.59C777.108 24.4433 778.205 22.5767 779.628 20.99C781.075 19.4033 782.836 18.155 784.913 17.245C786.99 16.335 789.323 15.88 791.913 15.88C794.083 15.88 796.078 16.2417 797.898 16.965C799.741 17.665 801.328 18.6917 802.658 20.045C803.988 21.3983 805.026 23.0667 805.773 25.05C806.543 27.0333 806.928 29.2967 806.928 31.84C806.928 32.89 806.811 33.6017 806.578 33.975C806.345 34.325 805.913 34.5 805.283 34.5H781.973C782.043 36.6233 782.346 38.4783 782.883 40.065C783.42 41.6283 784.155 42.935 785.088 43.985C786.045 45.035 787.176 45.8167 788.483 46.33C789.79 46.8433 791.248 47.1 792.858 47.1C794.375 47.1 795.681 46.925 796.778 46.575C797.898 46.225 798.855 45.8517 799.648 45.455C800.465 45.035 801.141 44.65 801.678 44.3C802.238 43.95 802.728 43.775 803.148 43.775C803.708 43.775 804.14 43.985 804.443 44.405L806.403 46.925ZM868.474 41.22C868.894 41.22 869.255 41.3833 869.559 41.71L872.499 44.93C870.445 47.3567 867.937 49.235 864.974 50.565C862.034 51.895 858.487 52.56 854.334 52.56C850.694 52.56 847.392 51.93 844.429 50.67C841.489 49.41 838.969 47.6483 836.869 45.385C834.792 43.1217 833.182 40.415 832.039 37.265C830.895 34.115 830.324 30.65 830.324 26.87C830.324 23.09 830.919 19.625 832.109 16.475C833.322 13.325 835.014 10.6183 837.184 8.355C839.354 6.09166 841.944 4.33 844.954 3.07C847.987 1.81 851.335 1.18 854.999 1.18C858.569 1.18 861.742 1.76333 864.519 2.93C867.295 4.09666 869.71 5.64833 871.764 7.585L869.314 11.05C869.15 11.3067 868.94 11.5167 868.684 11.68C868.45 11.8433 868.135 11.925 867.739 11.925C867.295 11.925 866.77 11.7033 866.164 11.26C865.58 10.8167 864.799 10.3267 863.819 9.79C862.862 9.23 861.672 8.72833 860.249 8.285C858.825 7.84167 857.052 7.62 854.929 7.62C852.432 7.62 850.145 8.06333 848.069 8.95C845.992 9.81333 844.195 11.0733 842.679 12.73C841.185 14.3633 840.019 16.3817 839.179 18.785C838.362 21.165 837.954 23.86 837.954 26.87C837.954 29.9267 838.385 32.645 839.249 35.025C840.112 37.405 841.302 39.4233 842.819 41.08C844.335 42.7367 846.12 43.9967 848.174 44.86C850.227 45.7233 852.444 46.155 854.824 46.155C856.27 46.155 857.565 46.0733 858.709 45.91C859.875 45.7233 860.937 45.455 861.894 45.105C862.874 44.755 863.795 44.3117 864.659 43.775C865.522 43.215 866.374 42.55 867.214 41.78C867.4 41.6167 867.599 41.4883 867.809 41.395C868.019 41.2783 868.24 41.22 868.474 41.22ZM901.461 30.265C901.461 28.9117 901.263 27.6633 900.866 26.52C900.493 25.3767 899.933 24.385 899.186 23.545C898.44 22.705 897.53 22.0517 896.456 21.585C895.383 21.1183 894.146 20.885 892.746 20.885C889.876 20.885 887.613 21.7133 885.956 23.37C884.323 25.0267 883.285 27.325 882.841 30.265H901.461ZM907.096 46.925C906.256 47.905 905.288 48.7567 904.191 49.48C903.095 50.18 901.928 50.7517 900.691 51.195C899.455 51.6383 898.171 51.965 896.841 52.175C895.535 52.385 894.24 52.49 892.956 52.49C890.506 52.49 888.231 52.0817 886.131 51.265C884.055 50.425 882.246 49.2117 880.706 47.625C879.19 46.015 878 44.0317 877.136 41.675C876.296 39.295 875.876 36.565 875.876 33.485C875.876 31.0117 876.261 28.7133 877.031 26.59C877.801 24.4433 878.898 22.5767 880.321 20.99C881.768 19.4033 883.53 18.155 885.606 17.245C887.683 16.335 890.016 15.88 892.606 15.88C894.776 15.88 896.771 16.2417 898.591 16.965C900.435 17.665 902.021 18.6917 903.351 20.045C904.681 21.3983 905.72 23.0667 906.466 25.05C907.236 27.0333 907.621 29.2967 907.621 31.84C907.621 32.89 907.505 33.6017 907.271 33.975C907.038 34.325 906.606 34.5 905.976 34.5H882.666C882.736 36.6233 883.04 38.4783 883.576 40.065C884.113 41.6283 884.848 42.935 885.781 43.985C886.738 45.035 887.87 45.8167 889.176 46.33C890.483 46.8433 891.941 47.1 893.551 47.1C895.068 47.1 896.375 46.925 897.471 46.575C898.591 46.225 899.548 45.8517 900.341 45.455C901.158 45.035 901.835 44.65 902.371 44.3C902.931 43.95 903.421 43.775 903.841 43.775C904.401 43.775 904.833 43.985 905.136 44.405L907.096 46.925ZM921.362 21.375C922.132 20.5583 922.937 19.8117 923.777 19.135C924.617 18.4583 925.504 17.8867 926.437 17.42C927.394 16.93 928.409 16.5567 929.482 16.3C930.579 16.02 931.745 15.88 932.982 15.88C934.942 15.88 936.657 16.2067 938.127 16.86C939.62 17.5133 940.869 18.435 941.872 19.625C942.875 20.7917 943.634 22.2033 944.147 23.86C944.66 25.5167 944.917 27.3483 944.917 29.355V52H938.057V29.355C938.057 26.8117 937.474 24.84 936.307 23.44C935.14 22.0167 933.355 21.305 930.952 21.305C929.202 21.305 927.557 21.725 926.017 22.565C924.5 23.3817 923.089 24.5017 921.782 25.925V52H914.957V16.44H919.052C920.009 16.44 920.604 16.895 920.837 17.805L921.362 21.375ZM960.952 43.25C962.072 44.72 963.274 45.7467 964.557 46.33C965.864 46.9133 967.322 47.205 968.932 47.205C972.059 47.205 974.474 46.085 976.177 43.845C977.904 41.5817 978.767 38.2917 978.767 33.975C978.767 31.7117 978.569 29.7867 978.172 28.2C977.799 26.59 977.239 25.2833 976.492 24.28C975.769 23.2533 974.87 22.5067 973.797 22.04C972.724 21.55 971.51 21.305 970.157 21.305C968.174 21.305 966.447 21.7483 964.977 22.635C963.53 23.5217 962.189 24.7817 960.952 26.415V43.25ZM960.602 21.76C961.349 20.8733 962.142 20.0683 962.982 19.345C963.845 18.5983 964.767 17.9683 965.747 17.455C966.727 16.9183 967.765 16.51 968.862 16.23C969.982 15.9267 971.172 15.775 972.432 15.775C974.462 15.775 976.294 16.1717 977.927 16.965C979.584 17.7583 980.995 18.925 982.162 20.465C983.329 22.005 984.227 23.9067 984.857 26.17C985.51 28.4333 985.837 31.035 985.837 33.975C985.837 36.6117 985.475 39.0617 984.752 41.325C984.052 43.565 983.037 45.5133 981.707 47.17C980.4 48.8267 978.79 50.1333 976.877 51.09C974.987 52.0233 972.852 52.49 970.472 52.49C968.349 52.49 966.529 52.14 965.012 51.44C963.495 50.74 962.142 49.76 960.952 48.5V63.935H954.127V16.44H958.222C959.179 16.44 959.774 16.895 960.007 17.805L960.602 21.76ZM999.942 23.265C1001.09 20.9317 1002.46 19.1 1004.07 17.77C1005.68 16.44 1007.62 15.775 1009.88 15.775C1010.65 15.775 1011.38 15.8683 1012.05 16.055C1012.75 16.2183 1013.36 16.475 1013.87 16.825L1013.42 21.97C1013.25 22.6 1012.87 22.915 1012.26 22.915C1011.94 22.915 1011.45 22.8567 1010.79 22.74C1010.14 22.6 1009.44 22.53 1008.69 22.53C1007.6 22.53 1006.63 22.6933 1005.79 23.02C1004.95 23.3233 1004.19 23.79 1003.51 24.42C1002.86 25.0267 1002.28 25.785 1001.76 26.695C1001.25 27.5817 1000.77 28.5967 1000.33 29.74V52H993.502V16.44H997.422C998.169 16.44 998.67 16.58 998.927 16.86C999.207 17.1167 999.405 17.5833 999.522 18.26L999.942 23.265ZM1041.39 30.265C1041.39 28.9117 1041.19 27.6633 1040.8 26.52C1040.42 25.3767 1039.86 24.385 1039.12 23.545C1038.37 22.705 1037.46 22.0517 1036.39 21.585C1035.31 21.1183 1034.08 20.885 1032.68 20.885C1029.81 20.885 1027.54 21.7133 1025.89 23.37C1024.25 25.0267 1023.22 27.325 1022.77 30.265H1041.39ZM1047.03 46.925C1046.19 47.905 1045.22 48.7567 1044.12 49.48C1043.03 50.18 1041.86 50.7517 1040.62 51.195C1039.39 51.6383 1038.1 51.965 1036.77 52.175C1035.47 52.385 1034.17 52.49 1032.89 52.49C1030.44 52.49 1028.16 52.0817 1026.06 51.265C1023.99 50.425 1022.18 49.2117 1020.64 47.625C1019.12 46.015 1017.93 44.0317 1017.07 41.675C1016.23 39.295 1015.81 36.565 1015.81 33.485C1015.81 31.0117 1016.19 28.7133 1016.96 26.59C1017.73 24.4433 1018.83 22.5767 1020.25 20.99C1021.7 19.4033 1023.46 18.155 1025.54 17.245C1027.61 16.335 1029.95 15.88 1032.54 15.88C1034.71 15.88 1036.7 16.2417 1038.52 16.965C1040.37 17.665 1041.95 18.6917 1043.28 20.045C1044.61 21.3983 1045.65 23.0667 1046.4 25.05C1047.17 27.0333 1047.55 29.2967 1047.55 31.84C1047.55 32.89 1047.44 33.6017 1047.2 33.975C1046.97 34.325 1046.54 34.5 1045.91 34.5H1022.6C1022.67 36.6233 1022.97 38.4783 1023.51 40.065C1024.04 41.6283 1024.78 42.935 1025.71 43.985C1026.67 45.035 1027.8 45.8167 1029.11 46.33C1030.41 46.8433 1031.87 47.1 1033.48 47.1C1035 47.1 1036.31 46.925 1037.4 46.575C1038.52 46.225 1039.48 45.8517 1040.27 45.455C1041.09 45.035 1041.77 44.65 1042.3 44.3C1042.86 43.95 1043.35 43.775 1043.77 43.775C1044.33 43.775 1044.76 43.985 1045.07 44.405L1047.03 46.925Z" fill="#4C5773"/>
</svg>
